<svg id="Layer_1" data-name="Layer 1" xmlns="http://www.w3.org/2000/svg" xmlns:xlink="http://www.w3.org/1999/xlink" viewBox="0 0 100 100"><defs><style>.cls-1{fill:url(#linear-gradient);}.cls-2{fill:url(#linear-gradient-2);}.cls-3{fill:url(#linear-gradient-3);}.cls-4{fill:url(#linear-gradient-4);}.cls-5{fill:url(#linear-gradient-5);}.cls-6{fill:url(#linear-gradient-6);}.cls-7{fill:url(#linear-gradient-7);}</style><linearGradient id="linear-gradient" x1="40.37" y1="55.5" x2="97.5" y2="55.5" gradientUnits="userSpaceOnUse"><stop offset="0" stop-color="#1277bb"/><stop offset="1" stop-color="#2eb8a3"/></linearGradient><linearGradient id="linear-gradient-2" x1="40.87" y1="55.52" x2="90.65" y2="55.52" xlink:href="#linear-gradient"/><linearGradient id="linear-gradient-3" x1="6.99" y1="40.09" x2="40.37" y2="40.09" xlink:href="#linear-gradient"/><linearGradient id="linear-gradient-4" x1="13.84" y1="50.37" x2="37.8" y2="50.37" xlink:href="#linear-gradient"/><linearGradient id="linear-gradient-5" x1="1" y1="70.91" x2="37.8" y2="70.91" xlink:href="#linear-gradient"/><linearGradient id="linear-gradient-6" x1="6.99" y1="58.07" x2="21.54" y2="58.07" xlink:href="#linear-gradient"/><linearGradient id="linear-gradient-7" x1="61.57" y1="56.03" x2="72.36" y2="56.03" xlink:href="#linear-gradient"/></defs><title>Artboard 4 copy</title><path class="cls-1" d="M85.17,84.5H40.37v-3H85.17c5.14,0,9.33-4.71,9.33-10.49V40c0-5.79-4.18-10.49-9.33-10.49H40.37v-3H85.17C92,26.5,97.5,32.55,97.5,40V71C97.5,78.45,92,84.5,85.17,84.5Z"/><path class="cls-2" d="M40.87,74.59,53,36.46H83.25l-.32,1.77a11.31,11.31,0,0,0,6.85,12.06l.88.4v8.79l-.89.4C89.49,60,83,63.08,83,72.19v1.47ZM55.16,39.46,45,71.5l35-.78A16.13,16.13,0,0,1,87.65,57.6v-5a14.19,14.19,0,0,1-7.81-13.13Z"/><rect class="cls-3" x="6.99" y="38.59" width="33.38" height="3"/><rect class="cls-4" x="13.84" y="48.87" width="23.96" height="3"/><rect class="cls-5" x="1" y="69.41" width="36.8" height="3"/><rect class="cls-6" x="6.99" y="56.57" width="14.55" height="3"/><path class="cls-7" d="M65.8,66.71V64.18A8.74,8.74,0,0,1,61.57,63l.71-2.46a8.23,8.23,0,0,0,4.08,1.15c1.65,0,2.77-.81,2.77-2.06S68.2,57.73,66.27,57c-2.74-1-4.52-2.25-4.52-4.68,0-2.25,1.57-4,4.21-4.44V45.35H68.1v2.43a8.35,8.35,0,0,1,3.61.86L71,51a7.77,7.77,0,0,0-3.55-.89c-1.83,0-2.48.94-2.48,1.83,0,1.07.94,1.67,3.16,2.56,2.93,1.1,4.23,2.51,4.23,4.83S70.81,63.55,67.94,64v2.69Z"/></svg>