<?xml version="1.0" encoding="UTF-8"?>
<svg width="111px" height="19px" viewBox="0 0 111 19" version="1.1" xmlns="http://www.w3.org/2000/svg" xmlns:xlink="http://www.w3.org/1999/xlink">
    <!-- Generator: Sketch 50.2 (55047) - http://www.bohemiancoding.com/sketch -->
    <title>Page 1</title>
    <desc>Created with Sketch.</desc>
    <defs></defs>
    <g id="Page-1" stroke="none" stroke-width="1" fill="none" fill-rule="evenodd" opacity="0.899999976">
        <g id="LP_version1" transform="translate(-355.000000, -4726.000000)">
            <g id="Group-6" transform="translate(247.000000, 4207.000000)">
                <g id="Group-31" transform="translate(0.000000, 284.000000)">
                    <g id="Group-30">
                        <g id="Page-1" transform="translate(108.000000, 235.000000)">
                            <path d="M83.913542,4.8338224 C85.342282,4.76665449 86.6797926,5.05207447 87.8309344,5.95064144 C88.4596356,6.44140328 88.9248189,7.0689434 89.1736581,7.83666381 C89.3855711,8.49028601 89.129868,9.01480627 88.4950848,9.28059926 C88.2816079,9.37001108 88.0717802,9.46901831 87.8553492,9.55049211 C87.2999791,9.75949768 86.7956106,9.61190276 86.5164485,9.09811192 C86.186111,8.49011155 85.8044244,7.95599588 85.0893593,7.79924169 C84.1863615,7.60131446 83.2758048,7.56415403 82.3950496,7.89179383 C81.8516697,8.09399539 81.7161288,8.36711578 81.7306386,8.97729692 C81.7423681,9.47076293 81.9414221,9.74972781 82.4630807,9.9315173 C83.3063015,10.2252242 84.1993943,10.2110928 85.0718085,10.3155956 C85.9857537,10.4249833 86.8821482,10.6011028 87.6885296,11.0484236 C89.0167435,11.7850897 89.6770709,13.3102373 89.4313596,14.8740282 C89.1249155,16.8239909 87.9631737,17.8444196 86.0740291,18.2851109 C84.3559614,18.6859375 82.6170413,18.6514813 80.9701326,17.8939669 C79.718899,17.3184165 78.9049586,16.3293037 78.4839999,15.021972 C78.3346442,14.558339 78.5336113,14.0484736 78.9678635,13.8235047 C79.3490288,13.6261881 79.7509597,13.4616704 80.1979839,13.4279992 C80.7199033,13.3887452 81.0942046,13.6145864 81.2709291,14.0681006 C81.7082222,15.1898918 82.5765528,15.5988309 83.6902471,15.6383466 C84.3715139,15.6625968 85.0518249,15.6506462 85.7015523,15.3982867 C86.2034011,15.2032381 86.4613632,14.8404442 86.4518059,14.3483739 C86.4418141,13.8308321 86.2384159,13.5749835 85.6709687,13.3950258 C84.6971595,13.0861407 83.6730438,13.097568 82.6764708,12.9319162 C82.0903433,12.8345664 81.5124699,12.7187236 80.9600539,12.4891315 C79.7799793,11.9986313 78.9679504,11.1606027 78.7698521,9.88292961 C78.5297884,8.33510199 78.7462194,6.88410082 80.0918102,5.8389857 C80.8951507,5.21502205 81.8415041,4.95594586 82.8289543,4.84053919 C83.1858786,4.79884275 83.5517521,4.8338224 83.913542,4.8338224" id="Fill-3" fill="#23BCA5"></path>
                            <path d="M96.4514769,4.77307753 C97.7278125,4.70807124 98.9398339,4.93103756 100.040418,5.61877258 C100.860097,6.13093804 101.425748,6.86142653 101.773062,7.75153962 C102.017229,8.37724707 101.775592,8.90351768 101.1698,9.1998132 C100.961149,9.30187833 100.749096,9.39982582 100.53137,9.47998856 C99.8540204,9.72958819 99.3587052,9.58967573 99.0380069,8.93637126 C98.587633,8.01883638 97.8463182,7.67050078 96.8925134,7.63256584 C96.2812232,7.60821039 95.6709801,7.59428047 95.0801971,7.79858595 C94.5613204,7.97801032 94.2613911,8.34202803 94.2532755,8.80697195 C94.2435018,9.36346785 94.4871453,9.70978843 95.0678055,9.90603383 C95.9033664,10.188487 96.785963,10.1747323 97.6484888,10.2822293 C98.7400847,10.4182869 99.809079,10.6224172 100.712532,11.297186 C101.842437,12.1410412 102.150046,13.3457602 102.041663,14.6771627 C101.866173,16.8330586 100.320626,17.9614697 98.4514126,18.3269768 C97.0180003,18.6072398 95.5887766,18.5969895 94.1850344,18.1478153 C92.691322,17.6698175 91.6602879,16.694986 91.1085123,15.2146473 C90.8469796,14.5129824 91.1010075,13.9082136 91.799039,13.6672873 C92.1247987,13.5548843 92.4439262,13.4211045 92.8048536,13.4024436 C93.275822,13.3780006 93.6557731,13.573107 93.8013309,13.9668244 C94.3754463,15.5196162 95.6309256,15.6782771 97.0044742,15.6270255 C97.4547608,15.6102045 97.9026912,15.5518565 98.3252276,15.373133 C98.803788,15.1707549 99.0613066,14.7832578 99.0455989,14.2833577 C99.0308511,13.8160483 98.8010828,13.5438455 98.252536,13.3723935 C97.2876486,13.0708415 96.2761618,13.0601531 95.2869276,12.9111292 C94.2688086,12.7578125 93.296591,12.5150464 92.4795303,11.8369485 C91.7436258,11.2263099 91.3527666,10.4378238 91.2757117,9.49549545 C91.1873125,8.41351743 91.2678579,7.3636045 91.9800263,6.46490567 C92.8675098,5.34508032 94.0982931,4.93033668 95.4489784,4.77859693 C95.7791885,4.74153809 96.117078,4.77307753 96.4514769,4.77307753" id="Fill-5" fill="#24BCA5"></path>
                            <g id="Group-41" transform="translate(103.716800, 1.555200)" fill="#24BCA5" font-family="Panton-BlackCaps, Panton" font-size="3.6288" font-weight="700" letter-spacing="0.100800003">
                                <text id="TM">
                                    <tspan x="1.2890368" y="3.2592">TM</tspan>
                                </text>
                            </g>
                            <path d="M71.2134922,10.2333851 C71.9967666,10.2333851 72.7800409,10.2332973 73.5633152,10.2333851 C73.7568034,10.233473 73.9601359,10.25122 73.9353945,9.95268359 C73.8897449,9.40305329 73.7643826,8.88426063 73.3740958,8.4686115 C72.6383006,7.68519504 71.6846242,7.60586062 70.7151796,7.70645632 C69.3967418,7.8432489 68.6607724,8.54864878 68.5303573,9.69420975 C68.4755604,10.1760148 68.5208615,10.2315401 68.9942585,10.2331216 C69.7339741,10.2354937 70.4737767,10.2337365 71.2134922,10.2333851 M72.3021137,12.9301405 C71.1993792,12.9303163 70.0965575,12.9411226 68.9940843,12.9239906 C68.6490986,12.9186313 68.5106687,13.0030614 68.5111915,13.3848858 C68.5132823,14.8845085 69.2534334,15.6861113 70.7454094,15.7822263 C71.5418385,15.8334466 72.3095187,15.7581536 73.0100313,15.3438223 C73.40389,15.1108269 73.7026163,14.7755664 73.9407087,14.3795972 C74.3545172,13.6914172 74.9261829,13.5210634 75.6452516,13.858081 C75.7898668,13.9259062 75.9313458,14.0008478 76.0716922,14.0773708 C76.8015635,14.4755365 76.9814613,15.1239175 76.5769743,15.8437258 C75.551513,17.6682419 73.9121341,18.4595654 71.9230651,18.6235057 C70.7455836,18.7205871 69.5784691,18.6575061 68.4610117,18.1851017 C66.8969895,17.5238058 65.8857284,16.3912476 65.649117,14.6860407 C65.3692953,12.6697339 65.3077031,10.6297058 65.7094895,8.62771963 C66.04768,6.94254401 67.1332524,5.79777374 68.7436212,5.24067565 C70.3831744,4.67347405 72.0604495,4.68208399 73.6970407,5.25367841 C75.661107,5.93974986 76.8980026,7.74687031 76.9518413,9.89496186 C76.9657801,10.4506543 76.9648218,11.0073131 76.9509701,11.5630055 C76.9300619,12.3977301 76.3958568,12.9232877 75.5667586,12.9282956 C74.4785727,12.9347969 73.3902997,12.929877 72.3021137,12.9301405" id="Fill-1" fill="#23BCA5"></path>
                            <path d="M60.2687808,9.08305725 C60.2687808,6.52289659 60.2682546,3.96273593 60.2690439,1.40257527 C60.2693946,0.329269419 60.580888,0.0559864825 61.63858,0.0064654135 C63.0314432,-0.0587766297 63.3411827,0.35983798 63.3369733,1.71446193 C63.3214512,6.71827336 63.3306592,11.7222595 63.3309223,16.7261582 C63.33101,16.9881745 63.3288176,17.2468719 63.2400701,17.5012023 C63.0930929,17.9220004 62.7972969,18.1382511 62.3604871,18.1604351 C62.0836333,18.174584 61.8055517,18.1647147 61.5280841,18.164278 C60.6114937,18.1627059 60.2707101,17.8229582 60.2697454,16.89446 C60.26729,14.5670571 60.2688685,12.2395669 60.2687808,9.91216396 C60.2687808,9.63582417 60.2687808,9.35939704 60.2687808,9.08305725" id="Fill-13" fill="#26BCA6"></path>
                            <path d="M52.7811318,12.6757586 C52.7810456,11.1362123 52.780442,9.59657795 52.7813043,8.05703167 C52.7817354,7.32032114 53.0189501,6.99119194 53.6806679,6.73593631 C55.170697,6.16141304 56.7201376,6.03330095 58.2941534,6.05909947 C58.6210458,6.06447049 58.7552174,6.22137478 58.7806548,6.53729654 C58.8444639,7.33053488 58.7240026,7.48752722 57.9655364,7.46938901 C57.1720614,7.45045836 56.389365,7.52301119 55.6118422,7.6756891 C55.5836455,7.68123622 55.5554488,7.68669529 55.5273383,7.69277071 C54.3623045,7.94740999 54.281767,8.04928331 54.2818533,9.26375067 C54.2820257,11.9909973 54.2823706,14.7182438 54.2816808,17.4454904 C54.2815946,18.0167559 54.2559847,18.0412336 53.7030011,18.0438751 C52.7811318,18.0483656 52.7811318,18.0483656 52.781218,17.1185625 C52.781218,15.6375691 52.781218,14.1566638 52.7811318,12.6757586" id="Fill-21" fill="#303F4D"></path>
                            <path d="M46.0275371,11.2925271 C47.0435204,11.2925271 48.0595909,11.2937496 49.0755741,11.2914792 C49.2763806,11.2909553 49.5010885,11.321518 49.5193199,11.014407 C49.6253059,9.22989774 48.9872088,7.64177529 46.8675748,7.32383645 C45.7958507,7.16307692 44.7356412,7.21424753 43.8108147,7.84951397 C42.7666557,8.56668831 42.5467456,9.65594104 42.5686406,10.8419464 C42.5749213,11.1846846 42.6843094,11.3026564 43.0231158,11.2977664 C44.0244442,11.2831837 45.0260343,11.2925271 46.0275371,11.2925271 M46.6532474,12.4596709 C45.4474488,12.4594963 44.2414758,12.4679665 43.0358516,12.4540823 C42.7000982,12.4501528 42.5541602,12.5562489 42.5799807,12.9047504 C42.6216773,13.4672777 42.5546836,14.0289319 42.6795989,14.5959999 C42.9174787,15.6763458 43.5681372,16.3545746 44.5983391,16.6361876 C46.0696699,17.0382174 47.4761005,16.9160541 48.7096387,15.9078361 C48.9927916,15.6764332 49.1983086,15.3770065 49.3959748,15.0715547 C49.6871529,14.6215852 49.9204967,14.6180924 50.5755167,15.0406428 C50.9184231,15.2619163 50.9390969,15.4601369 50.6828985,15.8827747 C49.8569923,17.2449955 48.5857702,17.8904786 47.0638453,18.0863415 C45.9476332,18.229986 44.8247044,18.2071076 43.7481826,17.8311871 C42.20035,17.2907522 41.2973313,16.1559174 41.1371746,14.5527756 C40.9713478,12.8920887 40.9196197,11.204856 41.1684034,9.54984499 C41.4789469,7.48328614 42.864791,6.23178942 44.9438624,6.004316 C46.0456813,5.88381185 47.1521234,5.88058095 48.2154732,6.26584494 C49.770895,6.82933282 50.6803688,7.93832029 50.9463371,9.57455707 C51.0612208,10.2809908 51.0780564,10.9929258 51.0513636,11.7052102 C51.0300792,12.2721909 50.8299705,12.4574879 50.2706433,12.458885 C49.0648447,12.4619413 47.859046,12.4598456 46.6532474,12.4596709" id="Fill-15" fill="#303F4D"></path>
                            <path d="M37.5834904,12.1218495 C37.5834904,10.9102464 37.5747454,9.69855564 37.5897868,8.48712774 C37.5934597,8.193427 37.5036486,8.02721272 37.2228467,7.93529981 C36.0772518,7.56055099 34.9106689,7.34439356 33.7012355,7.45216561 C32.1855523,7.58727496 31.2110971,8.51910887 31.1534675,9.9986526 C31.098374,11.4122188 31.1029214,12.8308669 31.1522432,14.2448712 C31.193782,15.4382495 31.8093425,16.3076983 32.9653439,16.6554603 C34.4101926,17.0901409 35.8465587,16.8885283 37.2502185,16.3949674 C37.5558562,16.2874582 37.586901,16.0372168 37.5855892,15.756659 C37.5797301,14.5450558 37.5830532,13.3334527 37.5834904,12.1218495 M39.1555789,9.07707017 C39.1554914,11.442798 39.156191,13.8084383 39.1551416,16.1741661 C39.1547918,17.0457178 39.0113739,17.2903516 38.2116437,17.5961438 C36.2688547,18.33907 34.2721965,18.5200043 32.2570864,17.9771136 C30.8949654,17.6102505 30.0857031,16.6586146 29.7324052,15.2859667 C29.523837,14.4754859 29.6045533,13.6610622 29.5902115,12.8472518 C29.574558,11.9567743 29.5853143,11.0657711 29.5868884,10.1749431 C29.5914358,7.67138972 31.1658854,6.07355961 33.6583851,6.02352884 C34.8472677,5.99969633 36.0151623,6.10781885 37.1463279,6.49316963 C37.4593989,6.59980263 37.5927601,6.54468993 37.5885625,6.17458495 C37.5726466,4.78747985 37.5815665,3.40011189 37.5822661,2.01274393 C37.5826159,1.25833961 37.5994063,1.24195475 38.3280396,1.24151665 C38.4300938,1.24142903 38.5327601,1.24931479 38.6339397,1.2399395 C39.0185448,1.2045412 39.157153,1.40501474 39.1560161,1.76083773 C39.1530428,2.69538785 39.1554914,3.63002559 39.1554914,4.56466333 C39.1555789,6.06874053 39.1555789,7.57290535 39.1555789,9.07707017" id="Fill-8" fill="#303F4D"></path>
                            <path d="M22.9543726,12.6680522 C22.9543726,11.0986995 22.9528081,9.52934688 22.9551549,7.95999423 C22.9561111,7.31220053 23.2066179,6.96994996 23.7994205,6.74371952 C25.3155868,6.16502733 26.8923373,6.02955315 28.4946426,6.06001064 C28.8187717,6.06617255 28.957411,6.19891789 28.9639301,6.53887974 C28.981662,7.46695271 28.9834874,7.48719902 28.0775947,7.47258647 C27.0566183,7.45612534 26.0583284,7.57232152 25.0790743,7.87645622 C24.6219557,8.0183564 24.4366397,8.29115334 24.4388128,8.77864913 C24.4519379,11.6532722 24.4457665,14.5279833 24.4452449,17.4026064 C24.445158,18.0274249 24.4283822,18.0446783 23.8102856,18.0431818 C22.8835319,18.0408931 22.9551549,18.1301529 22.9546334,17.1560416 C22.9537642,15.6601038 22.9543726,14.164078 22.9543726,12.6680522" id="Fill-19" fill="#303F4D"></path>
                            <path d="M19.483727,12.121223 C19.4825904,12.121223 19.4814538,12.121223 19.4803172,12.121223 C19.4803172,11.4485251 19.4992895,10.7751247 19.4754211,10.1032171 C19.4472687,9.31355886 19.1965194,8.6052987 18.5322261,8.12332002 C17.1932355,7.15189898 15.7269467,7.165158 14.2541007,7.69797757 C13.3358233,8.03015562 12.725212,8.72480553 12.6527326,9.74654061 C12.5431827,11.2925779 12.5687997,12.8437958 12.6382192,14.3904478 C12.6828085,15.3845233 13.2559122,16.0551138 14.1449006,16.4673728 C15.0961392,16.9085207 16.0967757,16.9597129 17.0912921,16.7402804 C18.7931173,16.3649008 19.4822407,15.4500281 19.4836396,13.7007151 C19.4840767,13.1742177 19.483727,12.6477203 19.483727,12.121223 M20.9813157,12.1006759 C20.9814906,12.802526 20.9835015,13.504464 20.9810534,14.206402 C20.975283,15.823915 20.2605427,17.0448867 18.8018603,17.6994083 C17.1141987,18.4566654 15.3372711,18.4705391 13.6073809,17.8391988 C11.8599172,17.2014486 11.0740088,15.8319056 11.0656155,14.0043555 C11.0593205,12.6308612 11.0121083,11.2564009 11.0988389,9.88334564 C11.2140717,8.05965915 12.1373326,6.8011056 13.8816488,6.28286218 C15.6193204,5.76655053 17.3639863,5.77102875 19.0157141,6.63286528 C20.3029462,7.30450946 20.9260599,8.42467743 20.9765945,9.86350101 C21.0028235,10.6083771 20.9812283,11.3549216 20.9813157,12.1006759" id="Fill-17" fill="#303F4D"></path>
                            <path d="M8.03683589,12.0294288 C7.99897428,11.1542489 8.075829,10.3117623 7.90070817,9.46874969 C7.71192236,8.55973708 7.05217294,7.7760632 6.16342607,7.53976024 C4.68081768,7.14551294 3.26705649,7.45544146 1.86330469,7.93558523 C1.59679378,8.02674068 1.50592592,8.16768102 1.5067963,8.44421508 C1.51480381,10.8540495 1.5134112,13.2638839 1.50966856,15.6737184 C1.50914633,16.0038939 1.63021644,16.2133761 1.94938545,16.3420455 C3.09707092,16.8046594 4.29193108,16.9191296 5.4962784,16.7511932 C6.90629695,16.5544202 7.62018411,15.7852085 7.91837693,14.3961397 C8.09001622,13.596426 7.98687597,12.7960111 8.03683589,12.0294288 M0.00425616709,9.03847847 C0.00425616709,6.61540897 0.00364689982,4.19242713 0.004691358,1.76935764 C0.00486543436,1.21208233 0.0403770125,1.17798669 0.604036278,1.1760584 C1.60593279,1.17264007 1.51132229,1.10891891 1.51193155,2.10146147 C1.51288897,3.44433894 1.52315948,4.78730406 1.50522961,6.13000623 C1.49992028,6.52907425 1.60593279,6.6030504 1.97854325,6.47183915 C3.21048167,6.03806194 4.48393731,5.87257975 5.78576739,5.98477106 C8.36723283,6.20713776 9.40037605,7.74512294 9.51570164,10.0296186 C9.58115435,11.3253407 9.57688948,12.6295647 9.51500533,13.9256374 C9.43414686,15.6194633 8.86517827,17.0717273 7.17080598,17.7823016 C6.33140976,18.1343018 5.43395906,18.2272102 4.53006755,18.2084533 C3.23424309,18.1816325 1.96461714,18.0178157 0.756527173,17.4942854 C0.218457133,17.2610502 -0.00244577291,16.8848587 -8.70381818e-06,16.3075116 C0.0103488398,13.8845298 0.00434320527,11.461548 0.00425616709,9.03847847" id="Fill-10" fill="#303F4D"></path>
                        </g>
                    </g>
                </g>
            </g>
        </g>
    </g>
</svg>