<svg xmlns="http://www.w3.org/2000/svg" xmlns:xlink="http://www.w3.org/1999/xlink" width="178" height="89" viewBox="0 0 178 89">
    <defs>
        <linearGradient id="a" x1="50%" x2="50%" y1="0%" y2="100%">
            <stop offset="0%" stop-color="#45DDCF"/>
            <stop offset="100%" stop-color="#21B8A2"/>
        </linearGradient>
        <linearGradient id="b" x1="60.478%" x2="-128.805%" y1="75.617%" y2="-236.991%">
            <stop offset="0%" stop-color="#FFD11A" stop-opacity="0"/>
            <stop offset="41.254%" stop-color="#FFDF88" stop-opacity=".413"/>
            <stop offset="100%" stop-color="#FFA50B"/>
        </linearGradient>
        <linearGradient id="c" x1="50%" x2="50%" y1="100%" y2="0%">
            <stop offset="0%" stop-color="#1FB1A3"/>
            <stop offset="100%" stop-color="#0D7A6A"/>
        </linearGradient>
        <path id="d" d="M11.235 117.768c7.06 4.82 14.336 7.23 21.827 7.23 7.49 0 14.767-2.41 21.827-7.23 10.657-21.515 14.16-42.09 10.511-61.725C59.927 26.591 49.218-.198 33.062.325 16.905.848 5.82 34.099 1.356 58.117c-2.976 16.012.317 35.896 9.879 59.65z"/>
        <linearGradient id="f" x1="83.03%" x2="29.231%" y1="90.397%" y2="11.898%">
            <stop offset="0%" stop-color="#9FF7F1"/>
            <stop offset="100%" stop-color="#E5F7F5"/>
        </linearGradient>
        <linearGradient id="g" x1="83.03%" x2="29.231%" y1="90.397%" y2="11.898%">
            <stop offset="0%" stop-color="#DDFFFC"/>
            <stop offset="100%" stop-color="#E5F7F5"/>
        </linearGradient>
    </defs>
    <g fill="none" fill-rule="evenodd">
        <path fill="url(#a)" d="M72.692 110.43l2.74.6a9.36 9.36 0 0 1 7.357 9.144v10.789c0 .679.55 1.229 1.228 1.229.737 0 1.395-.463 1.645-1.156l8.42-23.393a15.84 15.84 0 0 0-3.269-16.114l-8.024-8.685-10.097 27.586z" transform="rotate(90 92 85.5)"/>
        <path fill="url(#b)" d="M15.982 135.194l17.285 58.167c12.552 4.56 25.329 3.086 38.33-4.42 13-7.505 20.267-17.416 21.8-29.732l-44.292-44.905-33.123 20.89z" transform="rotate(120 69.402 92.329)"/>
        <path fill="url(#a)" d="M4.66 110.43l2.74.6a9.36 9.36 0 0 1 7.356 9.144v10.789c0 .679.55 1.229 1.228 1.229.738 0 1.396-.463 1.645-1.156l8.421-23.393a15.84 15.84 0 0 0-3.27-16.114l-8.024-8.685L4.66 110.43z" transform="matrix(0 -1 -1 0 177.5 27.467)"/>
        <path fill="url(#c)" d="M29.924 118.32a12.018 12.018 0 0 0 10 11.847c4.908.836 8.452 1.254 10.632 1.254 2.271 0 6.175-.453 11.71-1.36a11.897 11.897 0 0 0 9.972-11.74H29.924z" transform="rotate(90 92 85.5)"/>
        <g transform="rotate(90 83.13 94.37)">
            <mask id="e" fill="#fff">
                <use xlink:href="#d"/>
            </mask>
            <use fill="url(#a)" xlink:href="#d"/>
            <path stroke="#26BDA8" stroke-width="5.04" d="M-2.17 55.47c6.604 7.69 18.54 11.534 35.805 11.534 17.266 0 29.201-3.845 35.805-11.535" mask="url(#e)"/>
            <circle cx="34" cy="66" r="13.5" fill="url(#f)" stroke="#26BDA8" stroke-width="3" mask="url(#e)"/>
            <circle cx="31.5" cy="66.5" r="9.5" fill="url(#g)" mask="url(#e)"/>
            <path stroke="#128676" stroke-width="5.04" d="M-2.17 101.573c6.604 7.69 18.54 11.536 35.805 11.536 17.266 0 29.201-3.845 35.805-11.536" mask="url(#e)"/>
        </g>
        <path fill="#66ECDE" d="M155.954 66.683c-1.551-7.694-2.327-14.993-2.327-21.898 0-7.077.815-14.142 2.445-21.193 11.891 5.418 20.834 12.39 21.103 20.708.299 9.224-8.304 16.671-21.221 22.383z"/>
        <path fill="url(#a)" d="M47.514 94.225l.771-.698a3.6 3.6 0 0 1 4.64-.164l1.097.862a8.27 8.27 0 0 1 3.137 7.154l-3.82 48.458a2.347 2.347 0 1 1-4.68 0l-3.846-48.811a8.296 8.296 0 0 1 2.701-6.801z" transform="rotate(90 92 85.5)"/>
    </g>
</svg>
