<svg xmlns="http://www.w3.org/2000/svg" xmlns:xlink="http://www.w3.org/1999/xlink" width="1920" height="1201" viewBox="0 0 1920 1201">
    <defs>
        <path id="a" d="M1059.524 2295.082H123.166c-18.15-770.62 353.587-1548.466 371.736-2007.58 568.138-517.994 1560.197 25.24 1174.192 568.777-386.005 543.538-254.074 411.472-216.858 871.349 24.81 306.584-106.093 495.735-392.712 567.454z"/>
        <path id="c" d="M994.07 2258.304H57.712c-18.15-770.62 353.587-1548.466 371.736-2007.58 568.138-517.994 1560.198 25.24 1174.192 568.778-386.005 543.537-254.074 411.471-216.858 871.348 24.81 306.584-106.093 495.736-392.712 567.454z"/>
        <linearGradient id="d" x1="110.781%" x2="-23.357%" y1="123.674%" y2="-7.009%">
            <stop offset="0%" stop-color="#A6DAFF"/>
            <stop offset="100%" stop-color="#1262D8"/>
        </linearGradient>
    </defs>
    <g fill="none" fill-rule="evenodd" transform="matrix(0 1 1 0 -133 -164)">
        <path fill="#F4FAFE" d="M693.075 97.943L1624.304.067c98.602 764.502-189.791 1576.943-159.851 2035.44C953.573 2610.05-89.836 2173.49 237.24 1592.58c327.075-580.908 209.672-435.775 124.59-889.242-56.722-302.312 53.693-504.11 331.245-605.396z"/>
        <mask id="b" fill="#fff">
            <use xlink:href="#a"/>
        </mask>
        <use fill="#DBEFFC" transform="rotate(176 939.25 1186.867)" xlink:href="#a"/>
        <g mask="url(#b)">
            <g transform="translate(84.223 37.426)">
                <mask id="e" fill="#fff">
                    <use xlink:href="#c"/>
                </mask>
                <use fill="#23335F" transform="rotate(177 873.795 1150.089)" xlink:href="#c"/>
                <path fill="url(#d)" d="M976.466 1984.51H98.87c-17.01-873.906-17.01-1571.184 0-2091.832 532.484-587.42 2204.031 0 1655.25 373.972-548.78 373.973-444.468 552.837-409.587 1074.35 23.254 347.675-99.435 562.179-368.067 643.51z" mask="url(#e)" opacity=".053" transform="matrix(-1 0 0 1 1949.405 0)"/>
            </g>
        </g>
    </g>
</svg>
