<svg xmlns="http://www.w3.org/2000/svg" width="32" height="31" viewBox="0 0 32 31">
    <path fill="#FFF" fill-rule="nonzero" d="M0 3.552c0-1.03.36-1.879 1.081-2.548C1.801.334 2.74 0 3.891 0c1.133 0 2.05.33 2.75.988.72.68 1.081 1.565 1.081 2.657 0 .988-.35 1.812-1.05 2.47-.72.68-1.668 1.02-2.842 1.02H3.8c-1.133 0-2.05-.34-2.75-1.02C.35 5.437 0 4.583 0 3.553zM.402 30.58V9.946h6.857v20.633H.402zm10.656 0h6.857V19.058c0-.72.082-1.277.247-1.668a4.48 4.48 0 0 1 1.313-1.776c.587-.484 1.323-.726 2.208-.726 2.307 0 3.46 1.555 3.46 4.664V30.58H32V18.75c0-3.048-.72-5.359-2.162-6.934-1.442-1.576-3.346-2.363-5.714-2.363-2.657 0-4.726 1.143-6.209 3.428v.062h-.03l.03-.062V9.946h-6.857c.041.659.062 2.708.062 6.147s-.02 8.267-.062 14.486z"/>
</svg>
