<svg xmlns="http://www.w3.org/2000/svg" width="35" height="28" viewBox="0 0 35 28">
    <path fill="#FFF" fill-rule="nonzero" d="M23.386.006V0h1.641l.6.118c.4.077.762.177 1.089.302a7.8 7.8 0 0 1 .946.435c.305.165.582.334.83.506.247.17.467.35.663.54.194.194.496.243.906.15.41-.093.852-.223 1.325-.388.474-.166.942-.353 1.405-.56.463-.207.745-.339.846-.394.099-.058.151-.09.157-.094l.007-.009.031-.016.032-.015.031-.016.032-.015.006-.01.01-.006.01-.006.006-.01.031-.009.032-.006-.007.047-.01.046-.015.047-.016.047-.015.03-.016.032-.016.046c-.01.032-.021.073-.032.125-.01.052-.11.259-.3.621-.189.363-.425.73-.71 1.104-.284.372-.538.654-.763.845a7.223 7.223 0 0 0-.452.404 1.35 1.35 0 0 1-.268.217l-.158.103-.031.015-.032.016-.006.01-.01.005-.009.007-.006.009-.032.016-.031.015-.007.01-.01.006-.009.006-.006.01-.006.009-.01.006-.01.006-.006.01h.158l.884-.187a16.01 16.01 0 0 0 1.688-.45l.853-.28.094-.032.048-.015.031-.016.032-.015.031-.016.032-.015.063-.01.063-.006v.062l-.016.007-.016.009-.006.01-.01.005-.009.007-.006.009-.006.01-.01.006-.01.006-.006.009-.006.01-.01.006-.015.03-.016.032-.01.006-.4.528c-.263.348-.405.524-.426.529-.021.006-.05.037-.089.093-.035.058-.259.289-.669.693A15.8 15.8 0 0 1 32.06 6.47c-.396.317-.596.707-.6 1.169-.006.46-.03.98-.073 1.56-.042.58-.12 1.206-.236 1.88a22.124 22.124 0 0 1-.537 2.284c-.242.85-.536 1.678-.884 2.486a19.25 19.25 0 0 1-1.088 2.175 23.561 23.561 0 0 1-1.042 1.632c-.315.445-.636.865-.962 1.259-.327.393-.739.837-1.238 1.33-.5.49-.774.76-.82.808-.048.045-.255.215-.619.51a21.67 21.67 0 0 1-1.167.888c-.415.294-.796.54-1.143.737a36.64 36.64 0 0 1-1.256.674c-.488.255-1.016.49-1.584.708-.568.218-1.168.42-1.8.606-.63.187-1.24.332-1.83.436-.589.103-1.257.191-2.004.264l-1.12.108V28h-2.051v-.016l-.269-.015c-.179-.01-.326-.02-.442-.031-.115-.01-.552-.067-1.31-.171a19.17 19.17 0 0 1-1.782-.31c-.432-.104-1.074-.301-1.926-.591a18.897 18.897 0 0 1-2.187-.88c-.604-.294-.982-.48-1.136-.56a8.1 8.1 0 0 1-.511-.285l-.284-.171-.006-.01-.01-.006-.01-.006-.006-.009-.031-.016-.032-.015-.006-.01-.01-.006-.01-.006-.005-.01-.007-.009-.01-.006H0V24.8l.032.006.031.01.142.015c.095.01.353.026.773.047a14.461 14.461 0 0 0 2.793-.14 16.577 16.577 0 0 0 1.752-.373 13.08 13.08 0 0 0 1.856-.628c.562-.244.961-.426 1.199-.547.236-.118.595-.337 1.08-.658l.725-.482.007-.01.009-.006.01-.006.006-.01.006-.009.01-.006.01-.006.005-.01.032-.009.031-.006.007-.03.01-.032.009-.006.006-.01-.252-.015c-.169-.01-.332-.02-.49-.031a4.81 4.81 0 0 1-.741-.14 7.194 7.194 0 0 1-1.09-.373 8.44 8.44 0 0 1-1.135-.59c-.368-.228-.635-.418-.799-.57-.162-.148-.372-.36-.63-.633a6.301 6.301 0 0 1-.67-.848c-.19-.29-.37-.625-.543-1.004l-.262-.566-.016-.046-.015-.047-.01-.031-.006-.031.047.006.048.01.347.046c.231.031.594.041 1.089.031.494-.01.836-.031 1.025-.062.19-.031.305-.052.347-.062l.064-.016.078-.015.08-.016.006-.01.01-.005.009-.007.006-.009-.063-.015-.063-.016-.063-.016-.064-.015-.063-.016a5.87 5.87 0 0 1-.22-.062c-.106-.03-.39-.145-.853-.342a6.55 6.55 0 0 1-1.104-.575 7.61 7.61 0 0 1-.783-.612 8.849 8.849 0 0 1-.811-.864 6.204 6.204 0 0 1-.79-1.227 7.395 7.395 0 0 1-.52-1.337 7.114 7.114 0 0 1-.227-1.29l-.057-.652.032.006.031.01.032.015.031.016.032.015.031.016.49.217c.326.145.73.27 1.215.373.484.104.773.16.868.171l.142.016h.284l-.007-.01-.01-.006-.009-.006-.006-.01-.006-.009-.01-.006-.01-.006-.005-.01-.032-.015-.032-.015-.006-.01-.01-.006-.009-.006-.006-.01-.032-.015-.031-.016-.007-.009-.271-.199c-.173-.13-.353-.3-.543-.506-.19-.208-.379-.425-.568-.653a5.036 5.036 0 0 1-.505-.73 8.791 8.791 0 0 1-.467-.988 6.935 6.935 0 0 1-.511-2.4c-.01-.393 0-.73.031-1.01.032-.28.095-.595.19-.947.094-.353.231-.726.41-1.12l.268-.59.016-.046.016-.047.01-.006.006-.01.006-.009.01-.006.009.006.006.01.006.009.01.006.01.006.006.01.006.009.01.006.015.031.016.031.01.007.006.009.426.466c.284.31.62.658 1.01 1.041.389.383.605.582.647.597a.46.46 0 0 1 .158.143c.063.076.273.26.63.55.358.29.827.627 1.405 1.01.579.383 1.22.761 1.925 1.134.705.373 1.463.71 2.273 1.01.81.3 1.378.497 1.704.59.326.094.884.213 1.673.358s1.383.238 1.783.28c.4.041.673.065.82.071l.221.006-.006-.046-.01-.047-.063-.388a7.193 7.193 0 0 1-.063-1.088c0-.466.037-.896.11-1.29.074-.393.185-.792.332-1.196.147-.404.291-.728.432-.973.143-.242.33-.519.562-.83a6.74 6.74 0 0 1 .9-.963 6.637 6.637 0 0 1 1.262-.886c.473-.259.91-.456 1.31-.59a6.18 6.18 0 0 1 1.01-.264c.273-.042.41-.066.41-.072z"/>
</svg>
