<svg xmlns="http://www.w3.org/2000/svg" width="38" height="27" viewBox="0 0 38 27">
    <path fill="#FFF" fill-rule="nonzero" d="M15.738 26.967c-7.237-.135-9.709-.257-11.228-.573-1.028-.21-1.921-.678-2.576-1.355-.506-.513-.909-1.296-1.221-2.381C.445 21.753.34 21 .192 19.163c-.228-4.148-.282-7.54 0-11.33.232-2.092.345-4.576 1.89-6.026A5.048 5.048 0 0 1 4.615.512C6.104.226 12.447 0 19.014 0c6.552 0 12.91.226 14.4.512 1.191.226 2.308.904 2.964 1.778 1.41 2.243 1.434 5.034 1.578 7.216.059 1.04.059 6.945 0 7.985-.223 3.45-.402 4.67-.908 5.935-.313.799-.58 1.22-1.043 1.688a4.975 4.975 0 0 1-2.651 1.37c-6.263.477-11.58.58-17.616.483zm9.59-13.86c-3.484-1.884-6.82-3.63-10.23-5.439v10.817c3.588-1.973 7.371-3.781 10.245-5.393l-.015.015z"/>
</svg>
