<?xml version="1.0" encoding="UTF-8"?>
<svg width="159px" height="164px" viewBox="0 0 159 164" version="1.1" xmlns="http://www.w3.org/2000/svg" xmlns:xlink="http://www.w3.org/1999/xlink">
    <!-- Generator: Sketch 50.2 (55047) - http://www.bohemiancoding.com/sketch -->
    <title>Group 60</title>
    <desc>Created with Sketch.</desc>
    <defs>
        <linearGradient x1="4.4408921e-14%" y1="33.8767946%" x2="100%" y2="68.3297297%" id="linearGradient-1">
            <stop stop-color="#627389" offset="0%"></stop>
            <stop stop-color="#333F51" offset="100%"></stop>
        </linearGradient>
        <linearGradient x1="49.9998632%" y1="100%" x2="49.9998632%" y2="-0.000895523133%" id="linearGradient-2">
            <stop stop-color="#E6E6E6" offset="0%"></stop>
            <stop stop-color="#F2F2F2" offset="100%"></stop>
        </linearGradient>
        <linearGradient x1="50.0897306%" y1="100%" x2="50.0897306%" y2="-0.00141955589%" id="linearGradient-3">
            <stop stop-color="#0071BC" offset="0%"></stop>
            <stop stop-color="#22B8A2" offset="96%"></stop>
        </linearGradient>
        <linearGradient x1="49.9875479%" y1="99.9716128%" x2="49.9875479%" y2="-0.0181362819%" id="linearGradient-4">
            <stop stop-color="#E6E6E6" offset="0%"></stop>
            <stop stop-color="#F2F2F2" offset="100%"></stop>
        </linearGradient>
        <linearGradient x1="50.0246661%" y1="100%" x2="50.0246661%" y2="-0.030592968%" id="linearGradient-5">
            <stop stop-color="#0071BC" offset="0%"></stop>
            <stop stop-color="#22B8A2" offset="96%"></stop>
        </linearGradient>
        <linearGradient x1="0.422535211%" y1="50%" x2="100%" y2="50%" id="linearGradient-6">
            <stop stop-color="#0071BC" offset="0%"></stop>
            <stop stop-color="#22B8A2" offset="96%"></stop>
        </linearGradient>
        <linearGradient x1="49.9695479%" y1="99.927834%" x2="49.9695479%" y2="-0.0199806508%" id="linearGradient-7">
            <stop stop-color="#FBB03B" offset="0%"></stop>
            <stop stop-color="#FCEE21" offset="100%"></stop>
        </linearGradient>
        <linearGradient x1="50.0122981%" y1="100.010096%" x2="50.0122981%" y2="0.0622809251%" id="linearGradient-8">
            <stop stop-color="#FBB03B" offset="0%"></stop>
            <stop stop-color="#FCEE21" offset="100%"></stop>
        </linearGradient>
        <linearGradient x1="50.0122981%" y1="100.174619%" x2="50.0122981%" y2="0.226804077%" id="linearGradient-9">
            <stop stop-color="#FBB03B" offset="0%"></stop>
            <stop stop-color="#FCEE21" offset="100%"></stop>
        </linearGradient>
    </defs>
    <g id="Page-1" stroke="none" stroke-width="1" fill="none" fill-rule="evenodd">
        <g id="LP_version1920" transform="translate(-903.000000, -2873.000000)">
            <g id="Group-72" transform="translate(461.000000, 2620.000000)">
                <g id="Group-21" transform="translate(353.000000, 253.000000)">
                    <g id="Group-60" transform="translate(88.000000, 0.000000)">
                        <g id="Group-29" transform="translate(80.500000, 82.000000) scale(-1, -1) translate(-80.500000, -82.000000) " fill="url(#linearGradient-1)">
                            <ellipse id="Oval-9" opacity="0.899999976" cx="88.55" cy="92.5090253" rx="71.0485241" ry="71.4909747"></ellipse>
                            <path d="M18.1719153,60.1033356 C73.9516232,82.683004 -14.3970822,122.085735 75.8432869,127.426264 C166.083656,132.766793 168.640267,50.3814566 113.68182,12.253652 C58.7233739,-25.8741527 -37.6077926,37.5236673 18.1719153,60.1033356 Z" id="Path-13" opacity="0.74000001" transform="translate(75.818980, 63.993911) scale(-1, 1) translate(-75.818980, -63.993911) "></path>
                        </g>
                        <g id="Asset-410" transform="translate(42.000000, 30.000000)" fill-rule="nonzero">
                            <path d="M73.466129,36.0387097 L17.9346774,4.23387097 C15.9111827,3.06491649 13.4014555,3.13699742 11.4483871,4.42016129 L10.8387097,4.91129032 C10.6862903,5.02983871 10.5169355,5.1483871 10.3814516,5.28387097 L1.55806452,12.4475806 L4.25080645,18.0193548 C4.25080645,18.0193548 6.89274194,18.0193548 8.55241935,18.0193548 L8.55241935,58.9524194 C8.56104415,61.1824383 9.75420674,63.2398376 11.6854839,64.3548387 L64.7104839,94.991129 C64.1516129,95.1774194 63.7282258,95.3637097 63.7112903,95.4991935 C63.7112903,95.9564516 63.4233871,97.8362903 63.4233871,97.8362903 L63.4233871,99.7669355 L65.7943548,102.544355 L73.7879032,96.041129 C75.4710057,94.8975917 76.479216,92.9953081 76.4806452,90.9604839 L76.616129,41.5258065 C76.6344136,39.2620432 75.4302316,37.1644359 73.466129,36.0387097 Z" id="Shape" fill="url(#linearGradient-2)"></path>
                            <path d="M73.466129,36.0387097 L17.9346774,4.23387097 C15.9111827,3.06491649 13.4014555,3.13699742 11.4483871,4.42016129 L10.8387097,4.91129032 C10.6862903,5.02983871 10.5169355,5.1483871 10.3814516,5.28387097 L1.55806452,12.4475806 L4.25080645,18.0193548 C4.25080645,18.0193548 6.89274194,18.0193548 8.55241935,18.0193548 L8.55241935,22.8459677 L68.0129032,65.9467742 L76.4806452,61.983871 L76.4806452,41.508871 C76.5209033,39.2789434 75.3728546,37.1956865 73.466129,36.0387097 Z" id="Shape" fill="url(#linearGradient-3)"></path>
                            <path d="M9.38225806,11.1604839 L64.9137097,42.9653226 C66.8672312,44.085071 68.0697622,46.1668721 68.0637097,48.4185484 L67.9282258,97.8532258 C67.9377606,100.096647 66.7472098,102.173994 64.8067144,103.299831 C62.8662189,104.425668 60.4718983,104.428193 58.5290323,103.306452 L3.13306452,71.2983871 C1.1913244,70.1773265 -0.00345618845,68.1042207 2.19985129e-15,65.8620968 L2.19985129e-15,16.5967742 C2.82286443e-05,14.3616058 1.19066739,12.295686 3.12464242,11.1750976 C5.05861746,10.0545092 7.44307021,10.0489407 9.38225806,11.1604839 Z" id="Shape" fill="url(#linearGradient-4)"></path>
                            <path d="M64.9137097,42.9653226 L9.38225806,11.1604839 C7.44307021,10.0489407 5.05861746,10.0545092 3.12464242,11.1750976 C1.19066739,12.295686 2.82286443e-05,14.3616058 0,16.5967742 L0,26.6733871 L68.0132218,65.9467742 L68.0129032,48.4354839 C68.0355143,46.1882657 66.8529586,44.1010225 64.9137097,42.9653226 Z" id="Shape" fill="url(#linearGradient-5)"></path>
                            <path d="M32.9733871,53.8379032 L32.9733871,78.3943548 L27.0967742,74.8379032 L27.0967742,59.5959677 C26.2100921,59.9259108 25.280261,60.1255678 24.3362903,60.1887097 C23.2001,60.2177948 22.0641747,60.1212411 20.9491935,59.9008065 L20.9491935,54.9217742 C22.4940495,55.1854603 24.0808316,55.0454501 25.5556452,54.5153226 C26.6761148,53.9732 27.5781882,53.0651526 28.1129032,51.941129 L32.9733871,53.8379032 Z" id="Shape" fill="url(#linearGradient-6)"></path>
                            <path d="M17.6298387,20.1532258 C18.4518615,19.5754236 18.8459626,18.5601123 18.6290323,17.5790323 C18.3463084,16.0926153 18.3809361,14.5632268 18.7306452,13.091129 C19.916129,8.01048387 24.3701613,4.6233871 28.6717742,5.69032258 C32.2081414,6.71876184 34.6340781,9.96716711 34.616129,13.65 L39.2225806,16.2919355 C40.3233871,8.77258065 36.3774194,1.69354839 29.9419355,0.287903226 C23.1677419,-1.30403226 16.0209677,3.96290323 14.141129,12.041129 C13.6447726,14.1556109 13.5528341,16.344896 13.8701613,18.4935484 C13.9870788,19.321992 14.5205149,20.0326708 15.2833483,20.3762894 C16.0461817,20.7199081 16.931912,20.6484935 17.6298387,20.1870968 L17.6298387,20.1532258 Z" id="Shape" fill="url(#linearGradient-7)"></path>
                            <path d="M30.483871,27.5709677 C31.3058937,26.9931656 31.6999948,25.9778542 31.4830645,24.9967742 C31.2003407,23.5103572 31.2349684,21.9809687 31.5846774,20.508871 C32.7701613,15.4282258 37.2241935,12.041129 41.5258065,13.1080645 C45.0480974,14.1568824 47.4514467,17.4096914 47.4193548,21.0846774 L52.0935484,23.7096774 C53.1774194,16.1733871 49.2314516,9.17903226 42.7959677,7.68870968 C36.0217742,6.09677419 28.875,11.3637097 26.9951613,19.4419355 C26.4988049,21.5564174 26.4068664,23.7457025 26.7241935,25.8943548 C26.8411111,26.7227985 27.3745471,27.4334772 28.1373805,27.7770959 C28.9002139,28.1207145 29.7859443,28.0492999 30.483871,27.5879032 L30.483871,27.5709677 Z" id="Shape" fill="url(#linearGradient-8)"></path>
                            <path d="M46.2846774,37.0209677 C47.1067002,36.4431656 47.5008013,35.4278542 47.283871,34.4467742 C47.0122467,32.9579756 47.0584174,31.4285734 47.4193548,29.958871 C48.6048387,24.8782258 53.058871,21.491129 57.3604839,22.5580645 C60.8713367,23.5954394 63.2781932,26.8229719 63.2709677,30.483871 L67.8774194,33.1258065 C68.9612903,25.5895161 65.0153226,18.5951613 58.5798387,17.1048387 C51.8056452,15.5129032 44.658871,20.7798387 42.7790323,28.8580645 C42.2826759,30.9725464 42.1907374,33.1618315 42.5080645,35.3104839 C42.624982,36.1389275 43.1584181,36.8496063 43.9212515,37.1932249 C44.6840849,37.5368436 45.5698152,37.465429 46.2677419,37.0040323 L46.2846774,37.0209677 Z" id="Shape" fill="url(#linearGradient-9)"></path>
                        </g>
                    </g>
                </g>
            </g>
        </g>
    </g>
</svg>