<?xml version="1.0" encoding="UTF-8"?>
<svg width="159px" height="164px" viewBox="0 0 159 164" version="1.1" xmlns="http://www.w3.org/2000/svg" xmlns:xlink="http://www.w3.org/1999/xlink">
    <!-- Generator: Sketch 50.2 (55047) - http://www.bohemiancoding.com/sketch -->
    <title>Group 63</title>
    <desc>Created with Sketch.</desc>
    <defs>
        <linearGradient x1="4.4408921e-14%" y1="33.8767946%" x2="100%" y2="68.3297297%" id="linearGradient-1">
            <stop stop-color="#627389" offset="0%"></stop>
            <stop stop-color="#333F51" offset="100%"></stop>
        </linearGradient>
        <linearGradient x1="99.9485586%" y1="50.0043229%" x2="0.0108464312%" y2="50.0043229%" id="linearGradient-2">
            <stop stop-color="#FBB03B" offset="0%"></stop>
            <stop stop-color="#FBB23A" offset="50%"></stop>
            <stop stop-color="#FBB937" offset="67%"></stop>
            <stop stop-color="#FBC432" offset="80%"></stop>
            <stop stop-color="#FCD52B" offset="90%"></stop>
            <stop stop-color="#FCEB22" offset="99%"></stop>
            <stop stop-color="#FCEE21" offset="100%"></stop>
        </linearGradient>
        <linearGradient x1="100.072913%" y1="50.0371633%" x2="-0.0793779237%" y2="50.0371633%" id="linearGradient-3">
            <stop stop-color="#FBB03B" offset="0%"></stop>
            <stop stop-color="#FCDA29" offset="63%"></stop>
            <stop stop-color="#FCEE21" offset="100%"></stop>
        </linearGradient>
        <linearGradient x1="50%" y1="100%" x2="50%" y2="0%" id="linearGradient-4">
            <stop stop-color="#0071BC" offset="0%"></stop>
            <stop stop-color="#0275BB" offset="24%"></stop>
            <stop stop-color="#0780B7" offset="46%"></stop>
            <stop stop-color="#1092B0" offset="67%"></stop>
            <stop stop-color="#1CACA7" offset="88%"></stop>
            <stop stop-color="#22B8A2" offset="96%"></stop>
        </linearGradient>
        <linearGradient x1="49.943757%" y1="100%" x2="49.943757%" y2="0%" id="linearGradient-5">
            <stop stop-color="#0071BC" offset="0%"></stop>
            <stop stop-color="#22B8A2" offset="96%"></stop>
        </linearGradient>
        <linearGradient x1="34186.7267%" y1="100%" x2="34186.7267%" y2="0%" id="linearGradient-6">
            <stop stop-color="#0071BC" offset="0%"></stop>
            <stop stop-color="#22B8A2" offset="96%"></stop>
        </linearGradient>
        <linearGradient x1="33948.427%" y1="100%" x2="33948.427%" y2="0%" id="linearGradient-7">
            <stop stop-color="#0071BC" offset="0%"></stop>
            <stop stop-color="#22B8A2" offset="96%"></stop>
        </linearGradient>
        <linearGradient x1="17058.6847%" y1="100%" x2="17058.6847%" y2="0%" id="linearGradient-8">
            <stop stop-color="#0071BC" offset="0%"></stop>
            <stop stop-color="#22B8A2" offset="96%"></stop>
        </linearGradient>
        <linearGradient x1="34462.4297%" y1="100%" x2="34462.4297%" y2="0.0256213169%" id="linearGradient-9">
            <stop stop-color="#0071BC" offset="0%"></stop>
            <stop stop-color="#22B8A2" offset="96%"></stop>
        </linearGradient>
        <linearGradient x1="34185.4097%" y1="100%" x2="34185.4097%" y2="0.0256213169%" id="linearGradient-10">
            <stop stop-color="#0071BC" offset="0%"></stop>
            <stop stop-color="#22B8A2" offset="96%"></stop>
        </linearGradient>
        <linearGradient x1="17186.8539%" y1="99.9028183%" x2="17186.8539%" y2="0%" id="linearGradient-11">
            <stop stop-color="#0071BC" offset="0%"></stop>
            <stop stop-color="#22B8A2" offset="96%"></stop>
        </linearGradient>
        <linearGradient x1="34457.1268%" y1="100%" x2="34457.1268%" y2="0%" id="linearGradient-12">
            <stop stop-color="#0071BC" offset="0%"></stop>
            <stop stop-color="#22B8A2" offset="96%"></stop>
        </linearGradient>
        <linearGradient x1="17322.809%" y1="100%" x2="17322.809%" y2="0%" id="linearGradient-13">
            <stop stop-color="#0071BC" offset="0%"></stop>
            <stop stop-color="#22B8A2" offset="96%"></stop>
        </linearGradient>
        <linearGradient x1="-0.284163535%" y1="50.1323084%" x2="100%" y2="50.1323084%" id="linearGradient-14">
            <stop stop-color="#FBB03B" offset="0%"></stop>
            <stop stop-color="#FCDA29" offset="63%"></stop>
            <stop stop-color="#FCEE21" offset="100%"></stop>
        </linearGradient>
    </defs>
    <g id="Page-1" stroke="none" stroke-width="1" fill="none" fill-rule="evenodd">
        <g id="LP_version1920" transform="translate(-1291.000000, -2873.000000)">
            <g id="Group-72" transform="translate(461.000000, 2620.000000)">
                <g id="Group-36" transform="translate(750.000000, 253.000000)">
                    <g id="Group-63" transform="translate(79.000000, 0.000000)">
                        <g id="Group-29" transform="translate(80.500000, 82.000000) scale(-1, -1) translate(-80.500000, -82.000000) " fill="url(#linearGradient-1)">
                            <ellipse id="Oval-9" opacity="0.899999976" cx="88.55" cy="92.5090253" rx="71.0485241" ry="71.4909747"></ellipse>
                            <path d="M18.1719153,60.1033356 C73.9516232,82.683004 -14.3970822,122.085735 75.8432869,127.426264 C166.083656,132.766793 168.640267,50.3814566 113.68182,12.253652 C58.7233739,-25.8741527 -37.6077926,37.5236673 18.1719153,60.1033356 Z" id="Path-13" opacity="0.74000001" transform="translate(75.818980, 63.993911) scale(-1, 1) translate(-75.818980, -63.993911) "></path>
                        </g>
                        <g id="Asset-510" transform="translate(31.000000, 27.000000)" fill-rule="nonzero">
                            <path d="M1.25,88.0625 L1.25,84.4125 L6.8875,83.6125 L60.35,52.75 C61.1235027,52.303418 62.0764973,52.303418 62.85,52.75 L94.6875,71.15 L98.4375,70.625 L98.4375,74.7 C98.4365848,75.592248 97.9602101,76.4163762 97.1875,76.8625 L42.575,108.3625 C39.7633177,109.985826 36.2991823,109.985826 33.4875,108.3625 L2.5,90.4625 C1.64896305,89.9766346 1.16027171,89.0383473 1.25,88.0625 Z" id="Shape" fill="url(#linearGradient-2)"></path>
                            <path d="M97.1375,68.4125 L62.825,48.6 C62.0514973,48.153418 61.0985027,48.153418 60.325,48.6 L2.5,82.0125 C1.77018396,82.4695891 1.32698848,83.2701101 1.32698848,84.13125 C1.32698848,84.9923899 1.77018396,85.7929109 2.5,86.25 L33.5,104.15 C36.3116823,105.773326 39.7758177,105.773326 42.5875,104.15 L97.15,72.65 C97.8784729,72.1907618 98.3193114,71.3889321 98.3167711,70.5277898 C98.3142309,69.6666475 97.8686696,68.8674324 97.1375,68.4125 Z" id="Shape" fill="url(#linearGradient-3)"></path>
                            <polygon id="Shape" fill="url(#linearGradient-4)" points="88.8 70.125 59.225 53.05 11.9 80.375 41.475 97.45"></polygon>
                            <polygon id="Shape" fill="url(#linearGradient-5)" points="31.8875 63.4875 20.775 57.05 20.775 82.7375 31.8875 89.1375"></polygon>
                            <polygon id="Shape" fill="url(#linearGradient-6)" points="62.3375 19.4875 51.225 13.05 51.225 63.7625 62.3375 70.1625"></polygon>
                            <polygon id="Shape" fill="url(#linearGradient-7)" points="62.3375 19.4875 73.4625 13.05 73.4625 63.7625 62.3375 70.1625"></polygon>
                            <polygon id="Shape" fill="url(#linearGradient-8)" points="73.4625 13.05 62.3375 6.625 51.225 13.05 62.3375 19.4875"></polygon>
                            <polygon id="Shape" fill="url(#linearGradient-9)" points="47.0125 37.725 35.9 31.275 35.9 73.65 47.0125 80.0625"></polygon>
                            <polygon id="Shape" fill="url(#linearGradient-10)" points="47.0125 37.725 58.15 31.275 58.15 73.6625 47.0125 80.0625"></polygon>
                            <polygon id="Shape" fill="url(#linearGradient-11)" points="58.15 31.275 47.0125 24.8625 35.9 31.275 47.0125 37.725"></polygon>
                            <polygon id="Shape" fill="url(#linearGradient-12)" points="31.8875 63.4875 43.025 57.05 43.025 82.7375 31.8875 89.1375"></polygon>
                            <polygon id="Shape" fill="url(#linearGradient-13)" points="43.025 57.05 31.8875 50.6375 20.775 57.05 31.8875 63.4875"></polygon>
                            <path d="M58.15,0 L50.25,1.925 L51.6625,3.525 L34.325,19.3625 L22.2375,48.5125 L6.075,66.1 C5.51973166,66.8747788 5.63413351,67.9428632 6.34089546,68.5824668 C7.0476574,69.2220703 8.12182455,69.229614 8.8375,68.6 L25.4375,50.55 L37.5,21.575 L54.1375,6.3375 L55.5875,8 L58.15,0 Z" id="Shape" fill="url(#linearGradient-14)"></path>
                        </g>
                    </g>
                </g>
            </g>
        </g>
    </g>
</svg>