<?xml version="1.0" encoding="UTF-8"?>
<svg width="159px" height="164px" viewBox="0 0 159 164" version="1.1" xmlns="http://www.w3.org/2000/svg" xmlns:xlink="http://www.w3.org/1999/xlink">
    <!-- Generator: Sketch 50.2 (55047) - http://www.bohemiancoding.com/sketch -->
    <title>Group 59</title>
    <desc>Created with Sketch.</desc>
    <defs>
        <linearGradient x1="4.4408921e-14%" y1="33.8767946%" x2="100%" y2="68.3297297%" id="linearGradient-1">
            <stop stop-color="#627389" offset="0%"></stop>
            <stop stop-color="#333F51" offset="100%"></stop>
        </linearGradient>
        <linearGradient x1="0%" y1="50%" x2="100%" y2="50%" id="linearGradient-2">
            <stop stop-color="#0071BC" offset="0%"></stop>
            <stop stop-color="#0173BB" offset="46%"></stop>
            <stop stop-color="#047AB9" offset="63%"></stop>
            <stop stop-color="#0A85B4" offset="75%"></stop>
            <stop stop-color="#1296AE" offset="84%"></stop>
            <stop stop-color="#1CACA6" offset="92%"></stop>
            <stop stop-color="#22B8A2" offset="96%"></stop>
        </linearGradient>
        <linearGradient x1="0%" y1="49.9462943%" x2="100%" y2="49.9462943%" id="linearGradient-3">
            <stop stop-color="#0071BC" offset="0%"></stop>
            <stop stop-color="#0173BB" offset="46%"></stop>
            <stop stop-color="#047AB9" offset="63%"></stop>
            <stop stop-color="#0A85B4" offset="75%"></stop>
            <stop stop-color="#1296AE" offset="84%"></stop>
            <stop stop-color="#1CACA6" offset="92%"></stop>
            <stop stop-color="#22B8A2" offset="96%"></stop>
        </linearGradient>
        <linearGradient x1="0%" y1="49.9121265%" x2="100%" y2="49.9121265%" id="linearGradient-4">
            <stop stop-color="#0071BC" offset="0%"></stop>
            <stop stop-color="#0173BB" offset="46%"></stop>
            <stop stop-color="#047AB9" offset="63%"></stop>
            <stop stop-color="#0A85B4" offset="75%"></stop>
            <stop stop-color="#1296AE" offset="84%"></stop>
            <stop stop-color="#1CACA6" offset="92%"></stop>
            <stop stop-color="#22B8A2" offset="96%"></stop>
        </linearGradient>
        <linearGradient x1="-2.04081633%" y1="51.0225485%" x2="103.673469%" y2="51.0225485%" id="linearGradient-5">
            <stop stop-color="#0071BC" offset="0%"></stop>
            <stop stop-color="#0173BB" offset="46%"></stop>
            <stop stop-color="#047AB9" offset="63%"></stop>
            <stop stop-color="#0A85B4" offset="75%"></stop>
            <stop stop-color="#1296AE" offset="84%"></stop>
            <stop stop-color="#1CACA6" offset="92%"></stop>
            <stop stop-color="#22B8A2" offset="96%"></stop>
        </linearGradient>
        <linearGradient x1="-8.91521626e-14%" y1="50.0412882%" x2="100.125471%" y2="50.0412882%" id="linearGradient-6">
            <stop stop-color="#0071BC" offset="0%"></stop>
            <stop stop-color="#0173BB" offset="46%"></stop>
            <stop stop-color="#047AB9" offset="63%"></stop>
            <stop stop-color="#0A85B4" offset="75%"></stop>
            <stop stop-color="#1296AE" offset="84%"></stop>
            <stop stop-color="#1CACA6" offset="92%"></stop>
            <stop stop-color="#22B8A2" offset="96%"></stop>
        </linearGradient>
        <linearGradient x1="2.56847432e-15%" y1="50.04995%" x2="100%" y2="50.04995%" id="linearGradient-7">
            <stop stop-color="#0071BC" offset="0%"></stop>
            <stop stop-color="#0173BB" offset="46%"></stop>
            <stop stop-color="#047AB9" offset="63%"></stop>
            <stop stop-color="#0A85B4" offset="75%"></stop>
            <stop stop-color="#1296AE" offset="84%"></stop>
            <stop stop-color="#1CACA6" offset="92%"></stop>
            <stop stop-color="#22B8A2" offset="96%"></stop>
        </linearGradient>
        <linearGradient x1="0%" y1="50.1240695%" x2="100.091827%" y2="50.1240695%" id="linearGradient-8">
            <stop stop-color="#0071BC" offset="0%"></stop>
            <stop stop-color="#0173BB" offset="46%"></stop>
            <stop stop-color="#047AB9" offset="63%"></stop>
            <stop stop-color="#0A85B4" offset="75%"></stop>
            <stop stop-color="#1296AE" offset="84%"></stop>
            <stop stop-color="#1CACA6" offset="92%"></stop>
            <stop stop-color="#22B8A2" offset="96%"></stop>
        </linearGradient>
        <linearGradient x1="-1.32861394e-14%" y1="50%" x2="100%" y2="50%" id="linearGradient-9">
            <stop stop-color="#0071BC" offset="0%"></stop>
            <stop stop-color="#0173BB" offset="46%"></stop>
            <stop stop-color="#047AB9" offset="63%"></stop>
            <stop stop-color="#0A85B4" offset="75%"></stop>
            <stop stop-color="#1296AE" offset="84%"></stop>
            <stop stop-color="#1CACA6" offset="92%"></stop>
            <stop stop-color="#22B8A2" offset="96%"></stop>
        </linearGradient>
        <linearGradient x1="0%" y1="50.0088889%" x2="100%" y2="50.0088889%" id="linearGradient-10">
            <stop stop-color="#0071BC" offset="0%"></stop>
            <stop stop-color="#22B8A2" offset="96%"></stop>
        </linearGradient>
        <linearGradient x1="0%" y1="50%" x2="72%" y2="50%" id="linearGradient-11">
            <stop stop-color="#FBB03B" offset="0%"></stop>
            <stop stop-color="#FCEE21" offset="100%"></stop>
        </linearGradient>
        <linearGradient x1="-0.11627907%" y1="51.2727273%" x2="100.581395%" y2="51.2727273%" id="linearGradient-12">
            <stop stop-color="#FBB03B" offset="0%"></stop>
            <stop stop-color="#FCEE21" offset="100%"></stop>
        </linearGradient>
        <linearGradient x1="-1.82555781%" y1="50.6738544%" x2="100%" y2="50.6738544%" id="linearGradient-13">
            <stop stop-color="#FBB03B" offset="0%"></stop>
            <stop stop-color="#FCEE21" offset="100%"></stop>
        </linearGradient>
        <linearGradient x1="-0.70754717%" y1="29%" x2="100.707547%" y2="29%" id="linearGradient-14">
            <stop stop-color="#FBB03B" offset="0%"></stop>
            <stop stop-color="#FCEE21" offset="100%"></stop>
        </linearGradient>
        <linearGradient x1="0.27972028%" y1="49.7793469%" x2="100.13986%" y2="49.7793469%" id="linearGradient-15">
            <stop stop-color="#FBB03B" offset="0%"></stop>
            <stop stop-color="#FCEE21" offset="100%"></stop>
        </linearGradient>
        <linearGradient x1="-0.0795542236%" y1="49.8779744%" x2="99.999659%" y2="49.8779744%" id="linearGradient-16">
            <stop stop-color="#FBB03B" offset="0%"></stop>
            <stop stop-color="#FCEE21" offset="100%"></stop>
        </linearGradient>
        <linearGradient x1="0%" y1="50%" x2="100%" y2="50%" id="linearGradient-17">
            <stop stop-color="#FBB03B" offset="0%"></stop>
            <stop stop-color="#FCEE21" offset="100%"></stop>
        </linearGradient>
        <linearGradient x1="0%" y1="50.0537057%" x2="100%" y2="50.0537057%" id="linearGradient-18">
            <stop stop-color="#FBB03B" offset="0%"></stop>
            <stop stop-color="#FCEE21" offset="100%"></stop>
        </linearGradient>
        <linearGradient x1="0%" y1="49.9811392%" x2="100%" y2="49.9811392%" id="linearGradient-19">
            <stop stop-color="#FBB03B" offset="0%"></stop>
            <stop stop-color="#FCEE21" offset="100%"></stop>
        </linearGradient>
        <linearGradient x1="0%" y1="50.1265823%" x2="100%" y2="50.1265823%" id="linearGradient-20">
            <stop stop-color="#FBB03B" offset="0%"></stop>
            <stop stop-color="#FCEE21" offset="100%"></stop>
        </linearGradient>
        <linearGradient x1="0%" y1="50.0351865%" x2="100%" y2="50.0351865%" id="linearGradient-21">
            <stop stop-color="#FBB03B" offset="0%"></stop>
            <stop stop-color="#FCEE21" offset="100%"></stop>
        </linearGradient>
    </defs>
    <g id="Page-1" stroke="none" stroke-width="1" fill="none" fill-rule="evenodd">
        <g id="LP_version1920" transform="translate(-528.000000, -2873.000000)">
            <g id="Group-72" transform="translate(461.000000, 2620.000000)">
                <g id="Group-40" transform="translate(0.000000, 253.000000)">
                    <g id="Group-59" transform="translate(67.000000, 0.000000)">
                        <g id="Group-29" transform="translate(79.500000, 82.000000) scale(-1, -1) translate(-79.500000, -82.000000) " fill="url(#linearGradient-1)">
                            <ellipse id="Oval-9" opacity="0.899999976" cx="87.55" cy="92.5090253" rx="71.0485241" ry="71.4909747"></ellipse>
                            <path d="M17.1719153,60.1033356 C72.9516232,82.683004 -15.3970822,122.085735 74.8432869,127.426264 C165.083656,132.766793 167.640267,50.3814566 112.68182,12.253652 C57.7233739,-25.8741527 -38.6077926,37.5236673 17.1719153,60.1033356 Z" id="Path-13" opacity="0.74000001" transform="translate(74.818980, 63.993911) scale(-1, 1) translate(-74.818980, -63.993911) "></path>
                        </g>
                        <g id="Asset-610" transform="translate(40.000000, 19.000000)">
                            <g id="Group">
                                <polygon id="Shape" fill="url(#linearGradient-2)" fill-rule="nonzero" points="4.78333333 55 12.25 50.75 18.1166667 47.3333333 10.65 51.6"></polygon>
                                <polygon id="Shape" fill="url(#linearGradient-3)" fill-rule="nonzero" points="43.4833333 95.8333333 49.35 92.4166667 49.3833333 80.3166667 43.5166667 83.7333333"></polygon>
                                <polygon id="Shape" fill="url(#linearGradient-4)" fill-rule="nonzero" points="16.3833333 23.1666667 5.86666667 17.1 0 20.5166667 10.5166667 26.5833333"></polygon>
                                <path d="M31.3185628,34.2539469 C29.6793394,41.5943283 30.4378707,47.7762402 33.5941569,52.7996826 C36.7504431,57.823125 41.6098587,60.845925 48.172404,61.8680827 C39.6965196,71.4653863 31.7822266,70.2485487 24.4295247,58.21757 C17.0768229,46.1865913 19.3731689,38.1987169 31.3185628,34.2539469 Z" id="Path-2" fill="url(#linearGradient-5)"></path>
                                <path d="M65.8333333,72.7 L65.8333333,72.5833333 L65.9833333,72.2166667 C66.1333333,71.8833333 66.2833333,71.5333333 66.4166667,71.1833333 L66.6833333,70.4333333 L60.8166667,73.7666667 C60.6134171,74.3724847 60.3797879,74.967683 60.1166667,75.55 L60,76 C59.7178778,76.6122121 59.4006845,77.2076451 59.05,77.7833333 L66.4666667,90.6166667 L72.3333333,87.2833333 L65,74.3666667 C65.3073473,73.8263944 65.5855239,73.2700412 65.8333333,72.7 Z" id="Shape" fill="url(#linearGradient-6)" fill-rule="nonzero"></path>
                                <path d="M25.8166667,16.3666667 C26.5053326,16.4342121 27.1897186,16.5399302 27.8666667,16.6833333 L33.7333333,13.35 L33.3333333,13.2 L32.25,13.0166667 L31.7166667,13.0166667 L31.4333333,13.0166667 L31.1166667,13.0166667 L29.8666667,13.0166667 L29.45,13.0166667 L22,0 L10.7833333,6.4 L4.91666667,9.73333333 L16.1166667,3.33333333 L23.5333333,16.2 C24.19388,16.1613644 24.85612,16.1613644 25.5166667,16.2 L25.8166667,16.3666667 Z" id="Shape" fill="url(#linearGradient-7)" fill-rule="nonzero"></path>
                                <path d="M66.7833333,52.2666667 L66.6166667,51.5666667 C66.5055556,51.1111111 66.3833333,50.65 66.25,50.1833333 L66.0333333,49.4333333 L65.95,49.1333333 L65.85,48.7833333 C65.7055556,48.3055556 65.5555556,47.8333333 65.4,47.3666667 L65,46.2666667 L59.1333333,49.6 C59.4666667,50.5444444 59.7777778,51.5 60.0666667,52.4666667 L60.15,52.7666667 C60.4333333,53.7166667 60.6833333,54.65 60.9,55.6 L71.4166667,61.6833333 L71.4166667,79.85 L77.2833333,76.5166667 L77.2833333,58.35 L66.7833333,52.2666667 Z" id="Shape" fill="url(#linearGradient-8)" fill-rule="nonzero"></path>
                                <path d="M72.4666667,42.0166667 L61.3166667,22.7 L53.85,26.9666667 L53.1,26.0833333 L52.1,25 L51.85,24.75 L51.6666667,24.4833333 L51.1,23.8833333 L50,22.85 L49.5333333,22.4166667 L49.5333333,10.3333333 L33.7666667,1.2 L27.9,4.53333333 L43.7166667,13.6666667 L43.7166667,25.75 C44.4333333,26.4166667 45.1166667,27.1166667 45.8,27.8166667 L46.0166667,28.05 C46.7055556,28.7833333 47.3777778,29.5333333 48.0333333,30.3 L55.5,26.0333333 L66.6666667,45.4333333 L72.4666667,42.0166667 Z" id="Shape" fill="url(#linearGradient-9)" fill-rule="nonzero"></path>
                                <path d="M71.4333333,80 L60.9166667,73.9166667 C60.4739851,75.2942151 59.8697805,76.6145138 59.1166667,77.85 L66.5333333,90.6833333 L55.3166667,97.0833333 L47.9,84.25 C46.4434691,84.2782364 44.988764,84.1327659 43.5666667,83.8166667 L43.5666667,95.9166667 L27.7166667,86.6666667 L27.7166667,74.5666667 C26.2095719,73.1260168 24.7850795,71.6013648 23.45,70 L15.9666667,74.3 L4.83333333,55 L12.3,50.75 C11.5886029,48.786638 10.9931332,46.7831885 10.5166667,44.75 L0,38.6833333 L0,20.5166667 L10.5166667,26.5833333 C10.9580758,25.2024685 11.5682447,23.8813688 12.3333333,22.65 L5,9.81666667 L16.1666667,3.33333333 L23.5833333,16.2 C25.0338265,16.1624317 26.4834717,16.3023588 27.9,16.6166667 L27.9,4.53333333 L43.7166667,13.6666667 L43.7166667,25.75 C45.2445269,27.1855895 46.6859439,28.7104862 48.0333333,30.3166667 L55.5,26.05 L66.6666667,45.4333333 L59.2,49.6833333 C59.9019524,51.6482914 60.4917902,53.6515141 60.9666667,55.6833333 L71.4833333,61.7666667 L71.4333333,80 Z M35.7,63.6833333 C42.1833333,67.4166667 47.3666667,64.4333333 47.4666667,57.0166667 C47.0385141,48.7897641 42.7024178,41.2635399 35.8,36.7666667 C29.3333333,33.0333333 24.1333333,36.05 24.05,43.4333333 C24.4806972,51.6550352 28.8168226,59.1751154 35.7166667,63.6666667 L35.7,63.6833333 Z" id="Shape" fill="url(#linearGradient-10)" fill-rule="nonzero"></path>
                            </g>
                            <g id="Group" transform="translate(18.333333, 16.666667)" fill-rule="nonzero">
                                <polygon id="Shape" fill="url(#linearGradient-11)" points="13.05 56.4 14.2333333 55.7333333 14.25 49.0333333 13.0666667 49.7166667"></polygon>
                                <path d="M16.2185234,44.3986744 L16.4204661,44.3465678 L15.8491953,44.6149951 L16.1381649,44.4457415 L16.7145793,44.6821594 L14.2004903,46.0599772 L8.57503255,43.8949076 L3.0333964,38.626709 L2.37823486,36.5871175 L2.4778145,36.6611588 L2.36666667,36.5166667 L3.53333333,35.8333333 L4.25,36.75 L4.4,36.95 L5.15,37.8333333 L5.28333333,37.9833333 L6.01666667,38.7833333 L6.18333333,38.95 L7.05,39.8166667 L7.25,40 L8.06666667,40.75 L8.21666667,40.8833333 L8.8885454,41.4277868 L10.9152437,42.9347159 C11.1311931,43.0724381 11.3459092,43.2028857 11.5666667,43.3333333 L12.6833333,43.8 L13.3833333,44.1 L14.0333333,44.3166667 L14.65,44.45 L15.2166667,44.45 L15.7166667,44.45 L15.8333333,44.45 L16.25,44.35 L16.2333333,44.3166667 C16.3950412,44.2653842 16.5513418,44.1983982 16.7,44.1166667 L16.2185234,44.3986744 Z M15.0298226,45 L15.0260386,45 L14.9974569,45.0152079 L15.0298226,45 Z" id="Combined-Shape" fill="url(#linearGradient-12)"></path>
                                <path d="M6.90791412,13.5588723 L6.96666667,13.4833333 L7.08333333,13.3333333 C7.23542021,13.1552915 7.41557027,13.0032898 7.61666667,12.8833333 L8.78333333,12.2 C8.58240951,12.3201984 8.40229629,12.472169 8.25,12.65 L8.13333333,12.8 C7.99982788,12.9747897 7.8879074,13.1650546 7.8,13.3666667 C7.69464738,13.6187587 7.61642893,13.8813492 7.56666667,14.15 C7.54019325,14.4549821 7.54019325,14.7616845 7.56666667,15.0666667 C7.56678777,15.4797977 7.60022952,15.892246 7.66666667,16.3 C7.73443044,16.7128313 7.83474329,17.1196556 7.96666667,17.5166667 C8.1049015,17.9387397 8.27196125,18.3508204 8.46666667,18.75 C8.65,19.1166667 8.86666667,19.5 9.1,19.8833333 L9.3,20.2166667 C9.55,20.6 9.81666667,20.9833333 10.1166667,21.3833333 L10.2,21.5 C10.5333333,21.95 10.8833333,22.4 11.2833333,22.8666667 L11.4833333,23.1 L12.4666667,24.2166667 L13.1833333,25 L14.5666667,26.4333333 L15.2333333,27.15 L16.3833333,28.4333333 L16.5166667,28.5833333 L16.6666667,28.7666667 L17.2,29.5333333 L17.9666667,30.4666667 L18.1833333,30.7666667 L18.3333333,30.9666667 L18.6666667,31.4 L19.4666667,32.5166667 L19.6166667,32.7666667 L19.9833333,33.35 C20.1666667,33.6333333 20.35,33.9 20.5,34.1666667 L20.9666667,35 L21.25,35.4333333 L21.4833333,35.9 L21.6666667,36.3166667 L21.8,36.6666667 L21.9666667,36.9666667 L21.9666667,37.0833333 L22.1166667,37.4833333 L22.2666667,37.9 L22.4,38.3333333 C22.4055592,38.3612154 22.411086,38.3889438 22.4165805,38.4165185 L22.4353027,38.3787028 C22.5151245,38.8020974 22.5875059,39.2114219 22.6524468,39.6066764 C22.9619267,41.1786545 23.1166667,42.0153179 23.1166667,42.1166667 C23.1166667,42.3055556 23.1166667,42.4888889 23.1166667,42.6666667 C23.1166667,42.7277389 23.0911129,42.7876495 23.0400055,42.8463986 C23.1347878,44.3635813 23.0501364,45.54145 22.7860514,46.3800049 C22.3032562,47.913035 20.9431217,49.1935526 18.7056478,50.2215576 L17.8748576,47.58962 L21.2300052,40.8130913 C21.1481199,40.3209411 21.0435722,39.8327235 20.9166667,39.35 C20.7344551,38.6706569 20.5118366,38.0028014 20.25,37.35 C19.9751625,36.6615769 19.663604,35.988388 19.3166667,35.3333333 C19.0166667,34.7666667 18.6833333,34.2166667 18.3333333,33.6666667 L17.9666667,33.0833333 C17.5666667,32.4833333 17.15,31.8833333 16.6833333,31.2833333 L16.5333333,31.0833333 C15.9888889,30.45 15.4333333,29.8055556 14.8666667,29.15 L14.7166667,28.9666667 C14.1,28.2666667 13.45,27.55 12.75,26.8166667 L11.8333333,25.85 L11.4666667,25.45 L10.75,24.6666667 L10.35,24.2166667 L9.76666667,23.5333333 L9.56666667,23.3 L9.46666667,23.1833333 L8.83333333,22.4166667 L8.46666667,21.95 L8.38333333,21.7333333 L7.83333333,20.9666667 L7.65,20.6666667 L7.45,20.3333333 L7.26666667,20.0333333 L7.01666667,19.5833333 L6.94885158,19.4477032 L5.5355835,18.5305786 L6.31713867,12.8681437 L6.75303141,12.6038615 L6.90791412,13.5588723 Z" id="Combined-Shape" fill="url(#linearGradient-13)"></path>
                                <path d="M5.05884484,7.80962676 C4.72457829,7.90724887 4.40274125,8.04382431 4.1,8.21666667 L5.26666667,7.53333333 C5.50014221,7.39952018 5.7456637,7.2879195 6,7.2 L6.38333333,7.1 L6.53333333,7.1 L6.66666667,7.1 L7.23333333,7.1 L8.26666667,7.1 L8.76666667,7.1 L9.26666667,7.18333333 L9.43333333,7.18333333 L9.7,7.18333333 L10.2166667,7.33333333 L10.75,7.5 L11.1666667,7.65 L10.2217605,8.20344504 L11.2064616,9.21488444 L4.43888346,8.69883219 L5.05884484,7.80962676 Z" id="Combined-Shape" fill="url(#linearGradient-14)"></path>
                                <path d="M13.5162127,9.83113143 L13.5,3.8 L10.0333333,1.8 L11.2,1.11666667 L14.6666667,3.11666667 L14.6666667,9.36666667 L15,9.56666667 L15.9166667,10.2 L16.0333333,10.2 L16.6666667,10.65 L16.9,10.9833333 L17.1666667,11.1833333 L17.4,11.35 L18,11.8333333 L18.0833333,11.8333333 L18.7666667,12.4166667 L18.9,12.55 L19.1166667,12.75 L19.4,13.0166667 L19.7166667,13.3333333 L19.9,13.4833333 L20,13.5833333 L20.6,14.2833333 L20.7166667,14.4166667 L21.0833333,14.8166667 L21.2333333,15 L21.5,15.15 L21.6666667,15.35 L21.95,15.8666667 L20.5333333,19.3166667 L19.3666667,20 L20.6665407,16.5897423 L20.1765442,16.9659932 L13.2141113,10.1523844 L13.5162127,9.83113143 Z" id="Combined-Shape" fill="url(#linearGradient-15)"></path>
                                <path d="M13.5333333,3.8 L13.5333333,10 C16.3115061,11.7120119 18.770436,13.8945942 20.8,16.45 L19.3666667,20 C17.4351031,17.4938544 15.0491321,15.3736196 12.3333333,13.75 C8.01666667,11.2666667 6.38333333,13.2833333 6.38333333,15.85 C6.38333333,19.1833333 8.45,22.0666667 13.3,27.2 C19.0666667,33.2333333 21.9666667,38.25 21.95,43.9833333 C21.95,49.0666667 18.8333333,52.05 13.0833333,49.8166667 L13.0833333,56.4833333 L9.55,54.45 L9.55,47.95 C6.23449218,45.9250947 3.33320369,43.2896163 1,40.1833333 L2.35,36.6333333 C4.52575124,39.6052953 7.2600996,42.124519 10.4,44.05 C14.3833333,46.35 17.0666667,45.2666667 17.0666667,41.6 C17.0666667,37.9333333 14.9,34.6166667 10.7666667,30.3 C5.06666667,24.4333333 1.55,19.4333333 1.56666667,13.8333333 C1.56666667,8.5 4.9,6.35 10.05,8.35 L10.05,1.85 L13.5333333,3.8 Z" id="Shape" fill="url(#linearGradient-16)"></path>
                            </g>
                            <g id="Group" transform="translate(40.000000, 63.333333)" fill-rule="nonzero">
                                <polygon id="Shape" fill="url(#linearGradient-17)" points="1.18333333 23.1666667 2.91666667 22.15 5.43333333 23.6 3.7 24.6166667"></polygon>
                                <polygon id="Shape" fill="url(#linearGradient-17)" points="13.3333333 30.1833333 15.0666667 29.1666667 17.5833333 30.6166667 15.85 31.6333333"></polygon>
                                <polygon id="Shape" fill="url(#linearGradient-18)" points="15.85 31.6333333 17.5833333 30.6166667 10.2 45.1166667 8.46666667 46.1333333"></polygon>
                                <polygon id="Shape" fill="url(#linearGradient-19)" points="13.3333333 30.1833333 15.85 31.6333333 8.46666667 46.1333333 1.18333333 23.1666667 3.7 24.6166667 3.75 1.95 13.4 7.51666667"></polygon>
                                <polygon id="Shape" fill="url(#linearGradient-20)" points="3.75 1.95 5.5 0.933333333 15.1333333 6.5 13.4 7.51666667"></polygon>
                                <polygon id="Shape" fill="url(#linearGradient-21)" points="13.4 7.51666667 15.1333333 6.5 15.0666667 29.1666667 13.3333333 30.1833333"></polygon>
                            </g>
                            <path d="M33.0220032,27.4575297 C36.9277445,30.8943515 38.940328,32.7658081 39.0597534,33.0718994 C39.1791789,33.3779907 39.1333856,32.7916294 38.9223735,31.3128153 L33.4470622,26.8785604 L33.0220032,27.4575297 Z" id="Path-8"></path>
                        </g>
                    </g>
                </g>
            </g>
        </g>
    </g>
</svg>