<?xml version="1.0" encoding="UTF-8"?>
<svg width="159px" height="164px" viewBox="0 0 159 164" version="1.1" xmlns="http://www.w3.org/2000/svg" xmlns:xlink="http://www.w3.org/1999/xlink">
    <!-- Generator: Sketch 50.2 (55047) - http://www.bohemiancoding.com/sketch -->
    <title>Group 57</title>
    <desc>Created with Sketch.</desc>
    <defs>
        <linearGradient x1="4.4408921e-14%" y1="33.8767946%" x2="100%" y2="68.3297297%" id="linearGradient-1">
            <stop stop-color="#627389" offset="0%"></stop>
            <stop stop-color="#333F51" offset="100%"></stop>
        </linearGradient>
        <linearGradient x1="4.88412802%" y1="41.3752423%" x2="95.0997907%" y2="58.6931743%" id="linearGradient-2">
            <stop stop-color="#0071BC" offset="0%"></stop>
            <stop stop-color="#22B8A2" offset="96%"></stop>
        </linearGradient>
        <linearGradient x1="4.8249504%" y1="41.3108023%" x2="95.2077438%" y2="58.7290508%" id="linearGradient-3">
            <stop stop-color="#0071BC" offset="0%"></stop>
            <stop stop-color="#22B8A2" offset="96%"></stop>
        </linearGradient>
        <linearGradient x1="4.74110595%" y1="41.1248617%" x2="95.2161727%" y2="58.8650645%" id="linearGradient-4">
            <stop stop-color="#0071BC" offset="0%"></stop>
            <stop stop-color="#22B8A2" offset="96%"></stop>
        </linearGradient>
        <linearGradient x1="-2.42629371%" y1="49.8816101%" x2="100%" y2="49.8816101%" id="linearGradient-5">
            <stop stop-color="#FBB03B" offset="0%"></stop>
            <stop stop-color="#FBB23A" offset="50%"></stop>
            <stop stop-color="#FBB937" offset="67%"></stop>
            <stop stop-color="#FBC432" offset="80%"></stop>
            <stop stop-color="#FCD52B" offset="90%"></stop>
            <stop stop-color="#FCEB22" offset="99%"></stop>
            <stop stop-color="#FCEE21" offset="100%"></stop>
        </linearGradient>
        <linearGradient x1="0%" y1="49.9507195%" x2="100.125156%" y2="49.9507195%" id="linearGradient-6">
            <stop stop-color="#FBB03B" offset="0%"></stop>
            <stop stop-color="#FBB23A" offset="50%"></stop>
            <stop stop-color="#FBB937" offset="67%"></stop>
            <stop stop-color="#FBC432" offset="80%"></stop>
            <stop stop-color="#FCD52B" offset="90%"></stop>
            <stop stop-color="#FCEB22" offset="99%"></stop>
            <stop stop-color="#FCEE21" offset="100%"></stop>
        </linearGradient>
        <linearGradient x1="83.9523155%" y1="83.6508466%" x2="12.3567171%" y2="24.3519133%" id="linearGradient-7">
            <stop stop-color="#FBB03B" offset="0%"></stop>
            <stop stop-color="#FBBC36" offset="8%"></stop>
            <stop stop-color="#FCD22D" offset="26%"></stop>
            <stop stop-color="#FCE226" offset="46%"></stop>
            <stop stop-color="#FCEB22" offset="69%"></stop>
            <stop stop-color="#FCEE21" offset="100%"></stop>
        </linearGradient>
    </defs>
    <g id="Page-1" stroke="none" stroke-width="1" fill="none" fill-rule="evenodd">
        <g id="LP_version1" transform="translate(-1009.000000, -3445.000000)">
            <g id="Group-42" transform="translate(940.000000, 3445.000000)">
                <g id="Group-57" transform="translate(69.000000, 0.000000)">
                    <g id="Group-29" transform="translate(79.500000, 82.000000) scale(1, -1) translate(-79.500000, -82.000000) " fill="url(#linearGradient-1)">
                        <ellipse id="Oval-9" opacity="0.899999976" cx="87.55" cy="92.5090253" rx="71.0485241" ry="71.4909747"></ellipse>
                        <path d="M17.1719153,60.1033356 C72.9516232,82.683004 -15.3970822,122.085735 74.8432869,127.426264 C165.083656,132.766793 167.640267,50.3814566 112.68182,12.253652 C57.7233739,-25.8741527 -38.6077926,37.5236673 17.1719153,60.1033356 Z" id="Path-13" opacity="0.74000001" transform="translate(74.818980, 63.993911) scale(-1, 1) translate(-74.818980, -63.993911) "></path>
                    </g>
                    <g id="Asset-110" transform="translate(37.000000, 20.000000)">
                        <path d="M27.4683544,90.1898734 C25.7590231,90.2218435 24.0539302,90.0087069 22.4050633,89.556962 C15.1424051,87.4367089 9.65189873,80.6962025 7.02531646,70.7278481 C4.46202532,60.9493671 4.90506329,49.0506329 8.30696203,37.3259494 C11.7088608,25.6012658 17.6582278,15.3006329 25.0316456,8.38607595 C32.4050633,1.47151899 40.8227848,-1.42405063 48.164557,0.696202532 C55.5063291,2.8164557 60.9968354,9.49367089 63.6234177,19.5411392 C66.1867089,29.3196203 65.7278481,41.1867089 62.3259494,52.943038 C58.9240506,64.6993671 52.9905063,74.9683544 45.6012658,81.8829114 C39.7151899,87.3892405 33.4810127,90.1898734 27.4683544,90.1898734 Z M43.1962025,2.64240506 C37.9113924,2.64240506 32.2310127,5.26898734 26.835443,10.3164557 C19.7943038,16.8987342 14.1772152,26.7563291 10.8386076,38.0537975 C7.5,49.3512658 7.12025316,60.7278481 9.57278481,70.0632911 C11.9462025,79.1139241 16.8037975,85.1740506 23.2120253,87.0253165 C29.6202532,88.8765823 36.9462025,86.3607595 43.7816456,79.9525316 C50.6170886,73.5443038 56.4398734,63.5126582 59.778481,52.1993671 C63.0537975,40.8860759 63.4968354,29.5253165 61.0443038,20.1898734 C58.6867089,11.0759494 53.8449367,5.07911392 47.4367089,3.16455696 C46.0547852,2.79200717 44.6272235,2.61622533 43.1962025,2.64240506 Z" id="Shape" fill="url(#linearGradient-2)" fill-rule="nonzero"></path>
                        <path d="M29.8259494,76.5981013 C28.6535252,76.5989606 27.4868841,76.4338196 26.3607595,76.1075949 C21.1550633,74.6044304 17.278481,69.8892405 15.4272152,62.8481013 C13.6695868,55.1680849 13.9752901,47.1597492 16.3132911,39.6360759 C18.3482704,32.0240884 22.3605559,25.085837 27.943038,19.5253165 C33.2594937,14.556962 39.0189873,12.6424051 44.2563291,14.1455696 C49.4936709,15.6487342 53.3386076,20.3481013 55.1898734,27.4050633 C56.9503497,35.0901254 56.6446317,43.1043025 54.3037975,50.6329114 C49.9050633,65.8544304 39.4620253,76.5981013 29.8259494,76.5981013 Z M40.7436709,16.2974684 C37.1993671,16.2974684 33.4018987,18.0696203 29.7626582,21.471519 C24.5142746,26.7257506 20.7525458,33.2773828 18.8607595,40.4588608 C16.6685497,47.4984563 16.3684052,54.9911541 17.9905063,62.1835443 C19.5727848,68.2911392 22.8322785,72.3417722 27.1044304,73.5759494 C36.2025316,76.2025316 47.2468354,65.5696203 51.7879747,49.8417722 C53.9942981,42.7775009 54.2945185,35.2556158 52.6582278,28.0379747 C51.0759494,21.9303797 47.8164557,17.8797468 43.5443038,16.6455696 C42.631786,16.3983515 41.6889431,16.281162 40.7436709,16.2974684 Z" id="Shape" fill="url(#linearGradient-3)" fill-rule="nonzero"></path>
                        <path d="M32.278481,63.4651899 C31.5453559,63.4675506 30.8155727,63.3663398 30.1107595,63.164557 C23.7816456,61.3449367 21.1392405,51.9936709 24.0506329,41.8829114 C26.9620253,31.7721519 34.2405063,25.3164557 40.5379747,27.1044304 C46.835443,28.8924051 49.5094937,38.2753165 46.5981013,48.3860759 C43.9873418,57.3575949 38.0063291,63.4651899 32.278481,63.4651899 Z M38.3860759,29.4303797 C33.9240506,29.4303797 28.7658228,35.0158228 26.5822785,42.5949367 C24.1613924,50.9968354 26.1075949,59.2563291 30.8386076,60.6170886 C35.5696203,61.9778481 41.6297468,56.0443038 44.0506329,47.6424051 C46.471519,39.2405063 44.556962,30.9968354 39.8101266,29.6360759 C39.3520193,29.5066965 38.877913,29.4427721 38.4018987,29.4462025 L38.3860759,29.4303797 Z" id="Shape" fill="url(#linearGradient-4)" fill-rule="nonzero"></path>
                        <path d="M74.4620253,53.4968354 L74.7151899,53.4968354 L74.9525316,53.4968354 L75.2531646,53.4968354 L75.8702532,53.4968354 L76.2816456,53.4968354 L76.3765823,53.4968354 L76.693038,53.5917722 L76.7879747,53.5917722 L77.1677215,53.7658228 L71.4556962,50.3955696 L71.1708861,50.2531646 L71.0759494,50.2531646 L70.9335443,50.2531646 L70.7753165,50.2531646 L70.6170886,50.2531646 L70.2689873,50.2531646 L69.4778481,50.2531646 L69.335443,50.2531646 L69.0981013,50.2531646 L68.971519,50.2531646 L68.8449367,50.2531646 L68.4493671,50.3955696 L68.306962,50.3955696 L68.2278481,50.3955696 C67.9839439,50.4976693 67.7461989,50.6139002 67.5158228,50.7436709 C67.20226,50.9298013 66.9010042,51.1359237 66.6139241,51.3607595 L66.3291139,51.5981013 L65.7436709,52.1044304 L65.6012658,52.2151899 L65.2689873,52.5791139 L65.0474684,52.8006329 L64.5886076,53.3544304 L64.5094937,53.4651899 L64.414557,53.6075949 L64.2088608,53.8765823 L63.8765823,54.3670886 L63.6392405,54.7468354 L63.3702532,55.2373418 L60.3006329,53.4493671 L60.0158228,53.306962 L59.9208861,53.306962 L59.778481,53.306962 L59.6202532,53.306962 L59.4620253,53.306962 L59.1139241,53.306962 L58.306962,53.306962 L58.164557,53.306962 L57.9272152,53.306962 L57.8006329,53.306962 L57.6740506,53.306962 L57.278481,53.4493671 L57.1360759,53.4493671 L57.056962,53.4493671 C56.8127682,53.5567741 56.5750254,53.6782871 56.3449367,53.8132911 C56.04303,53.990263 55.7523879,54.1857859 55.4746835,54.3987342 L55.3322785,54.5094937 C55.0569471,54.7280155 54.7928938,54.9603824 54.5411392,55.2056962 L54.0506329,55.6962025 L53.6708861,56.0917722 L53.5443038,56.2183544 L53.4493671,56.3449367 L53.2278481,56.6139241 L53.085443,56.7879747 L52.9746835,56.9462025 L52.8164557,57.1677215 L52.7056962,57.3101266 L52.5316456,57.5791139 L52.4208861,57.7373418 L52.1202532,58.2278481 L52.1202532,58.3227848 L51.9303797,58.6708861 L48.75,56.9620253 L48.4651899,56.8196203 L48.3702532,56.8196203 L48.2278481,56.8196203 L48.0696203,56.8196203 L47.9113924,56.8196203 L47.5632911,56.8196203 L46.7721519,56.8196203 L46.6297468,56.8196203 L46.3924051,56.8196203 L46.2658228,56.8196203 L46.1392405,56.8196203 L45.7436709,56.9620253 L45.6012658,56.9620253 L45.5221519,56.9620253 C45.2783065,57.0642545 45.0405689,57.1804818 44.8101266,57.3101266 C44.5025535,57.49193 44.2066202,57.6927418 43.9240506,57.9113924 L43.7816456,58.0221519 C43.5063664,58.2407362 43.2423161,58.4731004 42.9905063,58.7183544 L42.8639241,58.8449367 L42.4841772,59.2405063 L42.3575949,59.3670886 L42.2626582,59.4936709 L42.0411392,59.7626582 L41.8987342,59.9367089 L41.7879747,60.0949367 L41.6297468,60.3164557 L41.3924051,60.6012658 L41.2183544,60.8702532 L41.1075949,61.028481 L40.806962,61.5031646 L40.806962,61.6139241 L40.6329114,61.9462025 L40.5537975,62.1202532 L40.4588608,62.2943038 L40.4588608,62.4367089 L40.2689873,62.8481013 L40.0632911,63.3544304 L40.0632911,63.4493671 L40.0632911,63.6392405 L39.9683544,63.8924051 L39.9683544,64.0981013 L39.9683544,64.335443 L39.9683544,64.4778481 L39.9683544,64.7310127 L39.9683544,65.0316456 L39.9683544,65.1265823 C39.9683544,65.1265823 39.9683544,65.2689873 39.9683544,65.3322785 C39.9683544,65.3955696 39.9683544,65.6329114 39.9683544,65.7911392 L39.9683544,65.9177215 C39.9683544,65.9177215 39.9683544,65.9177215 39.9683544,66.028481 C39.9486256,66.3604666 39.9486256,66.6933308 39.9683544,67.0253165 L45.6170886,70.3006329 C45.5973969,69.9686462 45.5973969,69.6357842 45.6170886,69.3037975 L45.6170886,69.0664557 C45.6170886,68.9082278 45.6170886,68.7658228 45.6170886,68.6075949 L45.6170886,68.306962 L45.6170886,68.0221519 L45.7278481,67.6107595 L45.7278481,67.3734177 L45.8860759,66.914557 L45.8860759,66.7246835 C45.8860759,66.5189873 46.0443038,66.3132911 46.1392405,66.1075949 L46.4082278,65.5379747 L46.4873418,65.3639241 L46.7563291,64.8575949 L46.7563291,64.7468354 L47.1202532,64.1613924 L47.2310127,64.0031646 L47.5158228,63.5917722 L47.6740506,63.3860759 L47.9272152,63.0537975 L48.1487342,62.7848101 L48.3702532,62.5316456 L48.75,62.1360759 L48.9398734,61.9462025 C49.1917015,61.7009683 49.4557507,61.468605 49.7310127,61.25 L49.8734177,61.1392405 C50.1559873,60.9205899 50.4519206,60.7197781 50.7594937,60.5379747 C50.9898864,60.4082357 51.2276296,60.2920057 51.471519,60.1898734 L51.471519,60.3797468 L51.3765823,60.6487342 L51.3765823,60.8386076 L51.3765823,61.0759494 L51.3765823,61.2341772 L51.3765823,61.4873418 L51.3765823,61.7879747 L51.3765823,61.8987342 C51.3765823,61.8987342 51.3765823,62.0411392 51.3765823,62.1044304 C51.3765823,62.1677215 51.3765823,62.4050633 51.3765823,62.5474684 L51.3765823,62.6740506 C51.3765823,62.6740506 51.3765823,62.6740506 51.3765823,62.7848101 C51.3573301,63.111531 51.3573301,63.4391019 51.3765823,63.7658228 L57.0253165,67.0411392 C57.0060642,66.7144184 57.0060642,66.3868474 57.0253165,66.0601266 L57.0253165,65.806962 C57.0253165,65.664557 57.0253165,65.5063291 57.0253165,65.3639241 L57.0253165,65.0474684 L57.0253165,64.7626582 L57.1360759,64.3512658 L57.1360759,64.1139241 L57.2943038,63.6550633 L57.2943038,63.4651899 C57.2943038,63.2594937 57.4525316,63.0537975 57.5474684,62.8322785 L57.5474684,62.7531646 L57.8006329,62.2151899 L57.8955696,62.0411392 L57.6898734,61.7088608 L57.6898734,61.5981013 L58.0537975,61.0126582 L58.164557,60.8386076 L58.4493671,60.4272152 L58.6075949,60.2056962 L58.8607595,59.8734177 L59.0822785,59.6044304 L59.3037975,59.3512658 L59.6835443,58.9556962 L59.8734177,58.7658228 C60.1252458,58.5205885 60.389295,58.2882252 60.664557,58.0696203 L60.806962,57.9588608 C61.0847136,57.7459782 61.3753516,57.5504581 61.6772152,57.3734177 L61.7563291,57.3734177 L67.3892405,60.6487342 L67.4841772,60.6487342 L67.721519,60.7278481 L67.8639241,60.7278481 C67.9746835,60.3955696 68.1012658,60.0632911 68.2436709,59.7468354 C68.3860759,59.4303797 68.528481,59.1139241 68.7025316,58.7974684 C68.8607595,58.4968354 69.0348101,58.1803797 69.2246835,57.8955696 C69.3987342,57.6107595 69.5886076,57.3575949 69.778481,57.0886076 L69.8734177,56.9462025 C70.0632911,56.693038 70.2637131,56.4504219 70.4746835,56.2183544 L70.6962025,55.9810127 L71.1392405,55.5221519 L71.7246835,55.0158228 L72.0094937,54.778481 C72.2965738,54.5536452 72.5978296,54.3475228 72.9113924,54.1613924 C73.1418183,54.0317164 73.3795577,53.9154882 73.6234177,53.8132911 L73.8449367,53.7183544 L74.4620253,53.4968354 Z M62.1677215,57.4841772 L61.9620253,57.3892405 L61.8829114,57.3892405 L62.5158228,57.0727848 L62.6107595,57.0727848 L62.4208861,57.6107595 L62.1677215,57.4841772 Z" id="Shape" fill="url(#linearGradient-5)" fill-rule="nonzero"></path>
                        <path d="M33.3386076,49.6835443 C33.3386076,49.5411392 33.3386076,49.3829114 33.3386076,49.2405063 L33.3386076,48.9240506 L33.3386076,48.6392405 L33.4493671,48.2278481 L33.4493671,47.9905063 L33.6075949,47.5316456 L33.6075949,47.3417722 C33.6075949,47.1360759 33.7658228,46.9303797 33.8607595,46.7088608 L33.8607595,46.6297468 L34.1139241,46.0917722 L34.193038,45.9177215 L34.4778481,45.4113924 L34.4778481,45.3164557 L34.8417722,44.7310127 L34.9525316,44.5727848 L35.2373418,44.1613924 L35.3955696,43.9398734 L35.6487342,43.6075949 L35.8702532,43.3386076 L36.0917722,43.085443 L36.471519,42.6898734 L36.6613924,42.5 C36.9131654,42.2547062 37.1772177,42.0223402 37.4525316,41.8037975 L37.5949367,41.693038 C37.8726411,41.4800897 38.1632832,41.2845668 38.4651899,41.1075949 C38.6952267,40.9724964 38.9329751,40.8509805 39.1772152,40.7436709 L39.8101266,40.664557 L40.2056962,40.5221519 L40.4588608,40.5221519 L40.6962025,40.5221519 L40.9968354,40.5221519 L41.6139241,40.5221519 L42.0411392,40.5221519 L42.1360759,40.5221519 L42.4525316,40.6170886 L42.5474684,40.6170886 L42.9272152,40.7911392 L37.278481,37.5158228 L36.9936709,37.3734177 L36.8987342,37.3734177 L36.7405063,37.3734177 L36.5822785,37.3734177 L36.4240506,37.3734177 L36.0759494,37.3734177 L35.221519,37.3734177 L35.0791139,37.3734177 L34.8417722,37.3734177 L34.7151899,37.3734177 L34.5886076,37.3734177 L34.193038,37.5158228 L34.0506329,37.5158228 L33.971519,37.5158228 C33.7273252,37.6232298 33.4895823,37.7447428 33.2594937,37.8797468 C32.9576301,38.0567872 32.6669921,38.2523073 32.3892405,38.4651899 L32.2468354,38.5759494 C31.971504,38.7944712 31.7074507,39.0268381 31.4556962,39.2721519 L31.3291139,39.3987342 L30.9493671,39.7943038 L30.8386076,39.9208861 L30.7436709,40.0474684 L30.5221519,40.3164557 L30.3164557,40.5063291 L30.2056962,40.664557 L30.0474684,40.8860759 L29.9367089,41.028481 L29.7626582,41.2974684 L29.6518987,41.4556962 L29.3512658,41.9462025 L29.3512658,42.0411392 L29.1613924,42.3892405 L29.0822785,42.5474684 L28.9873418,42.721519 L28.9873418,42.8797468 L28.8132911,43.2594937 L28.8132911,43.3544304 L28.6075949,43.8607595 L28.6075949,43.9398734 L28.6075949,44.1297468 L28.5126582,44.3987342 L28.5126582,44.5886076 L28.5126582,44.8259494 L28.5126582,44.9841772 L28.5126582,45.2373418 L28.5126582,45.5221519 L28.5126582,45.6329114 C28.5126582,45.6329114 28.5126582,45.7753165 28.5126582,45.8386076 C28.5126582,45.9018987 28.5126582,46.1392405 28.5126582,46.2816456 L28.5126582,46.4082278 C28.5126582,46.4082278 28.5126582,46.4082278 28.5126582,46.5189873 C28.493406,46.8457082 28.493406,47.1732791 28.5126582,47.5 L28.5126582,73.6392405 L28.5126582,76.8987342 L28.5126582,98.1487342 L25.9335443,98.1487342 L25.0791139,98.1487342 L24.8101266,98.1487342 L23.3227848,98.2436709 L23.085443,98.2436709 L21.6613924,98.4177215 L21.5189873,98.4177215 L21.3449367,98.4177215 L20.4113924,98.5917722 L20.1898734,98.5917722 L19.2405063,99.1455696 L19.0981013,99.1455696 L18.1329114,99.4462025 L17.9588608,99.4462025 L16.9620253,99.8259494 L16.8670886,99.8259494 L16.7879747,99.8259494 C16.2974684,100.031646 15.806962,100.253165 15.3322785,100.506329 L15.2056962,100.506329 C14.6993671,100.759494 14.193038,101.044304 13.6234177,101.329114 L12.6582278,101.914557 L12.3734177,102.10443 L11.5822785,102.848101 L11.3291139,103.053797 C11.0126582,103.291139 10.7120253,103.528481 10.4113924,103.797468 C10.1265823,104.03481 9.85759494,104.303797 9.58860759,104.556962 L9.4778481,104.651899 L9.33544304,104.810127 L8.75,105.427215 L8.59177215,105.601266 L8.48101266,105.743671 L8.2278481,106.060127 L8.0221519,106.313291 L7.86392405,106.53481 L7.7056962,106.756329 L7.59493671,106.914557 L7.23101266,107.452532 L6.99367089,107.848101 L6.58227848,108.370253 L6.34493671,108.844937 L6.18670886,109.193038 L6.18670886,109.272152 L5.98101266,109.794304 L5.88607595,110.079114 L5.88607595,110.221519 L5.88607595,110.348101 C5.82278481,110.548523 5.75949367,110.754219 5.69620253,110.96519 L5.69620253,111.091772 L5.69620253,111.344937 C5.69620253,111.471519 5.69620253,111.598101 5.60126582,111.724684 C5.50632911,111.851266 5.60126582,111.898734 5.60126582,111.993671 C5.60126582,112.088608 5.60126582,112.325949 5.5221519,112.484177 C5.44303797,112.642405 5.5221519,112.658228 5.5221519,112.753165 C5.5221519,112.848101 5.5221519,113.006329 5.5221519,113.132911 C5.5221519,113.259494 5.5221519,113.338608 5.5221519,113.433544 C5.5221519,113.528481 5.5221519,114.113924 5.5221519,114.477848 L5,114.477848 L9.87341772,117.642405 C9.87341772,117.294304 10.6962025,116.962025 10.7120253,116.629747 C10.7278481,116.297468 10.7120253,116.424051 10.7120253,116.329114 C10.7120253,116.234177 10.7120253,115.886076 10.7911392,115.664557 C10.8702532,115.443038 10.7911392,115.332278 10.8702532,115.174051 C10.9493671,115.015823 10.9493671,114.746835 11.0126582,114.525316 L11.0126582,114.272152 C11.0864979,113.976793 11.1761603,113.686709 11.2816456,113.401899 L11.2816456,113.259494 C11.3924051,112.974684 11.5031646,112.689873 11.6139241,112.405063 L11.6139241,112.325949 C11.7405063,112.041139 11.8829114,111.756329 12.0253165,111.471519 C12.1729958,111.197257 12.3259494,110.933544 12.4841772,110.68038 C12.6424051,110.427215 12.8006329,110.189873 12.9746835,109.952532 L13.1329114,109.731013 L13.5126582,109.256329 L13.7658228,108.939873 L14.0348101,108.639241 L14.6202532,108.022152 L14.8734177,107.768987 C15.1424051,107.5 15.4272152,107.246835 15.6962025,107.009494 C15.9968354,106.756329 16.3132911,106.503165 16.6139241,106.265823 L16.8829114,106.060127 L17.5949367,105.56962 L17.8797468,105.379747 L19.2405063,104.873418 C19.7468354,104.572785 20.2531646,104.303797 20.8227848,104.050633 L20.9493671,104.050633 C21.4240506,103.813291 21.914557,103.591772 22.4050633,103.370253 L22.5791139,103.370253 L23.5759494,102.990506 L23.75,102.990506 L24.7151899,102.689873 L24.9367089,102.689873 L25.9810127,102.436709 L26.2025316,102.436709 L27.1202532,102.262658 L27.4367089,102.262658 L28.8607595,102.088608 L29.0981013,102.088608 L30.5696203,101.993671 L33.4810127,101.993671 L33.4810127,80.7436709 L33.4810127,77.056962 L33.4810127,50.9177215 C33.4617604,50.5910007 33.4617604,50.2634297 33.4810127,49.9367089 L33.3386076,49.6835443 Z" id="Shape" fill="url(#linearGradient-6)" fill-rule="nonzero"></path>
                        <path d="M38.3860759,41.1392405 C41.5506329,39.3196203 44.1613924,40.7911392 44.1613924,44.3037975 L44.1613924,70.443038 C44.3800403,66.4456061 46.504881,62.7962951 49.8734177,60.6329114 C53.0379747,58.8132911 55.6170886,60.3006329 55.6329114,63.8765823 L55.6329114,67.1360759 C55.859201,63.1409365 57.9821658,59.4948473 61.3449367,57.3259494 C64.5094937,55.5063291 67.1202532,56.9778481 67.1202532,60.4905063 C67.2907136,60.576559 67.4715164,60.6403717 67.6582278,60.6803797 C68.6295902,57.9141347 70.5310638,55.5708481 73.0379747,54.0506329 C76.2025316,52.2310127 78.7816456,53.7183544 78.7974684,57.3259494 L78.8924051,89.9841772 C78.4541199,97.9827748 74.1975722,105.283078 67.4525316,109.60443 L48.164557,120.585443 C42.056962,124.066456 36.2183544,124.651899 31.8829114,122.167722 L22.7848101,117.088608 L9.87341772,117.879747 C9.87341772,111.64557 14.1455696,107.310127 18.4651899,104.841772 C22.1677215,102.721519 25.4905063,101.471519 32.8322785,101.550633 L32.8322785,80.3006329 L32.8322785,77.0411392 L32.8322785,50.9018987 C33.0374373,46.9530758 35.0965811,43.3334412 38.3860759,41.1392405 Z" id="Shape" fill="url(#linearGradient-7)" fill-rule="nonzero"></path>
                        <polyline id="Path-11" stroke="#0376BA" stroke-width="2.5" stroke-linecap="round" points="0 54.512207 7.29443359 62.3647461 11.8035714 52.4906064"></polyline>
                        <polyline id="Path-11-Copy" stroke="#21B6A2" stroke-width="2.5" stroke-linecap="round" transform="translate(63.147085, 32.001405) scale(1, -1) rotate(18.000000) translate(-63.147085, -32.001405) " points="57.6588358 29.280251 65.5956764 36.9384752 68.6353335 27.0643355"></polyline>
                    </g>
                </g>
            </g>
        </g>
    </g>
</svg>