<?xml version="1.0" encoding="UTF-8"?>
<svg width="159px" height="164px" viewBox="0 0 159 164" version="1.1" xmlns="http://www.w3.org/2000/svg" xmlns:xlink="http://www.w3.org/1999/xlink">
    <!-- Generator: Sketch 50.2 (55047) - http://www.bohemiancoding.com/sketch -->
    <title>Group 52</title>
    <desc>Created with Sketch.</desc>
    <defs>
        <linearGradient x1="4.4408921e-14%" y1="33.8767946%" x2="100%" y2="68.3297297%" id="linearGradient-1">
            <stop stop-color="#627389" offset="0%"></stop>
            <stop stop-color="#333F51" offset="100%"></stop>
        </linearGradient>
        <linearGradient x1="0%" y1="50%" x2="100%" y2="50%" id="linearGradient-2">
            <stop stop-color="#FBB03B" offset="0%"></stop>
            <stop stop-color="#FCEE21" offset="100%"></stop>
        </linearGradient>
        <linearGradient x1="49.9197955%" y1="100%" x2="49.9197955%" y2="0.0343219736%" id="linearGradient-3">
            <stop stop-color="#0071BC" offset="0%"></stop>
            <stop stop-color="#22B8A2" offset="96%"></stop>
        </linearGradient>
        <linearGradient x1="49.9778957%" y1="100.017844%" x2="49.9778957%" y2="-0.0576028195%" id="linearGradient-4">
            <stop stop-color="#0071BC" offset="0%"></stop>
            <stop stop-color="#22B8A2" offset="96%"></stop>
        </linearGradient>
        <linearGradient x1="-11.3297895%" y1="45.1960619%" x2="112.47075%" y2="60.8971901%" id="linearGradient-5">
            <stop stop-color="#FBB03B" offset="0%"></stop>
            <stop stop-color="#FCEE21" offset="100%"></stop>
        </linearGradient>
        <linearGradient x1="15581.6211%" y1="50.1206296%" x2="15681.7877%" y2="50.1206296%" id="linearGradient-6">
            <stop stop-color="#0071BC" offset="0%"></stop>
            <stop stop-color="#22B8A2" offset="96%"></stop>
        </linearGradient>
    </defs>
    <g id="Page-1" stroke="none" stroke-width="1" fill="none" fill-rule="evenodd">
        <g id="LP_version1920" transform="translate(-903.000000, -3475.000000)">
            <g id="Group-72" transform="translate(461.000000, 2620.000000)">
                <g id="Group-49" transform="translate(359.000000, 855.000000)">
                    <g id="Group-52" transform="translate(82.000000, 0.000000)">
                        <g id="Group-29" transform="translate(80.500000, 82.000000) scale(1, -1) translate(-80.500000, -82.000000) " fill="url(#linearGradient-1)">
                            <ellipse id="Oval-9" opacity="0.899999976" cx="88.55" cy="92.5090253" rx="71.0485241" ry="71.4909747"></ellipse>
                            <path d="M18.1719153,60.1033356 C73.9516232,82.683004 -14.3970822,122.085735 75.8432869,127.426264 C166.083656,132.766793 168.640267,50.3814566 113.68182,12.253652 C58.7233739,-25.8741527 -37.6077926,37.5236673 18.1719153,60.1033356 Z" id="Path-13" opacity="0.74000001" transform="translate(75.818980, 63.993911) scale(-1, 1) translate(-75.818980, -63.993911) "></path>
                        </g>
                        <g id="Asset-210" transform="translate(52.000000, 11.000000)" fill-rule="nonzero">
                            <polygon id="Shape" fill="url(#linearGradient-2)" points="46.3371429 1.39238095 6.67047619 95.4590476 29.4666667 77.1638095 11.9971429 135.870476 59.3704762 38.2742857 29.7580952 62.592381"></polygon>
                            <polygon id="Shape" fill="url(#linearGradient-2)" points="46.3371429 1.39238095 37.9019048 0 0 92.0914286 6.67047619 95.4590476"></polygon>
                            <polygon id="Shape" fill="url(#linearGradient-2)" points="59.3704762 38.2742857 52.1171429 36.72 33.012381 50.5790476 29.7580952 62.592381"></polygon>
                            <polygon id="Shape" fill="url(#linearGradient-2)" points="11.9971429 135.870476 5.92571429 134.380952 20.5780952 84.287619 29.4666667 77.1638095"></polygon>
                            <path d="M23.7514286,71.9180952 L53.4285714,54.9342857 C54.5050649,54.2937843 55.8544188,54.3316166 56.8933333,55.0314286 L57.2171429,55.2904762 L57.46,55.4847619 L62.1552381,59.3219048 L60.7142857,62.3009524 L58.4152381,62.3009524 L58.4152381,84.1904762 C58.4255067,85.3747142 57.8100116,86.4764506 56.7961905,87.0885714 L28.4304762,103.392381 C28.7219048,103.489524 28.9647619,103.586667 28.9647619,103.667619 C28.9647619,103.748571 29.1104762,104.914286 29.1104762,104.914286 L29.1104762,105.950476 L27.847619,107.44 L23.5733333,103.975238 C22.6652378,103.36942 22.1235086,102.34683 22.132381,101.255238 L22.132381,74.8485714 C22.1105496,73.6528407 22.7275433,72.536082 23.7514286,71.9180952 Z" id="Shape" fill="url(#linearGradient-3)"></path>
                            <path d="M57.6866667,58.6257143 L28.0419048,75.6257143 C27.0230684,76.240777 26.406827,77.3500115 26.4228571,78.54 L26.4228571,104.946667 C26.4317865,106.137849 27.072331,107.234771 28.105363,107.827931 C29.138395,108.421092 30.4086452,108.421335 31.4419048,107.828571 L61.0219048,90.6666667 C62.0357258,90.0545458 62.651221,88.9528094 62.6409524,87.7685714 L62.6409524,61.5238095 C62.625174,60.34944 61.9958049,59.2690196 60.9820395,58.676 C59.9682741,58.0829804 58.7180542,58.0639026 57.6866667,58.6257143 Z" id="Shape" fill="url(#linearGradient-4)"></path>
                            <path d="M44.7990476,80.24 C45.4628571,77.9247619 47.1304762,76.3542857 48.5228571,76.7590476 C49.9152381,77.1638095 50.4819048,79.3657143 49.8180952,81.6161905 C49.6202048,82.3025232 49.3141401,82.9529108 48.9114286,83.5428571 L51.6638095,89.5495238 L44.8152381,92.8847619 L45.7704762,84.9352381 C44.6371429,84.3685714 44.1838095,82.3609524 44.7990476,80.24 Z" id="Shape" fill="url(#linearGradient-5)"></path>
                            <path d="M28.9,73.4561905 C29.3923131,73.4605092 29.8659478,73.2679588 30.215596,72.921351 C30.5652442,72.5747432 30.7619237,72.1028082 30.7619048,71.6104762 C30.7619048,70.8980952 30.7619048,54.1409524 44.9609524,50.8542857 C46.7377747,50.2486 48.6954062,50.5060255 50.2552381,51.5504762 C52.6028571,53.4447619 52.6028571,57.6219048 52.6028571,57.6704762 C52.5941934,58.1600118 52.7803909,58.6329314 53.1204729,58.9851592 C53.4605549,59.337387 53.9266522,59.5400584 54.4161905,59.5485714 C54.9082363,59.5661558 55.3862797,59.3829001 55.7404841,59.0409096 C56.0946886,58.6989191 56.2945998,58.2275979 56.2942857,57.7352381 C56.2942857,57.492381 56.2942857,51.7285714 52.5866667,48.6847619 C50.1561094,46.892542 47.0156744,46.3691362 44.1352381,47.2761905 C37.0697074,48.9367513 31.3847899,54.1673665 29.1428571,61.0704762 C27.8921512,64.4589308 27.2136891,68.0317997 27.1352381,71.6428571 C27.15143,72.6188678 27.9247885,73.4135114 28.9,73.4561905 Z" id="Shape" fill="url(#linearGradient-6)"></path>
                        </g>
                    </g>
                </g>
            </g>
        </g>
    </g>
</svg>