<?xml version="1.0" encoding="UTF-8"?>
<svg width="148px" height="44px" viewBox="0 0 148 44" version="1.1" xmlns="http://www.w3.org/2000/svg" xmlns:xlink="http://www.w3.org/1999/xlink">
    <!-- Generator: Sketch 50.2 (55047) - http://www.bohemiancoding.com/sketch -->
    <title>SL Logo Color</title>
    <desc>Created with Sketch.</desc>
    <defs>
        <polygon id="path-1" points="0.117401425 0.112628931 21.0059749 0.112628931 21.0059749 20.5928374 0.117401425 20.5928374"></polygon>
        <polygon id="path-3" points="0.187844316 0.153070765 11.4606525 0.153070765 11.4606525 17.4339623 0.187844316 17.4339623"></polygon>
    </defs>
    <g id="Page-1" stroke="none" stroke-width="1" fill="none" fill-rule="evenodd">
        <g id="SL-Logo-Color">
            <path d="M20.5833107,3.40501887 C21.4301031,3.45344654 22.2279145,3.64245283 22.9695497,4.05477987 C23.5567698,4.38132075 24.1384553,4.72308176 24.7469836,5.00479245 C25.7216252,5.45613836 26.7297509,5.81450314 27.7899019,6.03007547 C28.9076126,6.25727044 30.0361157,6.35301887 31.1657258,6.28632704 C32.2291975,6.22350943 33.2871346,6.0472327 34.1981283,5.41656604 C34.7886692,5.00728302 35.1672352,4.47125786 35.1185308,3.71744654 C35.1027572,3.47420126 35.1617006,3.24451572 35.204317,3.01510692 C35.2624302,2.70461635 35.7287195,2.55296855 36.1853233,2.68192453 C37.0199396,2.91742138 37.7330717,3.37098113 38.401927,3.91198742 C39.0669082,4.44967296 39.6328201,5.0698239 40.0755874,5.8009434 C40.2513107,6.0912327 40.3858013,6.40172327 40.4021283,6.74486792 C40.4223296,7.17822642 40.2062038,7.39103145 39.7756126,7.3990566 C39.2243673,7.4092956 38.6825308,7.38411321 38.1376503,7.58667925 C37.3448201,7.88139623 36.9277887,8.46391195 36.7088956,9.21661635 C36.4133484,10.2349811 36.5528201,11.2547296 36.8035371,12.2606415 C37.0606189,13.2922893 37.5122415,14.2483899 38.0795371,15.1383522 C38.7093736,16.1273836 39.5010969,16.9893962 40.5382792,17.5597358 C41.3670843,18.0155094 42.2692226,18.1594088 43.2175748,17.9297233 C43.6844176,17.8168176 44.1852981,17.7185786 44.5782541,18.1245409 C44.8682667,18.424239 45.1087447,18.7726415 45.2581786,19.1636604 C45.5540025,19.9390566 45.6992855,20.7581761 45.6705057,21.5778491 C45.6367447,22.5522138 45.5160906,23.5263019 44.9402164,24.3758616 C44.7025057,24.726478 44.4144302,25.0389057 44.001273,25.0732201 C43.5715119,25.1089182 43.2026314,24.8582013 42.9521912,24.502327 C42.5974239,23.998956 42.2949585,23.4579497 41.8887195,22.9916604 C41.3336,22.3551824 40.6293233,21.957522 39.8223799,21.7325409 C38.6725686,21.4123648 37.5584553,21.6248931 36.4778264,22.0192327 C35.2654742,22.4608931 34.2169459,23.1820503 33.3294742,24.116566 C32.2023547,25.3037358 31.3685686,26.6760377 30.7993358,28.2149308 C30.5234365,28.9609937 30.2533484,29.7120377 29.758556,30.3595849 C29.0177509,31.3292453 28.0738264,31.9624025 26.8778013,32.2255723 C25.7116629,32.4818239 24.5886943,32.3362642 23.5421031,31.7974717 C22.6056503,31.3151321 21.8916881,30.5657484 21.4973484,29.5811447 C20.8763673,28.0297987 21.0186063,26.5398868 22.0250717,25.1753333 C22.5610969,24.4486415 23.2534742,23.9228553 24.0941786,23.5672579 C25.0342289,23.1698742 26.0362667,22.9614969 26.9735497,22.5583019 C27.9385057,22.1432075 28.8290214,21.6149308 29.6354113,20.942478 C30.3344302,20.3599623 30.9141786,19.6742264 31.3525182,18.8786289 C31.7673358,18.1250943 32.0241409,17.3217484 32.114078,16.4564151 C32.1923925,15.7020503 32.096644,14.9800629 31.9076377,14.2553082 C31.7208453,13.5374717 31.3790843,12.8951824 30.9421283,12.3129434 C30.2685686,11.4160629 29.4137509,10.7167673 28.3940025,10.2410692 C27.3889208,9.77228931 26.3312604,9.5334717 25.2182541,9.44049057 C23.7504805,9.31762264 22.356317,9.64056604 20.9521912,9.95631447 C19.6764679,10.243283 18.4389333,10.2316604 17.242078,9.6018239 C16.1088704,9.00519497 15.5061535,7.64645283 15.9027069,6.41971069 C16.3302541,5.0969434 17.3173484,4.33178616 18.5532226,3.83062893 C19.2051975,3.5663522 19.8887195,3.45012579 20.5833107,3.40501887" id="Fill-1" fill="#3C6AB5"></path>
            <g id="Group-5" transform="translate(4.704403, 0.164101)">
                <mask id="mask-2" fill="white">
                    <use xlink:href="#path-1"></use>
                </mask>
                <g id="Clip-4"></g>
                <path d="M14.5793308,10.4025132 C15.3436579,10.4171799 16.0844629,10.2472679 16.8321862,10.1324252 C17.784966,9.98603522 18.729444,10.0571547 19.5496704,10.5732553 C20.3151044,11.0542113 20.8074063,11.762639 20.9612679,12.7060101 C21.0794314,13.4291044 20.9618214,14.0913182 20.6267019,14.7028906 C20.0591296,15.7384126 19.1683371,16.3297836 17.9828277,16.4894566 C17.2589031,16.5868654 16.5925384,16.4216579 15.9668528,16.1031421 C15.3566642,15.7923748 14.8923119,15.2807019 14.3900478,14.8238214 C13.365595,13.892073 12.1933686,13.3195195 10.7765132,13.2506138 C8.91080252,13.1598465 7.36028679,13.8392176 6.05384654,15.1071925 C5.29034969,15.8482742 4.78421132,16.7731044 4.42556981,17.7776327 C4.18702893,18.4459346 3.97062642,19.1291799 3.52841258,19.7014566 C2.9013434,20.5136579 1.86333082,20.9448025 0.971431447,20.2322239 C0.500991195,19.8564252 0.293444025,19.3129283 0.18358239,18.7304126 C-0.0297761006,17.5963748 0.289846541,16.5777333 0.896437736,15.6423874 C1.19779623,15.1780352 1.67681509,14.8907899 2.17326792,14.6525258 C3.14901635,14.1837459 4.0331673,13.5801987 4.79140629,12.8081233 C5.63958239,11.9441736 6.24229937,10.9224881 6.4672805,9.72978365 C6.59402264,9.05788428 6.54172075,8.35111698 6.05661384,7.79682767 C5.47520503,7.13184654 4.71890314,7.12741887 3.92994717,7.33302893 C3.1971673,7.52397233 2.56843774,7.93574591 1.90428679,8.2736327 C1.76481509,8.34447547 1.61842516,8.4158717 1.46705409,8.4476956 C0.982500629,8.54953208 0.699959748,8.24346918 0.821167296,7.75863899 C0.967280503,7.17473962 1.27721761,6.66638742 1.6618717,6.22445031 C2.08471447,5.73878994 2.54270189,5.27775849 3.12051321,4.95564528 C3.55055094,4.71599748 3.95789686,4.59312956 4.42612327,4.8734566 C5.11960755,5.28855094 5.85653836,5.12140629 6.56634969,4.9351673 C8.03301635,4.55023648 9.36823648,3.87280252 10.5974692,2.99114214 C11.212639,2.54975849 11.7445132,2.01677736 12.2224252,1.42595975 C12.641117,0.908475472 13.2097962,0.590513208 13.8327145,0.392928302 C14.7282113,0.109003774 15.6336704,-0.0227194969 16.5593308,0.305481761 C17.4830541,0.63285283 17.6579472,1.40824906 16.9445384,2.07433711 C16.4655195,2.52153208 15.8719346,2.73433711 15.260639,2.90314214 C14.0942239,3.22553208 12.9405384,3.58555723 11.9764126,4.34933082 C10.9937459,5.12749434 10.2501736,6.07999748 10.2593057,7.40525535 C10.2662239,8.37436226 10.7386013,9.1245761 11.5632553,9.64593459 C12.4864252,10.229834 13.5133686,10.3919975 14.5793308,10.4025132" id="Fill-3" fill="#6B7E88" mask="url(#mask-2)"></path>
            </g>
            <g id="Group-8" transform="translate(135.874214, 26.453409)">
                <mask id="mask-4" fill="white">
                    <use xlink:href="#path-3"></use>
                </mask>
                <g id="Clip-7"></g>
                <path d="M3.69093585,5.88686792 C3.69093585,6.16083019 3.70670943,6.4361761 3.68789182,6.70930818 C3.63116226,7.5436478 4.29669686,8.63008805 5.31340126,8.81605031 C6.12615597,8.96437736 6.95911195,8.67353459 7.39468428,8.01740881 C8.03697358,7.04968553 8.13244528,5.99091824 7.91078491,4.87984906 C7.81475975,4.39861635 7.65868428,3.93232704 7.33601761,3.56289308 C6.83015597,2.98369811 6.20391698,2.71610063 5.40582893,2.88130818 C4.71981635,3.02327044 4.28147673,3.40654088 3.95050818,4.01036478 C3.61760252,4.6172327 3.7119673,5.25315723 3.69093585,5.88686792 M3.30932579,1.87152201 C3.64333836,1.52948428 3.8804956,1.15340881 4.26182893,0.912930818 C4.85679748,0.537962264 5.47722516,0.281987421 6.19201761,0.198691824 C6.94278491,0.111522013 7.65951447,0.135044025 8.37126289,0.394893082 C9.63647044,0.857308176 10.4328981,1.78601258 10.9578541,2.98148428 C11.2827346,3.72173585 11.4139044,4.49879245 11.4507094,5.31044025 C11.510483,6.63486792 11.3068101,7.89869182 10.6750365,9.06150943 C10.2474893,9.84825157 9.63121258,10.4758742 8.82675975,10.9205786 C8.14130063,11.2994214 7.41433208,11.5080755 6.64889811,11.5196981 C5.53727547,11.5365786 4.51060881,11.2648302 3.69093585,10.3186918 L3.69093585,10.8472453 C3.69093585,12.9379371 3.68540126,15.0291824 3.69785409,17.1201509 C3.69951447,17.3816604 3.63033208,17.437283 3.37906164,17.4331321 C2.44233208,17.416805 1.50532579,17.4151447 0.568596226,17.4339623 C0.306533333,17.4389434 0.255615094,17.3656101 0.255891824,17.1146164 C0.264193711,12.4074465 0.274986164,7.69972327 0.248973585,2.99255346 C0.244822642,2.19972327 0.203589937,1.40412579 0.188093082,0.609358491 C0.183665409,0.397937107 0.237074214,0.341761006 0.450432704,0.34563522 C1.27287296,0.358918239 2.09558994,0.356427673 2.91830692,0.346742138 C3.09541384,0.344805031 3.13803019,0.389358491 3.15075975,0.569786164 C3.18009308,0.990415094 3.25010566,1.408 3.30932579,1.87152201" id="Fill-6" fill="#030504" mask="url(#mask-4)"></path>
            </g>
            <path d="M87.9829258,31.9619321 C87.9574667,31.7474667 88.0266491,31.3442717 87.9350516,30.9358189 C87.6978943,29.8767748 87.0271019,29.2510893 85.969995,29.2148377 C84.9519069,29.1799698 84.3251145,29.8092528 83.9573409,30.6649006 C83.6786742,31.3135547 83.6155799,32.013127 83.6825484,32.7102088 C83.745366,33.3627371 83.9127874,34.0069635 84.3619195,34.5048 C84.8719321,35.0701585 85.4959572,35.3482717 86.3040075,35.1858314 C86.9836553,35.0488503 87.4247623,34.6783094 87.7192025,34.0869384 C88.0241585,33.4734289 88.0147497,32.8120453 87.9829258,31.9619321 M87.9959321,27.8156931 C87.9959321,25.9026616 88.0022969,24.0776302 87.9892906,22.2520453 C87.9873535,21.9592654 88.0352277,21.8466365 88.3645358,21.8568755 C89.2323597,21.8845484 90.1012906,21.8668377 90.9699447,21.8671145 C91.4248881,21.8671145 91.4248881,21.8671145 91.4248881,22.3051774 C91.4248881,27.0134541 91.4262717,31.7222843 91.4212906,36.4308377 C91.4207371,36.7836679 91.5264478,37.1240453 91.5007119,37.4796428 C91.4882591,37.6495547 91.4619698,37.7151396 91.2743472,37.7129258 C90.417039,37.7024101 89.5597308,37.7021333 88.7029761,37.7115421 C88.4813157,37.7140327 88.4027245,37.6431899 88.4016176,37.4173786 C88.3999572,37.0681459 88.362322,36.7191899 88.3368629,36.3705107 C88.3327119,36.3107371 88.3720075,36.2163723 88.2718314,36.2080704 C88.2029258,36.2022591 88.1683346,36.2708881 88.1323597,36.3325987 C87.8603346,36.8019321 87.4552025,37.1470138 86.9991522,37.4123975 C86.5049132,37.6999195 85.9641836,37.8526742 85.3819447,37.9315421 C84.6469509,38.0311648 83.9587245,37.9323723 83.2868252,37.683039 C82.3675296,37.341278 81.6660201,36.7117182 81.150473,35.886234 C80.5701711,34.9575296 80.2901208,33.9413786 80.2344981,32.8405484 C80.1841333,31.8501333 80.2743472,30.8909887 80.5912025,29.956473 C81.1676302,28.2565233 82.3155044,27.1233157 84.0611145,26.6971522 C84.8406616,26.5064855 85.6548,26.5313912 86.4578692,26.781278 C87.059756,26.9686239 87.5351774,27.291844 87.9959321,27.8156931" id="Fill-9" fill="#030504"></path>
            <path d="M0.011954717,22.0445258 C0.0138918239,21.3360981 -0.0284477987,20.7308906 0.280935849,20.1790918 C0.327979874,20.094966 0.33711195,19.9931296 0.497061635,20.0440478 C1.06823145,20.2261358 1.23980377,20.1469912 1.59816855,19.659117 C2.33150189,18.6604 2.69401761,17.5039472 3.02636981,16.335595 C3.3080805,15.3443497 3.32745157,14.3079975 3.51756478,13.3018088 C3.74033208,12.1223874 4.26030692,11.0829912 5.35338868,10.4824881 C6.03054591,10.1105635 6.56103648,10.4227145 6.65706164,11.3115698 C6.75723774,12.2399975 6.38254591,13.0521987 5.90020629,13.8148654 C5.30413082,14.7571296 4.71912453,15.6974566 4.45650818,16.8057585 C4.13107421,18.1780604 4.17230692,19.5055321 4.96458365,20.7084755 C5.64893585,21.7473182 6.73316226,22.0143623 7.87909937,21.4990918 C8.5543195,21.1955195 9.0964327,20.7242491 9.60118742,20.1987396 C9.97864654,19.8057836 10.378244,19.4454818 10.876634,19.201683 C11.7098667,18.7935069 12.8328352,18.9996704 13.5194013,19.6270164 C14.6827723,20.6896579 14.9179925,22.4228151 14.3066969,23.7696579 C13.8060931,24.8724252 12.7642063,25.5260604 11.4353509,25.2396453 C10.8528352,25.1140101 10.3026969,24.8829409 9.71077233,24.7918969 C8.32380377,24.5782616 7.07769057,24.9435447 6.26133836,26.2837459 C5.8039044,27.0347899 5.62873459,27.8467145 5.64506164,28.7009786 C5.66000503,29.4691799 5.86727547,30.2113686 6.09779119,30.9413811 C6.22674717,31.3503874 6.3346717,31.765205 6.38116226,32.1880478 C6.41270943,32.4764 6.34850818,32.7736075 6.18689811,33.0276453 C6.01338868,33.3010541 5.54571572,33.3292805 5.1859673,33.1109409 C4.3499673,32.6031421 3.93099874,31.7967522 3.56571572,30.9325258 C3.18991698,30.043117 3.39054591,29.2314692 3.66921258,28.3534063 C4.2639044,26.4796704 4.12000503,24.6366516 3.10136352,22.9101358 C2.95275975,22.6585887 2.76984151,22.4330541 2.50445786,22.2869409 C2.02350189,22.021834 1.55610566,22.1903623 1.24589182,22.7858843 C1.08123774,23.1024629 0.974973585,23.4494818 0.840483019,23.7821107 C0.77711195,23.9390164 0.785690566,24.1739597 0.5632,24.1886264 C0.303627673,24.2060604 0.279552201,23.943444 0.229464151,23.7790667 C0.0468226415,23.1802239 -0.032045283,22.5633937 0.011954717,22.0445258" id="Fill-11" fill="#6B7E88"></path>
            <path d="M122.764096,28.087995 C123.305379,27.4742088 123.861605,27.0300579 124.576121,26.8006491 C125.479919,26.5103597 126.381504,26.4943094 127.266486,26.8294289 C128.26797,27.2091019 128.914687,27.9557182 129.275265,28.9508377 C129.495542,29.5588126 129.595442,30.1872654 129.632523,30.839517 C129.758712,33.0397937 129.645253,35.2406239 129.695618,37.4400704 C129.700875,37.6772277 129.618964,37.7154164 129.407819,37.7129258 C128.447844,37.7024101 127.487592,37.6990893 126.528171,37.7148629 C126.28797,37.7190138 126.256146,37.6337811 126.256976,37.4254038 C126.264171,35.483039 126.269982,33.539844 126.255039,31.5974792 C126.251718,31.1115421 126.162611,30.6333535 125.924901,30.1883723 C125.599743,29.5803975 125.022209,29.2834667 124.332599,29.4091019 C123.258058,29.6050264 122.764096,30.1980579 122.764096,31.2916931 C122.764096,33.3262088 122.759114,35.3601711 122.769907,37.3944101 C122.771291,37.6434667 122.722309,37.7209509 122.458033,37.7156931 C121.509957,37.6974289 120.561052,37.7015799 119.612423,37.7134792 C119.392699,37.7162465 119.329052,37.662561 119.329328,37.4345358 C119.336247,32.3377308 119.336247,27.2406491 119.330158,22.1441208 C119.329882,21.9232906 119.38163,21.8582591 119.609932,21.8615799 C120.569353,21.8756931 121.529605,21.8756931 122.48958,21.8615799 C122.717605,21.8582591 122.769907,21.9235673 122.769077,22.1441208 C122.760221,24.0958943 122.764096,26.0476679 122.764096,28.087995" id="Fill-13" fill="#030504"></path>
            <path d="M75.9945031,33.5290792 C75.9945031,33.2288277 75.9909057,33.0121484 75.9961635,32.7960226 C75.9986541,32.6867145 75.9743019,32.6357962 75.8478365,32.6308151 C74.9883145,32.5959472 74.1550818,32.6811799 73.4283899,33.1942365 C72.7030818,33.7064629 72.7872075,34.8833937 73.3633585,35.2899094 C74.0111824,35.7473434 74.9047421,35.5649786 75.4515597,35.0629912 C75.9289182,34.6246516 76.0600881,34.0670415 75.9945031,33.5290792 M79.3553836,33.6765761 C79.3553836,34.4079723 79.3567673,35.1390918 79.3548302,35.8704881 C79.3534465,36.4004252 79.4024277,36.9256579 79.4918113,37.4475698 C79.5264025,37.6504126 79.4638616,37.7182113 79.242478,37.7140604 C78.3973459,37.6988403 77.5511069,37.6921987 76.7065283,37.7176579 C76.4248176,37.7259597 76.3697484,37.5887019 76.3387547,37.3786642 C76.3124654,37.2026642 76.2919874,37.0263874 76.2676352,36.8501107 C76.2438365,36.6785384 76.1735472,36.6630415 76.0578742,36.7867396 C75.5414969,37.3382616 74.9039119,37.6742113 74.1741761,37.8446767 C72.6161887,38.2082994 70.7435597,37.851595 69.8892956,36.1502616 C69.5433836,35.4620352 69.5195849,34.7621862 69.5990063,34.0097585 C69.6806415,33.2365761 70.0121635,32.6023119 70.5116604,32.0696075 C71.030805,31.515595 71.7148805,31.1660855 72.435761,30.9239472 C73.5036604,30.5650289 74.6166667,30.4773057 75.7335472,30.4438214 C75.9441384,30.4371799 75.9477358,30.3508403 75.9089937,30.1922742 C75.719434,29.4160478 75.1831321,28.9677459 74.3183522,28.935922 C73.1785031,28.8938591 72.0859748,29.1097082 71.0938994,29.6952679 C70.8979748,29.8103874 70.895761,29.6548654 70.8755597,29.5890038 C70.6785283,28.9472679 70.4956101,28.3013811 70.3071572,27.656878 C70.2587296,27.4919472 70.4029057,27.4689786 70.4900755,27.4280226 C71.2026541,27.0942868 71.9489937,26.867922 72.7252201,26.7339849 C73.4972956,26.600878 74.2757358,26.5709912 75.0550063,26.6025384 C75.986478,26.6398969 76.9007925,26.841356 77.6604151,27.3776579 C78.4316604,27.9219849 78.9427799,28.7045761 79.1494969,29.6515447 C79.2933962,30.3112679 79.3678365,30.977356 79.3575975,31.6545132 C79.3473585,32.3283497 79.3553836,33.0027396 79.3553836,33.6765761" id="Fill-15" fill="#030504"></path>
            <path d="M66.2229057,31.0555321 C66.1495723,30.7309283 66.1584277,30.4220981 66.0698742,30.1149283 C65.7175975,28.8917836 64.2711321,28.5657962 63.3111572,29.1643623 C62.6730189,29.5622994 62.4505283,30.2040352 62.2825535,30.8798088 C62.2415975,31.0450164 62.3439874,31.0580226 62.4759874,31.0577459 C63.7204403,31.0541484 64.9646164,31.0555321 66.2229057,31.0555321 Z M62.3176981,33.3878088 C62.4436101,34.6264503 63.4940755,35.1367396 64.4258239,35.3138465 C64.9231069,35.4082113 65.4195597,35.3705761 65.9162893,35.3730667 C66.6772956,35.3766642 67.4186541,35.2247396 68.1445157,35.0119346 C68.3279874,34.9579723 68.3573208,34.9513308 68.3930189,35.1530667 C68.5084151,35.805595 68.6606164,36.4517585 68.790956,37.102073 C68.8222264,37.2573182 68.7527673,37.322073 68.5814717,37.3768654 C67.9054214,37.5927145 67.2282642,37.7720352 66.5181761,37.8567145 C65.9121384,37.9289409 65.3094214,38.0072553 64.6997862,37.980966 C63.514,37.9303245 62.3603145,37.7299723 61.3347547,37.0898969 C60.2604906,36.4188277 59.6195849,35.4220478 59.2584528,34.2238088 C59.0830063,33.6404629 59.0105031,33.0313811 59.0160377,32.4413937 C59.0248931,31.4814189 59.194805,30.531683 59.6157107,29.6425509 C59.9605157,28.9133686 60.4173962,28.2708025 61.0300755,27.7549786 C61.6363899,27.2444126 62.3553333,26.9173182 63.1229811,26.7465761 C63.8333459,26.5885635 64.5558868,26.5633811 65.2933711,26.6519346 C66.0856478,26.7471296 66.786327,27.0036579 67.4322138,27.4599849 C68.141195,27.9603119 68.6063774,28.6443874 68.9273836,29.4294692 C69.3037358,30.3490415 69.4111069,31.3211925 69.4127673,32.3080101 C69.413044,32.6016201 69.3125912,32.8836075 69.339434,33.1824755 C69.3626792,33.4392805 69.1504277,33.3867019 68.9996101,33.3867019 C67.3204151,33.388639 65.6412201,33.3878088 63.9623019,33.3878088 L62.3176981,33.3878088 Z" id="Fill-17" fill="#030504"></path>
            <path d="M97.4919899,31.0558088 C98.073122,31.0558088 98.6556377,31.0311799 99.2348327,31.0657711 C99.5516881,31.0845887 99.5547321,30.9163371 99.5085182,30.7248403 C99.4246692,30.3764377 99.3471849,30.0291421 99.1617761,29.705922 C98.5319396,28.6064755 96.8701786,28.6363623 96.1526189,29.5545509 C95.8534742,29.9378214 95.6877132,30.3645384 95.5731472,30.8313811 C95.5197384,31.0488906 95.5761912,31.0591296 95.748317,31.0574692 C96.3294491,31.0527648 96.9105811,31.0558088 97.4919899,31.0558088 M99.0815245,33.3875321 C98.0191597,33.3878088 96.9565182,33.3966642 95.8947069,33.3819975 C95.5864302,33.3778465 95.5717635,33.4857711 95.6442667,33.7403623 C95.8620528,34.5027522 96.4312855,34.9172931 97.1148075,35.1608151 C97.9995119,35.4757333 98.9237887,35.4071044 99.8466818,35.3210415 C100.415361,35.2684629 100.962179,35.1361862 101.508996,34.993117 C101.7016,34.9424755 101.695789,35.1231799 101.7016,35.1757585 C101.768015,35.785117 101.927411,36.3748277 102.047789,36.9728403 C102.08487,37.1571421 102.076569,37.3115572 101.804543,37.3981736 C100.954153,37.6679849 100.092141,37.8240604 99.2060528,37.9322616 C98.4187572,38.0282868 97.636166,37.9984 96.8762667,37.889922 C95.8374239,37.7413182 94.8414742,37.3873811 94.0342541,36.6510038 C93.3330214,36.0106516 92.8373987,35.2579472 92.5792101,34.3278591 C92.3719396,33.5812428 92.2750843,32.8290918 92.3243421,32.068639 C92.4187069,30.6066767 92.8512352,29.2822491 93.9017006,28.1836327 C94.6638138,27.3866516 95.575361,26.892966 96.624166,26.6928906 C97.2440403,26.5750038 97.8907572,26.5763874 98.5430088,26.6452931 C99.3784553,26.7341233 100.116216,27.0152805 100.771235,27.4929157 C101.42487,27.9699975 101.880921,28.6283371 102.195286,29.381595 C102.64165,30.4511547 102.705575,31.5724629 102.670984,32.7092679 C102.664896,32.8996579 102.586581,33.077595 102.59599,33.2751799 C102.605399,33.4677836 102.429399,33.3831044 102.337525,33.3836579 C101.252191,33.3897459 100.166858,33.3875321 99.0815245,33.3875321" id="Fill-19" fill="#030504"></path>
            <path d="M10.7804981,35.453761 C10.7113157,34.7317736 10.3579321,33.9942893 9.90105157,33.2902893 C9.4220327,32.5511447 8.8040956,31.9315472 8.22074969,31.2826164 C7.59146667,30.5819371 7.18661132,29.7866164 7.22037233,28.8288553 C7.24112704,28.2319497 7.43483774,27.6920503 7.98995723,27.360805 C8.32452327,27.1610063 8.68537862,27.0943145 9.06698868,27.181761 C10.3803472,27.4831195 11.0467119,28.4015849 11.3206742,29.6382893 C11.4499069,30.220805 11.462083,30.8290566 11.5304352,31.4251321 C11.6195421,32.2052327 11.9352906,32.8951195 12.3476176,33.5548428 C12.7079195,34.1318239 13.2024352,34.5828931 13.6994415,35.0231698 C14.0865862,35.3663145 14.5445736,35.6355723 15.0205484,35.8469937 C15.8784101,36.2277736 16.779995,36.4527547 17.7236428,36.3946415 C18.3100327,36.3586667 18.891995,36.2463145 19.4767245,36.1743648 C20.6998692,36.0232704 21.7899069,36.3063648 22.5088503,37.3573836 C23.1215296,38.253434 22.7280201,39.1317736 21.7860327,39.5463145 C20.7441459,40.0051321 19.7122214,39.8451824 18.719039,39.3177358 C17.7153409,38.7842013 16.6917182,38.2949434 15.5610013,38.0815849 C14.8240704,37.9423899 14.0946113,37.8958994 13.4074918,38.2816604 C12.999039,38.5107925 12.8152906,38.9566038 12.9434164,39.4129308 C13.1141585,40.0197987 13.513756,40.4708679 13.9894541,40.8510943 C14.4859069,41.2476478 15.0252528,41.5858113 15.5823094,41.8938113 C15.8020327,42.0155723 15.9921459,42.179673 16.1595673,42.3678491 C16.2780075,42.5012327 16.4631396,42.6282516 16.3649006,42.8277736 C16.2547623,43.0519245 15.9924226,43.0676981 15.7953912,43.0403019 C14.7302591,42.8941887 13.7617057,42.5006792 12.9326239,41.8041509 C12.6929761,41.6029686 12.6071899,41.2872201 12.4466868,41.0276478 C12.1060327,40.4761258 11.6613283,40.0175849 11.1798189,39.6052579 C10.4683472,38.9953459 9.73999497,38.3992704 8.91561761,37.9385157 C8.45181887,37.6792201 7.99881258,37.3988931 7.47800755,37.2580377 C6.42837233,36.9738365 5.78746667,36.1995472 5.21629686,35.3486038 C4.98135346,34.9988176 4.77712704,34.6385157 4.80396981,34.1857862 C4.82112704,33.8930063 4.95893836,33.8301887 5.2055044,33.900478 C5.64605786,34.0263899 5.98449811,34.3152956 6.29498868,34.6302138 C6.92648553,35.2711195 7.56019623,35.9067673 8.3566239,36.3464906 C8.74459874,36.5606792 9.14225912,36.7477484 9.60190692,36.7491321 C10.3911396,36.7507925 10.7799447,36.3691824 10.7804981,35.453761" id="Fill-21" fill="#F4884A"></path>
            <path d="M49.730322,30.1988604 C49.730322,27.7987849 49.7347497,25.3989862 49.7236805,22.9991874 C49.7225736,22.743766 49.7826239,22.6779044 50.0399824,22.6826088 C50.9767119,22.699766 51.9142717,22.699766 52.8510013,22.6820553 C53.1091899,22.6770742 53.166473,22.7454264 53.1659195,22.9994642 C53.1565107,26.816395 53.1634289,30.6330491 53.1518063,34.4499799 C53.1506994,34.7601937 53.2273535,34.8387849 53.537844,34.8357409 C55.2975673,34.8194138 57.0575673,34.8338038 58.8170138,34.8207975 C59.0746491,34.8188604 59.1382969,34.8814013 59.1322088,35.1376528 C59.1133912,35.914156 59.1192025,36.691766 59.1305484,37.4685459 C59.1333157,37.6647472 59.0738189,37.7126214 58.8825987,37.7123447 C55.9113535,37.7068101 52.9403849,37.7051497 49.9691396,37.7151119 C49.7261711,37.7159421 49.7275547,37.6110616 49.7278314,37.4325711 C49.7317057,35.0211497 49.730322,32.610005 49.730322,30.1988604" id="Fill-23" fill="#030504"></path>
            <path d="M101.508332,14.729844 C101.448835,15.1737182 101.508055,15.6898189 101.597992,16.1865484 C101.856181,17.6122591 103.186974,18.7111522 104.631779,18.6558063 C105.887577,18.6076553 106.841187,17.8779195 107.328508,16.8194289 C107.835477,15.7177686 107.881691,14.5588252 107.667502,13.3860453 C107.500634,12.4731145 107.086647,11.6700453 106.332005,11.1190767 C104.925389,10.0926868 103.162898,10.4881333 102.177187,11.8922591 C101.591628,12.7260453 101.478169,13.6757811 101.508332,14.729844 M101.402898,10.9214918 C101.477892,10.9190013 101.516634,10.8567371 101.550672,10.8030516 C102.150621,9.85912704 103.037263,9.27771824 104.09686,9.07266164 C105.498219,8.80091321 106.828458,8.98632201 107.984081,9.98337862 C108.931603,10.800561 109.439955,11.8435547 109.643074,13.0143975 C109.953842,14.8034541 109.81437,16.5534918 108.782722,18.1361082 C108.037766,19.279278 106.997263,19.9467497 105.645162,20.1614918 C104.703728,20.3109258 103.802143,20.2082591 102.952584,19.8003597 C102.488508,19.5778692 102.062621,19.2695925 101.768458,18.8204604 C101.714496,18.7377182 101.634797,18.6718566 101.505288,18.5315547 L101.505288,18.9341962 C101.505288,20.6482591 101.4992,22.3617686 101.51193,24.075278 C101.514143,24.3456428 101.443577,24.4264478 101.173213,24.4103975 C100.763653,24.3865987 100.349942,24.3871522 99.9401057,24.4103975 C99.6655899,24.4258943 99.576483,24.3636302 99.5770365,24.0636553 C99.5892126,20.3394289 99.6058164,16.6149258 99.5720553,12.8909761 C99.5626465,11.8335925 99.5189233,10.7745484 99.5194767,9.71578113 C99.5194767,9.54199497 99.3202314,9.33195723 99.5075774,9.21379371 C99.6398541,9.13022138 99.860961,9.1828 100.042496,9.18113962 C100.385087,9.1780956 100.728231,9.18833459 101.070546,9.17643522 C101.249867,9.17034717 101.30715,9.22901384 101.302999,9.40971824 C101.291099,9.91502642 101.27754,10.4217182 101.402898,10.9214918" id="Fill-25" fill="#696969"></path>
            <path d="M31.2095874,41.0172704 C31.5087321,41.0651447 31.8765057,40.9525157 32.2478767,41.0142264 C32.6527321,41.0814717 32.7720025,41.354327 32.5232226,41.6822516 C32.3466692,41.9149811 32.0989962,42.0724403 31.8516,42.1972453 C31.2851346,42.482 30.6965308,42.7188805 30.0392981,42.7003396 C29.7315748,42.691761 29.5041031,42.6048679 29.2871472,42.342805 C28.8618138,41.8289182 28.2245057,41.7068805 27.5988201,41.6778239 C26.4988201,41.6266289 25.4021409,41.6578994 24.3367321,42.011283 C23.9363044,42.1438365 23.569361,42.3461258 23.176405,42.4900252 C22.1588704,42.8630566 21.1648579,42.8173962 20.2477761,42.2271321 C19.7867447,41.930478 19.778166,41.3764654 20.2845811,41.1074843 C20.7921031,40.8382264 21.3272981,40.796717 21.8970843,40.8470818 C23.2505686,40.9660755 24.601839,41.0158868 25.8033987,40.1931698 C26.4279774,39.7658994 26.6684553,39.2320881 26.4949459,38.5695975 C26.3953233,38.1896478 26.1191472,37.9253711 25.8150214,37.7017736 C25.0553987,37.1430566 24.1698642,36.9366164 23.2574868,36.7990818 C22.6171346,36.7025031 21.9789962,36.5663522 21.5010843,36.0823522 C20.8355497,35.408239 20.7957006,34.3475346 21.539273,33.6759119 C22.506166,32.8017233 23.7713736,32.7795849 24.7557006,33.4647673 C25.0750465,33.6872579 25.2828704,33.9991321 25.4527824,34.3292704 C25.9403799,35.2781761 26.6490843,35.9852201 27.6799019,36.2857484 C28.3385182,36.4780755 29.0228704,36.5616478 29.7229962,36.4387799 C31.0120025,36.2126918 32.055273,35.5800881 32.9676503,34.6580252 C33.5028453,34.1167421 34.1249333,33.7035849 34.952078,33.6637358 C35.6497132,33.6299748 36.2518767,34.2055723 36.0404553,35.0847421 C35.8544931,35.8573711 35.314317,36.3386038 34.6628956,36.7238113 C34.1700403,37.0152075 33.6088327,37.0564403 33.0647824,37.1411195 C31.7547447,37.3445157 30.5659145,37.7991824 29.6576881,38.7995597 C29.1557006,39.3524654 28.9420654,39.9435597 29.3552226,40.4751572 C29.6565811,40.8625786 30.0985182,40.9691195 30.5573358,41.0142264 C30.7496629,41.033044 30.9453107,41.0172704 31.2095874,41.0172704" id="Fill-27" fill="#3C6AB5"></path>
            <path d="M75.7055975,9.18053082 C76.2092453,9.18053082 76.7115094,9.18855597 77.2129434,9.17637987 C77.4019497,9.17167547 77.441522,9.24362516 77.4382013,9.41464403 C77.4254717,10.0264931 77.5635597,10.6319774 77.519283,11.2537887 C77.7517358,10.8987447 77.9089182,10.5116 78.1640629,10.1734365 C78.8799623,9.22480755 79.8363396,8.88664403 80.9828302,8.97298365 C81.4474591,9.36261887 81.9998113,9.10553711 82.5067799,9.18025409 C82.7397862,9.21484528 82.7948553,9.1110717 82.7882138,8.89439245 C82.7738239,8.4145434 82.7807421,7.93441761 82.782956,7.45429182 C82.7835094,7.33751195 82.7550063,7.22875723 82.9398616,7.17534843 C83.5492201,6.99934843 84.1488931,6.79069434 84.7723648,6.5881283 C84.7723648,7.37404025 84.7809434,8.1281283 84.7671069,8.88138616 C84.7626792,9.12075723 84.8313082,9.19021635 85.0734465,9.18495849 C85.8161887,9.16890818 86.5592075,9.18744906 87.3019497,9.17527296 C87.5230566,9.17167547 87.6038616,9.23006541 87.5889182,9.45975094 C87.5692704,9.76692075 87.5689937,10.0774113 87.589195,10.3848579 C87.6044151,10.6192478 87.541044,10.7003296 87.2925409,10.694795 C86.5614214,10.6781912 85.8294717,10.6983925 85.0983522,10.6842792 C84.8600881,10.6795748 84.7637862,10.7169333 84.7657233,10.9920025 C84.7790063,12.9578893 84.7676604,14.9234994 84.7754088,16.8893862 C84.7790063,17.7801786 85.1617233,18.3632478 85.8806667,18.5381409 C86.2891195,18.6374868 86.7205409,18.617839 87.1237358,18.4877761 C87.3387547,18.418317 87.3921635,18.4562289 87.3797107,18.6646063 C87.3578491,19.0290591 87.4854214,19.3841031 87.45,19.7507698 C87.4383774,19.870317 87.4386541,19.9774113 87.2930943,20.0144931 C86.4078365,20.2394742 85.5164906,20.3559774 84.6251447,20.0753736 C83.7326918,19.7939396 83.2348553,19.1356 82.9910566,18.2605811 C82.8194843,17.6459648 82.8092453,17.0075497 82.7970692,16.3818642 C82.762478,14.6110717 82.7752075,12.8388956 82.7937484,11.0675497 C82.7967925,10.7396252 82.6930189,10.6615874 82.3933208,10.6837258 C82.0750818,10.7075245 81.753522,10.6842792 81.4336226,10.6917509 C81.3146289,10.6945182 81.1563396,10.6211849 81.1209182,10.8442289 C81.1076352,10.9272478 80.9811698,10.9015119 80.9067296,10.8854616 C79.8725912,10.659927 78.7966667,11.2385686 78.3231824,12.064883 C77.9576226,12.7038516 77.7719371,13.3801786 77.7752579,14.1182164 C77.7835597,15.9698138 77.7705535,17.8211346 77.7857736,19.6727321 C77.7882642,19.9671723 77.7046918,20.0380151 77.4249182,20.0219648 C76.9921132,19.9973358 76.5559874,19.999273 76.1226289,20.0214113 C75.8564151,20.0349711 75.7816981,19.9597006 75.782805,19.6862918 C75.7935975,16.8863421 75.8107547,14.085839 75.7739497,11.286166 C75.7648176,10.5982164 75.7457233,9.90279497 75.7055975,9.18053082" id="Fill-29" fill="#696969"></path>
            <path d="M114.727592,26.590556 C115.954058,26.5941535 116.889127,26.7314113 117.788775,27.1163421 C117.972523,27.1952101 117.98885,27.2818264 117.958133,27.401927 C117.788775,28.0624805 117.595064,28.7172226 117.43041,29.378883 C117.388347,29.5471346 117.352926,29.5914113 117.194636,29.5031346 C116.532976,29.1356377 115.801026,28.990078 115.064096,28.9505057 C114.699919,28.9308579 114.286486,28.9668327 113.987894,29.3000151 C113.639215,29.6893736 113.711165,30.1894239 114.163341,30.4525937 C114.8048,30.8259019 115.514611,31.0359396 116.190938,31.3248453 C117.336599,31.8141031 118.206636,32.5618264 118.416951,33.8397635 C118.540926,34.5919145 118.431064,35.3401912 118.041429,36.0397635 C117.422662,37.1508327 116.393781,37.5974742 115.238712,37.8385057 C114.666989,37.9574994 114.079492,38.0078642 113.491995,37.9818516 C112.409982,37.9337006 111.36007,37.7413736 110.36163,37.3002667 C110.181756,37.2208453 110.190888,37.086078 110.220775,36.9665308 C110.390964,36.2821786 110.587165,35.6044679 110.752649,34.9192855 C110.797203,34.7338767 110.835114,34.7244679 110.99285,34.8091472 C111.587265,35.1284931 112.220423,35.3545811 112.883467,35.4716377 C113.406209,35.5640654 113.935039,35.5978264 114.463039,35.4517132 C114.859039,35.3418516 115.12885,35.0280403 115.139366,34.6790843 C115.150158,34.3198893 114.920473,34.0700025 114.604725,33.900644 C113.829605,33.4847195 112.958737,33.2865811 112.198838,32.8382792 C111.393001,32.3628579 110.74324,31.7634616 110.528775,30.7962918 C110.280548,29.6749836 110.765102,28.2473358 111.758561,27.5386314 C112.7368,26.840166 113.809127,26.5603925 114.727592,26.590556" id="Fill-31" fill="#030504"></path>
            <path d="M53.7526415,20.2241711 C52.3086667,20.2338566 51.1217736,19.9546365 49.9932704,19.4047748 C49.786,19.3037686 49.7168176,19.2055296 49.7984528,18.9744604 C49.9323899,18.5958943 50.0303522,18.204322 50.1460252,17.8193912 C50.1936226,17.6605484 50.2672327,17.5819572 50.4471069,17.6893283 C51.1256478,18.0941836 51.870327,18.3520956 52.6396352,18.4752403 C53.7991321,18.6609258 54.9464528,18.6520704 55.9601132,17.8960453 C56.4208679,17.5523472 56.6710314,17.0830138 56.7806164,16.5528 C56.8973962,15.9877182 56.8345786,15.422083 56.5653208,14.8896553 C56.2758616,14.3171019 55.7896478,13.9568 55.2538994,13.6584855 C54.6088428,13.2995673 53.9203396,13.0294792 53.2362642,12.755517 C52.2356101,12.3550893 51.333195,11.8032906 50.7011447,10.9227371 C50.1432579,10.1456805 49.9769434,9.24686289 50.1031321,8.28633459 C50.1811698,7.69357987 50.3588302,7.15229686 50.7008679,6.66525283 C51.3990566,5.67179371 52.3734214,5.10422138 53.5445409,4.86318994 C54.7461006,4.61579371 55.942956,4.68525283 57.1226541,5.00542893 C57.4320377,5.08955472 57.7436352,5.17700126 58.0325409,5.33418365 C58.2162893,5.43408302 58.2716352,5.5162717 58.1852956,5.72575597 C58.044717,6.06613333 57.9212956,6.41841006 57.8399371,6.77705157 C57.7724151,7.07342893 57.6105283,7.06014591 57.4209686,6.95747925 C56.9632579,6.70869937 56.4726164,6.55871195 55.9656478,6.47292579 C54.9741258,6.30495094 54.0039119,6.29360503 53.0821258,6.81856101 C52.003434,7.43317736 51.7233836,9.02741635 52.531434,9.96359245 C53.1510314,10.6814289 53.9903522,11.0157182 54.8222013,11.3688252 C55.885673,11.8198943 56.9599371,12.2471648 57.7912327,13.0956176 C58.3679371,13.6842214 58.6847925,14.3832403 58.7982516,15.2056805 C58.930805,16.1662088 58.813195,17.0780327 58.3510566,17.9170767 C57.7190063,19.0652277 56.6890189,19.7022591 55.4387547,20.0171774 C54.822478,20.1724226 54.1976226,20.2321962 53.7526415,20.2241711" id="Fill-33" fill="#696969"></path>
            <path d="M71.9490767,15.5886742 C71.9490767,15.3376805 71.928322,15.0841962 71.9546113,14.8356931 C71.9833912,14.562561 71.8691019,14.5252025 71.627517,14.5221585 C71.0026616,14.5146868 70.3805736,14.5323975 69.7709384,14.6707623 C68.699995,14.9140075 67.6716679,15.3005987 67.4408755,16.6574038 C67.3121962,17.4139824 67.8321711,18.5416553 68.6894792,18.6648 C68.9883472,18.7076931 69.2747623,18.7409006 69.5777811,18.7165484 C70.4613786,18.6451522 71.1044981,18.1954667 71.5688503,17.473756 C71.9377308,16.9009258 72.0071899,16.2544855 71.9490767,15.5886742 M74.0425358,20.0146868 C73.5004226,20.0146868 72.9533283,20.0127497 72.406234,20.0163472 C72.2822591,20.0169006 72.2316176,19.9820327 72.2180579,19.8444981 C72.1798692,19.4568 72.1189887,19.071039 72.0594918,18.6293786 C71.6883975,19.0358943 71.3524478,19.4269132 70.8889258,19.6682214 C69.5263094,20.3783094 68.1324226,20.5031145 66.7800453,19.7155421 C65.8161962,19.1548881 65.2829384,17.8545358 65.4733283,16.6372025 C65.6092025,15.7677182 65.9700579,15.0753409 66.5943597,14.5105358 C67.2308377,13.9354918 68.0236679,13.6421585 68.8444478,13.4368252 C69.5894038,13.2503094 70.3462591,13.1235673 71.1180579,13.1625862 C71.3391648,13.1739321 71.5361962,13.0671145 71.7548126,13.0845484 C71.8937308,13.0958943 71.8796176,12.981605 71.8798943,12.8922214 C71.8854289,11.7274667 71.4462591,10.7843723 70.1926742,10.5098566 C69.3569509,10.3269384 68.5226113,10.4608755 67.7148377,10.7506113 C67.3985358,10.8637937 67.1029887,11.0148881 66.8077182,11.1695799 C66.7053283,11.2232654 66.6344855,11.2927245 66.5860579,11.0879447 C66.5011019,10.7301333 66.3691019,10.3817308 66.2332277,10.0385862 C66.1859069,9.91959245 66.2133031,9.8919195 66.3076679,9.83878742 C67.0268881,9.43531572 67.7895547,9.16578113 68.6072906,9.04014591 C69.3547371,8.92530314 70.1057811,8.92004528 70.841605,9.0531522 C71.8480704,9.23551698 72.6981836,9.69876226 73.2289509,10.633278 C73.6794667,11.4261082 73.8615547,12.2834164 73.8665358,13.1819572 C73.8751145,14.7933535 73.8529761,16.4050264 73.8764981,18.0158692 C73.8861836,18.6670138 73.9819321,19.3167748 74.0425358,20.0146868" id="Fill-35" fill="#696969"></path>
            <path d="M95.7224151,18.3240906 C95.3596226,18.8349333 94.9423145,19.2912604 94.4021384,19.6255497 C93.4216855,20.2324176 92.3598742,20.376317 91.2548931,20.1272604 C89.6825157,19.7727698 88.934239,18.6481409 88.6148931,17.1637635 C88.5252327,16.7456252 88.473761,16.3213987 88.4745912,15.8908075 C88.4776352,13.7655245 88.4804025,11.640795 88.4698868,9.51578868 C88.4687799,9.2528956 88.5260629,9.15714717 88.8050063,9.17264403 C89.2488805,9.19782642 89.6969057,9.19948679 90.1407799,9.17264403 C90.4283019,9.15521006 90.4714717,9.26562516 90.4703648,9.52021635 C90.4606792,11.5765937 90.4526541,13.6332478 90.4717484,15.6893484 C90.4783899,16.3778516 90.6305912,17.0467069 91.0099874,17.6436126 C91.4906667,18.3996377 92.2339623,18.6390088 93.0552956,18.5606943 C94.1409057,18.4574742 95.0364025,17.7764428 95.4191195,16.6794868 C95.5015849,16.4437132 95.5419874,16.2048956 95.541434,15.952795 C95.5370063,13.8048201 95.544478,11.657122 95.5323019,9.50914717 C95.531195,9.23573836 95.6067421,9.16185157 95.8726792,9.1743044 C96.3284528,9.19616604 96.7875472,9.1986566 97.243044,9.17319748 C97.5258616,9.1574239 97.6050063,9.23380126 97.6038994,9.52464403 C97.5928302,12.6320403 97.6008553,15.7394365 97.5908931,18.8471094 C97.5900629,19.1573233 97.6675472,19.4539774 97.6703145,19.7614239 C97.6719748,19.942405 97.6409811,20.0287447 97.4298365,20.0207195 C96.996478,20.003839 96.5614591,20.0071597 96.1278239,20.0193358 C95.936327,20.0248704 95.8953711,19.9645434 95.8721258,19.7722164 C95.8203774,19.3416252 95.8112453,18.9118642 95.814566,18.4804428 C95.8151195,18.4162415 95.7846792,18.3736252 95.7224151,18.3240906" id="Fill-37" fill="#696969"></path>
            <path d="M106.550538,28.7876503 C106.784098,28.2682289 107.02679,27.8027698 107.426111,27.425034 C108.182413,26.7085811 109.090086,26.5242792 110.086312,26.5953987 C110.229658,26.605361 110.214991,26.6889333 110.214991,26.7799774 L110.214991,29.8674491 C109.424098,29.6621157 108.677205,29.7260403 107.973758,30.1167824 C107.396777,30.4372352 107.118941,30.9710465 106.994413,31.5934113 C106.845809,32.3358767 106.936023,33.0891346 106.926614,33.8371346 C106.912224,35.0367572 106.916098,36.2369333 106.928551,37.436556 C106.931042,37.6645811 106.86684,37.7166063 106.647117,37.7135623 C105.698488,37.7013862 104.749859,37.6975119 103.801507,37.7154994 C103.542488,37.7202038 103.487142,37.6521283 103.487972,37.3983673 C103.497658,34.2901409 103.49406,31.1816377 103.493784,28.0734113 C103.493784,27.7120025 103.389733,27.3586189 103.41962,26.9927824 C103.431519,26.8447321 103.467218,26.8001786 103.616652,26.8012855 C104.473683,26.807927 105.330714,26.8057132 106.187746,26.8026692 C106.302865,26.8023925 106.375092,26.8073736 106.379796,26.9595748 C106.392526,27.3652604 106.475268,27.7679019 106.443167,28.1769082 C106.42767,28.3797509 106.443997,28.5789962 106.550538,28.7876503" id="Fill-39" fill="#030504"></path>
            <path d="M131.198674,32.256483 C131.198674,30.5424201 131.204762,28.8278038 131.192309,27.1137409 C131.190372,26.8574893 131.250699,26.7930113 131.507781,26.797439 C132.467479,26.8145962 133.428008,26.8098918 134.387706,26.7996528 C134.58197,26.797439 134.632058,26.8505711 134.631781,27.0434516 C134.626247,30.5177912 134.624863,33.9918541 134.633995,37.4661937 C134.634548,37.7052881 134.536863,37.7130365 134.353391,37.7116528 C133.393416,37.7047346 132.433442,37.7011371 131.473467,37.7141434 C131.249592,37.7169107 131.192309,37.6571371 131.193416,37.4335396 C131.203102,35.7081308 131.198674,33.9821686 131.198674,32.256483" id="Fill-41" fill="#030504"></path>
            <path d="M42.3248453,26.5051572 C42.319034,27.1881258 42.1059522,27.7861384 41.594556,28.2560252 C40.7934239,28.9918491 40.2053736,29.859673 39.9552101,30.928956 C39.8799396,31.2507925 39.8860277,31.5861887 40.0091723,31.9011069 C40.2283421,32.4623145 40.7090214,32.4971824 41.2857258,32.1808805 C41.6166943,31.9990692 41.9006189,31.7289811 42.1967195,31.4879497 C42.3472604,31.3653585 42.5066566,31.2842767 42.6923421,31.3523522 C42.914556,31.4337107 42.8943547,31.6440252 42.8694491,31.8200252 C42.7612478,32.5956981 42.3884931,33.2191698 41.7439899,33.6674717 C41.6119899,33.7590692 41.4572981,33.8268679 41.276317,33.737761 C40.8067069,33.5064151 40.3747321,33.683522 39.9820528,33.9248302 C38.9454239,34.5613082 38.1783296,35.4512704 37.6328956,36.5354969 C37.3539522,37.0900629 36.9842415,37.5552453 36.4061535,37.829761 C36.1421535,37.9551195 35.8701283,38.0024403 35.5826063,37.982239 C35.2970214,37.961761 35.0947321,37.6634465 35.1442667,37.3811824 C35.2438893,36.8125031 35.6354616,36.4510943 36.060795,36.1450314 C36.6128704,35.7476478 37.1552604,35.3466667 37.6132478,34.8405283 C37.9832352,34.4317987 38.2632855,33.9596981 38.3338516,33.419522 C38.4583799,32.4625912 37.8158138,32.0087547 36.9037132,32.1952704 C36.2309836,32.3325283 35.6730969,32.7238239 35.0659522,33.0066415 C34.7424553,33.1574591 34.3987572,33.2429686 34.047034,33.1569057 C33.4243925,33.0047044 33.156795,32.4775346 33.2697006,31.7018616 C33.3997635,30.8080252 34.2756126,29.9460126 35.2184302,30.0226667 C35.4876881,30.0445283 35.7245686,30.1483019 35.9448453,30.2761509 C36.987839,30.8821887 38.0845182,30.4546415 38.8253233,29.7963019 C39.7462792,28.9780126 40.1201409,27.9073459 40.3329459,26.7486792 C40.422883,26.2583145 40.6860528,25.8692327 41.0660025,25.5653836 C41.2915371,25.3852327 41.5547069,25.3118994 41.844166,25.4621635 C42.1601912,25.6265409 42.2534491,25.9212579 42.3218013,26.2317484 C42.3411723,26.3186415 42.3248453,26.4138365 42.3248453,26.5051572" id="Fill-43" fill="#6B7E88"></path>
            <path d="M60.5651975,14.286634 C60.5651975,13.023917 60.5582792,11.9955899 60.5704553,10.9675396 C60.5732226,10.7395145 60.5021031,10.6750365 60.2823799,10.684722 C59.9060277,10.7010491 59.5282918,10.6827849 59.1516629,10.6938541 C58.974556,10.6988352 58.9095245,10.6440428 58.9158893,10.4608478 C58.9283421,10.1071874 58.9291723,9.75242013 58.9153358,9.39875975 C58.9075874,9.20532579 58.9925434,9.17239497 59.1585811,9.17654591 C59.5354868,9.18567799 59.9134994,9.16575346 60.2892981,9.18540126 C60.5228579,9.19785409 60.5757132,9.11151447 60.5690717,8.89566541 C60.554405,8.41609308 60.5723925,7.93569057 60.5591094,7.45639497 C60.5535748,7.26517484 60.6161157,7.1702566 60.8012478,7.11989182 C61.2852478,6.98789182 61.7728453,6.86308679 62.2427321,6.69096101 C62.4890214,6.60047044 62.487361,6.70092327 62.4868075,6.87609308 C62.4851472,7.54992956 62.4948327,8.22404277 62.4815497,8.89787925 C62.4773987,9.11760252 62.5349585,9.19010566 62.7638138,9.18567799 C63.5060025,9.17101132 64.2490214,9.18844528 64.9912101,9.17433208 C65.2211723,9.1699044 65.3202415,9.21750189 65.3025308,9.4704327 C65.2803925,9.7886717 65.2842667,10.1105082 65.3025308,10.4293006 C65.3149836,10.644873 65.241927,10.6977283 65.0329962,10.6941308 C64.2789082,10.6814013 63.5248201,10.6960679 62.7710088,10.684722 C62.5554365,10.6814013 62.4793358,10.7331497 62.4804428,10.9653258 C62.490405,12.7242189 62.4533233,14.4847723 62.5039648,16.2422818 C62.5213987,16.8508101 62.4594113,17.5080428 62.8797635,18.0598415 C63.1227321,18.3789107 63.424644,18.547439 63.8090214,18.5717912 C64.1712604,18.594483 64.542078,18.6041686 64.8890969,18.4923698 C65.1052226,18.4229107 65.1530969,18.4821308 65.1613987,18.6744579 C65.1780025,19.0474893 65.1093736,19.4246717 65.2242164,19.792722 C65.2687698,19.9357912 65.1384302,19.9761937 65.0545811,19.9983321 C63.9559648,20.2894516 62.8496,20.4444201 61.8207195,19.8057283 C61.2047195,19.4235648 60.8433107,18.8263824 60.7021786,18.1068855 C60.4381786,16.7622566 60.6293987,15.402961 60.5651975,14.286634" id="Fill-45" fill="#696969"></path>
            <path d="M33.4030013,3.97967547 C33.4862969,4.84473208 32.7980704,5.42392704 31.9424226,5.6079522 C30.2435799,5.97295849 28.6814415,5.53102138 27.259605,4.61975094 C26.5940704,4.19331069 26.0157057,3.6279522 25.787127,2.80357484 C25.6202591,2.20362516 25.8266994,1.57627925 26.3361585,1.22538616 C26.7949761,0.909637736 27.3033283,0.784832704 27.8540201,0.738895597 C29.4510264,0.60551195 30.8623472,1.1077761 32.137517,2.00797736 C32.6840579,2.39373836 33.1594792,2.88410314 33.3578943,3.57482013 C33.4041082,3.73504654 33.3905484,3.88614088 33.4030013,3.97967547" id="Fill-47" fill="#3C6AB5"></path>
            <path d="M14.9300855,30.7007094 C16.2971296,30.6323572 17.9987396,31.7852126 18.1730792,33.4796277 C18.2688277,34.4146969 17.6630667,35.3893384 16.551444,35.5838792 C15.1451044,35.8301686 13.3820604,34.8715774 12.9672428,33.4652377 C12.5344377,31.9980176 13.1050541,31.0784453 14.3544881,30.7469233 C14.537683,30.6982189 14.7377585,30.7145459 14.9300855,30.7007094" id="Fill-49" fill="#F4884A"></path>
            <path d="M29.1006038,36.1844931 C28.0645283,36.1410465 27.3655094,35.6982792 27.215522,34.7333233 C27.1327799,34.2033862 27.3732579,33.7680906 27.6544151,33.3488453 C28.3130314,32.3681157 30.1073459,31.8871597 31.0996981,32.6130214 C31.6130314,32.9882667 31.9213082,33.8386566 31.5964277,34.5894239 C31.2023648,35.5009711 30.0995975,36.1939019 29.1006038,36.1844931" id="Fill-51" fill="#3C6AB5"></path>
            <path d="M131.130018,23.8002918 C131.048106,22.7365434 131.940005,22.0621535 132.823049,22.0798642 C133.949892,22.102556 134.677691,22.7182792 134.70481,23.9018516 C134.722244,24.6733736 133.949062,25.5998642 132.733942,25.5115874 C131.933364,25.4534742 131.01047,24.8460528 131.130018,23.8002918" id="Fill-53" fill="#030504"></path>
            <path d="M11.374083,4.64529308 C10.5793157,4.6436327 10.3059069,4.19616101 10.6864101,3.49714214 C10.981127,2.95530566 11.4432654,2.56317987 11.9485736,2.23553208 C12.6954667,1.75125535 13.4924478,1.36494088 14.4106365,1.37850063 C15.0249761,1.38790943 15.4409006,1.80383396 15.0894541,2.46355723 C14.7515673,3.09837484 14.204473,3.51014843 13.6225107,3.89203522 C12.9937811,4.30491572 11.9864855,4.6464 11.374083,4.64529308" id="Fill-55" fill="#6B7E88"></path>
            <path d="M37.7889434,30.0950868 C37.2520881,30.0923195 36.8394843,29.652873 36.7606164,29.1420302 C36.6294465,28.2927472 36.883761,27.5829358 37.5249434,27.0601937 C38.3127925,26.4179044 39.0854214,26.5856025 39.4067044,27.4459547 C39.581044,27.9116906 39.5118616,28.4419044 39.2805157,28.914005 C38.9968679,29.4929233 38.6019748,29.946483 37.9267547,30.0693509 C37.8714088,30.0793132 37.8163396,30.0898289 37.7889434,30.0950868" id="Fill-57" fill="#6B7E88"></path>
            <path d="M0.832015094,17.8868302 C0.882103145,16.8922642 1.05588931,15.9281384 1.57365031,15.0561635 C1.73000252,14.7929937 1.92011572,14.4880377 2.25966289,14.5480881 C2.59810314,14.6078616 2.65621635,14.9739748 2.67918491,15.2556855 C2.7821283,16.5247673 2.56185157,17.7285409 1.87722264,18.8257736 C1.74383899,19.0391321 1.56424151,19.209044 1.31767547,19.1769434 C1.03319748,19.1395849 0.959033962,18.877522 0.902027673,18.6295723 C0.845574843,18.3849434 0.816794969,18.1389308 0.832015094,17.8868302" id="Fill-59" fill="#6B7E88"></path>
        </g>
    </g>
</svg>