<?xml version="1.0" encoding="UTF-8"?>
<svg width="142px" height="50px" viewBox="0 0 142 50" version="1.1" xmlns="http://www.w3.org/2000/svg" xmlns:xlink="http://www.w3.org/1999/xlink">
    <!-- Generator: Sketch 50.2 (55047) - http://www.bohemiancoding.com/sketch -->
    <title>Fio Logo BW</title>
    <desc>Created with Sketch.</desc>
    <defs></defs>
    <g id="Page-1" stroke="none" stroke-width="1" fill="none" fill-rule="evenodd">
        <g id="Fio-Logo-BW" fill="#9FA7B3">
            <path d="M62.7777778,0 C59.2394444,3.58555556 55.6947222,7.165 52.1702778,10.7641667 C51.7075,11.2366667 51.1719444,11.1627778 50.6286111,11.1630556 C43.5922222,11.1661111 36.5555556,11.1605556 29.5188889,11.1677778 C27.4686111,11.1702778 27.7225,10.9238889 27.7025,13.0494444 C27.6933333,14.0213889 27.7625,14.9983333 27.6841667,15.9644444 C27.6030556,16.9608333 27.9933333,17.2005556 28.9433333,17.1936111 C34.5908333,17.1538889 40.2391667,17.2077778 45.8863889,17.1463889 C47.0438889,17.1338889 47.3741667,17.4436111 47.3355556,18.6 C47.2475,21.2358333 47.2608333,23.8777778 47.3316667,26.5147222 C47.3588889,27.5330556 47.1063889,27.8497222 46.0402778,27.8388889 C40.4391667,27.7825 34.8369444,27.8458333 29.2361111,27.7852778 C28.065,27.7725 27.5983333,27.9897222 27.6683333,29.2802778 C27.7811111,31.3538889 27.6894444,31.3422222 25.4988889,31.7052778 C22.3608333,32.225 19.2258333,32.7661111 16.0916667,33.31 C15.1469444,33.4738889 14.6344444,33.4102778 14.6480556,32.1455556 C14.7441667,23.3508333 14.7408333,14.555 14.7894444,5.75972222 C14.7988889,4.07194444 15.0552778,2.46083333 16.3516667,1.17222222 C17.0033333,0.524166667 17.9122222,0.49 18.6111111,0 L62.7777778,0 Z" id="Fill-1"></path>
            <path d="M73.8888889,50 C70.9405556,48.8977778 69.8283333,46.7572222 69.9616667,43.6533333 C70.1144444,40.0994444 70.0183333,36.5336111 69.98,32.9733333 C69.9719444,32.2397222 70.1588889,31.9725 70.9169444,31.8416667 C74.7263889,31.1838889 78.5241667,30.4558333 82.3227778,29.7355556 C83.0875,29.5905556 83.38,29.7902778 83.3563889,30.6286111 C83.2994444,32.6152778 83.3291667,34.605 83.3411111,36.5933333 C83.3511111,38.2802778 84.1041667,39.0925 85.7508333,39.1163889 C87.97,39.1488889 90.1905556,39.1497222 92.4097222,39.1155556 C94.0183333,39.0911111 94.7322222,38.3288889 94.7397222,36.7 C94.7519444,34.0180556 94.7797222,31.3352778 94.7216667,28.6541667 C94.7033333,27.8105556 94.9519444,27.4127778 95.7844444,27.2669444 C99.4566667,26.6236111 103.129444,25.9794444 106.788056,25.2644444 C107.96,25.0352778 108.131667,25.475 108.124167,26.5141667 C108.081667,32.2941667 107.998333,38.0772222 108.146111,43.8536111 C108.225556,46.9530556 107.089444,48.9836111 104.166667,50 L73.8888889,50 Z" id="Fill-3"></path>
            <path d="M0,35.5555556 C1.85861111,31.1455556 5.91833333,30.6811111 9.95194444,30.1569444 C9.17666667,30.5969444 8.36138889,30.9797222 7.63666667,31.4911111 C6.7225,32.1358333 5.71972222,32.9480556 5.96611111,34.1538889 C6.21666667,35.3825 7.52972222,35.2986111 8.50666667,35.3875 C11.2047222,35.6325 13.8383333,35.0288889 16.4758333,34.6036111 C24.1205556,33.3702778 31.7575,32.0894444 39.3977778,30.8272222 C47.0377778,29.5647222 54.6775,28.2977778 62.3186111,27.0405556 C69.8688889,25.7980556 77.4213889,24.5677778 84.9719444,23.3269444 C92.6138889,22.0708333 100.254722,20.8063889 107.896667,19.5497222 C111.535278,18.9516667 115.170278,18.3280556 118.818056,17.7922222 C119.751111,17.6552778 119.799722,17.3966667 119.3325,16.6952778 C118.207778,15.0075 116.743611,13.7011111 114.983889,12.6341667 C117.688056,12.5675 120.336111,12.9058333 122.834722,13.9211111 C124.144444,14.4533333 125.418056,14.4763889 126.759167,14.3663889 C130.859722,14.0294444 134.958611,13.6036111 139.076389,14.1477778 C140.098333,14.2827778 140.519722,14.4186111 141.418889,15.1380556 C138.866111,16.2269444 136.242222,16.8252778 133.641111,17.4630556 C123.343611,19.9883333 112.886389,21.7158333 102.465833,23.6269444 C92.5861111,25.4383333 82.7102778,27.2725 72.8297222,29.0811111 C63.4933333,30.7908333 54.1522222,32.4755556 44.8147222,34.18 C35.4761111,35.8847222 26.1383333,37.5944444 16.8022222,39.3136111 C12.9902778,40.0158333 9.19888889,40.8819444 5.27694444,40.5713889 C3.02388889,40.3927778 1.015,39.8022222 0,37.5 L0,35.5555556 Z" id="Fill-5"></path>
            <path d="M70.0012222,24.4159722 C70.0012222,17.7929167 69.9526111,11.3148611 70.0256667,4.83791667 C70.0537222,2.34347222 72.2331667,0.301805556 74.7476111,0.293472222 C84.2842778,0.261805556 93.8212222,0.262916667 103.357889,0.291527778 C106.020389,0.299861111 108.067611,2.40125 108.087611,5.07430556 C108.117611,9.10152778 108.079833,13.1295833 108.110667,17.1570833 C108.1165,17.9479167 107.914278,18.2498611 107.059278,18.3759722 C103.366778,18.9209722 99.6851111,19.5456944 96.0115,20.2076389 C95.0365,20.3829167 94.6912222,20.2054167 94.7317778,19.15375 C94.8062222,17.2118056 94.7715,15.2654167 94.7453889,13.32125 C94.7265,11.94125 93.9853889,11.1604167 92.6170556,11.13875 C90.2567778,11.10125 87.8948333,11.1004167 85.5342778,11.1390278 C84.1278889,11.1620833 83.3584444,11.9901389 83.3453889,13.4426389 C83.3220556,15.98875 83.2801111,18.5373611 83.3676111,21.0804167 C83.4015,22.0681944 82.9970556,22.3473611 82.1553889,22.4781944 C78.1495556,23.1009722 74.1478889,23.7518056 70.0012222,24.4159722" id="Fill-7"></path>
            <path d="M66.3572778,1.77436111 C66.3572778,9.36269444 66.3417222,16.7554722 66.3803333,24.1476944 C66.3842222,24.92325 66.0003333,25.1143611 65.4314444,25.2101944 C61.982,25.7915833 58.5292222,26.3538056 55.0783889,26.9274167 C54.4592222,27.0301944 54.1625556,26.8815833 54.1681111,26.1563056 C54.1975556,22.2279722 54.1836667,18.2990833 54.1800556,14.3704722 C54.1797778,14.0365833 54.2297778,13.7446389 54.4858889,13.4924167 C58.3939444,9.64102778 62.2964444,5.78491667 66.3572778,1.77436111" id="Fill-9"></path>
            <path d="M66.3574167,41.2698056 C66.3574167,43.7656389 66.3293611,46.2623056 66.3738056,48.7573056 C66.3876944,49.5448056 66.1451944,49.7884167 65.3563056,49.7800833 C61.9363056,49.7428611 58.51575,49.7450833 55.09575,49.7784167 C54.3524167,49.7853611 54.1635278,49.5286944 54.1679722,48.8186944 C54.19575,44.4739722 54.1921389,40.12925 54.1710278,35.7845278 C54.1679722,35.1075833 54.3751944,34.8239722 55.0799167,34.7023056 C58.4799167,34.11675 61.8721389,33.4834167 65.2596389,32.8281389 C66.1188056,32.6620278 66.3965833,32.8798056 66.3765833,33.7825833 C66.3213056,36.2770278 66.3574167,38.7739722 66.3574167,41.2698056" id="Fill-11"></path>
            <path d="M21.0026111,49.7637222 C19.1048333,49.7631667 17.2067778,49.7415 15.3098333,49.7751111 C14.6484444,49.7867778 14.4226111,49.5723333 14.444,48.9031667 C14.5078889,46.9151111 14.5262222,44.9253889 14.5392778,42.9359444 C14.5431667,42.3284444 14.7562222,42.0420556 15.3981667,41.9317778 C19.2126111,41.2765 23.0242778,40.6037222 26.824,39.8681667 C27.5487222,39.7278889 27.7165,39.8687222 27.7112222,40.5573333 C27.6901111,43.3342778 27.6778889,46.1120556 27.7176111,48.8884444 C27.729,49.6951111 27.3423333,49.7815 26.6953889,49.7731667 C24.7981667,49.7478889 22.9003889,49.764 21.0026111,49.7637222" id="Fill-13"></path>
            <path d="M141.188417,16.8375556 C140.583417,17.8375556 139.65675,18.3581111 138.749528,18.8561667 C135.039528,20.8922778 130.989806,21.9967222 126.92175,23.0100556 C126.045639,23.2281111 125.456472,23.6283889 124.882583,24.2742222 C123.14925,26.2247778 121.233139,27.9486667 118.647306,28.7139444 C118.427583,28.7789444 118.205639,28.8458889 117.979528,28.877 C117.850917,28.8942222 117.712306,28.8403333 117.490361,28.8042222 C118.688417,26.7814444 119.728139,24.7378333 120.04675,22.4106111 C120.110639,21.9439444 120.458417,21.7606111 120.918417,21.6606111 C127.62175,20.2067222 134.320917,18.7345 140.873972,16.6783889 C140.904806,16.6689444 140.953139,16.7161667 141.188417,16.8375556" id="Fill-15"></path>
        </g>
    </g>
</svg>