<?xml version="1.0" encoding="UTF-8"?>
<svg width="238px" height="45px" viewBox="0 0 238 45" version="1.1" xmlns="http://www.w3.org/2000/svg" xmlns:xlink="http://www.w3.org/1999/xlink">
    <!-- Generator: Sketch 50.2 (55047) - http://www.bohemiancoding.com/sketch -->
    <title>Venture Logo Color</title>
    <desc>Created with Sketch.</desc>
    <defs>
        <polygon id="path-1" points="0 0 44.9999953 0 44.9999953 44.9999859 0 44.9999859"></polygon>
    </defs>
    <g id="Page-1" stroke="none" stroke-width="1" fill="none" fill-rule="evenodd">
        <g id="Venture-Logo-Color">
            <path d="M237.999469,24.4634592 L237.999469,25.3283441 C237.804359,25.8152008 237.613203,26.3088828 237.192999,26.6536318 C236.806781,26.9705146 236.396132,27.2327008 235.917513,27.4233389 C235.113115,27.7436579 234.287581,27.838977 233.448726,27.7864456 C232.80211,27.7459644 232.155259,27.6727688 231.518575,27.4866967 C230.915076,27.3102741 230.354317,27.0491234 229.792006,26.7899498 C229.480819,26.6465241 229.178528,26.4648766 228.897137,26.2587992 C228.809725,26.1947354 228.78812,26.1102427 228.800358,26.0153002 C228.829919,25.7872877 228.991938,25.6528525 229.174291,25.5557918 C229.331226,25.4722406 229.468862,25.5699603 229.593836,25.6670209 C230.023078,26.0005199 230.501744,26.2344163 230.996179,26.463182 C231.596854,26.741137 232.241117,26.8007291 232.861702,26.9215136 C233.492126,27.044181 234.172539,27.0602322 234.816425,26.8731245 C235.274239,26.7401015 235.760954,26.684181 236.165248,26.3940345 C236.695081,26.0137469 237.085489,25.5492019 237.103141,24.8598452 C237.111566,24.5306297 236.924082,24.2709383 236.731561,24.0390659 C236.377163,23.6121778 235.890071,23.3884017 235.379113,23.180818 C234.930243,22.9984644 234.462968,22.8805513 234.004119,22.7659331 C233.500599,22.6401119 233.004704,22.4736213 232.490217,22.3865868 C232.166744,22.3318431 231.869443,22.1753787 231.572142,22.0561004 C231.085003,21.8607552 230.602618,21.6264351 230.19018,21.2736841 C229.855646,20.9875858 229.537445,20.6720209 229.395337,20.2701747 C229.234731,19.8158441 229.234731,19.3066287 229.434312,18.853569 C229.774589,18.081273 230.389244,17.5617019 231.173496,17.2955617 C232.112989,16.9767019 233.08482,16.8540816 234.081221,17.0280565 C234.718329,17.1392856 235.338585,17.3132605 235.929093,17.5619372 C236.271535,17.7061632 236.616849,17.8733128 236.924506,18.0967123 C237.070473,18.2027165 237.112555,18.3428944 237.047408,18.5031715 C236.982262,18.6635429 236.918198,18.8363881 236.694469,18.8395889 C236.555468,18.841613 236.423339,18.8091339 236.314793,18.730431 C235.834903,18.382387 235.281488,18.199704 234.730803,18.0095837 C234.377628,17.8852688 234.003789,17.8899759 233.6396,17.8608389 C233.034595,17.8125439 232.420034,17.8268536 231.828915,17.9578996 C231.320688,18.0705879 230.827665,18.2683808 230.495672,18.7207814 C230.168716,19.1663567 230.131671,19.666205 230.318308,20.1523556 C230.434668,20.4553525 230.730086,20.6732918 231.016561,20.8279205 C231.507042,21.0926485 232.023271,21.2963253 232.559788,21.4724184 C233.065709,21.6384383 233.591352,21.7218954 234.093554,21.9047197 C234.442869,22.0318588 234.816331,22.1199759 235.180332,22.2184958 C235.738737,22.3695 236.23995,22.6370994 236.752084,22.887 C236.856064,22.9376956 236.928978,23.0269425 237.012246,23.1032918 L237.011117,23.1042803 C237.391593,23.2810324 237.598376,23.6109069 237.779647,23.9665293 C237.862257,24.1285481 237.869741,24.323046 237.999469,24.4634592" id="Fill-1" fill="#00ADF2"></path>
            <path d="M237.999469,24.4634592 C237.905845,24.4627531 237.836791,24.4212835 237.821964,24.3270941 C237.737895,23.7951433 237.391498,23.4387678 237.011117,23.1042803 C237.084124,23.077591 237.149223,23.0876642 237.206885,23.1426433 C237.461493,23.3853421 237.730411,23.6164613 237.849406,23.9653996 C237.873366,24.0356768 237.913847,24.0923033 237.999469,24.0928211 L237.999469,24.4634592 Z" id="Fill-3" fill="#00ADF2"></path>
            <path d="M200.841637,22.362637 C200.841637,23.8964027 200.842014,25.4302155 200.840837,26.9639812 C200.840743,27.0769519 200.83966,27.1914289 200.821961,27.3024697 C200.786658,27.5239864 200.688232,27.6087144 200.474435,27.6224121 C200.240774,27.6374278 200.109634,27.5590073 200.038556,27.3620146 C199.995581,27.2428776 199.994592,27.1178567 200.002971,26.9954718 C200.026883,26.6444623 199.981365,26.2990073 199.935894,25.9529404 C199.927704,25.8905711 199.925774,25.8224592 199.860063,25.7960523 C199.790727,25.7681862 199.746245,25.8246245 199.703081,25.8677416 C199.542992,26.0273598 199.38681,26.1910262 199.223755,26.3475847 C198.890397,26.6676684 198.515947,26.9291485 198.124268,27.1766485 C197.841653,27.3552835 197.512908,27.4187354 197.240649,27.6058431 C197.207699,27.6284372 197.165711,27.6440178 197.125983,27.6499017 C196.468353,27.7472448 195.813217,27.9246559 195.144806,27.7174017 C195.096276,27.7023389 195.043556,27.6967845 194.992531,27.6948546 C194.174529,27.6634582 193.553285,27.2413713 193.030371,26.6643264 C192.734059,26.3373703 192.558013,25.9242741 192.388509,25.5168264 C192.36535,25.4610471 192.355701,25.3969362 192.352453,25.3359791 C192.331506,24.944818 192.220889,24.5709791 192.139833,24.1912092 C192.118604,24.0918421 192.114979,23.98725 192.114885,23.8850586 C192.113143,21.816 192.113002,19.7469414 192.112626,17.6778358 C192.112578,17.3277207 192.197024,17.2353672 192.538666,17.2184215 C192.620617,17.2143734 192.704215,17.2137615 192.785084,17.2252939 C192.967814,17.2514184 193.03988,17.3215073 193.054472,17.5047082 C193.06591,17.6478044 193.054942,17.7926423 193.054895,17.936727 C193.054331,19.9337197 193.053201,21.9307594 193.054331,23.9277521 C193.054472,24.1438086 193.068264,24.359818 193.074806,24.5758745 C193.077913,24.6799487 193.092599,24.78134 193.143813,24.8737406 C193.24478,25.0557646 193.277165,25.2609948 193.344712,25.4530921 C193.478347,25.8329561 193.693133,26.1779874 194.034163,26.4074592 C194.553122,26.7566328 195.124754,26.9609215 195.761721,26.9435523 C195.905758,26.9396454 196.050078,26.9387981 196.194069,26.9439759 C196.381977,26.9508013 196.558917,26.9227939 196.734916,26.8482333 C196.913975,26.7724017 197.102165,26.7194467 197.295251,26.6798598 C197.59147,26.6191851 197.828944,26.4259111 198.080445,26.2749069 C198.738876,25.8796036 199.227615,25.2879195 199.774017,24.7630764 C199.891695,24.6501056 199.905769,24.5177416 199.905157,24.3693734 C199.901627,23.4635366 199.901297,22.5576527 199.900309,21.6517688 C199.898802,20.3238452 199.897249,18.9959686 199.896449,17.668045 C199.896213,17.3255554 199.985978,17.2336726 200.332139,17.2174331 C200.383541,17.2150795 200.435225,17.2141851 200.486485,17.217386 C200.756674,17.2344257 200.834106,17.3088923 200.842296,17.5760209 C200.847662,17.750796 200.838624,17.9259477 200.83853,18.1009582 C200.838107,19.5215178 200.838295,20.9420303 200.838295,22.362637 L200.841637,22.362637 Z" id="Fill-5" fill="#00ADF2"></path>
            <path d="M105.104763,22.3320643 C105.104763,20.7776815 105.105234,19.2233457 105.104104,17.6690099 C105.103963,17.5000246 105.096243,17.3233666 105.295025,17.2585497 C105.494936,17.1933091 105.703131,17.1804587 105.889862,17.3020905 C106.008623,17.3794283 106.002504,17.5124984 106.000668,17.6376135 C105.995161,18.0081104 105.983958,18.3787955 106.029852,18.7479273 C106.037478,18.8091668 106.038701,18.8714419 106.050657,18.9317401 C106.066567,19.0122788 106.118063,19.0281888 106.185752,18.9880842 C106.220867,18.9672788 106.254664,18.9422369 106.283942,18.9139001 C106.622478,18.5863792 106.952399,18.2479848 107.341677,17.9793028 C107.803116,17.6609137 108.263283,17.3605058 108.809826,17.1695382 C109.489203,16.9322526 110.161097,16.9485863 110.849277,16.9914681 C111.03629,17.0031417 111.214549,17.047012 111.382922,17.1320225 C111.437572,17.1596532 111.496928,17.1822474 111.556709,17.1948624 C112.356588,17.3643185 112.895459,17.8758405 113.301871,18.5465099 C113.630569,19.0890518 113.804732,19.6839367 113.833069,20.3204325 C113.869266,21.1333509 113.848178,21.9465988 113.850673,22.7597055 C113.854957,24.1596009 113.852744,25.5595905 113.852603,26.95958 C113.852556,27.0623834 113.853686,27.1659399 113.842671,27.2678959 C113.814993,27.5249514 113.726029,27.6205058 113.511902,27.6366982 C113.266803,27.6553384 113.097394,27.5543708 113.024951,27.3459399 C112.979951,27.2165884 112.986918,27.081965 112.986965,26.94833 C112.9872,25.0337118 112.976421,23.1189524 112.995767,21.2045225 C113.001275,20.6621689 112.919842,20.1292767 112.800422,19.6183196 C112.662457,19.0278593 112.325945,18.5211857 111.747158,18.2033614 C111.408388,18.0173363 111.064862,17.9236177 110.692389,17.9113792 C110.301792,17.8985288 109.910113,17.8965518 109.519517,17.9086491 C109.000935,17.9247945 108.55423,18.1459346 108.117362,18.4098154 C107.416144,18.8333143 106.82333,19.3817871 106.245767,19.9530424 C106.095422,20.101693 106.033053,20.2604639 106.033853,20.4728959 C106.042138,22.6756836 106.042373,24.8785183 106.044774,27.081353 C106.044821,27.1122317 106.044632,27.1431574 106.042749,27.1739419 C106.022415,27.5049932 105.91594,27.6179639 105.621228,27.6220591 C105.285893,27.626625 105.134418,27.5001919 105.112859,27.1802024 C105.101139,27.0059922 105.109329,26.8303698 105.109282,26.6554535 C105.109141,25.2142767 105.109235,23.773147 105.109235,22.3320643 L105.104763,22.3320643 Z" id="Fill-7" fill="#00ADF2"></path>
            <path d="M68.0650654,19.0994639 C68.3388781,18.7942547 68.6503949,18.5466606 68.9433185,18.2780727 C69.155374,18.083716 69.3780204,17.9012212 69.6373823,17.7741763 C69.7785486,17.7050288 69.8773039,17.5850915 70.0135277,17.5080361 C70.9388049,16.9847463 71.9305936,16.8674451 72.9670528,16.9981145 C73.0918855,17.0138363 73.2036794,17.0641553 73.3171679,17.1137683 C73.4108865,17.1547673 73.5082767,17.2092756 73.6062788,17.2144535 C73.957806,17.2330465 74.215897,17.4573876 74.4842965,17.629103 C74.8961689,17.8925601 75.2018959,18.2887108 75.3984179,18.7277432 C75.5755936,19.1234702 75.7855309,19.5264932 75.7602537,19.9898614 C75.7490037,20.19608 75.7823771,20.4004158 75.8366972,20.6006093 C75.8748248,20.7407871 75.8806145,20.884307 75.8805204,21.0291919 C75.8791083,22.9956825 75.8793436,24.9622202 75.8783551,26.9286637 C75.8783081,27.0314671 75.8806145,27.1356825 75.8654576,27.2367442 C75.8252118,27.505285 75.6717599,27.6342599 75.4041135,27.6372254 C75.1737945,27.6397673 75.0655309,27.5520267 75.030557,27.3171417 C75.013988,27.2058656 75.0136585,27.0914357 75.0136585,26.9784179 C75.0132819,25.0016658 75.0127641,23.0248666 75.0162003,21.0480675 C75.0167652,20.736739 74.9977484,20.4329419 74.8812945,20.1384179 C74.8326229,20.0155152 74.8008028,19.8800445 74.79233,19.7482924 C74.7629106,19.2910434 74.5306145,18.9255832 74.2361846,18.6127014 C73.8720894,18.2258708 73.4306093,17.9518698 72.8714984,17.9224503 C72.2848039,17.8915246 71.6993332,17.8722725 71.1149451,17.954647 C70.8017809,17.9987526 70.5285329,18.1589357 70.2640873,18.3025968 C69.6684493,18.6261637 69.1477014,19.0621836 68.6615507,19.5357191 C68.4848457,19.7078583 68.3192024,19.8918122 68.1371783,20.0579733 C68.0114043,20.1727798 67.9731825,20.3013311 67.9737003,20.4677746 C67.9806198,22.6710329 67.9817965,24.8742913 67.9842442,27.0775026 C67.9842913,27.1289514 67.984103,27.1806355 67.9796783,27.2318488 C67.954307,27.5239723 67.860965,27.6281407 67.618784,27.6371783 C67.3472777,27.6472986 67.1784336,27.5213834 67.1372463,27.2632924 C67.1195476,27.1523457 67.1230309,27.0374922 67.1229838,26.9244273 C67.1215246,23.8460225 67.1209597,20.7675706 67.1198771,17.6891187 C67.1197359,17.2795528 67.3795685,17.1020476 67.7728007,17.2414252 C67.9436219,17.3019587 67.9629681,17.4392181 67.9644273,17.5896574 C67.9684754,18.0013415 67.9713468,18.4130727 67.9778896,18.8247568 C67.9791606,18.9034127 67.9550131,18.9899765 68.0650654,19.0994639" id="Fill-9" fill="#00ADF2"></path>
            <path d="M62.9810397,22.3808394 C62.9810397,23.9042495 62.9812751,25.4277066 62.9806161,26.9511637 C62.980569,27.0949189 62.9910659,27.2400392 62.9525617,27.3811585 C62.9014895,27.5682662 62.7910136,27.6454158 62.5877134,27.6393907 C62.4020178,27.6338834 62.2991203,27.5565926 62.2540262,27.3804524 C62.2152866,27.2291658 62.2212176,27.0733604 62.2268661,26.9194378 C62.2385868,26.5994953 62.2275251,26.2822829 62.1490575,25.969966 C62.132159,25.9025601 62.1495753,25.8135486 62.071249,25.7819639 C61.9743766,25.7428949 61.9239634,25.8318122 61.8671015,25.8859911 C61.7628389,25.9853583 61.6648839,26.0913154 61.5616098,26.1917652 C61.1645649,26.5777955 60.7429958,26.9249922 60.255386,27.2019116 C59.9949885,27.3498091 59.7019236,27.4229106 59.458613,27.5982035 C59.4343713,27.6156668 59.4026454,27.6270581 59.3728494,27.6318593 C58.7172427,27.7370162 58.0658253,27.9255361 57.3948264,27.732215 C57.3456841,27.7180465 57.2929644,27.7035957 57.243069,27.7068907 C56.8117092,27.735557 56.4335397,27.552215 56.0754226,27.3634127 C55.6763065,27.1529106 55.3476559,26.8384754 55.0658881,26.4760748 C54.8215889,26.1618279 54.7153964,25.7865298 54.558932,25.4341083 C54.4492092,25.1869378 54.453681,24.9114775 54.4480324,24.6437369 C54.4449728,24.4986166 54.441772,24.3551438 54.376955,24.2215089 C54.325318,24.115034 54.3328964,24.0014043 54.3328964,23.8882453 C54.3329435,21.8192809 54.3328964,19.7503164 54.3326611,17.681352 C54.332614,17.2835539 54.6949205,17.0647673 55.0544969,17.2460853 C55.1345178,17.2863781 55.1801297,17.3532662 55.1892615,17.4398771 C55.1978755,17.5214984 55.1981109,17.6042024 55.1980638,17.6864357 C55.1971695,19.7554472 55.1985345,21.8244587 55.1908619,23.8934231 C55.1899205,24.1455361 55.2567615,24.3825863 55.3030795,24.6226961 C55.3533985,24.883376 55.4009404,25.1562945 55.497954,25.3963572 C55.665386,25.8108185 55.9037071,26.1818802 56.2933149,26.4615769 C56.6331213,26.7055465 57.0347322,26.7435329 57.3935554,26.9132714 C57.6163902,27.0186637 57.9015471,26.9293227 58.1580377,26.9444796 C58.4824519,26.9635905 58.7921799,26.9130361 59.0935293,26.7910748 C59.2071119,26.7451804 59.3285084,26.7121365 59.4494812,26.692602 C59.595637,26.6690194 59.7238588,26.6280675 59.8354174,26.5214984 C59.9839738,26.3794848 60.1900042,26.3298719 60.3597427,26.2085696 C60.7372061,25.9390403 61.0909927,25.6488468 61.4123473,25.3161009 C61.5768138,25.1458447 61.7434927,24.9776124 61.913137,24.8124399 C62.0615523,24.6678844 62.1272165,24.5013468 62.1265575,24.2891501 C62.1198264,22.1172411 62.1199205,19.9453321 62.1181318,17.773376 C62.1180847,17.6910957 62.1145544,17.60858 62.1186025,17.5264409 C62.1267929,17.359103 62.2195701,17.2594064 62.3811653,17.2318227 C62.471636,17.2163834 62.565637,17.212853 62.6575669,17.2165246 C62.8978651,17.2261271 62.9685188,17.2941449 62.9799571,17.5327014 C62.9873002,17.686671 62.9804278,17.8413938 62.9804278,17.9957871 C62.9803337,19.4574869 62.9803808,20.9191396 62.9803808,22.3808394 L62.9810397,22.3808394 Z" id="Fill-11" fill="#00ADF2"></path>
            <path d="M206.223053,22.3723337 L206.223053,17.6787301 C206.223053,17.65816 206.222536,17.6375429 206.222865,17.6169728 C206.228655,17.2591851 206.502515,17.0902939 206.829377,17.2427573 C206.949596,17.2989132 206.979533,17.4039759 206.979816,17.5233954 C206.980381,17.7806862 206.989513,18.0385889 206.97605,18.2952207 C206.959575,18.6076318 207.022274,18.9094048 207.072687,19.2130607 C207.097588,19.3630293 207.1673,19.3863766 207.279377,19.2930345 C207.310726,19.266863 207.340051,19.236455 207.363728,19.2032699 C207.597954,18.8754195 207.892572,18.6081967 208.195287,18.3454456 C208.444434,18.1291538 208.735192,17.9746663 208.990553,17.7724487 C209.254764,17.5631705 209.590004,17.509227 209.860522,17.3230607 C209.868948,17.3172709 209.878315,17.3104456 209.887917,17.3091747 C210.306238,17.253113 210.683561,17.033432 211.101694,16.9893734 C211.665747,16.9298755 212.232389,16.9489864 212.796866,17.0041538 C212.877593,17.0120617 212.963592,17.0267479 213.034293,17.063181 C213.219941,17.1588295 213.413545,17.2106077 213.619858,17.2426161 C213.905532,17.2870042 213.963053,17.3786046 213.935423,17.6636674 C213.930433,17.7148808 213.923043,17.7658588 213.915841,17.8168368 C213.86844,18.153113 213.679873,18.2868891 213.381772,18.1336726 C212.958226,17.9159215 212.510721,17.9079195 212.059309,17.900341 C211.606955,17.8928096 211.153707,17.8829247 210.703519,17.9525429 C210.601233,17.9683117 210.492028,17.9682176 210.4065,18.0257385 C210.132169,18.2103515 209.803613,18.2682019 209.516055,18.4369519 C209.139204,18.6580921 208.804434,18.9206548 208.499743,19.2211098 C208.069183,19.6457385 207.645967,20.0817584 207.326542,20.6013295 C207.164711,20.8646925 207.064873,21.1354927 207.076971,21.4696506 C207.10832,22.3331705 207.088503,23.1985262 207.088974,24.0631287 C207.089539,25.0203672 207.090386,25.9776527 207.089915,26.9348912 C207.089868,27.0376004 207.092128,27.1419571 207.075982,27.2427835 C207.027217,27.5469571 206.785318,27.7006914 206.487122,27.6270722 C206.351605,27.5936046 206.269371,27.5073703 206.252426,27.3726998 C206.234445,27.2304038 206.225689,27.0859895 206.225501,26.9424226 C206.223712,25.4191067 206.224371,23.8956967 206.224371,22.3723337 L206.223053,22.3723337 Z" id="Fill-13" fill="#00ADF2"></path>
            <path d="M149.342366,20.6848525 C149.349191,20.6495021 149.35597,20.6141517 149.362748,20.5788013 C149.583088,20.2677082 149.665321,19.8918452 149.843156,19.559523 C150.107131,19.0661234 150.276069,18.5262646 150.562873,18.0435031 C150.623077,17.9421119 150.642047,17.834272 150.673396,17.7271381 C150.747816,17.4730481 150.900609,17.2866935 151.160488,17.2193818 C151.297607,17.1838902 151.453553,17.1717458 151.562288,17.2982259 C151.677753,17.4323787 151.665562,17.5982103 151.584129,17.7316569 C151.295818,18.2040628 151.098543,18.7211391 150.876038,19.2218347 C150.648731,19.7333567 150.378872,20.2266621 150.186587,20.7537646 C149.896111,21.3736914 149.613496,21.9970544 149.33587,22.6229592 C149.133982,23.07809 148.951299,23.5475303 148.689066,23.9745596 C148.564657,24.1771538 148.586498,24.4412699 148.40325,24.6148682 C148.164082,25.1122218 147.972973,25.6306161 147.728815,26.1263222 C147.530504,26.5288274 147.349233,26.9401349 147.154688,27.3448525 C147.063135,27.5353023 146.910107,27.6081684 146.709019,27.6130167 C146.494986,27.6181004 146.336545,27.5356318 146.22428,27.348477 C146.033925,27.0313117 145.876001,26.6967772 145.725985,26.36116 C145.405996,25.6454906 145.075556,24.9346224 144.755143,24.2191883 C144.401168,23.4288169 144.008124,22.6560973 143.685122,21.8516987 C143.673778,21.8234561 143.648077,21.8029331 143.624306,21.7831161 C143.544521,21.7269132 143.496414,21.6429383 143.471702,21.5559979 C143.294055,20.9309874 142.960556,20.3753598 142.700206,19.787159 C142.485656,19.3023734 142.253077,18.825637 142.049354,18.336568 C141.966273,18.1370335 141.837345,17.9639059 141.764762,17.7591935 C141.704463,17.5890785 141.618794,17.427295 141.803595,17.2878703 C141.953234,17.1749467 142.339594,17.2264895 142.457649,17.3681266 C142.711974,17.6732887 142.816236,18.0563065 142.985551,18.4048211 C143.136979,18.7165732 143.268496,19.038069 143.425101,19.3481266 C143.558736,19.6127134 143.669024,19.8895387 143.785243,20.1612803 C144.206859,21.1468086 144.68576,22.1064948 145.101399,23.0934351 C145.334542,23.6469916 145.604071,24.1836025 145.839191,24.7362176 C146.066733,25.2710868 146.314892,25.8020962 146.567664,26.3284456 C146.649803,26.499455 146.724929,26.4955481 146.820295,26.33866 C147.029385,25.9948054 147.144709,25.6082573 147.306351,25.2438797 C147.558794,24.6746956 147.815002,24.1063588 148.059866,23.533409 C148.3687,22.8105377 148.728653,22.1106841 149.028449,21.3831056 C149.125227,21.1482207 149.264652,20.930046 149.342366,20.6848525" id="Fill-15" fill="#00ADF2"></path>
            <path d="M119.185192,23.3882699 C119.263331,23.4002259 119.307624,23.369818 119.341939,23.3338556 C119.666965,22.9924487 120.008184,22.6631862 120.362159,22.3572238 C120.750355,22.0216538 121.083242,21.6306339 121.487488,21.3120094 C121.849842,21.0263818 122.171762,20.6899174 122.508226,20.3734582 C123.390056,19.5442061 124.293022,18.737454 125.161155,17.8932333 C125.358242,17.7015126 125.575192,17.5259372 125.773738,17.3326161 C125.875083,17.2338609 126.00048,17.1914027 126.137928,17.1874958 C126.322823,17.1822238 126.508848,17.1663138 126.692332,17.2000638 C126.80968,17.2215753 126.908388,17.2741538 126.926934,17.409295 C126.944445,17.5369519 126.897373,17.6337301 126.774753,17.6802835 C126.673786,17.7185994 126.607368,17.7961255 126.532007,17.8658379 C125.748414,18.5906862 124.96275,19.3136046 124.177839,20.0366642 C123.80287,20.3821663 123.475114,20.7830711 123.046767,21.0720879 C122.920098,21.157569 122.930689,21.2830607 123.01344,21.397773 C123.103346,21.5224644 123.199183,21.6432019 123.297091,21.761727 C123.903414,22.4958483 124.467091,23.2635785 125.074826,23.9969937 C125.611343,24.6444571 126.115145,25.3189864 126.635893,25.9795356 C126.889701,26.3015492 127.143885,26.6235157 127.408895,26.9362092 C127.511605,27.0574174 127.579058,27.1945356 127.640297,27.3340073 C127.717353,27.5097238 127.638273,27.6332856 127.448153,27.6676004 C127.056992,27.7382071 126.750606,27.6128096 126.503435,27.296068 C125.828012,26.430477 125.156636,25.5609791 124.455888,24.7160523 C123.938341,24.0919833 123.450119,23.4447082 122.928147,22.8239812 C122.705831,22.5596297 122.51651,22.2628462 122.288827,21.9987772 C122.150768,21.8386883 122.113346,21.8382176 121.969685,21.9738295 C121.343027,22.5653724 120.716652,23.1571506 120.08877,23.7473755 C119.834915,23.9859791 119.613257,24.2583797 119.326359,24.4627626 C119.178932,24.5677782 119.146971,24.7221715 119.149183,24.8988766 C119.157844,25.5882803 119.156762,26.2778724 119.158456,26.9673232 C119.158738,27.0702207 119.159492,27.1734948 119.151207,27.2758745 C119.128472,27.557501 119.047933,27.6512667 118.818179,27.6748023 C118.524596,27.7048808 118.332546,27.5939341 118.259209,27.3544362 C118.216045,27.2136464 118.225036,27.0691381 118.225036,26.925477 C118.225036,22.3251213 118.225412,17.7248598 118.22593,13.1245513 C118.22593,12.8981862 118.216563,12.671068 118.230402,12.4455031 C118.254126,12.0599906 118.478937,11.8925586 118.854659,11.9582699 C119.016819,11.9866067 119.118916,12.0722762 119.136897,12.2372605 C119.151348,12.3699069 119.157891,12.5040126 119.157844,12.6374592 C119.157232,16.1263243 119.155114,19.6150952 119.15422,23.1039132 C119.15422,23.1946663 119.13605,23.2882908 119.185192,23.3882699" id="Fill-17" fill="#00ADF2"></path>
            <path d="M183.367737,21.5860528 C183.367737,22.440535 183.368302,23.2950643 183.367502,24.1495465 C183.367031,24.5826951 183.426435,24.9945675 183.565812,25.4170309 C183.720723,25.8867066 183.982627,26.2277369 184.362726,26.5078572 C184.387533,26.5260737 184.408856,26.5558227 184.436204,26.5628363 C184.831931,26.663898 185.185294,26.9088562 185.608982,26.9129984 C185.948694,26.9162934 186.288501,26.9139399 186.628213,26.9139399 C186.816027,26.9139399 186.995791,26.8671512 187.172026,26.8103834 C187.408229,26.7342694 187.647868,26.6780664 187.895085,26.6580612 C188.112648,26.6405037 188.322303,26.6108488 188.500232,26.4624336 C188.551163,26.4199283 188.632972,26.4070779 188.703061,26.3963928 C188.934887,26.3611365 189.10952,26.438898 189.174808,26.5978572 C189.268056,26.8247401 189.201874,27.116534 189.018861,27.2360947 C188.854583,27.3433698 188.681691,27.4360999 188.476037,27.436806 C188.340096,27.4372767 188.20213,27.4589765 188.088124,27.5262411 C187.818406,27.6855298 187.522282,27.7046407 187.223992,27.7190915 C187.017303,27.7291177 186.818757,27.7761888 186.616633,27.8145047 C186.222554,27.8892066 185.822214,27.9130717 185.428417,27.7910162 C185.369531,27.7727997 185.308103,27.7408855 185.250158,27.7453572 C184.798699,27.7798133 184.400195,27.6017432 184.01986,27.4062097 C183.684714,27.2339294 183.408312,26.9750382 183.16326,26.6761836 C182.951157,26.4175277 182.887423,26.0840288 182.673061,25.8315863 C182.624531,25.7743949 182.605938,25.6776166 182.603161,25.5980194 C182.590028,25.2235685 182.480305,24.8686051 182.397883,24.5079932 C182.354154,24.3167903 182.336314,24.1233279 182.336785,23.9263823 C182.341163,22.1144733 182.342575,20.3025173 182.34474,18.4906083 C182.344787,18.4391124 182.34361,18.3877108 182.342857,18.336215 C182.340551,18.1858227 182.26952,18.1062725 182.113715,18.1134273 C182.062313,18.1157338 182.010865,18.117852 181.959369,18.1178991 C181.207831,18.1185581 180.456293,18.1237359 179.70485,18.1170518 C179.35417,18.113898 179.247601,17.9920779 179.248354,17.6431396 C179.249107,17.3029566 179.328375,17.209238 179.691999,17.2015183 C180.443208,17.1855141 181.194839,17.1859848 181.946283,17.1798185 C182.028657,17.1791124 182.111079,17.1809012 182.193359,17.1779357 C182.337067,17.1727108 182.406733,17.0936313 182.370959,16.9559482 C182.331231,16.8028729 182.341492,16.6495152 182.337256,16.4957809 C182.335797,16.4444733 182.327606,16.3883175 182.344269,16.3422819 C182.525352,15.8415863 182.412099,15.3229095 182.441848,14.8132704 C182.449003,14.6900853 182.447214,14.5662882 182.454887,14.4431501 C182.464583,14.2882861 182.558631,14.2007338 182.701586,14.1647244 C182.832915,14.1316804 182.967679,14.1356815 183.100373,14.1567223 C183.23702,14.1784221 183.323584,14.2592432 183.341518,14.3995622 C183.354604,14.5014242 183.368349,14.604557 183.366466,14.7067955 C183.352486,15.4575329 183.403511,16.2089294 183.33827,16.959102 C183.323631,17.1276166 183.367549,17.168239 183.550655,17.1783122 C183.632747,17.1828311 183.71531,17.1797714 183.797685,17.1797714 C185.238956,17.1798185 186.680274,17.1797714 188.121592,17.1798656 C188.234845,17.1798656 188.348286,17.1769942 188.461304,17.1818896 C188.623699,17.1889974 188.814149,17.1634378 188.888427,17.3539346 C188.969578,17.5621302 188.956069,17.780352 188.84338,17.9793687 C188.795744,18.0634378 188.708145,18.1043896 188.609531,18.1096145 C188.506775,18.1150277 188.403877,18.1210999 188.301074,18.1209587 C186.74655,18.1186051 185.19212,18.1154984 183.637596,18.1118269 C183.411701,18.1113562 183.363877,18.1471302 183.356487,18.3745309 C183.350509,18.5593321 183.367266,18.7447924 183.367596,18.9299231 C183.369008,19.8153311 183.368255,20.7006449 183.368255,21.5860528 L183.367737,21.5860528 Z" id="Fill-19" fill="#00ADF2"></path>
            <path d="M94.253046,18.5455968 C93.9543797,18.7962505 93.6101956,18.9769095 93.2668117,19.1513081 C92.9993065,19.2871553 92.8845941,19.2277986 92.742204,18.9675894 C92.7125962,18.9134576 92.6845418,18.858102 92.6611004,18.8010988 C92.5442228,18.5169775 92.5776904,18.4308373 92.8752741,18.3179608 C93.069772,18.2442474 93.2211056,18.1016219 93.398046,18.0008896 C93.6485586,17.8582641 93.922136,17.7664283 94.1651642,17.6134001 C94.2707448,17.5469357 94.3842333,17.5012296 94.5093483,17.4842369 C94.6541862,17.4646083 94.7874916,17.4128771 94.9103473,17.3323855 C94.9530408,17.3044252 95.0006768,17.2696396 95.0482657,17.265874 C95.532204,17.2277934 95.9618222,16.9586407 96.4505146,16.9409419 C96.9857605,16.9215486 97.5204414,16.9062035 98.0531454,16.9832118 C98.1569843,16.9982275 98.251409,17.0350842 98.3447981,17.0794252 C98.4190293,17.1146344 98.4920837,17.1612348 98.5707866,17.1766742 C99.0594791,17.272511 99.4456977,17.5639754 99.8239142,17.854216 C100.100316,18.0662714 100.289259,18.3695978 100.457492,18.6736773 C100.541231,18.8250581 100.60746,18.9868886 100.699108,19.1358217 C100.753192,19.2237035 100.781059,19.3236355 100.789249,19.4285099 C100.814244,19.7476522 100.908198,20.0522024 100.997115,20.3568468 C101.03256,20.4784786 101.039714,20.5990748 101.039667,20.7226365 C101.039385,22.8125005 101.03915,24.9024587 101.038585,26.9923698 C101.038585,27.0644827 101.039809,27.1368311 101.033831,27.2084733 C101.006953,27.5287924 100.850347,27.6703823 100.533229,27.6644514 C100.244871,27.6590382 100.090619,27.5273802 100.067554,27.2390225 C100.051174,27.0343101 100.064918,26.8273855 100.05814,26.6216846 C100.053857,26.4912505 100.064306,26.3564388 99.9873923,26.1911721 C99.5178107,26.5022652 99.0719529,26.8191009 98.5833546,27.0629294 C98.5344477,27.0918781 98.4864351,27.0963028 98.4399289,27.0579399 C98.4480251,26.8968624 98.5788358,26.8365173 98.6910063,26.7727359 C99.0397092,26.5745194 99.3806925,26.3657118 99.7086841,26.1341689 C100.024861,25.9110047 100.225949,26.0134786 100.257816,26.4052516 C100.275326,26.6204137 100.246095,26.8378823 100.279563,27.052056 C100.304134,27.2094618 100.350264,27.3712453 100.54688,27.3754346 C100.748203,27.3797181 100.786895,27.2137924 100.817821,27.0586459 C100.840086,26.9472756 100.833872,26.8332694 100.833872,26.7202045 C100.834108,24.8074691 100.861786,22.894216 100.821446,20.982375 C100.803276,20.1206438 100.634903,19.271057 100.126205,18.5251208 C99.7432343,17.9635622 99.2198504,17.6005026 98.5978996,17.3838813 C97.6814718,17.064739 96.7523818,17.0596553 95.804887,17.2950581 C94.8582866,17.5302254 93.9650178,17.871444 93.1432029,18.396852 C93.0998975,18.4245298 93.0569215,18.4527725 93.0156872,18.4836041 C92.8774864,18.5869723 92.8505617,18.7162767 92.9404676,18.8609733 C93.0325387,19.0091062 93.1720575,18.9952673 93.2903473,18.9150581 C93.5040031,18.7701731 93.7376172,18.6631804 93.9588515,18.5333112 C94.0461213,18.4820507 94.1277897,18.4089963 94.2422197,18.4552202 C94.2714038,18.4823332 94.2749341,18.5124587 94.253046,18.5455968" id="Fill-21" fill="#00ADF2"></path>
            <path d="M94.253046,18.5455968 L94.2484331,18.4763551 C94.2632605,18.4531491 94.283501,18.4362035 94.3080722,18.4241062 C94.3707238,18.4009472 94.4358232,18.3831543 94.489296,18.3395664 C94.6036318,18.2481543 94.7244163,18.1703457 94.8745732,18.153306 C94.9654205,18.1459158 95.0541967,18.1307589 95.1356297,18.0857589 C96.3379205,17.5830392 97.5502374,17.523353 98.7512573,18.0632589 C99.3180879,18.318102 99.6792646,18.7883426 99.9107605,19.3673175 C100.088548,19.8119514 100.225855,20.257715 100.201095,20.7435832 C100.182031,21.1179869 100.070567,21.2579294 99.7046831,21.2674848 C98.3506349,21.3028353 97.0316077,21.577307 95.7179937,21.8669357 C94.9753054,22.0306491 94.253046,22.2916114 93.6068536,22.7046606 C92.7712939,23.2387767 92.2063933,23.9753457 92.2426851,25.0084158 C92.2801538,26.0750947 92.8709906,26.8732798 93.8982238,27.2872704 C94.8857291,27.6852568 95.8979937,27.7307275 96.9235795,27.5066219 C97.3025021,27.4238237 97.6657029,27.2678771 98.0274916,27.1210152 C98.1579257,27.0680601 98.2819582,26.9748593 98.4349393,27.050126 C98.4844111,27.0544095 98.5338358,27.0586459 98.5833546,27.0629294 C98.2703787,27.1753353 97.9922354,27.3574535 97.6735167,27.4715068 C97.2530303,27.6219461 96.8255774,27.6897756 96.3988776,27.7898018 C96.0491862,27.8717526 95.6903159,27.9109629 95.3610533,27.8424744 C95.008773,27.7691376 94.6552218,27.7307275 94.3023766,27.6763604 C94.2197667,27.6636041 94.1413933,27.6345141 94.0781297,27.5797233 C93.9732082,27.4887819 93.8531297,27.4459472 93.7164822,27.4238708 C93.4835272,27.386261 93.3151067,27.2140277 93.1381663,27.0844409 C92.8063149,26.8413656 92.5572144,26.5075842 92.309432,26.1793572 C92.3033128,26.171261 92.2956402,26.1623175 92.2943222,26.1529032 C92.2336004,25.7067631 91.9429362,25.3155078 91.9843117,24.8442317 C91.9960795,24.7101731 91.9999393,24.5741846 92.0644738,24.4544357 C92.1680774,24.2622913 92.2528054,24.0668049 92.2615607,23.8442526 C92.263114,23.8055601 92.280295,23.7623488 92.3031715,23.7304346 C92.6273504,23.2782694 92.9788776,22.8443206 93.4570262,22.5516794 C93.8207918,22.32908 94.2174132,22.1593415 94.6037259,21.9751522 C94.6841705,21.9368363 94.7830199,21.9311407 94.8744791,21.9237505 C94.9792594,21.9152306 95.0825805,21.8992735 95.1680146,21.8402934 C95.4089718,21.6741323 95.6826904,21.6429242 95.9624341,21.6340748 C96.0773818,21.6304503 96.1905408,21.6206124 96.2884958,21.5570194 C96.4954676,21.4225842 96.7253159,21.3845507 96.9657552,21.381444 C97.3796046,21.376125 97.7814979,21.3114493 98.1787312,21.1858635 C98.4937312,21.086261 98.8309958,21.1138917 99.1586579,21.0904974 C99.3739613,21.0751522 99.5906297,21.0802829 99.8064979,21.0711982 C100.028297,21.0618781 100.053574,21.0266219 100.039453,20.8126836 C100.012999,20.412579 99.9362259,20.0305026 99.8071569,19.6441428 C99.6826538,19.2712924 99.51075,18.9473959 99.2505879,18.6693938 C99.0720471,18.4786145 98.8961893,18.269807 98.6097615,18.2203823 C98.5435795,18.208944 98.4842228,18.1541532 98.423454,18.1165434 C98.2988096,18.039488 98.1656925,17.9961355 98.0183128,17.9811198 C97.2985952,17.9077359 96.5798661,17.940215 95.8610429,17.9911459 C95.8507343,17.991852 95.8397197,17.9905811 95.8303525,17.9939231 C95.4669163,18.1239806 95.095478,18.2362453 94.7439508,18.3929922 C94.5821203,18.4651522 94.432999,18.545126 94.253046,18.5455968" id="Fill-23" fill="#00ADF2"></path>
            <path d="M149.342366,20.6848525 C149.376304,20.8044603 149.324385,20.9159247 149.27529,21.0099728 C149.147209,21.2553075 149.038804,21.5077029 148.931906,21.7625931 C148.782078,22.1199571 148.610692,22.4683776 148.448768,22.820705 C148.341775,23.0535188 148.232664,23.2854854 148.128825,23.5197584 C147.946189,23.9314895 147.768355,24.3461862 147.582518,24.7555638 C147.345468,25.2777238 147.142026,25.8146642 146.888925,26.329387 C146.870849,26.3661967 146.861012,26.4079017 146.838747,26.4416517 C146.800384,26.4998787 146.776236,26.5865366 146.696404,26.5903494 C146.593789,26.5952918 146.571383,26.4966778 146.539751,26.4241412 C146.355279,26.0005952 146.193778,25.5656109 145.986006,25.1539738 C145.737659,24.6619864 145.548198,24.1437333 145.284176,23.6587594 C145.137549,23.3893713 145.04336,23.0919759 144.915421,22.8119027 C144.766817,22.4866412 144.629322,22.1568609 144.461749,21.839319 C144.31484,21.5609404 144.210907,21.2598734 144.08904,20.9683619 C144.065363,20.9116412 144.054866,20.8480481 144.02427,20.7958462 C143.795645,20.405909 143.6453,19.9809038 143.463794,19.5696433 C143.257434,19.1019446 143.027821,18.6446015 142.813647,18.1802918 C142.702371,17.9389111 142.633742,17.6786548 142.463485,17.4641517 C142.335923,17.3034038 142.045258,17.2211234 141.860692,17.3104644 C141.774976,17.3519341 141.748051,17.4226349 141.749369,17.5121172 C141.750828,17.6089425 141.799265,17.6890575 141.836874,17.7731266 C142.025206,18.1939425 142.226718,18.6086391 142.415143,19.0295492 C142.686508,19.6357312 142.980138,20.2323107 143.250656,20.8396695 C143.350541,21.0639634 143.488553,21.2673107 143.51609,21.5221067 C143.525269,21.6073996 143.593381,21.68775 143.66813,21.7468243 C143.703763,21.7931423 143.703715,21.8380481 143.662858,21.8814006 C143.526163,21.7630638 143.461346,21.6089529 143.399118,21.4401088 C143.282853,21.1246851 143.148135,20.8129331 142.987858,20.5176559 C142.851446,20.266249 142.812,19.9659351 142.599992,19.7542563 C142.576503,19.4036705 142.319495,19.1500042 142.207748,18.8310502 C142.120666,18.5827029 142.022711,18.3163745 141.848736,18.0913274 C141.726493,17.9332155 141.695944,17.7147584 141.603308,17.5304749 C141.538679,17.4019707 141.614134,17.2923421 141.739908,17.2282312 C142.011791,17.0897479 142.390243,17.2010711 142.58121,17.443864 C142.788464,17.7074153 142.862978,18.0318766 143.016806,18.3197636 C143.192617,18.6487437 143.327523,19.000318 143.491378,19.337818 C143.619599,19.6019341 143.764437,19.8716517 143.841446,20.152478 C143.929374,20.4732207 144.118083,20.7404435 144.232277,21.0466883 C144.378951,21.4397322 144.566623,21.8257155 144.756744,22.2027082 C144.88586,22.4588222 145.003632,22.721432 145.119521,22.9815 C145.272549,23.3251192 145.459233,23.6560293 145.566603,24.0197008 C145.590279,24.09991 145.626995,24.1711757 145.685928,24.2324623 C145.720902,24.2688954 145.766325,24.3111182 145.773386,24.3560241 C145.81076,24.5947688 145.938182,24.7888431 146.046399,24.9982155 C146.238402,25.3695596 146.385499,25.7640157 146.553684,26.1478337 C146.585881,26.2212176 146.628715,26.2899885 146.68087,26.3875199 C146.849714,26.2264425 146.924087,26.0384874 146.985515,25.8471433 C147.042141,25.6707678 147.080834,25.4885554 147.211315,25.345977 C147.224777,25.3312437 147.237016,25.3121799 147.24177,25.293022 C147.298867,25.0632678 147.411791,24.8588379 147.510169,24.6457469 C147.594945,24.4621695 147.684003,24.2773211 147.758893,24.090637 C147.873512,23.804727 147.991472,23.5206998 148.126331,23.2446747 C148.286984,22.9158828 148.390776,22.559319 148.607539,22.2572636 C148.641901,22.2094393 148.660917,22.1453285 148.670802,22.086113 C148.694809,21.9414163 148.729594,21.8046747 148.841953,21.6994707 C148.863747,21.6790889 148.887847,21.6490575 148.890107,21.6218033 C148.917126,21.2921172 149.203789,21.0697061 149.249165,20.7477866 C149.255755,20.701045 149.29859,20.6873002 149.342366,20.6848525" id="Fill-25" fill="#00ADF2"></path>
            <path d="M234.740711,17.9675068 C234.68818,17.9746616 234.635649,17.9818164 234.583023,17.9889242 C234.07955,17.9820988 233.578384,17.9259901 233.073499,17.9339451 C232.682385,17.9401585 232.29306,17.9630821 231.903405,17.9890183 C231.862406,17.9917484 231.814487,17.982852 231.781538,18.0008332 C231.416878,18.2000853 230.978551,18.2660319 230.679508,18.58042 C230.464064,18.8069733 230.318708,19.0752788 230.299738,19.4005403 C230.287123,19.6177265 230.316731,19.8314294 230.330476,20.0464974 C230.334477,20.1089608 230.349775,20.1737777 230.39694,20.2153886 C230.647971,20.43667 230.874759,20.6760267 231.170272,20.8580507 C231.471433,21.0435581 231.803426,21.1447139 232.115507,21.2767484 C232.46341,21.4239399 232.844545,21.529944 233.217301,21.6220622 C233.504718,21.6930926 233.80602,21.7061313 234.072207,21.8560058 C234.081104,21.8610424 234.091083,21.8670204 234.100732,21.8673499 C234.560099,21.8829775 234.958274,22.1255821 235.397259,22.2164765 C235.437552,22.224761 235.488813,22.2170884 235.517197,22.2394472 C235.777971,22.4441595 236.134205,22.4445832 236.392484,22.6521198 C236.474906,22.7183959 236.576344,22.7408959 236.671569,22.7789765 C236.826951,22.8410633 236.962469,22.928239 237.01227,23.1032495 C236.992265,23.1058855 236.961904,23.1183593 236.953855,23.1097924 C236.744153,22.8878049 236.445439,22.8127735 236.194691,22.6590392 C235.962207,22.5165549 235.691736,22.4270256 235.428185,22.345875 C234.781946,22.1467171 234.138389,21.9240706 233.47751,21.7920832 C233.021156,21.7009535 232.609613,21.4711051 232.145303,21.4279409 C231.851297,21.2185214 231.484707,21.1737097 231.174555,20.9832599 C230.925737,20.83042 230.712176,20.6521145 230.497437,20.4623708 C230.164315,20.1680821 230.111501,19.7871825 230.172741,19.3913143 C230.26773,18.7773185 230.61874,18.3651166 231.20341,18.1179932 C231.746093,17.8885685 232.302286,17.8040758 232.881872,17.7932495 C233.448421,17.7825643 234.011297,17.8047819 234.569655,17.9070675 C234.630847,17.9182704 234.691946,17.9238248 234.740711,17.9675068" id="Fill-27" fill="#00ADF2"></path>
            <path d="M143.662848,21.8813959 C143.66459,21.8365371 143.666332,21.7916783 143.66812,21.7468196 C143.880223,22.2323583 144.115343,22.7074942 144.336107,23.1889848 C144.54868,23.6525413 144.741295,24.12683 144.984747,24.5759827 C145.053612,24.7030277 145.102566,24.8353447 145.156133,24.9682265 C145.273999,25.2606323 145.410694,25.5464012 145.543575,25.8319817 C145.685683,26.1375675 145.82845,26.4431062 145.969381,26.7495863 C146.067383,26.9627244 146.174281,27.1761919 146.309093,27.3670183 C146.508769,27.6496804 146.983387,27.5975727 147.130202,27.2827139 C147.419266,26.6627401 147.69835,26.0381532 147.981107,25.4152139 C148.107869,25.1360821 148.233502,24.8564325 148.359606,24.5770654 C148.406253,24.6254545 148.396368,24.6779388 148.370903,24.7315999 C148.3396,24.9483154 148.270641,25.1506271 148.144961,25.3321334 C148.121708,25.3656951 148.097231,25.402034 148.087252,25.4407265 C147.983837,25.8405016 147.721604,26.170329 147.587357,26.5503342 C147.480364,26.8532369 147.280924,27.1060089 147.19243,27.4121595 C147.157927,27.5315319 147.071222,27.5970549 146.958439,27.6381009 C146.603429,27.76717 146.335218,27.6335821 146.139166,27.3149576 C145.966133,27.0337547 145.827367,26.7340058 145.708465,26.4365162 C145.587963,26.1351198 145.418649,25.8572118 145.304454,25.5504022 C145.201368,25.2735298 145.068957,24.9906794 144.932545,24.7181846 C144.776787,24.4070445 144.637927,24.0852191 144.484993,23.7745497 C144.333377,23.466375 144.207838,23.1448792 144.057399,22.8364221 C143.908465,22.5309775 143.685442,22.2431846 143.662848,21.8813959" id="Fill-29" fill="#00ADF2"></path>
            <path d="M134.214213,26.2944085 C134.212801,25.670716 134.523424,25.2382265 135.04243,24.924215 C135.228973,24.8113855 135.40902,24.7256219 135.636515,24.7027924 C136.005552,24.6658415 136.281907,24.8579859 136.532937,25.0501302 C136.948717,25.3684252 137.202053,25.8284514 137.162608,26.3541888 C137.117278,26.9583938 136.845019,27.4704806 136.262514,27.7553551 C136.097247,27.8361763 135.939559,27.9302244 135.74539,27.9427453 C135.389015,27.965716 135.119015,27.7708886 134.847508,27.5934775 C134.62152,27.4457683 134.480165,27.2091417 134.337634,26.9857892 C134.205411,26.7785821 134.218732,26.5332003 134.214213,26.2944085" id="Fill-31" fill="#00ADF2"></path>
            <path d="M150.151147,20.7488363 C150.259646,20.3720319 150.443365,20.0282714 150.619646,19.681216 C150.754081,19.4165821 150.855943,19.1376386 150.986754,18.8701804 C151.174897,18.4854681 151.319123,18.0793384 151.540734,17.7088415 C151.606116,17.5994953 151.618307,17.472215 151.541722,17.3573614 C151.467679,17.2463206 151.349013,17.2504158 151.235148,17.2601595 C150.958605,17.2837422 150.81132,17.4796051 150.737653,17.707194 C150.607313,18.1099346 150.386314,18.4675811 150.219306,18.8513049 C150.002496,19.3494587 149.783569,19.8467181 149.563935,20.343648 C149.520912,20.4410382 149.519782,20.5775915 149.362753,20.5788154 C149.495399,20.3089095 149.50439,19.9868018 149.713762,19.7490455 C149.733673,19.7264043 149.753019,19.6987735 149.760457,19.6703426 C149.890373,19.1734597 150.187298,18.7488781 150.367298,18.2715769 C150.458804,18.0290664 150.590791,17.7976647 150.68564,17.5494587 C150.814144,17.2131355 151.195938,17.0749346 151.535838,17.1997673 C151.632381,17.2351647 151.687407,17.3010173 151.701293,17.4016553 C151.720263,17.5388677 151.699128,17.6759859 151.628239,17.7890978 C151.388035,18.1725392 151.262073,18.6112422 151.045263,19.000285 C150.8711,19.3127432 150.771686,19.654056 150.601476,19.9685853 C150.461628,20.2270058 150.292972,20.4972411 150.233945,20.802874 C150.227214,20.8376124 150.186639,20.865761 150.161785,20.8969691 C150.114949,20.8506982 150.118291,20.8008028 150.151147,20.7488363" id="Fill-33" fill="#00ADF2"></path>
            <path d="M150.151147,20.7488363 L150.161785,20.8969221 C150.043731,21.2976857 149.823579,21.6563206 149.655017,22.0337369 C149.512768,22.3521731 149.457413,22.7243645 149.196827,22.9885748 C149.162041,23.2807924 148.935912,23.4941658 148.872978,23.7745685 C148.852219,23.8670162 148.811973,23.946284 148.742732,24.0125131 C148.673631,24.078648 148.634374,24.1677066 148.625195,24.2576124 C148.60519,24.4537108 148.507376,24.60142 148.37087,24.7315246 C148.367151,24.6801229 148.363385,24.6286271 148.35962,24.5770842 C148.505729,24.2737578 148.65405,23.9714671 148.797287,23.6668227 C148.95394,23.3336062 149.111958,22.9993541 149.253595,22.6612892 C149.391654,22.3316972 149.547648,22.0082244 149.687214,21.679762 C149.821131,21.3645737 149.938997,21.0298509 150.151147,20.7488363" id="Fill-35" fill="#00ADF2"></path>
            <path d="M118.391879,19.7944079 C118.39202,17.4273891 118.391973,15.0604174 118.392115,12.6933985 C118.392115,12.6110711 118.389761,12.5284613 118.395362,12.4464634 C118.412308,12.2004226 118.507815,12.1057155 118.73644,12.1025146 C118.958004,12.0993609 119.049792,12.1932678 119.069986,12.4506527 C119.076388,12.5326036 119.073422,12.6152605 119.073375,12.6975408 C119.072528,16.1966203 119.071116,19.6956527 119.072292,23.1947322 C119.072339,23.3225303 119.014536,23.4982469 119.163422,23.5576506 C119.31485,23.61809 119.38009,23.4372427 119.470702,23.3515732 C120.090629,22.7657259 120.68655,22.1528598 121.327329,21.591113 C122.031042,20.9742458 122.713056,20.3358672 123.395399,19.6963588 C124.002522,19.1273159 124.617554,18.5667458 125.222088,17.9946433 C125.422658,17.8048054 125.641069,17.632478 125.838908,17.4377918 C126.070122,17.2101559 126.357303,17.281704 126.628197,17.3150303 C126.746016,17.3295282 126.784191,17.4666464 126.694709,17.5540575 C126.474839,17.7688431 126.276717,18.0082469 126.017214,18.1806213 C125.949008,18.2259038 125.873788,18.2663849 125.819044,18.3251768 C125.348569,18.8303441 124.808521,19.2618452 124.31917,19.7475251 C123.889693,20.1737542 123.432397,20.572023 122.983244,20.9780586 C122.808563,21.1358881 122.781968,21.2883985 122.935185,21.4891098 C123.159337,21.7827395 123.393516,22.0687437 123.623365,22.35809 C124.140441,23.0088483 124.658741,23.6587123 125.17417,24.3107416 C125.587596,24.833749 125.993867,25.3623107 126.410211,25.8829644 C126.717585,26.2672531 127.011074,26.6627448 127.342502,27.0279226 C127.475054,27.1738902 127.501084,27.3628337 127.424547,27.4465732 C127.326403,27.5539425 127.049437,27.5789372 126.903846,27.4915262 C126.650038,27.3391098 126.485148,27.098341 126.313338,26.8703755 C125.868328,26.2801977 125.389144,25.7179331 124.927376,25.1415471 C124.523176,24.6370387 124.124719,24.1280115 123.723673,23.6210554 C123.526492,23.3718138 123.329123,23.1227605 123.131989,22.8735188 C122.909484,22.5921747 122.687873,22.3100303 122.464097,22.0297218 C122.406435,21.9575146 122.344583,21.8881318 122.279954,21.8220439 C122.193767,21.7338326 122.09939,21.7353389 122.004824,21.8109822 C121.980817,21.8302343 121.958082,21.8514163 121.936806,21.873728 C121.532041,22.2980743 121.085995,22.6798682 120.657366,23.0782782 C120.198799,23.5045073 119.774547,23.9693347 119.278229,24.354659 C119.117292,24.4795858 119.065279,24.6402866 119.067538,24.8406684 C119.075587,25.5403808 119.072575,26.2402814 119.073093,26.9400879 C119.073187,27.0326297 119.078176,27.1264425 119.065655,27.2175251 C119.036189,27.4328755 118.907073,27.5535659 118.728061,27.5456579 C118.553145,27.5379854 118.416592,27.4002082 118.396963,27.2040157 C118.38882,27.1223944 118.391879,27.0395021 118.391879,26.9572218 C118.391691,24.5695858 118.391738,22.1820439 118.391879,19.7944079" id="Fill-37" fill="#00ADF2"></path>
            <path d="M183.258744,21.4984393 C183.258744,22.4146789 183.268252,23.3310596 183.255213,24.2470638 C183.247117,24.8155418 183.357452,25.359637 183.613801,25.8554843 C183.828446,26.2706517 184.162604,26.5985021 184.629502,26.7513421 C184.64899,26.7576967 184.670736,26.7582615 184.689329,26.7663107 C185.604298,27.1641559 186.539884,27.0292029 187.474999,26.8703849 C187.697457,26.8326339 187.911913,26.7555785 188.138467,26.7312427 C188.304251,26.7134498 188.4481,26.6264623 188.598446,26.5591036 C188.817703,26.4609132 188.984052,26.5125502 189.074523,26.6887845 C189.163676,26.8623828 189.106296,27.0381464 188.91081,27.1586015 C188.797227,27.2286433 188.678984,27.2977908 188.545444,27.3204791 C187.949382,27.4215879 187.37389,27.6087897 186.768179,27.6828326 C186.112243,27.7630418 185.466803,27.7321161 184.839016,27.5915617 C184.180302,27.4441349 183.601657,27.1202856 183.205365,26.5224822 C182.868289,26.0140199 182.68264,25.4682772 182.59344,24.8679791 C182.51149,24.3168232 182.464701,23.7690565 182.468372,23.2119226 C182.478822,21.6472312 182.472562,20.0824456 182.472891,18.5177071 C182.472891,18.4765199 182.473362,18.4353326 182.472703,18.3941454 C182.466819,18.0399822 182.406615,17.9777071 182.057536,17.9778013 C181.357494,17.9780366 180.657499,17.9808609 179.957457,17.9820377 C179.85456,17.9821789 179.750956,17.9859446 179.648906,17.9755889 C179.458174,17.9562427 179.378059,17.866478 179.366997,17.676499 C179.354617,17.4624665 179.425553,17.3563682 179.618263,17.3173933 C179.688069,17.303272 179.761547,17.3053431 179.833425,17.3045429 C180.512755,17.2967762 181.192039,17.2910335 181.871275,17.2819958 C181.99446,17.2803954 182.117504,17.2677333 182.24036,17.2579425 C182.399131,17.2453274 182.487813,17.1632824 182.479622,16.9984864 C182.462865,16.6586799 182.502028,16.3296527 182.567222,15.9923881 C182.632368,15.6549351 182.581249,15.2951705 182.582049,14.9451496 C182.582285,14.8113264 182.576777,14.6767971 182.588733,14.5439153 C182.60582,14.3531831 182.697562,14.273727 182.888294,14.2630418 C183.102562,14.2510387 183.208378,14.3223044 183.246599,14.5152019 C183.260485,14.5850084 183.258932,14.6585335 183.258885,14.7304582 C183.258226,15.451023 183.25832,16.1716349 183.254225,16.8922469 C183.252342,17.2278169 183.298754,17.2818075 183.647222,17.2822312 C185.109063,17.2838316 186.57081,17.282796 188.032651,17.2831255 C188.197353,17.2831726 188.362572,17.278136 188.526615,17.2888682 C188.731704,17.3023305 188.81149,17.3847521 188.823822,17.5698828 C188.837237,17.7709236 188.736458,17.9323776 188.560695,17.9674456 C188.471024,17.9853326 188.376176,17.97959 188.283634,17.9795429 C186.749727,17.9792134 185.215867,17.9786956 183.682007,17.9768128 C183.316594,17.9763891 183.258979,18.0295324 183.258273,18.4101496 C183.256437,19.4395952 183.257661,20.4690408 183.257661,21.4984393 L183.258744,21.4984393 Z" id="Fill-39" fill="#00ADF2"></path>
            <path d="M167.636231,22.3684738 C167.636231,20.7934738 167.635666,19.2184268 167.636702,17.6434268 C167.63689,17.3425952 167.720441,17.2523598 167.980933,17.2585262 C168.183433,17.2633745 168.28553,17.3521036 168.294238,17.5572395 C168.303417,17.7729665 168.299558,17.9896349 168.293485,18.2055973 C168.286425,18.4544623 168.324835,18.6980084 168.366399,18.941272 C168.394076,19.1031967 168.460682,19.1393473 168.594411,19.0359791 C168.837016,18.8486831 169.073501,18.6509372 169.294265,18.4385994 C169.682601,18.0649487 170.134249,17.7886412 170.590745,17.5095565 C170.942696,17.2943944 171.347649,17.255796 171.70972,17.088364 C171.73735,17.0756077 171.768606,17.0655345 171.798684,17.0639812 C172.332377,17.0361151 172.870823,16.9722395 173.395996,17.1034738 C173.801702,17.2049121 174.213527,17.28691 174.590143,17.499954 C174.977633,17.7191642 175.261378,18.0258797 175.529824,18.3684634 C175.71246,18.6016538 175.797424,18.874478 175.927622,19.1288033 C176.043512,19.3549331 176.034191,19.6086935 176.09143,19.8474854 C176.273642,20.6075429 176.232926,21.3804038 176.233632,22.1509582 C176.235185,23.7465282 176.235091,25.3421925 176.235279,26.9377626 C176.235279,27.0303985 176.23928,27.1238818 176.228266,27.2154351 C176.203553,27.4209477 176.038192,27.5491224 175.815781,27.5440858 C175.62552,27.5398023 175.493297,27.4243368 175.47574,27.2176946 C175.460159,27.0340701 175.468679,26.8483274 175.468679,26.6634791 C175.468491,24.7899069 175.467126,22.9163818 175.469667,21.0428096 C175.470562,20.4082908 175.377173,19.7882228 175.129955,19.2054822 C174.938611,18.7543054 174.623328,18.3992008 174.179777,18.1542897 C173.396514,17.7218002 172.566414,17.7537615 171.725253,17.8646611 C171.095677,17.9476475 170.577847,18.2758274 170.069903,18.6311674 C169.535645,19.0049121 169.073925,19.4570303 168.613192,19.9126318 C168.435452,20.0883483 168.358302,20.2808692 168.359809,20.5420199 C168.372329,22.6934529 168.368799,24.8449801 168.370588,26.9964603 C168.370635,27.0998755 168.366587,27.2018787 168.331095,27.3008222 C168.260583,27.4975795 168.141069,27.574023 167.928637,27.5550533 C167.759181,27.5398494 167.671582,27.4499435 167.646775,27.2475377 C167.634348,27.1459111 167.638114,27.0420251 167.638067,26.9391747 C167.637643,25.4155764 167.637785,23.8920251 167.637785,22.3684738 L167.636231,22.3684738 Z" id="Fill-41" fill="#00ADF2"></path>
            <path d="M94.8537772,18.6208422 C95.0004718,18.0960987 95.1769424,18.1379154 95.3537772,18.1871332 C95.215551,18.8732223 95.0272429,18.6056698 94.8537772,18.6208422" id="Fill-43" fill="#00ADF2"></path>
            <path d="M94.2969257,18.8727165 C94.4409048,18.4586965 94.6134417,18.3751967 94.7969257,18.4188795 C94.6696054,19.0281189 94.4800528,18.9133066 94.2969257,18.8727165" id="Fill-45" fill="#00ADF2"></path>
            <path d="M134.337888,26.2894425 C134.379593,25.7102793 134.599604,25.2583494 135.159326,24.9909854 C135.382585,24.8843692 135.595299,24.7864142 135.830937,24.8400282 C136.27929,24.9420785 136.640984,25.1892019 136.851063,25.6081349 C137.08077,26.0662782 137.077098,26.5363776 136.861089,27.0034174 C136.631523,27.4996883 136.030001,27.8825178 135.542156,27.7832448 C134.842914,27.6410429 134.376675,27.144819 134.338076,26.3820314 C134.33657,26.3512469 134.337888,26.3203211 134.337888,26.2894425" id="Fill-47" fill="#00ADF2"></path>
            <path d="M162.911419,21.6853447 C162.705719,21.6900988 162.499782,21.6850152 162.293893,21.6850152 C161.244066,21.6848269 160.194191,21.684921 159.144364,21.6851093 C157.960713,21.6852976 156.77711,21.6852976 155.593412,21.6852505 C155.531702,21.6852505 155.469803,21.6873217 155.408187,21.6843562 C155.142377,21.6714587 155.100248,21.6145497 155.184646,21.3607422 C155.220844,21.2517254 155.236566,21.1410612 155.251487,21.0289848 C155.271869,20.8752505 155.297241,20.7240581 155.403198,20.598943 C155.435488,20.5608154 155.459777,20.5115319 155.474275,20.4633311 C155.644955,19.8945706 156.016864,19.4645758 156.421252,19.0503028 C156.718083,18.7462233 157.04824,18.4784357 157.42302,18.2995183 C157.901263,18.0712704 158.402476,17.8808677 158.956079,17.8975309 C159.469626,17.9130173 159.984584,17.8768196 160.496153,17.9573583 C160.599945,17.9736449 160.69644,17.9967568 160.787617,18.047876 C160.859306,18.0880277 160.929725,18.137829 161.007392,18.1588698 C161.57314,18.3125099 161.963407,18.7115319 162.31677,19.1362547 C162.618166,19.4985612 162.837988,19.9155643 162.908642,20.4002087 C162.947005,20.6636187 163.033145,20.9200152 163.096644,21.1798949 C163.116179,21.2596804 163.141127,21.3396072 163.148093,21.420852 C163.165415,21.6209984 163.112413,21.6806376 162.911419,21.6853447 M163.831142,20.8533154 C163.803888,20.6289273 163.805206,20.3979963 163.726221,20.1844817 C163.537795,19.6755957 163.345698,19.1737233 163.019259,18.7236292 C162.652481,18.217944 162.187089,17.8543196 161.644735,17.5715162 C161.31632,17.4003185 160.974772,17.272944 160.610771,17.1850622 C160.298548,17.1097014 159.992162,17.0414012 159.670478,17.0429545 C159.259547,17.0448844 158.846215,17.0187129 158.442722,17.1193039 C158.144573,17.1936292 157.840729,17.2602348 157.557361,17.3746647 C157.227063,17.5079702 156.904955,17.6691888 156.607607,17.8700413 C156.404024,18.0075832 156.196487,18.139194 156.017382,18.3119451 C155.511885,18.7995078 155.071911,19.3304231 154.768773,19.9738855 C154.565991,20.4043509 154.400488,20.8491731 154.324798,21.3105173 C154.197988,22.0832369 154.196247,22.8653237 154.338731,23.6414796 C154.362737,23.7722432 154.356006,23.9084671 154.418846,24.0324053 C154.580677,24.3517359 154.662675,24.7019451 154.83938,25.0199576 C155.106179,25.5002244 155.410588,25.9458468 155.819071,26.3099419 C156.365944,26.7974106 156.987894,27.1541627 157.683088,27.4059932 C158.435379,27.6785821 159.206922,27.7329022 159.988585,27.7152976 C160.356634,27.706966 160.722047,27.6220497 161.092214,27.5985612 C161.20222,27.5915947 161.314202,27.5518666 161.417335,27.5082317 C161.785054,27.3526145 162.177063,27.2663802 162.536592,27.0811083 C162.774395,26.958488 163.004197,26.8225465 163.222936,26.6758729 C163.502868,26.4881532 163.487288,26.23058 163.227502,26.015465 C163.135619,25.9394451 163.026979,25.9146857 162.94837,25.994989 C162.791106,26.1557369 162.581168,26.2236135 162.395237,26.3259932 C162.118977,26.4781742 161.842387,26.6549263 161.532565,26.7212495 C161.230792,26.7858781 160.93768,26.8814796 160.635483,26.9411658 C160.534892,26.9610769 160.434207,26.9960978 160.333334,26.9969451 C159.58415,27.0032526 158.834871,27.0519712 158.104704,26.7876668 C157.863182,26.7002087 157.636299,26.5858258 157.397554,26.4983206 C157.091404,26.3861501 156.834678,26.1992777 156.596733,25.9885403 C156.226566,25.6607369 155.86972,25.3168353 155.643637,24.865988 C155.465567,24.5110246 155.237884,24.1758781 155.185682,23.7685246 C155.155604,23.533875 155.103731,23.3049681 155.046681,23.0749786 C154.940536,22.6469608 155.03689,22.5380382 155.478512,22.5378028 C156.785818,22.537238 158.093219,22.5376145 159.400572,22.5376145 L159.400572,22.5413802 C160.738804,22.5413802 162.077084,22.5330486 163.415175,22.5480173 C163.69939,22.5512181 163.848417,22.3922589 163.905044,22.1416522 C163.920672,22.0725988 163.913987,21.9985089 163.918647,21.9268196 C163.942136,21.5646543 163.874401,21.2101145 163.831142,20.8533154" id="Fill-49" fill="#00ADF2"></path>
            <path d="M224.447121,21.6830005 C223.387503,21.6866721 222.327932,21.6844127 221.268267,21.6844127 L220.712733,21.6844127 L220.712733,21.6853541 C219.498816,21.6853541 218.284851,21.6853541 217.070934,21.6854012 C217.019485,21.6854012 216.967707,21.6900141 216.916729,21.6854012 C216.766713,21.6717505 216.683162,21.5835392 216.753486,21.4674147 C216.965165,21.1179587 216.986818,20.7088164 217.149496,20.3388373 C217.463978,19.6236857 217.974606,19.0941355 218.558335,18.6231888 C218.781781,18.4429064 219.033141,18.2667191 219.334208,18.2062327 C219.3938,18.1942767 219.45777,18.1754482 219.505924,18.1407097 C219.725463,17.9825037 219.979742,17.9453645 220.237127,17.9274775 C220.863832,17.8837955 221.490631,17.8728279 222.115782,17.9557673 C222.259961,17.9749723 222.396421,18.0120173 222.521394,18.0922735 C222.589742,18.1361438 222.665997,18.1763426 222.744229,18.1949357 C223.055322,18.2691198 223.285029,18.4752442 223.521468,18.6672945 C223.826865,18.9153122 224.084909,19.218262 224.248434,19.5687066 C224.406169,19.9068656 224.610458,20.2377286 224.614224,20.6376449 C224.616342,20.8624095 224.660636,21.0858091 224.730537,21.3040309 C224.821855,21.5889053 224.752095,21.681965 224.447121,21.6830005 M225.486452,20.6177809 C225.331164,19.950124 225.120992,19.294329 224.694715,18.7279221 C224.334904,18.2497735 223.893282,17.8729221 223.376818,17.5905424 C223.047697,17.4105424 222.698382,17.2659399 222.32426,17.1788583 C221.96266,17.0946951 221.604872,17.0077076 221.232022,17.0068604 C220.696823,17.0056365 220.178288,17.0650873 219.653445,17.214397 C219.120082,17.3661072 218.656149,17.6289053 218.182801,17.8871846 C218.013675,17.9794911 217.85448,18.1003698 217.713879,18.2326867 C217.065709,18.8429168 216.542843,19.531238 216.218382,20.3806836 C215.993805,20.9685078 215.925929,21.5758666 215.830186,22.1804953 C215.726724,22.8335601 215.991781,23.4582882 216.059846,24.0998677 C216.064036,24.1395957 216.081734,24.1797474 216.10061,24.2158039 C216.271431,24.5422892 216.365432,24.9024775 216.567179,25.2174775 C216.777916,25.546693 216.993126,25.8792035 217.261101,26.1547578 C217.757561,26.6651972 218.370709,27.0286804 219.01596,27.3231104 C219.620871,27.5991825 220.273983,27.7062694 220.932603,27.7284869 C221.776164,27.7568708 222.609982,27.7012327 223.420029,27.4046376 C223.915312,27.2233196 224.379339,26.9896585 224.839271,26.7410758 C224.963397,26.6740465 225.033251,26.5527442 225.060317,26.4191564 C225.093078,26.2574671 225.033957,26.1130999 224.917362,25.9998938 C224.834093,25.9190256 224.713638,25.9091407 224.631923,25.9736752 C224.46675,26.1040622 224.26811,26.162807 224.091311,26.2655633 C223.654444,26.519465 223.20176,26.7364629 222.695652,26.8053279 C222.448293,26.8389838 222.230118,26.9885288 221.980782,26.9866459 C221.356384,26.9818917 220.730197,27.0441668 220.112153,26.8671323 C219.568387,26.7113269 219.037425,26.5447892 218.570103,26.2103018 C217.695474,25.5842087 217.080772,24.7847055 216.854925,23.7146376 C216.829506,23.5941355 216.790437,23.4765518 216.762053,23.3565675 C216.729009,23.216625 216.687728,23.0768708 216.673371,22.934716 C216.641551,22.6206104 216.713994,22.5468028 217.02118,22.5468499 C218.358941,22.5469911 219.696703,22.546944 221.034417,22.546944 L221.034417,22.550898 C222.310422,22.550898 223.586473,22.5509922 224.862477,22.5507568 C224.965374,22.5507097 225.068743,22.5540047 225.171028,22.5453907 C225.413962,22.525103 225.53903,22.4236647 225.555129,22.18492 C225.590385,21.6606888 225.604647,21.1261491 225.486452,20.6177809" id="Fill-51" fill="#00ADF2"></path>
            <path d="M100.069993,23.47184 L100.061708,23.47184 C100.061708,23.913932 100.055448,24.3561182 100.06425,24.798069 C100.068816,25.0256109 99.9812165,25.1744027 99.7972626,25.3134979 C99.4463002,25.5787908 99.0816402,25.8263849 98.7070952,26.0500199 C98.4585596,26.1984351 98.1915722,26.3337646 97.922796,26.4577029 C97.4675241,26.6676402 96.9721004,26.7123577 96.5175345,26.8996067 C96.4401496,26.9315209 96.3596109,26.9431946 96.2763891,26.942159 C96.2044174,26.9412646 96.1315042,26.9350983 96.0606151,26.9438065 C95.4398881,27.0201088 94.8546998,26.8437333 94.2839153,26.6516831 C93.9176548,26.5284038 93.5469697,26.3186077 93.3460701,25.9828023 C93.0382249,25.4680795 92.8598724,24.9293504 93.1345795,24.2939372 C93.3534132,23.7877814 93.6998096,23.4716987 94.1337113,23.1772688 C94.4386381,22.9703912 94.8148305,22.949068 95.1006464,22.7235973 C95.5692866,22.7071224 95.9721213,22.4527029 96.429841,22.3672218 C97.1770481,22.2277029 97.9261851,22.1122845 98.6781935,22.0095753 C99.0538211,21.9582678 99.4198933,21.8427552 99.8047939,21.8519812 C100.038361,21.8576297 100.071075,21.8846485 100.070369,22.1153441 C100.069051,22.5674623 100.069993,23.0196747 100.069993,23.47184 M100.901975,22.5172374 C100.89289,21.6990471 100.956201,20.8818923 100.799077,20.0619132 C100.649674,19.2820387 100.383816,18.5825617 99.8179738,18.021568 C99.4105732,17.6176977 98.9084184,17.3716098 98.3560387,17.21684 C97.5672207,16.995841 96.7740722,16.9705638 95.982477,17.1681213 C95.5665565,17.2719603 95.1471998,17.3627134 94.7414467,17.5205429 C94.4939937,17.6168504 94.253931,17.7320335 94.005772,17.8269759 C93.6030314,17.9810397 93.252069,18.2354121 92.881431,18.4511862 C92.8196736,18.4871485 92.7778745,18.547023 92.7687427,18.626432 C92.7331098,18.9356423 92.9834341,19.1374362 93.2733923,19.0344916 C93.3534132,19.0061077 93.4156412,18.9565418 93.4818232,18.9071642 C93.7184498,18.7306946 93.9964048,18.6263849 94.2484236,18.4763692 C94.2631098,18.4662019 94.2792552,18.4624362 94.2969069,18.4650251 C94.3556046,18.420637 94.4383086,18.462295 94.4947469,18.4097636 C94.5976444,18.3145387 94.7073672,18.2320701 94.8537584,18.2184665 C94.9318964,18.1624519 95.0352646,18.2247741 95.1122259,18.1632992 C95.4269906,18.0119655 95.749569,17.9010188 96.102932,17.8615732 C97.0090513,17.7605586 97.9048149,17.701296 98.7504477,18.1494603 C99.0648828,18.3160921 99.3168546,18.5461287 99.5284393,18.83025 C99.6960126,19.05525 99.7844121,19.3137176 99.8995481,19.5639948 C100.096823,19.9927657 100.112404,20.4386234 100.13062,20.8904592 C100.137116,21.0514895 100.053377,21.1413483 99.8982301,21.1631893 C99.8170324,21.1745805 99.7341402,21.1734038 99.6520952,21.1790994 C99.3243389,21.2019289 98.9963002,21.1968923 98.6683556,21.2476349 C98.2725816,21.3088274 97.8846213,21.4135607 97.483387,21.4446276 C97.0943912,21.474659 96.7060544,21.5141046 96.3356517,21.6562123 C96.2219749,21.6998002 96.0968598,21.7264895 95.975228,21.7343033 C95.516614,21.763864 95.1054477,21.9685293 94.6772416,22.0991046 C94.3929791,22.1858567 94.1172835,22.3426506 93.843659,22.4809927 C93.4569697,22.6765732 93.137545,22.9330167 92.8444801,23.2360136 C92.3311224,23.7666935 92.1236799,24.4120387 92.1491925,25.1406056 C92.1568651,25.3604278 92.2703536,25.5542197 92.3072103,25.7671695 C92.361954,26.0830167 92.5406831,26.3335293 92.7468075,26.5635188 C93.093863,26.9508672 93.5033347,27.228681 94.0034655,27.4156946 C94.5346632,27.6143818 95.0763107,27.6705847 95.6255366,27.7232573 C96.0712061,27.766045 96.5025188,27.6276559 96.9431517,27.5982835 C97.0421893,27.5916464 97.1434864,27.5472584 97.2340042,27.5011757 C97.3917866,27.4207782 97.5582301,27.3720596 97.728251,27.3301192 C97.8276182,27.3055481 97.9308923,27.2907678 98.0140669,27.2219498 C98.1362636,27.1208881 98.2845847,27.0827605 98.434977,27.0501872 C98.8978745,26.7125931 99.4313316,26.484204 99.8729059,26.1118243 C100.004281,26.0010188 100.130103,26.0607521 100.154956,26.2441883 C100.183858,26.4572793 100.183622,26.6746538 100.188988,26.8903337 C100.192048,27.0140366 100.191436,27.1363274 100.22994,27.2562176 C100.279647,27.4108462 100.373554,27.4991517 100.543858,27.4971747 C100.716232,27.4951977 100.802843,27.4361234 100.863988,27.2653964 C100.906353,27.1471067 100.908659,27.0242981 100.908518,26.9000774 C100.906964,25.4391308 100.918262,23.9780429 100.901975,22.5172374" id="Fill-53" fill="#00ADF2"></path>
            <path d="M86.2197882,26.2729393 C85.9638154,26.456046 85.6990403,26.680999 85.3393698,26.6620293 C85.2803896,26.6588755 85.2090769,26.6731851 85.1613938,26.7056642 C84.759171,26.9794299 84.3062055,26.8655178 83.8707035,26.8816632 C83.7761846,26.8851464 83.6907035,26.8431119 83.6064932,26.8037134 C83.4659859,26.7380492 83.3202066,26.6901308 83.166284,26.666454 C82.9225968,26.6289854 82.7032924,26.5257113 82.4752798,26.4397123 C82.2033499,26.3370973 81.9808917,26.1612395 81.7190821,26.050387 C81.5365403,25.9730962 81.3880309,25.8150785 81.2250706,25.6921757 C81.2006407,25.6737238 81.1840246,25.6396444 81.1574765,25.6299006 C80.8138101,25.5033264 80.8184231,25.2252301 80.822989,24.9249163 C80.8347097,24.1431119 80.8268959,23.360978 80.8271313,22.5789383 C80.8272725,21.8175628 80.8566449,21.0545397 80.8156459,20.2953295 C80.7931459,19.8781381 80.9584597,19.6131276 81.2610329,19.3859153 C81.5949555,19.1352615 81.909626,18.8499163 82.2707087,18.6475105 C82.5304942,18.5018724 82.7574712,18.2651987 83.0864984,18.250795 C83.1450549,18.2482531 83.21392,18.2249059 83.2578844,18.1874843 C83.4798719,17.9987762 83.7475183,17.9888912 84.0156825,17.9822071 C84.4991972,17.9701569 84.9827589,17.9631433 85.465897,17.9941632 C85.6726334,18.0073902 85.8773457,18.0258891 86.0364932,18.1854603 C86.064171,18.2131851 86.1054053,18.2319665 86.1438154,18.2438755 C86.601535,18.3856538 86.9194535,18.6977354 87.2061637,19.0673849 C87.4097934,19.3299477 87.5172568,19.6419351 87.7031407,19.9106642 C87.7088834,19.9190429 87.715238,19.9291632 87.7155204,19.9387186 C87.7316658,20.4866266 88.0860643,20.9583264 88.054715,21.5227092 C88.0268018,22.0253818 88.0466658,22.5306904 88.0466658,23.0348692 C88.0466658,23.180931 88.0213886,23.3151778 87.9466396,23.4473536 C87.8340455,23.6463703 87.8081093,23.8755596 87.7700288,24.0977824 C87.7436219,24.2518462 87.7094012,24.3995084 87.6050445,24.5224582 M88.5345581,19.6343096 C88.3792233,19.2543044 88.2153687,18.8849843 87.9560068,18.5594874 C87.6053269,18.1193724 87.1857348,17.773682 86.6959127,17.4964331 C86.3563415,17.3041946 85.9790194,17.2452144 85.6185957,17.1371391 C85.0704053,16.9728609 84.4884179,16.9776621 83.9381093,17.0976935 C83.5144221,17.1900941 83.0883813,17.315068 82.6833342,17.5049529 C82.0658551,17.7944404 81.4942704,18.1420136 80.9890089,18.5986506 C80.9198143,18.6611611 80.854762,18.7409467 80.7498405,18.6898274 C80.6473196,18.6398849 80.6466135,18.5351046 80.6685016,18.4460931 C80.7385434,18.1610774 80.7106302,17.8724372 80.7111951,17.5854916 C80.7143959,15.9594195 80.7132191,14.3333473 80.7133604,12.7072751 C80.7133604,12.6249477 80.7158551,12.5423379 80.7102537,12.46034 C80.6932139,12.2123222 80.6108394,12.1116841 80.4196365,12.0980805 C80.184375,12.0813703 80.0629786,12.1724529 80.0122829,12.4213651 C79.9920424,12.5209205 79.9911951,12.6255126 79.991148,12.7278452 C79.9900654,15.0846496 79.9903007,17.441454 79.9903007,19.7982113 L79.9889357,19.7982113 C79.9889357,22.1755858 79.9889357,24.5530073 79.9889827,26.9303818 C79.9889827,26.9818305 79.987194,27.0334205 79.9901595,27.084728 C80.0068227,27.3687082 80.1445058,27.5417887 80.3497359,27.5386349 C80.5436689,27.5356224 80.6560748,27.3762866 80.6633237,27.0905178 C80.667466,26.9262866 80.6538624,26.7602197 80.712466,26.6017782 C80.768057,26.4516684 80.834898,26.4231433 80.9680622,26.4993985 C81.0206407,26.5295241 81.066488,26.5732061 81.1109702,26.6153347 C81.3071627,26.8010303 81.551556,26.9236036 81.7854053,27.0350209 C82.0772463,27.174022 82.37483,27.3115167 82.6764147,27.4351726 C83.1559754,27.6317887 83.6550235,27.6979236 84.1479524,27.7099738 C84.7368593,27.7243305 85.3251072,27.6506642 85.8882662,27.396386 C86.4198405,27.1564644 86.9033081,26.8704603 87.3263834,26.4698849 C87.8802694,25.9453243 88.2652641,25.3201726 88.5560225,24.6171182 C88.8067704,24.0106538 88.9413468,23.3777824 88.988512,22.7393567 C89.0668384,21.6790795 88.9427589,20.6330649 88.5345581,19.6343096" id="Fill-55" fill="#00ADF2"></path>
            <g id="Group-59">
                <mask id="mask-2" fill="white">
                    <use xlink:href="#path-1"></use>
                </mask>
                <g id="Clip-58"></g>
                <path d="M38.2419932,44.9999859 L6.75804446,44.9999859 C3.02568044,44.9999859 -4.70711297e-06,41.9743478 -4.70711297e-06,38.2419838 L-4.70711297e-06,6.75798797 C-4.70711297e-06,3.02567103 3.02568044,-1.41213389e-05 6.75804446,-1.41213389e-05 L38.2419932,-1.41213389e-05 C41.9743572,-1.41213389e-05 44.9999953,3.02567103 44.9999953,6.75798797 L44.9999953,38.2419838 C44.9999953,41.9743478 41.9743572,44.9999859 38.2419932,44.9999859" id="Fill-57" fill="#E6E7E8" mask="url(#mask-2)"></path>
            </g>
            <path d="M38.1899561,43.1642118 L6.81008159,43.1642118 C4.06282218,43.1642118 1.83579289,40.9371355 1.83579289,38.1899231 L1.83579289,6.81004864 C1.83579289,4.0628363 4.06282218,1.83575994 6.81008159,1.83575994 L38.1899561,1.83575994 C40.9371684,1.83575994 43.1642448,4.0628363 43.1642448,6.81004864 L43.1642448,38.1899231 C43.1642448,40.9371355 40.9371684,43.1642118 38.1899561,43.1642118" id="Fill-60" fill="#00ADF2"></path>
            <path d="M24.6105329,22.3359759 C24.6105329,24.4531412 24.6109095,26.5703065 24.6099681,28.6874718 C24.609874,28.8872416 24.624466,29.0889414 24.5709461,29.2850397 C24.5000099,29.5450607 24.3464639,29.6522887 24.0638959,29.643863 C23.8058991,29.6361904 23.6628499,29.5288211 23.6002453,29.2840513 C23.5463959,29.0737845 23.5546334,28.8573044 23.5624472,28.6433661 C23.5787338,28.1987322 23.5633415,27.757864 23.4543248,27.3238211 C23.4307892,27.2301967 23.4550309,27.1064937 23.3461553,27.0625764 C23.211579,27.0082563 23.1415371,27.1318651 23.0625047,27.2071318 C22.9175727,27.3452385 22.781443,27.4925241 22.6379231,27.632137 C22.0861553,28.1686067 21.500261,28.6510387 20.822625,29.0358923 C20.4607892,29.2414048 20.0534827,29.3430314 19.7153708,29.5866245 C19.6816679,29.6109132 19.6375622,29.6267762 19.5961867,29.6333661 C18.6850779,29.779569 17.7797589,30.0415199 16.8472798,29.7728849 C16.7789796,29.7532092 16.7056899,29.7331098 16.6363541,29.7377228 C16.0368562,29.7774979 15.5114012,29.522796 15.0137181,29.2603274 C14.4589848,28.9678274 14.0022537,28.5308661 13.6106689,28.0271579 C13.2711919,27.5905262 13.123624,27.068931 12.9062024,26.5792029 C12.7536919,26.2356778 12.7599524,25.8528483 12.7520915,25.4807981 C12.7478081,25.2790983 12.7433834,25.0797521 12.6532892,24.8940094 C12.5815058,24.7459707 12.5920497,24.5880941 12.5920497,24.4309236 C12.5921438,21.5555837 12.5920968,18.6802908 12.5917202,15.8049979 C12.591626,15.2522416 13.0951459,14.9481621 13.5949001,15.2000868 C13.7060821,15.2561485 13.7694869,15.349114 13.7821491,15.4694749 C13.7941051,15.5828692 13.7944346,15.6978169 13.7943876,15.8120586 C13.7931637,18.6873985 13.7950465,21.5627385 13.7844085,24.4380314 C13.7830905,24.7884759 13.8760089,25.1178797 13.9403551,25.4515199 C14.0102558,25.8138264 14.0763436,26.1930314 14.2111553,26.5267186 C14.4438279,27.102681 14.7750675,27.6183923 15.3165267,28.0070586 C15.7886972,28.346159 16.3468666,28.3989257 16.8455382,28.6347521 C17.1551721,28.7812374 17.551511,28.6571109 17.9078865,28.6781046 C18.3587809,28.7047469 18.7891993,28.6344697 19.2080382,28.4650136 C19.3658677,28.4011851 19.5345706,28.3552437 19.7026616,28.3281308 C19.9057735,28.2953692 20.0839378,28.2384603 20.2389901,28.0902803 C20.445444,27.8930052 20.7317777,27.8239519 20.9676982,27.6554843 C21.4922589,27.2808923 21.9839168,26.8775397 22.4305277,26.4152071 C22.6591051,26.1785805 22.8907422,25.9447782 23.1264273,25.7152594 C23.3327401,25.5143128 23.4239639,25.2828169 23.4230696,24.9880105 C23.4136553,21.9696684 23.4138436,18.9513264 23.4113488,15.9329372 C23.4112547,15.8185073 23.4064064,15.7038421 23.4120078,15.5897887 C23.423352,15.3572103 23.5523269,15.2186328 23.7769032,15.1802699 C23.9025832,15.1588525 24.0332526,15.1539571 24.1610507,15.1590408 C24.4949263,15.1723619 24.5931637,15.2669278 24.6090267,15.5984027 C24.6192882,15.8124351 24.6096857,16.027409 24.6096857,16.2420063 C24.6095445,18.2733138 24.6095915,20.3046684 24.6095915,22.3359759 L24.6105329,22.3359759 Z" id="Fill-62" fill="#E6E7E8"></path>
            <path d="M32.4084822,28.1478342 C32.4084822,29.1097327 31.628749,29.889466 30.6668504,29.889466 C29.7049519,29.889466 28.9252186,29.1097327 28.9252186,28.1478342 C28.9252186,27.1859357 29.7049519,26.4062024 30.6668504,26.4062024 C31.628749,26.4062024 32.4084822,27.1859357 32.4084822,28.1478342" id="Fill-64" fill="#E6E7E8"></path>
        </g>
    </g>
</svg>