<?xml version="1.0" encoding="UTF-8"?>
<svg width="165px" height="23px" viewBox="0 0 165 23" version="1.1" xmlns="http://www.w3.org/2000/svg" xmlns:xlink="http://www.w3.org/1999/xlink">
    <!-- Generator: Sketch 50.2 (55047) - http://www.bohemiancoding.com/sketch -->
    <title>inv Logo Color</title>
    <desc>Created with Sketch.</desc>
    <defs>
        <linearGradient x1="50%" y1="-30.1694982%" x2="50%" y2="97.7059249%" id="linearGradient-1">
            <stop stop-color="#BABBBC" offset="0%"></stop>
            <stop stop-color="#231F1F" offset="100%"></stop>
        </linearGradient>
        <linearGradient x1="50%" y1="-27.6169742%" x2="50%" y2="100%" id="linearGradient-2">
            <stop stop-color="#98C5BE" offset="0%"></stop>
            <stop stop-color="#30897B" offset="100%"></stop>
        </linearGradient>
        <linearGradient x1="50%" y1="0%" x2="50%" y2="100%" id="linearGradient-3">
            <stop stop-color="#98C5BE" offset="0%"></stop>
            <stop stop-color="#348E82" offset="100%"></stop>
        </linearGradient>
    </defs>
    <g id="Page-1" stroke="none" stroke-width="1" fill="none" fill-rule="evenodd">
        <g id="inv-Logo-Color">
            <path d="M19.771969,7.38678742 C19.764572,7.38296131 19.755951,7.37942981 19.7461024,7.37619388 C19.7230763,7.28711451 19.7268575,7.18945578 19.6623688,7.11357143 C19.6624568,7.10995238 19.6624185,7.10619933 19.6622586,7.10232185 C19.5159707,6.99469848 19.4467059,6.85189628 19.4480843,6.67680612 C19.4481285,6.67684177 19.4481728,6.67687744 19.4482171,6.67691313 C19.4481758,6.67687744 19.4481346,6.67684177 19.4480933,6.67680612 C19.4308674,6.64491918 19.4115745,6.61476354 19.3882611,6.58795344 C19.2440829,6.5553708 19.2173751,6.46677594 19.2201042,6.36415813 C19.2200772,6.36415266 19.2200501,6.36414719 19.220023,6.36414172 C19.2094919,6.35331925 19.1989609,6.34249677 19.1884298,6.33167475 C19.0337438,6.33546993 18.9724954,6.24602023 18.9622327,6.10570057 C18.9801426,6.10383806 18.9966658,6.10259174 19.0119115,6.10206914 C18.9977599,6.10131005 18.9813236,6.10212111 18.9622248,6.10412698 C18.9401692,6.08345908 18.9181053,6.06277446 18.8960424,6.04208259 C18.8991928,6.06263615 18.9019488,6.08530696 18.9044171,6.11018459 C18.8064022,6.10247264 18.712458,6.08411085 18.6744171,5.91696609 C18.7147671,5.89699216 18.7479664,5.8846769 18.7754218,5.88120095 C18.7509976,5.87751092 18.7184285,5.88388181 18.6744119,5.89845692 C18.6555321,5.87777778 18.6366523,5.85709864 18.6178507,5.83636735 C18.6820003,5.74389796 18.6034822,5.71690816 18.5457997,5.68329478 C18.3032044,5.54198299 18.0511954,5.42325397 17.7929017,5.31044444 C17.4204686,5.14772336 17.0374743,5.0671712 16.6399811,5.04242404 C16.4886817,5.0330102 16.341972,4.98677551 16.1898121,4.99733673 C16.0530117,5.00680272 15.9167067,5.02771655 15.7814969,5.04534467 C15.6251126,5.06571088 15.4671897,5.0696746 15.3112747,5.09684694 C14.98226,5.15419048 14.6880842,5.30830612 14.3798269,5.42254989 C14.2000774,5.48915079 14.0408768,5.60555896 13.8858745,5.71224036 C13.6320661,5.88687868 13.4098892,6.10756916 13.2042713,6.3395771 C13.1182951,6.43655782 13.0250695,6.53961451 12.9790434,6.65711791 C12.8472759,6.99346032 12.632557,7.30179592 12.6111477,7.67686281 C12.5974312,7.91726757 12.5056137,8.14392971 12.5057702,8.3878288 C12.5083518,12.9424286 12.5079607,17.4970805 12.5082475,22.0517063 C12.5082736,22.1481655 12.5063439,22.244729 12.510099,22.3410317 C12.5132282,22.4225227 12.4813099,22.4832562 12.4286602,22.5444331 C12.3476387,22.6385975 12.2482849,22.6557562 12.1325808,22.6551304 C11.5262622,22.6519751 10.9198915,22.6527313 10.3135207,22.6527574 C9.23171236,22.6527834 8.14990397,22.653644 7.06809558,22.653305 C6.82560465,22.6532268 6.70421576,22.5322029 6.69787902,22.2891905 C6.69735748,22.2685374 6.69811372,22.2478322 6.69811372,22.2271791 C6.6982441,17.8034864 6.69834841,13.3797676 6.69876565,8.95607483 C6.69876565,8.88728345 6.69563639,8.81744898 6.70567608,8.74983107 C6.74706043,8.47130159 6.77613639,8.19253741 6.78286429,7.91030499 C6.78742778,7.71908163 6.82643912,7.52892744 6.84033821,7.33759977 C6.85791417,7.09505669 6.96008424,6.87423583 7.00944819,6.63985488 C7.03111825,6.53708503 7.00952642,6.43168141 7.04178379,6.33321429 C7.19733367,5.8585068 7.2846398,5.35936508 7.54593231,4.92215646 C7.57015794,4.88163265 7.58843798,4.83325964 7.5939924,4.78668594 C7.61117721,4.64234921 7.69535408,4.53332086 7.77410692,4.42074603 C7.79765454,4.3870805 7.83687449,4.35834354 7.84600147,4.32165306 C7.90801281,4.07248639 8.07944365,3.88689569 8.21710465,3.68367687 C8.42170556,3.38159977 8.68610125,3.13037302 8.94293458,2.8728356 C9.13423617,2.68101247 9.37200714,2.55370408 9.58065,2.38613265 C9.7400593,2.25812018 9.92458084,2.16147846 10.0979675,2.05255442 C10.3813994,1.8745 10.6938813,1.74328005 10.9824765,1.57268367 C11.1746647,1.45906576 11.3997622,1.43452721 11.587074,1.3160068 C11.7225967,1.23026531 11.8753042,1.1817619 12.028116,1.14439342 C12.1634822,1.11124943 12.2901647,1.05880839 12.4129096,1.000161 C12.5267362,0.945816327 12.6446307,0.908708617 12.7652112,0.889333333 C12.8892339,0.869358277 13.0104402,0.838926304 13.1208246,0.787319728 C13.2723065,0.716546485 13.4276217,0.672736961 13.5909947,0.645356009 C13.6721205,0.631769841 13.7539244,0.628484127 13.835311,0.609708617 C14.0691183,0.55585941 14.3046727,0.506782313 14.5418178,0.47087415 C14.9485162,0.409306122 15.361421,0.391678005 15.7673632,0.333108844 C16.2387067,0.26512585 16.7014448,0.335820862 17.1657214,0.360776644 C17.5401885,0.380908163 17.9163507,0.431680272 18.2858371,0.509781179 C18.7203858,0.601624717 19.1732929,0.614663265 19.5820514,0.819472789 C19.6596568,0.858353741 19.753404,0.869306122 19.8412838,0.882344671 C19.9516681,0.898695011 20.0650774,0.924302721 20.1547827,0.979168934 C20.2880105,1.06063379 20.4339119,1.09143084 20.5759539,1.13996032 C20.8232169,1.22439796 21.0615616,1.32839342 21.2942475,1.4480873 C21.5564266,1.58295805 21.8358949,1.68721429 22.0875128,1.83859184 C22.298633,1.96556122 22.5188019,2.07698866 22.7251239,2.21227664 C23.0121806,2.40052721 23.2890933,2.59983447 23.5373734,2.83909184 C23.8452656,3.13577098 24.123404,3.45508503 24.3536908,3.81653968 C24.5511466,4.12654422 24.8041205,4.40567347 24.8728598,4.78493878 C24.8786489,4.81698753 24.8970593,4.85612925 24.9223019,4.87357483 C25.0164142,4.93848073 25.0286704,5.04435374 25.0718541,5.13643197 C25.1563178,5.31639002 25.1419754,5.52664966 25.2445105,5.69797619 C25.3687418,5.90554989 25.3914289,6.13847052 25.4337781,6.36766213 C25.4499459,6.45517687 25.4207656,6.54793311 25.4650706,6.63148413 C25.5430933,6.77861111 25.5686489,6.94128005 25.6113371,7.09962018 C25.6589799,7.27634467 25.6277396,7.45750227 25.6598926,7.63242744 C25.7383847,8.05970068 25.7680865,8.49328458 25.7688949,8.923661 C25.777396,13.3817755 25.7723371,17.8399422 25.7795604,22.2980828 C25.7800559,22.6053231 25.5881024,22.721288 25.3467067,22.7200624 C24.4371897,22.7153946 23.5276205,22.7182109 22.6180774,22.7184977 C22.5422192,22.7185238 22.466752,22.6993571 22.3936319,22.6977143 C22.2577963,22.6946893 22.1313484,22.5988299 21.9912362,22.6595896 C21.9160559,22.649237 21.8409017,22.6388583 21.7657475,22.6285317 C21.7207645,22.5824535 21.546752,22.4569705 21.5020298,22.4454184 C21.4862793,22.4413764 21.4658609,22.4555624 21.4475808,22.4614297 C21.3763904,22.4166032 21.3030355,22.3761837 21.2221965,22.3510454 C21.2256125,22.3363381 21.2250715,22.3223284 21.2210949,22.3096192 C21.2250715,22.3223341 21.2256125,22.3363436 21.2221834,22.3510506 C21.1967583,22.3658624 21.1670043,22.3709213 21.1458297,22.3515982 C20.9502254,22.1730483 20.7287787,22.022088 20.564493,21.8101594 C20.5437617,21.7834043 20.5284805,21.7520857 20.5402413,21.7154735 C20.5402518,21.7154714 20.5402623,21.7154694 20.5402728,21.7154673 C20.5402344,21.7154671 20.5402313,21.7154677 20.5402282,21.7154683 C20.5402282,21.7154683 20.5341783,21.7075408 20.5342305,21.7075147 C20.530345,21.6574076 20.4941044,21.5809235 20.4443395,21.506281 C20.3945817,21.4316355 20.3312915,21.3588333 20.2733083,21.3160923 C20.2835827,21.4976671 20.3618661,21.63392 20.5342357,21.7075095 C20.5303503,21.6574031 20.4941106,21.5809205 20.4443469,21.5062791 C20.3945746,21.4316386 20.3312855,21.3588379 20.2733031,21.3160975 C20.2628722,21.2964615 20.2524153,21.2768515 20.2420366,21.2571893 C20.2421447,21.2475953 20.2420082,21.2381657 20.2416229,21.228892 C20.1271825,21.1485943 20.0063163,21.0709432 20.0676339,20.9180682 C20.0043312,20.8702766 20.0022328,20.8112036 20.0588178,20.7413189 C20.0517152,20.7382306 20.0435558,20.7354244 20.0343065,20.7329093 C20.0279437,20.7074841 20.0215548,20.682059 20.0151659,20.6566599 C20.02604,20.6497234 20.0465888,20.6424478 20.0463541,20.6359025 C20.0461376,20.6296768 20.0459003,20.623453 20.0456414,20.6172314 C19.9130997,20.4912138 19.8765154,20.3563442 19.9595008,20.2104728 C19.9533254,20.208775 19.9472681,20.2070461 19.9422543,20.2050567 C19.9422543,20.1612472 19.9422282,20.1174376 19.9423065,20.0736281 C19.9520613,20.0733844 19.9606916,20.0720087 19.9682935,20.0696383 C19.8778127,20.0252698 19.9204621,19.9686675 19.9204621,19.9177653 C19.9189405,16.2131224 19.9193209,12.5085057 19.9208425,8.80386281 C19.9208425,8.75921146 19.8856837,8.70980961 19.9671237,8.67203014 C19.9593142,8.6698405 19.9507309,8.66865809 19.9415502,8.66844444 C19.9409244,8.64771315 19.9403246,8.62700794 19.9398552,8.60625057 C19.9443926,8.60098299 19.9515638,8.59636735 19.9528416,8.59047392 C19.992166,8.41084127 19.9936066,8.23601988 19.9678683,8.06471891 C19.9936014,8.23601865 19.9921606,8.41083937 19.9528364,8.59047132 C19.9515586,8.59636474 19.9444135,8.60098039 19.93985,8.60624796 C19.8292049,8.5241051 19.8660779,8.39207676 19.8498579,8.28716859 C19.8178613,8.08022075 19.7943659,7.87136927 19.7601788,7.66418673 C19.7543327,7.62882239 19.7464392,7.58951753 19.7739174,7.55850916 C19.7140226,7.51113291 19.7116798,7.45417071 19.771969,7.38678742 Z M20.5402374,21.7154665 C20.5530412,21.7129604 20.5719394,21.7037609 20.5777532,21.7090011 C20.7511525,21.8656907 20.9238638,22.0231226 21.0960681,22.1811007 Z M21.4475782,22.4642198 C21.4658583,22.4573699 21.4862766,22.4408083 21.5020272,22.4455575 C21.5467494,22.4590139 21.7207619,22.6055416 21.7657449,22.659306 C21.607144,22.7110915 21.5088073,22.6289227 21.4475782,22.4642198 Z M48.9699937,7.50844649 C48.9699937,9.2864873 48.969446,11.064476 48.9705152,12.8425168 C48.9706717,13.1804499 48.937658,13.512985 48.8647204,13.844112 C48.8013791,14.1317424 48.7581172,14.4243796 48.7191059,14.7165735 C48.6994177,14.8640916 48.6337034,14.9921302 48.5830617,15.1262447 C48.5465537,15.2229646 48.5134358,15.3195281 48.4863678,15.4191687 C48.3671694,15.8579941 48.1793621,16.2679261 47.985505,16.6786925 C47.7942295,17.0840349 47.5502522,17.4562855 47.3326388,17.8447821 C47.2488009,17.9944385 47.1366955,18.1275621 47.0312136,18.2607118 C46.6259494,18.7723184 46.2218587,19.2887492 45.7342952,19.7252798 C45.3461898,20.0727832 44.9566762,20.4201302 44.5313848,20.7259884 C44.3424823,20.8618762 44.150242,20.9996676 43.9535946,21.1156846 C43.7254721,21.2502424 43.5052249,21.4037844 43.2580923,21.5105701 C42.9701751,21.63501 42.6932363,21.784849 42.4115515,21.9237095 C42.3868565,21.9358875 42.3636478,21.9536721 42.3375968,21.9601392 C41.8975458,22.0696109 41.4882397,22.2845122 41.0352544,22.3467583 C40.7748224,22.3825361 40.5314449,22.4815769 40.274768,22.5315667 C40.1461819,22.5566007 40.0141535,22.5790531 39.8883315,22.5836687 C39.6062816,22.5939431 39.3281172,22.6600485 39.0448417,22.6391347 C38.8227692,22.6227322 38.6067726,22.6707141 38.38942,22.7010939 C38.3278259,22.7097515 38.2670662,22.7180179 38.2051331,22.7180179 C34.8578769,22.7181483 31.5105685,22.7181222 28.1632862,22.718722 C28.0801785,22.7187481 27.999861,22.708239 27.9181875,22.6914975 C27.6882136,22.6444544 27.606488,22.5516982 27.596683,22.3152832 C27.5912329,22.1837764 27.6300095,22.0574068 27.6299574,21.9253263 C27.6276887,15.3990372 27.6279755,8.87274807 27.6285231,2.34645896 C27.6285231,2.14196236 27.5657034,1.93918685 27.6294358,1.73218685 C27.6727499,1.59152698 27.7717125,1.49248617 27.9113293,1.52372653 C28.1555413,1.57833197 28.4050469,1.537078 28.6497023,1.58920612 C28.938141,1.65066984 29.2331252,1.68091927 29.5225549,1.73836712 C29.8477884,1.80296009 30.15748,1.93397143 30.4518644,2.07197143 C30.7447363,2.20926735 31.0485345,2.35230023 31.2996048,2.56780136 C31.5810027,2.80937959 31.8636524,3.05017551 32.0927397,3.34711542 C32.3324143,3.6577458 32.5419959,3.98417891 32.7249789,4.33256893 C32.9433746,4.74849864 33.0285424,5.19895442 33.1316252,5.6471415 C33.1769472,5.84425828 33.1693066,6.04356553 33.1693327,6.24282063 C33.1699585,9.75058141 33.1703497,13.2583943 33.1704279,16.7662073 C33.1704279,16.8485587 33.1688633,16.9299714 33.1527476,17.0125315 C33.1182998,17.1888909 33.2148111,17.3026132 33.3961252,17.308637 C33.4925061,17.3118444 33.5890696,17.3084283 33.6855549,17.3084283 C35.3257522,17.3084023 36.9659494,17.3047254 38.6060946,17.3110621 C39.0230673,17.3126789 39.4314086,17.2697299 39.8230866,17.1324601 C40.0366059,17.0575927 40.2600605,16.9978501 40.459446,16.8984442 C40.6283474,16.8142152 40.8029596,16.724171 40.9570753,16.6106313 C41.2324755,16.4077254 41.5168723,16.21718 41.774488,15.9890576 C41.9617215,15.8232855 42.1167238,15.6316449 42.2725084,15.4407084 C42.4195311,15.2605156 42.5587306,15.0710916 42.6776683,14.8715757 C42.8634676,14.5599283 43.0444166,14.2435871 43.1439268,13.8897209 C43.2015311,13.6849113 43.2747034,13.4854737 43.3226331,13.2766744 C43.397005,12.9524839 43.4296796,12.626807 43.4295231,12.2958104 C43.4286626,10.249019 43.4284018,8.20222766 43.4280107,6.15543628 C43.4279324,5.81588639 43.4802692,5.48567211 43.6049698,5.16844422 C43.6125061,5.14919932 43.624319,5.13052812 43.6269528,5.11065737 C43.6676592,4.80542494 43.8024517,4.53591814 43.9299166,4.26038753 C44.0319823,4.03969705 44.167166,3.84080703 44.300759,3.64358594 C44.4775878,3.38250204 44.6905333,3.14593061 44.9267658,2.93298503 C45.2328848,2.65703719 45.5553542,2.40966984 45.9161569,2.20188753 C46.2852522,1.98933311 46.6845186,1.86700544 47.083081,1.75904626 C47.4363735,1.66334331 47.805912,1.59843741 48.1792057,1.58758934 C48.3221864,1.58344308 48.4647499,1.55225488 48.6067397,1.52881156 C48.8437544,1.48974807 48.9598497,1.57974014 48.9683769,1.82301338 C48.9741138,1.98821179 48.9695764,2.15372313 48.9695764,2.31913016 L48.9695764,7.50844649 L48.9699937,7.50844649 Z M0.00987539683,14.5336531 C0.00987539683,11.9426327 0.00987539683,9.35158617 0.00990147392,6.76053968 C0.00990147392,6.49038095 0.103857256,6.3868288 0.381187188,6.37916213 C0.6703822,6.37115646 0.960020522,6.37522449 1.24939807,6.37793651 C1.7109627,6.38226531 2.17260556,6.36721882 2.63419626,6.38815873 C2.8376237,6.39736395 3.01953753,6.45700227 3.20682324,6.53786735 C3.51273367,6.66994785 3.75976202,6.87011565 3.97661916,7.11104195 C4.18369739,7.34114626 4.35043435,7.58994785 4.43654093,7.90305556 C4.55120193,8.32010658 4.59850578,8.73509751 4.59806247,9.16599546 C4.59352506,13.5349263 4.59660215,17.9038571 4.59748878,22.272788 C4.59748878,22.3072619 4.59936633,22.3418923 4.59644569,22.3761054 C4.57834819,22.5905896 4.46577336,22.7190193 4.25647857,22.7567528 C4.18919966,22.7688787 4.11939127,22.7708084 4.05073027,22.7707823 C2.90685839,22.7705737 1.76298651,22.7693481 0.619114626,22.7682268 C0.53642415,22.7681485 0.453420748,22.7715646 0.371121429,22.7655669 C0.16401712,22.7504683 0.0426543084,22.6351814 0.0154037415,22.4305023 C0.0090670068,22.3829898 0.0100840136,22.3342778 0.0100840136,22.2861134 C0.00984931973,19.7019512 0.00987539683,17.1178152 0.00987539683,14.5336531 Z M0.0550122449,3.41261066 C0.0550122449,2.9578 0.0552208617,2.50296327 0.0549340136,2.04817868 C0.0547514739,1.77121383 0.13034898,1.68599388 0.407209524,1.68495079 C1.13074467,1.6822127 1.85435805,1.68252562 2.57786712,1.68894059 C2.78439773,1.69079206 2.9776551,1.74946553 3.17179909,1.8345551 C3.60546122,2.02463107 3.91470952,2.34639637 4.18911882,2.71327506 C4.2764771,2.83007438 4.32435465,2.96705737 4.37238866,3.10435329 C4.57226961,3.6758068 4.56027415,4.26806984 4.54820045,4.85994172 C4.54431497,5.0502263 4.44368345,5.14681587 4.24849637,5.19031247 C4.14640454,5.2130517 4.04538186,5.21975351 3.94167324,5.21951882 C3.16986939,5.21782381 2.39806553,5.21899728 1.6262356,5.21727619 C1.44768571,5.21688503 1.26957914,5.22319569 1.09071633,5.19411973 C0.977307029,5.1757093 0.857508844,5.17743039 0.741491837,5.20575011 C0.639843311,5.23054943 0.535195918,5.22309138 0.432686848,5.21649388 C0.182737868,5.20048254 0.0582979592,5.06853243 0.0568637188,4.81840091 C0.0545428571,4.41871723 0.0569419501,4.01903356 0.0573331066,3.61934989 C0.0574113379,3.55042812 0.0573591837,3.48153243 0.0573591837,3.41261066 L0.0550122449,3.41261066 Z" id="Combined-Shape" fill="url(#linearGradient-1)"></path>
            <path d="M121.989669,12.0756571 C121.989695,12.07258 121.989695,12.0694769 121.989695,12.0663998 C122.836783,12.0663998 123.683898,12.0662433 124.531012,12.0665302 C124.668647,12.0665823 124.806543,12.0746923 124.943865,12.0685381 C125.11879,12.0606367 125.17483,11.9921322 125.153186,11.8177546 C125.145728,11.7575687 125.122884,11.6978782 125.09905,11.6413431 C125.044888,11.5128351 125.009318,11.377495 125.006033,11.2410336 C125.000556,11.0134848 124.925637,10.8087274 124.829699,10.6100982 C124.778797,10.5046685 124.737491,10.3967354 124.693551,10.2888805 C124.596492,10.0508227 124.433536,9.84708231 124.253317,9.67333061 C124.074767,9.50119569 123.903597,9.29834195 123.63748,9.24201542 C123.619253,9.23815601 123.60199,9.22034535 123.588377,9.20532494 C123.478984,9.08471837 123.3335,9.04242132 123.18061,9.02966961 C123.02021,9.01634422 122.870527,8.96815374 122.721522,8.91493039 C122.643448,8.88702789 122.564408,8.86770476 122.4831,8.85101542 C121.831668,8.71703129 121.233876,8.95667982 120.624663,9.11483741 C120.580619,9.12625918 120.542937,9.16367982 120.503352,9.19059138 C120.463872,9.21745079 120.42958,9.2570619 120.386371,9.27247347 C120.132275,9.36309138 119.951874,9.55673991 119.760807,9.72921383 C119.475758,9.98654263 119.309856,10.3287002 119.152141,10.6723964 C119.117746,10.747342 119.070911,10.8194973 119.052553,10.8982501 C118.983944,11.1920086 118.948688,11.4917127 118.845736,11.7799168 C118.773919,11.980919 118.861929,12.0699463 119.0767,12.0746923 C119.097354,12.0751356 119.118007,12.075605 119.13866,12.075605 C120.088987,12.0756571 121.039341,12.0756571 121.989669,12.0756571 M114.085779,11.9301991 C114.092924,11.8632592 114.100069,11.7963454 114.107214,11.7294315 C114.198745,11.6386311 114.202187,11.5897104 114.124999,11.4754406 C114.131179,11.4215392 114.137359,11.3676379 114.143513,11.3137104 C114.242346,11.2561844 114.245944,11.2316458 114.168287,11.1446005 C114.172407,11.1174803 114.176475,11.0903601 114.180569,11.063266 C114.220676,11.0685075 114.24717,11.0498363 114.25721,11.0127286 C114.31072,10.8149338 114.363239,10.6168522 114.415289,10.4186401 C114.423529,10.3872955 114.408274,10.3672422 114.377347,10.3589236 C114.395783,10.2911492 114.414194,10.223427 114.43263,10.1556526 C114.46108,10.1542966 114.493129,10.1451435 114.494954,10.1163544 C114.504107,9.97073991 114.582052,9.85141111 114.637961,9.72363333 C114.656476,9.68136236 114.68477,9.63932608 114.646906,9.59303923 C114.672905,9.5053941 114.698877,9.4177229 114.72485,9.33010385 C114.856461,9.2306458 114.930781,9.09006417 114.989402,8.94262426 C115.049275,8.79200295 115.09611,8.63637483 115.212492,8.51576825 C115.251816,8.47500975 115.254528,8.43276485 115.211579,8.3917195 C115.239795,8.33098594 115.26801,8.27027846 115.296251,8.20957098 C115.425229,8.16497914 115.494177,8.08093265 115.474488,7.9385517 C115.489222,7.91004943 115.503929,7.88152109 115.518715,7.85307098 C115.646884,7.82861066 115.662009,7.80782721 115.657654,7.6622127 C115.7308,7.58291224 115.806554,7.50572404 115.863011,7.41270703 C116.013137,7.38498707 116.05619,7.3364576 116.054261,7.1969712 C116.068968,7.1795517 116.083676,7.16215828 116.098409,7.14479093 C116.224909,7.15193605 116.285251,7.04984422 116.362127,6.97990544 C116.595465,6.76758571 116.791304,6.51865374 117.042374,6.3211458 C117.237066,6.16799501 117.443805,6.03419342 117.653126,5.90886689 C117.891679,5.76599048 118.1228,5.59993152 118.399113,5.52704603 C118.425086,5.52016168 118.451215,5.50623651 118.472155,5.48931247 C118.577089,5.40461406 118.704737,5.37366054 118.829072,5.33519683 C118.986526,5.28640658 119.146848,5.24603923 119.302085,5.19106871 C119.543037,5.1057966 119.793038,5.0660551 120.043326,5.02427959 C120.367595,4.97011746 120.697001,4.95147234 121.018036,4.87227619 C121.142998,4.84142698 121.28032,4.81876599 121.404994,4.8378805 C121.611812,4.86961633 121.81683,4.85198821 122.022395,4.85900295 C122.364423,4.87060726 122.710805,4.8202263 123.04527,4.93736463 C123.082482,4.95040317 123.127517,4.93942472 123.168406,4.94406644 C123.461356,4.97728866 123.760251,4.98534649 124.045717,5.05145193 C124.565643,5.17184989 125.080483,5.30930227 125.5748,5.52694172 C125.838727,5.64311519 126.085416,5.78870363 126.346578,5.90766735 C126.507239,5.98081361 126.665736,6.073961 126.799016,6.18854376 C126.985102,6.34860499 127.196978,6.4665517 127.395034,6.60642925 L127.40171,6.61310499 C127.396833,6.6613737 127.429351,6.68917188 127.461061,6.71496213 C127.625712,6.84852902 127.807573,6.96551088 127.893706,7.17308458 C128.129678,7.30566054 128.210021,7.57360272 128.395221,7.75577732 C128.514341,7.8729678 128.623604,8.02614467 128.70121,8.19006531 C128.824241,8.45008005 128.995281,8.6848 129.105483,8.95287256 C129.144025,9.04667188 129.225307,9.12206077 129.240849,9.2283771 C129.2911,9.57139524 129.484905,9.86512766 129.564388,10.2022263 C129.64919,10.562012 129.751882,10.9173646 129.821117,11.2819485 C129.855956,11.4654791 129.838327,11.6522172 129.887118,11.8335313 C129.993043,12.2271912 130.028221,12.6300562 130.027204,13.0367286 C130.026265,13.4088748 130.023188,13.7810472 130.027856,14.1531152 C130.03062,14.3725279 130.014191,14.5914451 130.054611,14.8117705 C130.091614,15.01319 129.972259,15.1573964 129.769067,15.1934349 C129.695216,15.2065256 129.618106,15.2039701 129.542483,15.2039701 C126.0693,15.2031617 122.596144,15.2018317 119.122935,15.2006844 C119.060924,15.2006583 118.998912,15.2008147 118.936927,15.2026923 C118.868032,15.2047785 118.809827,15.2402172 118.792747,15.3017853 C118.765861,15.3989224 118.724686,15.4940778 118.751284,15.6032104 C118.888867,16.1674667 118.943055,16.7513329 119.197333,17.2879735 C119.319661,17.5461889 119.481443,17.7720166 119.653083,17.992342 C119.795568,18.1751685 119.9525,18.3468862 120.142889,18.4884066 C120.343578,18.6376197 120.55947,18.7551753 120.791165,18.8382308 C121.109019,18.9522138 121.449169,18.9748748 121.778757,19.039207 C122.059086,19.0939168 122.350002,19.1262524 122.636928,19.036156 C122.780874,18.9909644 122.936632,18.9914077 123.08209,18.9586549 C123.51098,18.8621175 123.959872,18.8019837 124.282602,18.4497864 C124.304976,18.4253522 124.338068,18.4044383 124.369856,18.396198 C124.462638,18.3721027 124.522094,18.3053975 124.584966,18.2420302 C124.667056,18.1593136 124.727268,18.063715 124.789228,17.9637875 C124.904332,17.7781707 125.062411,17.6188658 125.265552,17.5191209 C125.327146,17.4888454 125.395833,17.4710347 125.436722,17.4104054 C125.496517,17.3216651 125.591672,17.2975438 125.685732,17.2792376 C125.989661,17.2200948 126.294528,17.1786583 126.606645,17.1808227 C127.50933,17.1871073 128.412119,17.1826741 129.314856,17.182622 C129.383778,17.182622 129.452908,17.1807705 129.521543,17.185673 C129.684942,17.1973556 129.763173,17.2864349 129.772587,17.4518941 C129.779654,17.5762558 129.73441,17.6808771 129.669791,17.7807002 C129.586657,17.9090517 129.532443,18.044444 129.518283,18.2006458 C129.507487,18.3198181 129.509469,18.4577921 129.399711,18.5389961 C129.28797,18.6216866 129.258999,18.7431798 129.235503,18.8602921 C129.216206,18.9565948 129.177899,19.0290109 129.129422,19.1135528 C129.003547,19.3328873 128.894363,19.5545687 128.717795,19.7464961 C128.621388,19.8513 128.548189,19.9939939 128.460466,20.1160347 C128.341007,20.2821719 128.219018,20.4522989 128.079219,20.596766 C127.831903,20.8523476 127.544377,21.0686311 127.281338,21.3096878 C127.203941,21.3806435 127.12172,21.4542592 127.07439,21.5538215 C127.043906,21.5719451 127.013395,21.5900426 126.982859,21.6081141 C126.948229,21.5684247 126.909035,21.5742399 126.874848,21.6041243 C126.817661,21.6541401 126.750956,21.689944 126.690431,21.7338839 C126.421889,21.9288624 126.120542,22.0624032 125.82381,22.2032977 C125.528018,22.343749 125.223542,22.4669633 124.911008,22.5643351 C124.715534,22.6252252 124.51667,22.6745109 124.322865,22.7430154 C124.207995,22.7836435 124.086085,22.8102943 123.961801,22.8141798 C123.900155,22.8160834 123.839526,22.8196039 123.77801,22.8324077 C123.320722,22.9276152 122.855402,22.9642796 122.390839,22.9733283 C121.95277,22.9818556 121.514361,22.9899916 121.074415,22.9442002 C120.528986,22.8874304 119.984549,22.8441685 119.46079,22.6668181 C119.383654,22.640715 119.30112,22.6296061 119.220333,22.6160982 C119.200984,22.6128646 119.187033,22.6354995 119.182417,22.6569349 C119.142858,22.6483816 119.103299,22.6398805 119.06374,22.6313533 C119.006371,22.5760698 118.677017,22.4143918 118.61125,22.4120449 C118.60108,22.4116798 118.590337,22.4272478 118.579801,22.4354361 C118.534427,22.4179644 118.489027,22.4005188 118.443627,22.3830211 C118.363909,22.3012694 118.124886,22.1656685 118.036824,22.1548986 C118.026341,22.1536209 118.014007,22.1672853 118.002559,22.1740392 C117.954759,22.1506741 117.906986,22.1273612 117.859187,22.1039961 C117.8486,22.0222966 117.812352,22.0112921 117.752505,22.0652717 C117.600606,21.9985143 117.51051,21.8438249 117.353291,21.7846039 C117.35363,21.6667093 117.278346,21.6512195 117.184937,21.6603204 C117.14796,21.628741 117.110983,21.5971356 117.074032,21.5655562 C117.067721,21.4893329 117.032934,21.4712093 116.968367,21.5137671 C116.863381,21.4524338 116.815999,21.3271594 116.703085,21.2746401 C116.700764,21.1749995 116.678442,21.0937694 116.551029,21.1088941 C116.423512,21.025995 116.323507,20.9153238 116.233854,20.7942218 C116.243789,20.6954417 116.212314,20.6445392 116.104302,20.6821946 C116.104302,20.6821946 116.096818,20.6734848 116.096871,20.6734587 C116.133796,20.6046413 116.110848,20.5740268 116.035381,20.5768431 C115.818419,20.3585517 115.642555,20.10902 115.481581,19.8481968 C115.478113,19.7138215 115.461007,19.694368 115.327022,19.6724893 C115.317139,19.6656571 115.310437,19.656478 115.307021,19.6449519 C115.347649,19.5816107 115.332134,19.5454156 115.255728,19.5387138 C115.229025,19.4355007 115.153662,19.3609202 115.099891,19.2736401 C115.136503,19.1452365 115.078586,19.0604338 114.972713,18.9977444 C114.947861,18.9372717 114.923036,18.8767728 114.898237,18.8162218 C114.924288,18.6549088 114.821857,18.558893 114.718748,18.4632683 C114.70438,18.339715 114.664612,18.2244281 114.605834,18.1152694 C114.60706,18.0146639 114.518998,17.7506594 114.45829,17.6755834 C114.455239,17.6718544 114.445147,17.6738102 114.438315,17.67308 C114.4313,17.6338862 114.424312,17.5946662 114.417323,17.5554463 C114.499101,17.5027444 114.459646,17.4817524 114.394323,17.4675143 C114.385457,17.4416197 114.37659,17.4157773 114.367698,17.3899349 C114.412525,17.3835982 114.422043,17.354444 114.409787,17.3174145 C114.318465,17.0410234 114.265163,16.756105 114.218094,16.4697785 C114.210897,16.4260993 114.19319,16.3927728 114.141166,16.3949893 C114.136733,16.3682603 114.1323,16.3415834 114.127893,16.3148805 C114.202448,16.194978 114.198588,16.1488998 114.106719,16.0608635 C114.098478,15.9663862 114.090238,15.8719088 114.08205,15.7774315 C114.111334,15.769817 114.136812,15.7507546 114.129171,15.7211571 C114.077408,15.5206503 114.11668,15.3079655 114.047732,15.110588 C114.017483,15.0239859 114.012971,14.9358193 114.012971,14.8461662 C114.012919,14.1990109 114.012424,13.5518034 114.013467,12.9046481 C114.013571,12.8362478 114.009425,12.7634667 114.030156,12.7002036 C114.106093,12.4684304 114.078112,12.2232535 114.130501,11.9890029 C114.137255,11.9587796 114.11475,11.9392478 114.085779,11.9301991 Z M70.7598781,8.7936093 C70.8290867,8.79199252 70.8982954,8.79042789 70.967504,8.78881111 C71.0207795,8.8729619 71.105165,8.83410703 71.1742432,8.83415918 C73.6792353,8.8361932 76.1842534,8.83556735 78.6892455,8.83543696 C78.7373838,8.83543696 78.786148,8.83212517 78.8335561,8.83840975 C79.044233,8.86639048 79.2087795,9.0061898 79.1975663,9.25175782 C79.178191,9.67757075 79.1878917,10.1049222 79.192038,10.5315435 C79.193733,10.7061036 79.1730278,10.873649 79.1036627,11.0342317 C79.0845482,11.0784585 79.0608963,11.1227635 79.1026978,11.1674857 C79.0748997,11.254505 79.0471015,11.3415503 79.0192772,11.4285696 C78.9276162,11.498039 78.8242466,11.55992 78.8434133,11.7009449 C78.797674,11.7789154 78.7676854,11.8665345 78.7019972,11.9322748 C78.614326,11.927607 78.5732545,11.9695651 78.5773226,12.0567669 C78.5618067,12.0689971 78.5462387,12.0812794 78.5306967,12.0935617 C78.4159836,12.1424041 78.2317489,12.3080197 78.161445,12.4254971 C78.1547693,12.4341286 78.1459813,12.4392136 78.1351332,12.4406478 C78.0448543,12.4555639 77.8723282,12.5660265 77.7849178,12.6648848 C77.7316162,12.6824347 77.6783407,12.6999585 77.6250391,12.7174823 C77.5722851,12.6318451 77.5071967,12.7001671 77.4656298,12.7193599 C77.2471037,12.8204086 77.0190334,12.8383497 76.7828271,12.8379846 C74.9953203,12.8350379 73.2078135,12.8361592 71.4203067,12.8360027 C71.2003203,12.8359766 70.9803078,12.8362113 70.7603214,12.8352726 C70.6837851,12.8349857 70.6088656,12.839132 70.542369,12.8828893 C70.4262738,12.9592952 70.4091412,13.0773202 70.4993158,13.1779517 C70.5277137,13.2582431 70.51697,13.3416637 70.516996,13.4237805 C70.5174393,16.2815957 70.5177262,19.139437 70.5159008,21.9972522 C70.5157965,22.1548882 70.5400221,22.3136977 70.5037228,22.4705515 C70.4851037,22.4763927 70.4559756,22.4766014 70.4493781,22.4889098 C70.3430357,22.6874086 70.1701185,22.7216478 69.9610845,22.7207351 C68.7005958,22.7152068 67.4400028,22.7128338 66.1795924,22.7240209 C65.9042704,22.726446 65.7147681,22.550556 65.7150811,22.2539551 C65.722148,15.7308995 65.7212613,9.20787007 65.7201661,2.68484059 C65.7201139,2.49758095 65.7372205,2.31626689 65.7892183,2.13521361 C65.8098452,2.06350159 65.8688056,1.98240181 65.8035867,1.90091088 C65.8203022,1.82820794 65.8370697,1.75550499 65.8537591,1.68280204 C65.9395788,1.62879637 66.0143158,1.5685322 65.9846661,1.44967279 C66.0368724,1.36197551 66.1031865,1.28220567 66.134792,1.18290408 C66.2498963,1.15187234 66.3240334,1.08667959 66.3220516,0.958119501 C66.3552999,0.881948299 66.4073498,0.823587755 66.4831298,0.787653515 C66.5069643,0.803039002 66.5364053,0.813678458 66.5572931,0.79362517 C66.6645482,0.690568481 66.7888838,0.6140322 66.9201037,0.546231746 C66.9544212,0.52849932 66.9561944,0.493556009 66.9359586,0.460020862 C66.9359586,0.460020862 66.9413044,0.456604762 66.9413305,0.456656916 C67.0650142,0.454075283 67.3204133,0.339727211 67.4183588,0.243111565 C67.4434711,0.237478912 67.4685573,0.231846259 67.4936695,0.226187528 C67.5534121,0.305514059 67.6296094,0.267597959 67.6994439,0.251247619 C67.8399212,0.218338322 67.9781559,0.185037868 68.1254915,0.1851161 C72.5818849,0.187749887 77.0383044,0.188036735 81.4946978,0.1885322 C81.5979892,0.188558277 81.7013849,0.184438095 81.8046241,0.186654649 C81.980801,0.190461905 82.1017727,0.296256689 82.1275629,0.469173923 C82.1346037,0.516477778 82.1318917,0.565372336 82.1318917,0.613562812 C82.1320221,1.64671134 82.1320221,2.67988594 82.1315006,3.71303447 C82.1314484,3.77491542 82.1338475,3.83804807 82.1229994,3.89839048 C82.0857874,4.10510363 81.980123,4.19167959 81.7667602,4.19366145 C81.6221366,4.19496531 81.477487,4.1911059 81.3328373,4.19107982 C77.8407228,4.19021927 74.3486083,4.18948912 70.8565198,4.1890458 C70.780792,4.1890458 70.7046468,4.18784626 70.6294666,4.19506961 C70.5250799,4.20505714 70.4741774,4.28331451 70.4489087,4.37116825 C70.4282296,4.44311497 70.3832466,4.5337068 70.500072,4.57665578 C70.5252625,4.64299592 70.5183781,4.71238707 70.5184042,4.78083946 C70.5187171,5.90864785 70.5186389,7.03648231 70.5182999,8.1642907 C70.5182738,8.23284739 70.5235414,8.30208209 70.5011933,8.36886553 C70.3393067,8.4694449 70.4876854,8.59511043 70.4807489,8.70760703 C70.4763158,8.77934512 70.5552772,8.83074308 70.6385935,8.83449819 C70.6829507,8.83650612 70.7348441,8.85238707 70.7598781,8.7936093 Z M102.807332,22.6561604 C102.767226,22.6490935 102.727093,22.6420266 102.686987,22.6349598 C102.66396,22.5186037 102.551203,22.5691933 102.485254,22.5290607 C102.014406,22.2424994 101.601762,21.9098861 101.377134,21.37953 C101.254154,21.0891876 101.178791,20.8043214 101.179548,20.4849291 C101.186745,17.5357659 101.180252,14.5865505 101.18724,11.6373611 C101.188414,11.1483373 101.109713,10.68247 100.93145,10.2295629 C100.834496,9.98316043 100.688803,9.7674246 100.506107,9.58175567 C100.230472,9.30163549 99.9201804,9.06660261 99.5402892,8.93900737 C99.4885262,8.92164002 99.4357983,8.89811848 99.3929536,8.86518311 C99.2908879,8.78669104 99.1690035,8.74423753 99.0506396,8.7301559 C98.7311169,8.69208333 98.4142019,8.61220918 98.0896985,8.63411395 C97.8160715,8.65257653 97.5464604,8.71187585 97.2716078,8.72449717 C97.2251906,8.72663549 97.1735319,8.74295975 97.135016,8.76877608 C96.8668652,8.94849943 96.5504196,9.03194615 96.2891271,9.23534751 C95.8499888,9.57719218 95.4825364,9.95405839 95.3881895,10.527911 C95.3403901,10.8185924 95.2816384,11.1071094 95.2818471,11.4050142 C95.2843505,14.9398951 95.2836464,18.4747761 95.2838289,22.0096831 C95.2838289,22.1405901 95.289957,22.2718362 95.2828641,22.402352 C95.2749366,22.5485663 95.1507575,22.6700334 95.0046997,22.6850017 C94.9568743,22.6899303 94.9083187,22.6885482 94.8601022,22.6885221 C93.5853493,22.6882092 92.3105965,22.6876876 91.0358437,22.6871661 C90.987601,22.68714 90.9393323,22.6881049 90.8911418,22.6864099 C90.7176509,22.6803861 90.6269287,22.5989212 90.6056759,22.4267863 C90.5997824,22.3791956 90.6025988,22.3304575 90.6026248,22.2822409 C90.6029378,21.0419359 90.6037461,19.8016049 90.6038244,18.5612999 C90.6039808,16.2804926 90.6031985,13.9996854 90.6040851,11.7188781 C90.6042938,11.1690425 90.609431,10.6235618 90.7701441,10.0847568 C90.8872042,9.69245295 90.9612632,9.28726701 91.09616,8.89777948 C91.3286373,8.22678968 91.6780183,7.62975454 92.1706407,7.11689626 C92.3424627,6.93800737 92.5359808,6.78660374 92.7293947,6.63214909 C92.9458085,6.45936224 93.1816759,6.31599036 93.4218459,6.19152438 C93.692787,6.05115136 93.9600251,5.9002432 94.243431,5.77992347 C94.4935885,5.67373753 94.7495613,5.58168537 94.999745,5.47557766 C95.2957201,5.34999036 95.6165466,5.28422392 95.9193017,5.17279649 C96.0782938,5.11427948 96.2474037,5.13305499 96.4007892,5.07651984 C96.5007167,5.03969898 96.5983232,5.02160147 96.7023969,5.02209694 C96.7711883,5.02243594 96.8385194,5.01427381 96.9069457,5.0017568 C97.3865035,4.91400737 97.8662178,4.82610147 98.3580319,4.85835884 C98.4678164,4.8655822 98.5784616,4.85901077 98.6887155,4.85968878 C98.7505704,4.86007993 98.8115387,4.86180102 98.8729241,4.87755159 C99.1997223,4.96131122 99.5350477,4.99127381 99.8692779,5.02360941 C100.149294,5.05070351 100.41794,5.12786565 100.681971,5.2127466 C100.836191,5.26231916 100.977502,5.34605272 101.14789,5.33648243 C101.187423,5.3342398 101.235431,5.34302778 101.267089,5.36480215 C101.467126,5.502411 101.697908,5.56705612 101.920555,5.65222392 C102.104007,5.72237132 102.259113,5.85419104 102.456126,5.8980788 C102.619316,5.93445635 102.749233,6.03104592 102.886528,6.12507993 C103.037671,6.22863209 103.193482,6.33622619 103.355134,6.41714342 C103.560465,6.51991327 103.70076,6.71155385 103.918947,6.78827268 C103.948466,6.79862528 103.971284,6.83239512 103.993449,6.85852438 C104.126468,7.01543027 104.270727,7.16461735 104.387813,7.33268424 C104.574629,7.60083503 104.808776,7.84144841 104.90414,8.16689059 C104.911702,8.19270692 104.925523,8.21912302 104.943307,8.23915023 C105.051553,8.36106066 105.097449,8.50962188 105.132836,8.66397222 C105.16538,8.80614456 105.26875,8.91592914 105.315819,9.05252098 C105.326223,9.08264002 105.372719,9.08569104 105.408497,9.08031916 C105.414077,9.10670918 105.419632,9.13312528 105.42516,9.15951531 C105.332795,9.22788946 105.38195,9.31689059 105.392459,9.39856406 C105.41825,9.59920125 105.552886,9.76406066 105.581231,9.96469785 C105.587412,10.0085334 105.614949,10.0376876 105.666556,10.0249359 C105.667938,10.0535425 105.669346,10.082123 105.670728,10.1107035 C105.593175,10.2325879 105.599824,10.2847421 105.702412,10.359479 C105.706428,10.3867817 105.71047,10.4141105 105.714485,10.4414133 C105.613358,10.5163588 105.662383,10.6197285 105.677977,10.7051831 C105.744813,11.0712012 105.776001,11.4430085 105.776992,11.8109824 C105.786615,15.3036706 105.78359,18.7963588 105.783642,22.2890731 C105.783642,22.59853 105.593514,22.7658146 105.293236,22.7105051 C105.183243,22.6902432 105.075127,22.6859666 104.96529,22.6858883 C104.675939,22.6856276 104.386535,22.6902693 104.097314,22.6850539 C103.692754,22.6777783 103.284439,22.7276899 102.886242,22.6110731 C102.850516,22.6006162 102.818832,22.6152455 102.807332,22.6561604 Z M131.643235,16.0593171 C131.620913,15.9661437 131.625894,15.8713795 131.626677,15.77685 C131.693356,15.6485507 131.69067,15.5878432 131.613429,15.477172 L131.585031,15.1566062 C131.626833,15.1398908 131.626624,15.1073988 131.614107,15.0729248 C131.585136,14.9933897 131.591212,14.9106992 131.591186,14.8288171 C131.591029,14.2260189 131.590951,13.6232207 131.592828,13.0204226 C131.593246,12.8910541 131.578955,12.7601992 131.623417,12.6334645 C131.635178,12.5998772 131.624877,12.5658727 131.58511,12.5508783 C131.594028,12.4852944 131.602946,12.4197105 131.611865,12.3541266 C131.688557,12.2320598 131.692678,12.1154951 131.625294,11.9718885 C131.631449,11.8640598 131.637603,11.7562049 131.643783,11.6483761 C131.683942,11.6450904 131.7029,11.6200303 131.710984,11.5833659 C131.788694,11.2300473 131.866273,10.8766505 131.944556,10.5234362 C131.95457,10.4781402 131.984167,10.4305495 131.919835,10.4010042 L131.930918,10.3242071 C131.943487,10.3208693 131.964088,10.3211561 131.967426,10.3136981 C132.042893,10.1450053 132.068605,9.95785 132.158832,9.79419014 C132.162326,9.78782732 132.147827,9.77152914 132.141699,9.75987268 C132.155155,9.72792823 132.168611,9.69600986 132.182067,9.6640915 C132.246607,9.65545998 132.252292,9.6054441 132.253674,9.5566017 C132.255656,9.48655862 132.259959,9.41531599 132.30429,9.35971961 C132.429017,9.20320488 132.505396,9.02329898 132.594059,8.84555748 C132.777146,8.47860057 132.98219,8.12116179 133.232582,7.79063458 C133.490485,7.45019807 133.750291,7.11364705 134.062695,6.82095771 C134.132816,6.75529558 134.213864,6.69941236 134.275223,6.62665726 C134.546712,6.30455295 134.919979,6.11747585 135.260103,5.88927517 C135.383604,5.80642823 135.499751,5.69620034 135.644271,5.65296451 C135.986063,5.55076837 136.279065,5.33683186 136.637182,5.26266859 C136.984529,5.1906958 137.317038,5.04993163 137.673851,5.00479218 C137.83034,4.98499966 137.98748,4.98938061 138.144595,4.95493277 C138.499609,4.87709263 138.858012,4.81369921 139.225543,4.82712891 C139.445738,4.83516066 139.666689,4.83411757 139.886936,4.82660737 C140.040035,4.82139195 140.188153,4.84606088 140.337548,4.86900873 C140.608516,4.91062778 140.879457,4.95245544 141.150789,4.99162324 C141.462879,5.03671054 141.781959,5.04617653 142.080802,5.15924683 C142.267749,5.22996791 142.46085,5.27748039 142.651317,5.33521508 C142.97243,5.43256088 143.278836,5.56777063 143.568892,5.73625476 C143.661909,5.79026043 143.745069,5.85446224 143.855453,5.87829671 C143.934128,5.8952729 144.011994,5.93488401 144.068451,5.99926837 C144.208381,6.15883413 144.446543,6.19098719 144.562977,6.38205408 C144.575285,6.40226383 144.609499,6.41013912 144.634533,6.42137834 C144.837465,6.51241349 144.975934,6.68514819 145.134222,6.82966746 C145.202387,6.89191349 145.253864,6.98597358 145.331652,7.03658923 C145.600011,7.21122755 145.720513,7.50821961 145.928296,7.73214365 C146.130706,7.95033073 146.244767,8.22773889 146.404333,8.47476723 C146.529946,8.66930238 146.595165,8.89990215 146.734938,9.0894305 C146.746412,9.10497245 146.752358,9.12805068 146.752775,9.14779104 C146.755461,9.28620828 146.828764,9.39341122 146.900528,9.50353481 C146.941443,9.56638061 146.99378,9.63707562 146.997118,9.70631032 C147.007835,9.92882619 147.110996,10.1135824 147.203387,10.3055359 C147.304097,10.5146482 147.206777,10.6798466 146.977977,10.6876437 C146.785267,10.6942151 146.592166,10.689469 146.399222,10.6895212 C145.220876,10.6898863 144.042504,10.6871221 142.864184,10.6937718 C142.684174,10.6947888 142.559448,10.6334294 142.471177,10.4842423 C142.380037,10.3303613 142.272782,10.1871459 142.180234,10.0336561 C142.089017,9.88240896 141.987655,9.72263458 141.851663,9.61676156 C141.686986,9.48854048 141.550785,9.31306769 141.336771,9.25037834 C141.292518,9.23741803 141.253924,9.20203141 141.215304,9.17350306 C141.074174,9.0692729 140.920006,9.00600986 140.743725,8.98008923 C140.630472,8.96347812 140.516437,8.9377661 140.405427,8.89471281 C140.002432,8.73832846 139.580191,8.77355862 139.160898,8.79149966 C139.140949,8.79233413 139.121756,8.80440782 139.101781,8.8094407 C138.848807,8.87312098 138.604178,8.96720714 138.344502,9.00715726 C138.242462,9.02285567 138.138701,9.06147585 138.061748,9.12810283 C137.90492,9.26388628 137.720451,9.36071054 137.549516,9.46932166 C137.163027,9.71494184 136.944527,10.0770484 136.737449,10.4592344 C136.693639,10.5400994 136.702349,10.6391402 136.65069,10.711087 C136.493028,10.9307865 136.452869,11.1877763 136.390545,11.4410371 C136.343189,11.6334339 136.26295,11.8190246 136.233613,12.0158024 C136.156686,12.5320246 136.155747,13.0549226 136.107687,13.5739872 C136.063121,14.0551357 136.139475,14.5354237 136.157624,15.0160246 C136.163935,15.183596 136.19056,15.3569827 136.205006,15.5269532 C136.235517,15.8866867 136.386581,16.2162491 136.443038,16.5678466 C136.493132,16.8798851 136.660052,17.1476187 136.800738,17.4143353 C137.007138,17.8055439 137.273802,18.1638432 137.635283,18.4464668 C137.955614,18.6969112 138.29579,18.8870654 138.690571,18.9798999 C138.77081,18.9987797 138.853527,19.0038387 138.934653,19.0168511 C139.144156,19.0504384 139.347662,19.1117196 139.563215,19.1207944 C140.007986,19.1395439 140.435755,19.0481176 140.868478,18.9688171 C141.196163,18.9087616 141.470989,18.7380087 141.748737,18.583867 C141.896411,18.5019067 142.060254,18.4016924 142.168682,18.2590768 C142.34512,18.0270167 142.556631,17.8294044 142.767908,17.6336437 C142.933889,17.4799192 143.132387,17.3471085 143.356103,17.3058024 C143.671975,17.2474679 143.99228,17.2056142 144.317461,17.2124464 C144.758294,17.2216516 145.199467,17.215028 145.640483,17.2148976 C146.088357,17.2147933 146.536283,17.2139588 146.984209,17.21435 C147.045621,17.2144022 147.108623,17.2051969 147.167114,17.2344294 C147.293145,17.2974316 147.331139,17.40646 147.286678,17.5680337 C147.220729,17.8075257 147.112457,18.0310586 147.026428,18.2629622 C146.990572,18.3596561 146.995188,18.4711357 146.934741,18.5568251 C146.743466,18.8281312 146.638062,19.1440291 146.473463,19.4305121 C146.266359,19.7909498 146.012212,20.1089078 145.750424,20.4260314 C145.561495,20.6548579 145.353843,20.8620144 145.125382,21.0510473 C144.940417,21.2040677 144.767917,21.3717173 144.563368,21.500799 C144.402029,21.602604 144.239725,21.7076686 144.087174,21.8175836 C143.843823,21.9930303 143.558357,22.0798931 143.313649,22.2450654 C143.274925,22.2712207 143.225483,22.2863455 143.178831,22.2950031 C143.027375,22.3231924 142.894277,22.3949566 142.758859,22.462079 C142.715754,22.4834622 142.673039,22.5124339 142.627118,22.5201527 C142.181747,22.5952808 141.770876,22.7962831 141.310511,22.8355291 C140.873824,22.8727412 140.439484,22.9416629 139.999328,22.9435405 C139.813294,22.9443489 139.62713,22.9401244 139.4412,22.9451833 C139.338926,22.9479475 139.2342,22.9859418 139.135499,22.9724078 C138.666945,22.9080495 138.193881,22.8981142 137.724415,22.8285666 C137.290987,22.7643387 136.885984,22.6229486 136.479781,22.4850008 C136.125315,22.3646028 135.786965,22.1945802 135.45044,22.0253137 C135.306259,21.9527933 135.196318,21.838706 135.058396,21.7617786 C134.829674,21.6341573 134.620379,21.4780076 134.431894,21.2972933 C134.178294,21.0541244 133.9339,20.8013591 133.682882,20.555426 C133.63829,20.5117207 133.606163,20.4299951 133.51604,20.4710144 C133.51604,20.4710144 133.508139,20.462435 133.508165,20.462409 C133.552027,20.3830563 133.494944,20.3368738 133.45283,20.2825291 C133.33543,20.1310734 133.208591,19.9849373 133.108377,19.8225813 C132.917884,19.5141414 132.743376,19.1958704 132.562036,18.8817457 C132.540966,18.8452117 132.511055,18.840935 132.475695,18.8603364 C132.471157,18.8462287 132.466646,18.832121 132.462187,18.8179872 C132.470453,18.8000461 132.48709,18.7812446 132.485395,18.7642684 C132.475356,18.6633239 132.270833,18.2665609 132.181649,18.1677808 C132.152547,18.0953908 132.123419,18.0229747 132.094369,17.9505065 C132.128765,17.9162412 132.124358,17.8763693 132.104461,17.8393398 C132.039712,17.7190461 132.008211,17.592833 131.996398,17.4554849 C131.990504,17.387189 131.995641,17.2873137 131.893732,17.2574554 C131.886378,17.2326561 131.879025,17.2078829 131.871697,17.1830836 C131.949433,17.128452 131.908909,17.1083205 131.845907,17.0947344 C131.84223,17.068918 131.838553,17.0431017 131.834902,17.0172593 C131.912012,16.9759793 131.873314,16.9143069 131.8633,16.8573806 C131.819934,16.6110303 131.724831,16.3755802 131.709341,16.123206 C131.707072,16.0863591 131.683055,16.0622117 131.643235,16.0593171 Z M86.1694844,4.01913265 C85.5152621,4.01913265 84.8609356,4.01222222 84.2068959,4.02239229 C83.9323823,4.02666893 83.7372735,3.90481066 83.7494515,3.49318367 C83.7738857,2.66690476 83.7502338,1.84114739 83.7649152,1.01536395 C83.7673664,0.877963719 83.7631159,0.741241497 83.7471306,0.60347619 C83.7081975,0.267863946 83.9463336,0.0201575964 84.2760524,0.058569161 C84.4354617,0.0771360544 84.5915331,0.0603684807 84.7490649,0.0603945578 C85.2380626,0.0604988662 85.7271385,0.0640975057 86.2159798,0.0550748299 C86.4235014,0.0512675737 86.6014776,0.149943311 86.7962735,0.188068027 C86.9310138,0.214431973 87.0621556,0.259232426 87.1947837,0.296235828 C87.2814118,0.32038322 87.3665014,0.345260771 87.4227757,0.425917234 C87.4415252,0.452854875 87.4718789,0.476611111 87.5021283,0.489910431 C87.7912451,0.616879819 87.9901873,0.857362812 88.1644605,1.09562925 C88.3247565,1.31483333 88.479524,1.5485102 88.5232814,1.84782313 C88.5682383,2.15561111 88.6071454,2.45893991 88.6006522,2.76970068 C88.5959583,2.99678005 88.6047463,3.22412018 88.6069107,3.45135601 C88.6077973,3.54778912 88.6071975,3.64385714 88.5777825,3.73773469 C88.521456,3.91730159 88.4226238,4.00231293 88.2355467,4.01279592 C88.1189299,4.01931519 88.0015308,4.01146599 87.8844707,4.01141383 C87.3128086,4.01110091 86.7411465,4.01128345 86.1694844,4.01128345 L86.1694844,4.01913265 Z M148.586678,11.4347316 C148.586678,7.91335862 148.586704,4.39195952 148.586548,0.870586508 C148.586548,0.753448186 148.579559,0.63607517 148.584801,0.519197619 C148.594449,0.303618254 148.707728,0.1898178 148.92542,0.188852948 C149.614533,0.185801927 150.303907,0.177926644 150.99263,0.194276984 C151.222864,0.199727098 151.451326,0.273551361 151.680961,0.313970862 C151.766415,0.329017347 151.826862,0.391263379 151.892811,0.434368821 C152.134833,0.592448186 152.409607,0.713550227 152.571128,0.972834807 C152.622839,1.05583821 152.680757,1.13067948 152.764568,1.18343345 C152.781675,1.19420329 152.802615,1.20700714 152.809916,1.22395726 C152.961946,1.57696293 153.173927,1.90271803 153.170745,2.31570102 C153.159975,3.72141304 153.167694,5.12725544 153.167512,6.53304569 C153.16746,6.70476338 153.112515,6.87309104 153.13382,7.0465559 C153.140313,7.09936202 153.123598,7.16990057 153.191503,7.18525998 C153.246317,7.19767268 153.297949,7.15905249 153.332814,7.11396519 C153.416783,7.00530193 153.501325,6.89676905 153.579269,6.78377698 C153.733385,6.5602441 153.932066,6.37765227 154.134268,6.20298787 C154.345884,6.02018741 154.564279,5.83360578 154.809117,5.70439376 C155.041594,5.58170102 155.235139,5.37391871 155.520161,5.35055363 C155.606424,5.34348673 155.693235,5.29719989 155.767711,5.25983141 C155.928894,5.1789924 156.092762,5.13533934 156.266253,5.09147766 C156.445194,5.04625998 156.628177,5.02529399 156.804484,4.97741644 C157.25554,4.85495839 157.714758,4.87029172 158.174914,4.85328946 C158.656115,4.83553095 159.115984,4.93968288 159.581409,5.02119989 C159.723294,5.04607744 159.861424,5.09205136 160.003127,5.118311 C160.129393,5.14170215 160.209814,5.24574977 160.331881,5.28142324 C160.554449,5.34645952 160.776704,5.41892778 160.965659,5.56516814 C161.012963,5.60172823 161.076278,5.63322937 161.134195,5.63701054 C161.242754,5.64410351 161.308469,5.69458878 161.36842,5.78004342 C161.429414,5.86690624 161.543684,5.87853662 161.631121,5.92946519 C161.659831,5.94615454 161.707787,5.94187789 161.725155,5.96417381 C161.924957,6.22074637 162.258901,6.31811825 162.452262,6.58308764 C162.538265,6.70095612 162.68234,6.75282347 162.789987,6.85142098 C162.999438,7.04329626 163.143045,7.28795159 163.339979,7.48882347 C163.719896,7.87632914 163.916022,8.37979966 164.17914,8.8408949 C164.238387,9.16028719 164.453601,9.42053662 164.519289,9.73721689 C164.533215,9.80431327 164.545314,9.87318288 164.545601,9.94129626 C164.545966,10.0130604 164.557127,10.09004 164.596243,10.138048 C164.738389,10.3125298 164.719874,10.5224765 164.750984,10.7228529 C164.814326,11.1305162 164.815995,11.5436557 164.865098,11.9525706 C164.87738,12.0546885 164.873912,12.1589709 164.873938,12.2622622 C164.874616,15.6044856 164.874851,18.9466829 164.875138,22.2889062 C164.875164,22.6131228 164.768482,22.7181353 164.439624,22.7181353 C163.233662,22.7181874 162.027727,22.718396 160.82174,22.7182917 C160.395275,22.7182656 160.254354,22.5763541 160.300484,22.1546092 C160.326144,21.9203586 160.324267,21.6874901 160.324397,21.4539437 C160.325649,18.6974901 160.330812,15.9410105 160.320433,13.1845831 C160.318373,12.6365468 160.258631,12.0935173 160.090486,11.5584935 C159.995513,11.2563382 159.909928,10.9607804 159.747494,10.6868144 C159.480047,10.2357328 159.191817,9.80892891 158.755651,9.49462166 C158.426506,9.2573983 158.061374,9.11147086 157.683257,8.9848144 C157.556496,8.94236088 157.423164,8.95151395 157.295151,8.9429085 C156.65621,8.8999856 156.016878,8.87839376 155.418252,9.17569875 C155.345393,9.21189376 155.257591,9.2198212 155.187913,9.26018855 C154.807083,9.48061825 154.430686,9.70827132 154.18637,10.093404 C154.101984,10.2264493 153.988679,10.3355559 153.905076,10.472904 C153.731611,10.7579527 153.626625,11.0710865 153.489381,11.3705298 C153.423745,11.5136931 153.396938,11.6703904 153.370835,11.827531 C153.330441,12.0708563 153.26285,12.3094618 153.215624,12.5517963 C153.168294,12.7943654 153.137497,13.0392554 153.137601,13.287718 C153.138801,16.2577951 153.138853,19.2279244 153.13927,22.1980015 C153.13927,22.2393337 153.140809,22.280718 153.139844,22.3220241 C153.133585,22.5973722 152.982104,22.7294788 152.714552,22.6775332 C152.611418,22.6574799 152.510108,22.6529425 152.407182,22.6528904 C151.449292,22.6525253 150.491402,22.6559153 149.53359,22.6498915 C149.353397,22.6487702 149.178446,22.688616 148.999557,22.6869731 C148.722357,22.6844697 148.584566,22.5454788 148.584566,22.2676534 C148.584644,18.6566534 148.584618,15.0457056 148.584618,11.4347316 L148.586678,11.4347316 Z M106.728439,10.0921105 C106.728439,7.02573073 106.728491,3.95935091 106.72823,0.892971088 C106.72823,0.768948413 106.720433,0.644795351 106.72411,0.520955215 C106.733185,0.219164966 106.988584,-0.00116043084 107.2892,0.0221003401 C107.928298,0.0716207483 108.567813,0.054435941 109.207536,0.0315924036 C109.350465,0.0264812925 109.494984,0.0416581633 109.632332,0.0948293651 C109.747801,0.139551587 109.863166,0.187689909 109.982704,0.21778288 C110.16407,0.2634178 110.316517,0.345769274 110.476813,0.44796542 C110.65252,0.55999263 110.758498,0.747721655 110.951755,0.827126417 C111.02331,0.992768141 111.205928,1.07728401 111.262985,1.25359127 C111.287132,1.32819785 111.331881,1.38525454 111.398195,1.42974206 C111.496897,1.49597789 111.538568,1.59903458 111.548503,1.71210488 C111.573824,1.99983957 111.610436,2.28587925 111.606994,2.57679535 C111.598154,3.32087925 111.603995,4.06511961 111.601961,4.80930782 C111.6017,4.89838719 111.586732,4.98733617 111.582795,5.07654592 C111.578205,5.18111508 111.618129,5.23178288 111.722307,5.24174433 C111.804241,5.24956746 111.887505,5.24372619 111.970144,5.24346542 C112.604026,5.24124887 113.237908,5.23467744 113.871738,5.23811961 C114.286077,5.24036224 114.327931,5.2883441 114.328609,5.70802891 C114.329104,6.02496995 114.324071,6.34193707 114.323054,6.65887812 C114.322585,6.80785658 114.299272,6.94483957 114.178978,7.05170351 C114.096601,7.1248237 114.089403,7.23223526 114.067968,7.33411848 C114.038892,7.47217063 114.031903,7.63009354 113.851867,7.67502438 C113.845739,7.67653685 113.837681,7.68190873 113.83583,7.68728061 C113.776165,7.86165816 113.630107,7.96450624 113.507728,8.08735544 C113.489369,8.10581803 113.486005,8.15346088 113.46916,8.1570856 C113.216864,8.21145635 113.094536,8.50041667 112.817936,8.51285544 C112.714384,8.51747109 112.614326,8.55856859 112.527672,8.6149212 C112.344428,8.73414569 112.147624,8.75811054 111.936739,8.72715703 C111.869147,8.71722166 111.799052,8.7193339 111.730417,8.72254138 C111.597685,8.72879989 111.520653,8.79928628 111.560655,8.91746769 C111.635001,9.13711508 111.587723,9.35514569 111.587958,9.5728373 C111.590878,12.3153396 111.589809,15.0578679 111.589966,17.8003963 C111.589992,17.9657511 111.592339,18.131106 111.59213,18.2964348 C111.592,18.4103396 111.611114,18.514674 111.703401,18.5954348 C111.733416,18.6217205 111.757068,18.6592194 111.773809,18.6960402 C111.823643,18.8055641 111.89791,18.8719303 112.025427,18.8743554 C112.071505,18.8752421 112.123764,18.8903668 112.161889,18.9158963 C112.348314,19.0408316 112.547282,19.0648747 112.770111,19.0499847 C113.099439,19.0279756 113.431244,19.0422659 113.761979,19.0421616 C113.844566,19.0421355 113.926265,19.0479246 114.008069,19.0658135 C114.246753,19.1180981 114.309207,19.1837602 114.312467,19.4305278 C114.317004,19.7749802 114.312806,20.1195629 114.312962,20.4640935 C114.313223,21.0704643 114.313953,21.6768611 114.314344,22.2832579 C114.314371,22.3314745 114.314788,22.3797693 114.312232,22.4279076 C114.298776,22.6815856 114.170034,22.8214632 113.918911,22.8483486 C113.837055,22.8571105 113.753687,22.8547375 113.671101,22.8530947 C113.492264,22.849496 113.315409,22.8470187 113.137694,22.8880901 C112.998338,22.9202432 112.852671,22.941835 112.707813,22.9045969 C112.701293,22.902928 112.694122,22.9032409 112.687238,22.9033192 C112.109291,22.9101774 111.532492,22.8909325 110.955301,22.8556502 C110.660526,22.837657 110.363456,22.8669155 110.080962,22.7505595 C110.044037,22.7353566 109.999602,22.7313407 109.959078,22.7330096 C109.579187,22.7487341 109.208058,22.6490414 108.829418,22.6488588 C108.694652,22.6488067 108.576001,22.6141763 108.472371,22.5155788 C108.386446,22.4338793 108.263858,22.4124178 108.151231,22.3815686 C108.069219,22.3590641 107.996124,22.3285017 107.944101,22.2568158 C107.873354,22.1593656 107.754963,22.1221276 107.668596,22.0418101 C107.516306,21.9001332 107.411685,21.7185845 107.262524,21.5751604 C107.225937,21.5399303 107.22153,21.4890017 107.204685,21.4442273 C107.182936,21.3863101 107.1766,21.3119904 107.136206,21.2733963 C106.872488,21.021335 106.914342,20.6797772 106.86683,20.3673997 C106.842969,20.2103895 106.829644,20.0529359 106.766381,19.906174 C106.720746,19.8003793 106.726874,19.6902035 106.726639,19.5806536 C106.725727,19.0707681 106.727604,18.5608566 106.72763,18.050945 C106.727787,15.3980176 106.727708,12.7450901 106.727708,10.0921105 L106.728439,10.0921105 Z M83.8643341,13.9583532 C83.8643341,11.1817421 83.8644124,8.40515703 83.8640212,5.62854592 C83.8639951,5.51769218 83.8589622,5.40991553 83.9544566,5.32425227 C84.0191278,5.26630896 84.0824951,5.22823639 84.1731391,5.22870578 C84.8414169,5.23222619 85.5099815,5.22192574 86.1779203,5.23871939 C86.4642207,5.24591667 86.7570926,5.2799212 87.0289203,5.37385091 C87.260511,5.45382937 87.4727003,5.5904212 87.6641845,5.74664909 C87.9784656,6.00296088 88.2090133,6.32955045 88.3799747,6.69298696 C88.4735915,6.89200737 88.4939838,7.11705272 88.5005291,7.33693481 C88.5087434,7.61230896 88.5035541,7.88804819 88.5035802,8.16363095 C88.5040756,12.8693997 88.5044929,17.5751423 88.5048319,22.2808849 C88.5048319,22.3291015 88.50757,22.3778135 88.5018069,22.4254303 C88.4810235,22.5973827 88.389545,22.6822375 88.217384,22.6870879 C88.1072344,22.690191 87.9969543,22.6862012 87.8867003,22.6861752 C86.7636641,22.6858883 85.6406017,22.6857058 84.5175654,22.6856276 C84.4282253,22.6856276 84.3408149,22.6927205 84.2517355,22.7105051 C84.0459611,22.7515765 83.8880382,22.6238509 83.8667593,22.4120788 C83.8626391,22.3711117 83.8647253,22.3294926 83.8647253,22.2881604 C83.8646471,19.5115493 83.8646731,16.7349643 83.8646731,13.9583532 L83.8643341,13.9583532 Z" id="Combined-Shape" fill="url(#linearGradient-2)"></path>
            <path d="M54.0419565,12.5364739 C54.0489451,12.6395567 54.0511095,12.7432914 54.0639395,12.8456179 C54.0877739,13.0356678 54.1147898,13.2171904 54.2370914,13.3859614 C54.3637739,13.560678 54.4149633,13.7876009 54.5912705,13.9339455 C54.6009712,13.9419773 54.6050653,13.9576496 54.61002,13.9704274 C54.6467626,14.0648787 54.7087218,14.1348174 54.8039814,14.1735158 C54.8631503,14.197585 54.9082637,14.2389433 54.9456061,14.2902109 C54.9873034,14.3473458 55.0418828,14.3872177 55.1091095,14.4111564 C55.2204587,14.4508458 55.3197603,14.5126746 55.4121515,14.5854558 C55.4950245,14.6507528 55.5854338,14.6942755 55.691698,14.7091394 C55.9233147,14.7415793 56.1539145,14.7811904 56.3856356,14.8126655 C56.4532014,14.8218446 56.5241311,14.820619 56.5918272,14.8116224 C56.8032342,14.7835635 57.0138329,14.7495328 57.2247445,14.7177709 C57.3567467,14.6979263 57.47352,14.651144 57.5772547,14.5604217 C57.6431254,14.5028435 57.7283975,14.4645884 57.8096277,14.4280544 C58.0097955,14.3380102 58.1329054,14.1560703 58.2867342,14.0149671 C58.3761005,13.9330068 58.4606163,13.8202233 58.5268522,13.7117948 C58.6790903,13.4626802 58.8571968,13.219068 58.8911492,12.9172256 C58.9172524,12.6849308 58.940122,12.4506281 58.9237977,12.2162471 C58.9019451,11.9022267 58.915766,11.5768628 58.6755177,11.3225328 C58.662088,11.3082948 58.6540302,11.2867811 58.6488669,11.2672233 C58.5809882,11.0101553 58.3974054,10.8380465 58.2192467,10.656602 C58.0933465,10.5283809 57.9507308,10.4294444 57.8101231,10.322085 C57.6900642,10.230424 57.5682059,10.1709161 57.4300494,10.1295317 C57.3510358,10.1058537 57.2718658,10.0849399 57.1965812,10.0483276 C56.8443839,9.87702718 56.4798,9.83220065 56.0929723,9.91755099 C55.9142921,9.95700564 55.7680778,10.0757607 55.5936742,10.1034285 C55.3060438,10.1490895 55.094376,10.3344455 54.8806742,10.4931247 C54.4974712,10.7776258 54.3041356,11.2128265 54.100656,11.631729 C54.091842,11.6498265 54.089156,11.6715487 54.0866526,11.691941 C54.0526742,11.9724523 54.0318907,12.2537199 54.0419565,12.5364739 M59.4064848,9.60001017 C59.4198102,9.61364849 59.4331617,9.62728682 59.4464871,9.64095122 C59.4222615,9.69044555 59.4363692,9.73482877 59.4670619,9.77517004 C59.5251095,9.85154986 59.5841481,9.92714736 59.6434996,10.0025362 C59.8216583,10.2288855 59.980181,10.4670476 60.0858714,10.7369455 C60.1633986,10.9348707 60.2407172,11.132848 60.3171492,11.3311904 C60.3293533,11.3629002 60.338402,11.3962006 60.3453646,11.4295011 C60.4315234,11.8418322 60.4495426,12.2602914 60.4226571,12.6779682 C60.4056549,12.9422857 60.409071,13.214009 60.3000687,13.4658356 C60.2647603,13.5474569 60.2395438,13.6327029 60.2103635,13.71628 C60.0833159,14.0798208 59.9129281,14.4215351 59.6590937,14.7168061 C59.6080608,14.7761836 59.5389304,14.8368129 59.5925449,14.9316553 C59.5881118,14.9440419 59.5808624,14.9544988 59.5708227,14.9629739 C59.4651061,14.934263 59.4254429,15.025924 59.3740971,15.0809206 C59.19041,15.2776462 58.9868522,15.4549444 58.7705948,15.6092687 C58.4688567,15.8246133 58.1133476,15.9494444 57.7875664,16.1260646 C57.7283454,16.1581655 57.6587195,16.1751938 57.5918057,16.1880238 C57.3698896,16.2305816 57.1473737,16.2704013 56.9243884,16.306831 C56.694232,16.3444081 56.4637626,16.3904864 56.2289383,16.3471462 C55.9661073,16.2986428 55.705232,16.234102 55.4404191,16.2037483 C55.2752989,16.1847902 55.1381333,16.120797 55.0006288,16.04267 C54.9709009,16.0258242 54.9435721,16.0018072 54.9117581,15.9919762 C54.5574746,15.8824263 54.2646027,15.6724796 53.9791628,15.4434444 C53.6049043,15.1431666 53.3079383,14.7822075 53.0578068,14.3750136 C52.6839655,13.7664263 52.5294066,13.1014081 52.5194451,12.3962052 C52.515664,12.1282109 52.5760064,11.863763 52.5690438,11.594517 C52.5669576,11.515034 52.5991628,11.4327086 52.6252138,11.3548684 C52.684122,11.1790306 52.7472286,11.0045487 52.8120562,10.8307709 C52.8528147,10.7214818 52.8834814,10.6037177 52.9468227,10.5084319 C53.2200064,10.0973265 53.5090971,9.69907707 53.8880234,9.37319158 C54.003571,9.27378568 54.1342172,9.19821425 54.2493998,9.10105099 C54.4512104,8.9308197 54.6846787,8.80914396 54.9233363,8.71052038 C55.1940687,8.59864963 55.4748669,8.50938772 55.7690687,8.45971085 C56.2614565,8.37657707 56.750715,8.37138772 57.2378612,8.4711587 C57.7592728,8.57791834 58.2510869,8.76345688 58.6857399,9.08060654 C58.7220653,9.10710088 58.7591991,9.11740133 58.7960982,9.08094555 C58.8074157,9.08699543 58.8169338,9.09510541 58.8246526,9.10537979 C58.8049383,9.15140586 58.8268952,9.18650564 58.8608215,9.21099203 C59.0144417,9.3218197 59.1611515,9.44065303 59.2976912,9.5720816 C59.3274973,9.60076641 59.3618669,9.62334918 59.4064848,9.60001017" id="Fill-13" fill="url(#linearGradient-3)"></path>
            <circle id="Oval" fill="url(#linearGradient-3)" cx="56.4829932" cy="12.3866213" r="1"></circle>
        </g>
    </g>
</svg>