<?xml version="1.0" encoding="UTF-8"?>
<svg width="276px" height="38px" viewBox="0 0 276 38" version="1.1" xmlns="http://www.w3.org/2000/svg" xmlns:xlink="http://www.w3.org/1999/xlink">
    <!-- Generator: Sketch 50.2 (55047) - http://www.bohemiancoding.com/sketch -->
    <title>Group 84</title>
    <desc>Created with Sketch.</desc>
    <defs>
        <polygon id="path-1" points="0.311982011 0.3354 28.3537795 0.3354 28.3537795 35.2007678 0.311982011 35.2007678"></polygon>
        <polygon id="path-3" points="0.48796174 0.513041157 32.9767999 0.513041157 32.9767999 37.3214286 0.48796174 37.3214286"></polygon>
        <polygon id="path-5" points="0.133135997 0.481185074 22.0540006 0.481185074 22.0540006 22.5 0.133135997 22.5"></polygon>
    </defs>
    <g id="Page-1" stroke="none" stroke-width="1" fill="none" fill-rule="evenodd">
        <g id="LP_version1" transform="translate(-332.000000, -1134.000000)">
            <g id="Group-85" transform="translate(169.000000, 1133.000000)">
                <g id="Group-84" transform="translate(163.000000, 1.000000)">
                    <g id="Group-83" transform="translate(0.000000, 1.357143)">
                        <path d="M101.914885,26.6028156 C101.923772,23.0462746 101.421639,20.5813342 100.433296,18.9907056 C98.8517246,16.4462153 95.8300386,16.3872895 94.5924804,19.0949306 C92.6794865,23.2805047 92.9398107,27.5548358 95.1209051,31.6243997 C95.7981924,32.88799 97.0101995,33.5380154 98.524005,33.3649208 C99.9870787,33.1977188 100.762497,32.233177 101.272406,30.9618526 C101.879706,29.4478275 101.942287,27.8660377 101.914885,26.6028156 Z M95.9929726,35.9642857 C95.9215038,35.2218205 95.2679161,35.4136977 94.8579888,35.3278869 C89.3522991,34.1788336 86.3824556,30.974006 86.1873051,25.9248005 C85.995117,20.9415182 88.9860677,16.9426653 94.0477622,15.4831466 C96.6498931,14.7333156 99.2794265,14.7428911 101.874151,15.5177655 C106.848084,17.0045374 109.555751,20.911687 109.222477,26.0419155 C108.904385,30.9331262 105.610155,34.4020151 100.515504,35.2987923 C99.8637673,35.4136977 99.023546,35.1717335 98.5851053,35.9642857 L95.9929726,35.9642857 Z" id="Fill-1" fill="#252424"></path>
                        <g id="Group-5" transform="translate(122.821429, 0.000000)">
                            <mask id="mask-2" fill="white">
                                <use xlink:href="#path-1"></use>
                            </mask>
                            <g id="Clip-4"></g>
                            <path d="M16.5768955,32.76364 C15.1000773,30.5989543 13.5843955,28.3547829 12.0398435,26.13104 C11.7233825,25.6749257 11.2884799,25.2247543 10.6566682,25.4502114 C10.0540968,25.6648971 10.2162136,26.2680971 10.2077006,26.73684 C10.1862331,27.9116686 10.2410123,29.0887257 10.1914149,30.26244 C10.12035,31.93684 10.2125123,33.4385257 12.4410643,33.4938686 C12.961837,33.5068686 13.1964994,33.8723543 13.1816942,34.3700686 C13.161337,35.0520114 12.6790578,35.1181257 12.146811,35.1173829 C8.51065519,35.1136686 4.87449935,35.1155257 1.23871364,35.1136686 C0.781973377,35.1132971 0.359655195,35.04904 0.31672013,34.4599543 C0.273785065,33.86864 0.520661688,33.4804971 1.13840844,33.4819829 C3.33179805,33.4868114 3.53277857,31.9925543 3.53277857,30.33004 C3.53240844,22.5983829 3.52241494,14.8659829 3.54647338,7.13469714 C3.54980455,6.04455429 3.26554481,5.19695429 2.25694091,4.68289714 C1.80020065,4.45038286 1.39416818,4.15918286 1.45523961,3.56378286 C1.51927208,2.93606857 2.06336299,2.85435429 2.51714221,2.69204 C4.5454539,1.96812571 6.58079805,1.26426857 8.60355779,0.52624 C9.78242143,0.0964971429 10.2443435,0.349068571 10.231389,1.72669714 C10.1677266,8.46849714 10.1903045,15.21104 10.1866032,21.9532114 C10.1854929,23.7583543 10.6592591,24.1554114 12.2200968,23.3947257 C14.3427916,22.3606686 15.6201097,20.3920971 16.9351812,18.5412686 C17.4800123,17.7735257 16.7449344,17.5060971 16.0624149,17.4087829 C15.3921097,17.3133257 14.6066942,17.2813829 14.7347591,16.2829829 C14.8561617,15.3406686 15.6449084,15.6604686 16.1997331,15.6199829 C19.0860058,15.40864 21.9741292,15.2199543 24.8615123,15.0275543 C25.3811747,14.9930114 26.034824,14.69104 26.2213695,15.5089257 C26.4005123,16.2922686 25.9363695,16.6473543 25.228311,16.7487543 C22.2347006,17.1758971 20.2112006,19.23584 18.0289149,21.0354114 C17.2642266,21.6660971 17.2390578,22.3160971 17.7720448,23.1250686 C19.642311,25.9616686 21.5188695,28.79084 23.6234279,31.4614114 C24.5254344,32.6057829 25.7309474,33.0960686 27.114863,33.3282114 C27.6833825,33.4236686 28.4525123,33.4559829 28.343324,34.3708114 C28.2352461,35.2733829 27.5097916,35.1125543 26.9124019,35.1106971 C23.646376,35.0999257 20.3792396,35.10624 17.1139539,35.0453257 C16.3518565,35.0312114 15.2436877,35.6774971 14.9194539,34.4339543 C14.6103955,33.2479829 16.0424279,33.5607257 16.5768955,32.76364" id="Fill-3" fill="#262525" mask="url(#mask-2)"></path>
                        </g>
                        <path d="M67.0790965,27.6100302 C67.7674831,26.2077445 68.3193728,25.1092501 68.8487591,23.9992005 C69.6529835,22.313252 70.5361547,20.58481 69.3242844,18.759453 C68.0294094,16.8084792 65.9764237,17.7343904 64.2303714,17.6091464 C63.0528098,17.5245321 62.7550992,18.2301479 63.1874621,19.3044136 C64.2930861,22.0530725 65.5455365,24.7290451 67.0790965,27.6100302 M79.7043127,27.6428322 C81.0851439,24.5579528 82.0004103,21.8748979 82.9079295,19.1866246 C83.2628212,18.1362149 82.8548064,17.6829509 81.8849413,17.4917301 C81.253367,17.3672316 80.6498298,17.1689285 80.8243243,16.3022847 C81.0113618,15.3722733 81.7211452,15.6827741 82.2995965,15.6827741 C84.3263895,15.6816558 86.3535515,15.6924656 88.3799756,15.6682368 C88.8934987,15.6619001 89.3974301,15.5847408 89.5390917,16.2519634 C89.6907138,16.965407 89.2941352,17.2982728 88.6636676,17.3959333 C87.0559566,17.6449304 86.3111268,18.7885275 85.7153367,20.1591295 C83.6413231,24.9284664 81.5293118,29.6810295 79.4497646,34.4477572 C79.1225412,35.1977303 78.9037774,35.9506854 77.8534899,35.9641044 C76.8079982,35.9775234 76.5453341,35.2439513 76.208519,34.4958419 C74.6856574,31.113508 73.1469327,27.7390018 71.4377714,23.973108 C69.6474498,27.7099272 68.0301472,31.0967342 66.4003016,34.4772044 C66.1380064,35.0210468 65.9978205,35.6860328 65.2946775,35.8742716 C64.0949813,36.1959549 63.5360823,35.5712258 63.0679351,34.5226799 C60.9238286,29.7164408 58.7155317,24.9400216 56.5286317,20.1531655 C55.9520249,18.8910338 55.326722,17.6896604 53.7699206,17.4201621 C53.1184251,17.3072188 52.810385,16.8632735 52.9701232,16.2016422 C53.1261722,15.5549208 53.653345,15.6309618 54.1598588,15.6443808 C61.9036543,15.8523754 69.6474498,15.8229281 77.3912453,15.6324528 C77.9232139,15.6194066 78.5551572,15.4416048 78.7019835,16.2534544 C78.8543435,17.0977333 78.3205303,17.3780413 77.6454245,17.4298536 C75.6356013,17.5852904 75.8008731,18.6919853 76.4250693,20.0920344 C77.4779392,22.4515423 78.4865399,24.8315514 79.7043127,27.6428322" id="Fill-6" fill="#262525"></path>
                        <path d="M14.1079877,26.9595771 C15.2134145,24.8800306 16.1868114,23.150802 16.7718851,21.2546134 C17.4017084,19.2138255 16.6047212,17.4540372 14.8979481,17.062352 C13.6948858,16.7861972 12.4522514,16.81303 11.2240405,16.956884 C10.2084828,17.0757684 9.84567795,17.5498156 10.2543419,18.6015146 C11.3275934,21.3626902 12.611279,24.016907 14.1079877,26.9595771 M27.1142272,26.5969609 C28.07468,23.9326817 29.0406802,21.2702659 29.9918872,18.6026326 C30.3325022,17.646712 30.0125978,17.0560165 28.9948211,16.8517886 C28.3542727,16.7235872 27.8076615,16.4798554 27.953745,15.6301482 C28.100938,14.7767143 28.757759,15.0249182 29.2585111,15.0200734 C31.3513884,14.9999487 33.4442657,15.0126198 35.537143,15.0141105 C36.037895,15.0144832 36.5445644,14.9876503 36.631105,15.6905221 C36.70803,16.3106593 36.4029189,16.6382438 35.8448429,16.7243325 C34.0633639,16.999742 33.3562458,18.3376581 32.7175465,19.8037757 C30.6901294,24.4551771 28.6334956,29.0939074 26.5820394,33.7345011 C26.2669429,34.4474352 26.1123532,35.2442221 25.0176515,35.2840987 C23.8526819,35.3262113 23.6052645,34.5379961 23.2468976,33.7445634 C21.7498191,30.4280967 20.2397965,27.1175929 18.6761482,23.6762788 C17.6365515,24.6866105 17.3018538,25.9112323 16.7541332,26.9856646 C15.6028472,29.2444695 14.5669488,31.562903 13.46596,33.8481681 C13.1227562,34.5607295 12.8509299,35.2908069 11.783226,35.2803719 C10.7314247,35.2703096 10.4832677,34.6058236 10.1385846,33.8485408 C7.9077601,28.9500535 5.64808872,24.0642372 3.39655364,19.1750669 C2.94831768,18.2027485 2.43240253,17.3038477 1.31994893,16.9445856 C0.701220576,16.7444572 -0.141995585,16.6691761 0.020360509,15.7031932 C0.21563162,14.5396907 1.19124751,15.0327444 1.82033115,15.0301357 C7.91552657,15.0070296 14.0110918,15.0387073 20.1066571,15.0465335 C21.5841345,15.0483969 23.0619818,15.0010668 24.5394592,15.0170919 C25.0346638,15.0226821 25.7040591,14.7722421 25.8131594,15.6554904 C25.9048777,16.3963754 25.4755031,16.7034625 24.8741569,16.7519107 C22.611157,16.9352686 22.9351295,18.1751703 23.6089628,19.667748 C24.6504087,21.9746284 25.6297229,24.3102051 26.6352952,26.6334834 C26.7946926,26.6215577 26.9544599,26.609632 27.1142272,26.5969609" id="Fill-8" fill="#252424"></path>
                        <path d="M43.5557538,20.6675979 C43.7239674,20.6592396 44.2909373,20.6675979 44.8462674,20.5927363 C45.5705621,20.4946166 46.426649,20.5407692 46.693613,19.6438831 C46.9759715,18.6946666 46.7071302,17.8326675 46.0064906,17.1407424 C44.9788107,16.1257494 43.1742695,16.1402856 41.6937646,17.175266 C40.7561992,17.8297602 39.7799596,18.7041151 40.0300272,19.8306738 C40.3056271,21.0706152 41.6915118,20.4782634 42.5994145,20.6625102 C42.7792679,20.6988508 42.9733894,20.6675979 43.5557538,20.6675979 M43.7491244,34.6060361 C39.0969674,34.5624274 35.5562217,32.4503116 34.0133877,28.7937201 C32.3808148,24.9248995 33.4310233,20.1421128 36.5497332,17.2406791 C39.6098687,14.3941197 44.6851879,13.4074723 48.3937717,15.0329874 C50.9166,16.1384686 52.409871,18.0071024 52.5671958,20.7838878 C52.6430421,22.1183148 52.0809534,22.6387122 50.7145935,22.6270832 C47.4659687,22.5994644 44.2165929,22.6692383 40.9675926,22.6557923 C39.9718283,22.6517948 39.4701913,22.9214421 39.4994785,23.9963971 C39.6245123,28.5902127 44.7388811,31.9328214 49.1541122,30.2727826 C49.9914253,29.9573462 50.6770458,29.4453071 51.2304986,28.7711889 C51.5804429,28.3441869 51.9739425,28.0952537 52.5048667,28.434675 C53.1352921,28.8373288 52.9614464,29.3337415 52.6317778,29.8443269 C50.5794219,33.0252199 47.6454466,34.6558228 43.7491244,34.6060361" id="Fill-10" fill="#262525"></path>
                        <path d="M114.505898,35.2221117 C112.675917,35.2221117 110.845937,35.2080035 109.015956,35.2306509 C108.493366,35.237705 108.016186,35.2555259 107.912547,34.5894694 C107.80195,33.8799744 108.164138,33.5213286 108.82589,33.5202148 C110.59398,33.5172447 110.912954,32.3425497 110.919912,30.9127929 C110.936392,27.6961187 110.943716,24.4790731 110.951407,21.2623989 C110.953604,20.2198756 110.647448,19.4049403 109.719823,18.7496506 C108.613118,17.9677581 108.873498,17.2270766 110.12266,16.843927 C112.109381,16.2339321 114.053621,15.5129278 115.906308,14.5613654 C117.153639,13.9205552 117.621663,14.2602663 117.390947,15.6603216 C117.312943,16.1340607 117.107129,16.7410855 117.552814,17.0544365 C118.14938,17.4743417 118.532808,16.7919493 118.952491,16.5138689 C119.872425,15.9049878 120.754639,15.2337335 121.855118,14.9912949 C123.245274,14.684998 124.479055,14.9924087 125.141173,16.3308333 C125.754585,17.5723567 125.698188,18.9137514 124.648979,19.9302859 C123.641519,20.9070945 122.408104,21.1261432 121.104376,20.4708535 C120.941776,20.3891743 120.798219,20.2696257 120.641113,20.1753234 C119.87682,19.7145786 119.177714,18.7024994 118.246061,19.1268598 C117.172316,19.6161923 117.547321,20.8799918 117.533405,21.8144758 C117.485797,24.9064037 117.588337,28.0005592 117.536334,31.0921158 C117.511065,32.6224865 118.068446,33.3995524 119.613877,33.4868006 C120.266108,33.5235562 121.294808,33.3223285 121.186774,34.4933108 C121.078008,35.6698621 120.092887,35.1834998 119.446516,35.1990931 C117.800376,35.2384476 116.152771,35.2120875 114.505898,35.2120875 C114.505898,35.2150576 114.505898,35.2187703 114.505898,35.2221117" id="Fill-12" fill="#272626"></path>
                    </g>
                    <g id="Group-73" transform="translate(160.142857, 0.000000)">
                        <path d="M98.3899588,15.0147863 C96.691252,14.9743739 95.7520991,15.6927379 95.60842,17.1294659 C95.4624958,18.5947612 96.352259,19.4392395 97.8496653,19.6454817 C99.1974058,19.8322146 100.444122,18.7947325 100.509975,17.5119895 C100.584059,16.0571456 99.8043006,15.2335703 98.3899588,15.0147863 M92.9825336,17.2381611 C93.2526803,16.316342 92.4811531,15.148565 93.5609919,14.4727037 C94.9798236,13.5836324 96.4779783,12.331547 98.0240259,12.2207615 C99.5910268,12.1085824 101.101903,13.478421 102.476583,14.4232334 C103.56166,15.1701647 102.983202,16.3818378 102.998917,17.3712431 C103.013884,18.3028169 103.522747,19.461536 102.532708,20.1555132 C101.170001,21.1114738 99.7362027,22.3844621 98.069674,22.3928233 C96.402397,22.4004877 94.9820686,21.1045061 93.5924217,20.1812935 C92.4699282,19.4350589 93.2601636,18.2164182 92.9825336,17.2381611" id="Fill-38" fill="#F5F4F4"></path>
                        <path d="M87.423242,8.82142857 C87.9627592,8.90285731 88.7261838,8.92117878 89.4070759,9.14103639 C90.6549961,9.54207294 92.6770395,8.94289311 92.9315143,10.7024325 C93.2517094,12.9152586 91.1662384,15.7679789 89.265701,16.2531585 C88.7376466,16.3881945 88.5359008,16.0740152 88.2707273,15.8446576 C87.0189861,14.7602982 85.8008693,13.6413315 84.9442137,12.2740072 C84.4627748,11.5051842 83.7933455,10.6685039 84.3588452,9.76871627 C84.965611,8.80446425 86.1531603,8.8757144 87.423242,8.82142857" id="Fill-40" fill="#F6F6F6"></path>
                        <path d="M101.785123,8.53221205 C101.756969,8.58651863 101.681656,8.8391951 101.528215,9.0156915 C100.173288,10.571726 95.7481325,10.5596579 94.5332736,9.01870853 C94.303112,8.7275649 94.2848117,8.40851371 94.3636438,8.0864455 C94.8676061,6.02204103 95.4046498,3.96367063 96.6666673,2.24697916 C97.4029028,1.24607864 98.2376784,0.994910688 99.1878868,1.9852516 C100.019143,2.85189417 101.823131,7.19566666 101.785123,8.53221205" id="Fill-44" fill="#F6F6F6"></path>
                        <path d="M42.3524824,25.1290603 C42.3524824,26.8609721 42.2799806,28.5950623 42.3711685,30.3218909 C42.480295,32.391471 44.0334791,34.283866 45.736899,34.6237128 C47.5367389,34.9831662 49.2782783,34.1981781 50.0548703,32.3319252 C51.6102968,28.59361 51.6543958,24.80882 49.6131322,21.2070245 C48.5151402,19.2696071 46.7190375,18.2435311 44.3601111,18.4432274 C43.0991768,18.5499742 42.2680215,19.0800771 42.3323015,20.5135337 C42.4003187,22.0493799 42.3472503,23.5903094 42.3524824,25.1290603 Z M43.5379252,37.3214286 C41.3449309,36.5371666 39.2692849,35.2293373 36.7376995,36.1080011 C34.9931703,36.7136256 35.4827447,35.318656 35.4805024,34.5837735 C35.452847,26.2342887 35.4842396,17.88553 35.4535945,9.53604522 C35.4461201,7.57030723 36.1061112,5.37727851 33.6246044,4.11011457 C32.9975007,3.78987428 33.2060369,2.99907684 33.8921885,2.74201321 C36.3535144,1.81832694 38.831284,0.934579942 41.3262448,0.1023909 C42.5901689,-0.318060632 42.3577145,0.649195742 42.3577145,1.32090156 C42.3592094,5.88051325 42.3644415,10.4401249 42.3412708,15.0004628 C42.3352913,16.1557968 42.3681787,16.8347643 43.9766735,16.2480202 C50.1916522,13.9823746 55.5717384,16.0592164 57.5718927,21.3522582 C59.8777507,27.4498947 56.9373146,33.9178771 50.9518005,36.1254291 C49.4337462,36.685305 47.7228519,36.4282414 46.3176613,37.3214286 L43.5379252,37.3214286 Z" id="Fill-22" fill="#242323"></path>
                        <g id="Group-26" transform="translate(82.107143, 0.000000)">
                            <mask id="mask-4" fill="white">
                                <use xlink:href="#path-3"></use>
                            </mask>
                            <g id="Clip-25"></g>
                            <path d="M19.0187109,12.3994705 C19.666363,12.8135948 20.2865478,13.2097761 20.9710641,13.6475852 L20.9710641,11.4721765 C20.181738,11.5511257 19.5434826,11.7492163 19.0187109,12.3994705 Z M23.4409609,19.8558613 C24.2230587,19.6692541 24.9249228,19.3556106 24.903238,18.7304766 C24.8822761,18.1161085 24.1861946,17.7787802 23.5074609,17.6395426 C23.2349554,18.3314245 23.3375967,19.0032102 23.4409609,19.8558613 Z M19.0628033,25.2416305 C19.575287,25.7662837 20.3667815,26.2191648 20.822162,25.9557617 C21.4228304,25.6076676 21.3317543,24.7220014 21.1496022,23.7595391 C20.3631674,24.3401745 19.5311946,24.4492679 19.0628033,25.2416305 Z M14.5133359,25.2724924 C13.868575,24.5519018 13.1594826,24.2188798 12.2942598,23.9174375 C12.172825,24.6961635 11.9928413,25.5337424 12.584113,25.8961909 C13.1840587,26.2643812 13.8172543,25.6356587 14.5133359,25.2724924 Z M10.1460207,17.0897692 C9.40078696,18.0493606 8.26667283,18.0106037 8.66928696,19.0512974 C8.81312935,19.4230762 9.44198804,20.0568228 9.85183043,19.7639931 C10.5414065,19.2694842 10.0939772,18.4082205 10.1460207,17.0897692 Z M12.1309011,13.8112253 C13.1175587,13.2370495 13.8056891,12.8365618 14.695488,12.3190859 C13.8555641,11.9121387 13.257787,11.2094911 12.6086891,11.5360536 C11.9328467,11.8762527 12.2826946,12.7741202 12.1309011,13.8112253 Z M27.895738,9.53648626 C27.3767489,9.62045948 26.4334609,9.75108448 25.5002924,9.92907898 C22.6740424,10.4688043 22.8554717,10.4644979 23.0405152,13.3640859 C23.182912,15.5969121 24.8526402,16.4352088 26.2990152,17.1242198 C27.4150587,17.6553324 28.0981293,15.9529011 28.8917924,15.172022 C29.5148685,14.559807 30.0309663,13.8083544 30.4689989,13.0468537 C31.827912,10.6855556 31.096412,9.51567239 27.895738,9.53648626 Z M20.6082054,28.5029492 C20.5633902,28.3493571 20.5532707,28.1462424 20.456412,28.001263 C19.4249391,26.4552946 13.9936239,26.4631896 13.0409391,28.0206415 C12.9238413,28.2115549 12.8956511,28.5223276 12.9542,28.744103 C13.4934283,30.7695082 14.0218141,32.8092679 15.4407217,34.4499753 C16.1939065,35.3212871 17.0685261,35.4555007 17.9019446,34.5590687 C19.4820424,32.8595082 19.9453739,30.6561085 20.6082054,28.5029492 Z M28.0656022,27.8821216 C28.9561239,27.8125027 30.2340804,28.2187321 30.8976348,27.1457411 C31.595162,26.0167679 30.7892109,24.9674615 30.2015533,24.0042816 C29.4396946,22.7547315 28.4349663,21.6925062 27.3810859,20.6819567 C27.0782217,20.3919979 26.8541457,20.0123242 26.2693793,20.207544 C24.3011239,20.8628221 22.6075424,23.4702981 22.9342598,25.9693984 C23.2067652,28.0622692 25.3477761,27.1837802 26.582363,27.775899 C26.9531728,27.9531758 27.4598739,27.8483887 28.0656022,27.8821216 Z M20.5800152,9.13599863 C20.6190478,7.86419918 18.7664446,3.73085096 17.912787,2.90619093 C16.9376946,1.96382486 16.0804228,2.20282555 15.3236239,3.1552397 C14.0275967,4.78876992 13.4760804,6.7474272 12.958537,8.71182624 C12.8775804,9.01829258 12.8963739,9.32188805 13.132738,9.59892788 C14.3803359,11.0659471 18.9254663,11.0767129 20.3161837,9.59605701 C20.4737598,9.42811058 20.551825,9.18767445 20.5800152,9.13599863 Z M5.5062,27.9459986 C6.24492826,27.8304457 7.19833587,27.7364245 8.12499891,27.5246971 C10.7466891,26.9254011 10.543575,26.9146353 10.4243087,24.1729457 C10.3267272,21.9085398 8.64037391,21.0788558 7.19761304,20.3683132 C5.99266196,19.7740412 5.37464565,21.5403496 4.54845543,22.3004148 C3.95212391,22.8501882 3.46999891,23.5614485 3.07389022,24.2755797 C2.5939337,25.1411497 1.88628696,26.0741854 2.50285761,27.104831 C3.13243913,28.157726 4.30775435,27.8081964 5.5062,27.9459986 Z M5.36814022,9.48122184 C4.16680326,9.53863942 3.04353152,9.46256113 2.46960761,10.4824409 C1.93399348,11.4341374 2.56791196,12.3198036 3.02329239,13.1322624 C3.83358043,14.5784677 4.98504239,15.7627054 6.16975435,16.9089038 C6.420575,17.1522109 6.61140109,17.4845151 7.11087391,17.3416889 C8.90854239,16.8285192 10.8811348,13.8112253 10.5782707,11.4707411 C10.3375696,9.60897596 8.42497174,10.2434402 7.24387391,9.81855014 C6.59983587,9.58672665 5.87845543,9.56734821 5.36814022,9.48122184 Z M11.8287598,18.6644464 C12.0962054,19.6714073 11.3336239,20.9266992 12.417863,21.6953771 C13.7601511,22.6463558 15.132075,23.9813146 16.7425315,23.9734196 C18.3522652,23.964807 19.7372,22.653533 21.0534663,21.6688214 C22.0097652,20.9539725 21.5182435,19.7604045 21.503787,18.8008132 C21.4886076,17.7816511 22.0466293,16.5335364 20.9992543,15.7641408 C19.6707,14.7909128 18.212037,13.3798757 16.6984391,13.4954286 C15.2050804,13.6102637 13.7579826,14.8992885 12.3875043,15.8150989 C11.3444663,16.5112871 12.0897,17.7141854 11.8287598,18.6644464 Z M16.0276565,37.3215721 C13.3835587,35.4770323 12.0846402,32.8049615 11.3943413,29.7876676 C11.1695424,28.8072624 10.7329554,28.64434 9.80484674,28.9307102 C7.96742283,29.4977088 6.07578696,29.8623104 4.13644457,29.6936463 C0.944444565,29.4158887 -0.316886957,27.2383269 1.00949891,24.3258201 C1.84074891,22.5006587 3.14545,21.0078015 4.58315109,19.6498757 C5.32115652,18.9515343 5.30236304,18.5309505 4.57592283,17.8419396 C3.0926837,16.4359265 1.74244457,14.8985707 0.937216304,12.9836944 C-0.227979348,10.213296 0.975526087,8.19004396 3.95790652,7.81539423 C5.97892826,7.56203915 7.9139337,8.01850893 9.80990652,8.56612912 C10.7958413,8.85106387 11.1746022,8.67306937 11.3986783,7.69409959 C11.7976783,5.9565 12.417863,4.28421291 13.3936783,2.77341277 C15.3416946,-0.243163462 18.1187924,-0.241728022 20.074037,2.78561401 C21.0484065,4.29497871 21.6541348,5.98305563 22.0675913,7.70845398 C22.3126293,8.73048695 22.6783793,8.85967651 23.6404609,8.569 C25.5357109,7.99625962 27.4772217,7.57711126 29.4924609,7.81539423 C32.4784554,8.16779464 33.7152109,10.2434402 32.5333902,12.9750817 C31.7635804,14.7543091 30.5730859,16.2593674 29.1462272,17.5433681 C28.1855913,18.4075027 28.0605424,18.9931621 29.1021348,19.9218915 C30.5788685,21.2403427 31.8127326,22.7970769 32.5702543,24.6609952 C33.6226891,27.2498104 32.4907435,29.2422005 29.716537,29.6498654 C28.0439174,29.8960433 26.3207,29.8034574 24.7897543,29.2041614 C22.7448793,28.4046216 21.8926674,29.0161188 21.7213576,31.0372177 C21.715575,31.0996593 21.6931674,31.1613832 21.6729283,31.220954 C20.7867435,33.8370426 19.6135967,36.2277672 16.7952978,37.3215721 L16.0276565,37.3215721 Z" id="Fill-24" fill="#2D2C2C" mask="url(#mask-4)"></path>
                        </g>
                        <g id="Group-29" transform="translate(12.214286, 14.928571)">
                            <mask id="mask-6" fill="white">
                                <use xlink:href="#path-5"></use>
                            </mask>
                            <g id="Clip-28"></g>
                            <path d="M11.1025953,15.0213629 C11.1430469,15.0213629 11.1842209,15.0213629 11.2246725,15.0206371 C11.2246725,14.3848306 11.2326183,13.7482984 11.2217831,13.1124919 C11.2152819,12.7074919 11.1098188,12.2937823 10.6157312,12.3409597 C9.19125657,12.4766855 7.78122892,12.8178145 7.02420588,14.1591048 C6.32208145,15.4024113 6.37770242,16.7603952 7.29219781,17.9253145 C7.90980726,18.7120887 8.75567938,19.1816855 9.80525426,18.8594274 C10.8266575,18.5451532 11.060699,17.6850726 11.0982612,16.7429758 C11.1213764,16.1703145 11.1025953,15.5954758 11.1025953,15.0213629 Z M4.45625081,22.5000726 C4.31755956,21.7285403 3.58654113,21.8845887 3.11412408,21.64725 C1.23456878,20.70225 0.231224309,19.2099919 0.138763479,17.07975 C0.047025,14.9582177 1.08215288,13.5269274 2.86057915,12.6095081 C5.02835219,11.4895887 7.40199505,10.9024113 9.73663099,10.2862016 C12.261245,9.61918548 11.4009259,7.72120161 11.3106321,6.22894355 C11.2131149,4.6263629 10.5174916,3.16894355 8.60543053,3.04120161 C7.06176809,2.9381371 6.37336832,3.96587903 5.97679804,5.32894355 C5.34185219,7.50999194 4.10591094,8.43394355 1.88179459,8.61684677 C0.433482373,8.73515323 -0.01581947,8.02966935 0.330908641,6.76241129 C0.677636751,5.49297581 1.48161256,4.46450806 2.50951694,3.66975 C5.27106187,1.53442742 8.3475515,0.299104839 11.904404,0.503056452 C15.3926333,0.703379032 17.4953948,2.72837903 17.5387358,6.24491129 C17.5719639,8.93257258 17.3559812,11.6245887 17.2122335,14.31225 C17.1558902,15.3545081 17.1941748,16.3771694 17.6181944,17.3316048 C18.1736817,18.583621 19.0376126,19.2832984 20.5047059,18.7650726 C20.995904,18.5916048 21.6250711,18.0770081 21.9790227,18.8746694 C22.2780757,19.5474919 21.6120688,19.8690242 21.2198326,20.2660403 C19.9752232,21.5238629 18.1541782,21.6037016 16.7333153,22.5000726 L15.1983211,22.5000726 C14.0194455,21.7328952 12.844904,20.9584597 11.6566379,20.2050726 C11.3135215,19.9873306 10.8837232,19.9837016 10.5832255,20.2275726 C9.21870588,21.3344274 7.52118283,21.7430565 5.9905227,22.5000726 L4.45625081,22.5000726 Z" id="Fill-27" fill="#262626" mask="url(#mask-6)"></path>
                        </g>
                        <path d="M63.6570734,35.9642857 C63.4981882,35.2938443 62.8308704,35.4555553 62.3889479,35.3452031 C59.3922994,34.5977234 57.7221574,31.8458596 58.5830934,29.0308383 C58.7087235,28.6199674 58.9274678,28.3978749 59.3656953,28.3590088 C59.899254,28.3125082 60.2465844,28.5755489 60.4276396,29.0086291 C60.9124241,30.1648977 61.5893489,31.1997095 62.5219681,32.0839149 C63.2247579,32.7508862 64.0162278,33.283908 65.037527,33.3984243 C66.2051484,33.5282096 67.2981307,33.3671926 67.9248034,32.301149 C68.5950772,31.1601493 68.395547,30.0496872 67.555303,29.0405549 C66.722449,28.0397509 65.4853616,27.5726628 64.3539512,26.9730133 C60.3411765,24.8450904 58.9348578,22.58183 59.7669728,19.5558209 C60.5761788,16.6144846 63.5092732,14.9140895 67.7622232,14.9286644 C68.3497289,14.9307465 68.9387126,14.9335226 69.5232623,14.9827994 C73.3180318,15.3013632 74.3881051,16.5284237 74.0222996,20.0819023 C73.9757426,20.5323335 73.9720476,20.9619435 73.3860199,21.0625791 C72.8022092,21.1639088 72.4016707,20.9494508 72.1215894,20.4365561 C71.7077489,19.6765837 71.3109054,18.8916258 70.7684788,18.215632 C69.8787217,17.1086402 68.5958162,16.9052868 67.2390106,17.2398135 C66.3566436,17.4577417 65.7765279,18.0414283 65.6686338,18.9339622 C65.5097486,20.2477776 66.4386727,20.9668017 67.4451919,21.5657572 C68.6556753,22.2868635 69.9651848,22.8615276 71.1653223,23.5944326 C73.7473913,25.1719827 75.0901559,27.4095637 74.5085622,30.3161981 C73.9380535,33.1714737 71.774259,34.6109101 68.8906776,35.3181356 C68.1952778,35.4888692 67.3136497,35.2556721 66.7970881,35.9642857 L63.6570734,35.9642857 Z" id="Fill-30" fill="#272626"></path>
                        <path d="M18.3214286,37.3214286 C19.7871684,36.4851164 21.4134614,36.0344861 22.7207242,34.8108885 C23.0093047,34.5414725 23.4203762,34.5454816 23.7497871,34.7860316 C24.8875001,35.6183346 26.0127565,36.4738908 27.1428571,37.3214286 L18.3214286,37.3214286 Z" id="Fill-32" fill="#F5F4F4"></path>
                        <path d="M9.23303368,16.4691066 C9.23303368,21.415079 9.23859682,26.3610515 9.22955671,31.3077415 C9.22607975,32.8504429 9.53274791,34.1118703 11.3685845,34.1929518 C11.9749669,34.2202182 12.2559055,34.5969244 12.2093142,35.1931964 C12.159246,35.8368258 11.7503551,35.9918134 11.1738746,35.9595243 C7.79565706,35.7744002 4.41674415,35.7736826 1.03922203,35.9595243 C0.471781626,35.9910959 0.0642815303,35.8791604 0.00656394002,35.2125698 C-0.0462859017,34.5983594 0.219354092,34.2180656 0.827127272,34.2073026 C2.74849718,34.1721433 2.87575403,32.8497253 2.87297246,31.32855 C2.85767382,23.2110705 2.86532314,15.095026 2.88479414,6.97754654 C2.88757571,5.96797404 2.74988796,5.09114562 1.79094149,4.56232193 C1.2881726,4.28607075 0.825041094,3.93304327 0.961338054,3.23990394 C1.08303177,2.62210584 1.63934589,2.60632006 2.09482808,2.43411153 C3.93831401,1.74025467 5.8040525,1.09519022 7.60164251,0.288680284 C9.10994918,-0.388673261 9.3728076,0.152348532 9.3533366,1.63477695 C9.28796969,6.57859678 9.32830247,11.5238517 9.32830247,16.4691066 L9.23303368,16.4691066 Z" id="Fill-34" fill="#252424"></path>
                        <path d="M87.6231424,27.1428571 C86.3373583,27.0092417 85.0763902,27.3481517 84.400927,26.3272461 C83.7394229,25.3279138 84.4986404,24.4232257 85.0135745,23.5839536 C85.4385502,22.8915193 85.9558107,22.2011728 86.5956008,21.6687987 C87.4820008,20.9318259 88.1442805,19.2191818 89.4370441,19.7947026 C90.9849483,20.4843533 92.794197,21.2888297 92.8996654,23.4844379 C93.0276234,26.1428289 93.2455398,26.1532676 90.4327901,26.7343557 C89.4385951,26.9396503 88.4157065,27.030815 87.6231424,27.1428571" id="Fill-42" fill="#F7F7F7"></path>
                        <path d="M110.01426,27.1241311 C109.36851,27.091632 108.827559,27.1925866 108.433019,27.0217936 C107.11686,26.4506397 104.834388,27.2976899 104.543106,25.2813647 C104.195573,22.8736676 106.001053,20.3615587 108.099356,19.730247 C108.722759,19.5421673 108.961641,19.9072632 109.284516,20.1873084 C110.408029,21.1608975 111.478371,22.183581 112.291338,23.388121 C112.917824,24.3153817 113.777026,25.3263102 113.033412,26.4146833 C112.326015,27.4484303 110.96285,27.0563671 110.01426,27.1241311" id="Fill-46" fill="#F8F8F8"></path>
                        <path d="M101.785714,28.2197083 C101.141781,30.5007871 100.69166,32.8358694 99.1566139,34.6377619 C98.34766,35.5877677 97.4979774,35.445533 96.7655651,34.5213881 C95.3878154,32.7833871 94.8737926,30.6209639 94.3506409,28.4752743 C94.2930591,28.2394842 94.3204456,27.9108994 94.4342048,27.7078157 C95.3597267,26.0572852 100.636185,26.0489184 101.638951,27.6880397 C101.732346,27.8416836 101.742177,28.0561765 101.785714,28.2197083" id="Fill-48" fill="#F6F6F6"></path>
                        <path d="M109.840817,8.82167567 C113.296708,8.80216692 114.086536,9.93785489 112.620046,12.2301331 C112.147085,12.9686786 111.589835,13.6981665 110.916295,14.2931834 C110.059347,15.050541 109.321809,16.7039076 108.117554,16.1876224 C106.555067,15.518751 104.752197,14.7049574 104.598446,12.5373959 C104.398648,9.72256189 104.202751,9.72674234 107.255143,9.20279304 C108.26272,9.03000125 109.280444,8.90319437 109.840817,8.82167567" id="Fill-50" fill="#F7F7F7"></path>
                        <path d="M103.142857,14.25 C102.191199,13.7037399 101.327974,13.2094193 100.428571,12.692711 C101.157138,11.880485 102.045486,11.6342202 103.142857,11.5357143" id="Fill-52" fill="#F1F0F0"></path>
                        <path d="M98.377956,16.2873626 C99.7428825,16.5106534 100.495398,17.3511939 100.423901,18.8360065 C100.360349,20.1451732 99.1571918,21.2040267 97.8565396,21.0134473 C96.4114507,20.8029566 95.5527747,19.9410826 95.6936004,18.4456032 C95.8322596,16.9792796 96.7385998,16.2461178 98.377956,16.2873626" id="Fill-56" fill="#2D2C2C"></path>
                    </g>
                </g>
            </g>
        </g>
    </g>
</svg>