<svg xmlns="http://www.w3.org/2000/svg" xmlns:xlink="http://www.w3.org/1999/xlink" width="375" height="760" viewBox="0 0 375 760">
    <defs>
        <linearGradient id="b" x1="50%" x2="50%" y1="0%" y2="100%">
            <stop offset="0%" stop-color="#627389"/>
            <stop offset="100%" stop-color="#333F51"/>
        </linearGradient>
        <path id="a" d="M0 37.864C62.5 12.621 125 0 187.5 0s125 12.621 187.5 37.864V760H0V37.864z"/>
        <linearGradient id="c" x1="50%" x2="50%" y1="-7.43%" y2="100%">
            <stop offset="0%" stop-color="#FFF"/>
            <stop offset="100%" stop-opacity="0"/>
        </linearGradient>
        <linearGradient id="e" x1="50%" x2="50%" y1="0%" y2="100%">
            <stop offset="0%" stop-color="#FFF"/>
            <stop offset="100%" stop-opacity="0"/>
        </linearGradient>
        <linearGradient id="f" x1="50%" x2="50%" y1="0%" y2="100%">
            <stop offset="0%" stop-color="#4ADFD1"/>
            <stop offset="100%" stop-color="#24BCA5"/>
        </linearGradient>
    </defs>
    <g fill="none" fill-rule="evenodd">
        <mask id="d" fill="#fff">
            <use xlink:href="#a"/>
        </mask>
        <use fill="url(#b)" xlink:href="#a"/>
        <path fill="url(#c)" fill-opacity=".4" d="M165.01 492c81.667 107.824 161.643 130.819 239.926 68.983 117.425-92.753 234.85 87.835 117.425 166.732C444.078 780.314 306.291 783.841 109 738.3V492" mask="url(#d)" opacity=".22" transform="matrix(-1 0 0 1 680 0)"/>
        <circle cx="350.5" cy="557.5" r="80.5" fill="url(#e)" fill-opacity=".4" mask="url(#d)" opacity=".22" transform="matrix(-1 0 0 1 701 0)"/>
        <g fill="url(#f)" fill-opacity=".7" mask="url(#d)">
            <g transform="translate(-166 -79)">
                <path d="M331.778 35.5c.032 39.61-23.182 64.602-69.64 74.977-69.688 15.562-11.534 108.043-164.362 116.949C-4.11 233.363-26.37 157.555 30.997 0H331.78l-.002 35.5z"/>
                <circle cx="166" cy="196.5" r="80.5"/>
            </g>
        </g>
    </g>
</svg>
