<?xml version="1.0" encoding="utf-8"?>
<!-- Generated by IcoMoon.io -->
<svg version="1.1" xmlns="http://www.w3.org/2000/svg" xmlns:xlink="http://www.w3.org/1999/xlink" width="32" height="916" viewBox="0 0 32 916">
<svg id="ic-currency-amg" width="21" height="21" viewBox="0 0 32 32" x="0" y="0">
<path fill="#fff" stroke="#9aa5ad" stroke-width="1.2" stroke-miterlimit="4" stroke-linecap="butt" stroke-linejoin="miter" d="M30.133 15.733c0 7.953-6.447 14.4-14.4 14.4s-14.4-6.447-14.4-14.4c0-7.953 6.447-14.4 14.4-14.4s14.4 6.447 14.4 14.4z"></path>
<path fill="#9aa5ad" d="M7.497 12.079h1.277l2.64 6.854h-1.286l-0.643-1.814h-2.736l-0.643 1.814h-1.238l2.63-6.854zM7.074 16.207h2.093l-1.027-2.947h-0.029l-1.037 2.947zM12.047 12.079h1.69l1.891 5.366h0.019l1.843-5.366h1.67v6.854h-1.142v-5.29h-0.019l-1.901 5.29h-0.989l-1.901-5.29h-0.019v5.29h-1.142v-6.854zM26.581 18.933h-0.768l-0.182-0.806c-0.32 0.365-0.64 0.618-0.96 0.758s-0.688 0.211-1.104 0.211c-0.512 0-0.971-0.094-1.378-0.283s-0.75-0.446-1.032-0.773c-0.282-0.326-0.498-0.707-0.648-1.142s-0.226-0.899-0.226-1.392c0-0.486 0.075-0.947 0.226-1.382s0.366-0.816 0.648-1.142c0.282-0.326 0.626-0.586 1.032-0.778s0.866-0.288 1.378-0.288c0.371 0 0.725 0.050 1.061 0.149s0.635 0.246 0.898 0.442c0.262 0.195 0.48 0.44 0.653 0.734s0.282 0.634 0.326 1.018h-1.171c-0.032-0.224-0.101-0.421-0.206-0.59s-0.238-0.312-0.398-0.427c-0.16-0.115-0.339-0.202-0.538-0.259s-0.406-0.086-0.624-0.086c-0.365 0-0.68 0.074-0.946 0.221s-0.482 0.344-0.648 0.59c-0.166 0.246-0.29 0.526-0.37 0.84s-0.12 0.634-0.12 0.96c0 0.326 0.040 0.646 0.12 0.96s0.203 0.594 0.37 0.84c0.166 0.246 0.382 0.443 0.648 0.59s0.581 0.221 0.946 0.221c0.307 0.006 0.579-0.034 0.816-0.12s0.437-0.211 0.6-0.374c0.163-0.163 0.286-0.363 0.37-0.6s0.128-0.499 0.134-0.787h-1.824v-0.912h2.918v3.61z"></path>
</svg>
<svg id="ic-currency-bms" width="21" height="21" viewBox="0 0 32 32" x="0" y="34">
<path fill="#fff" stroke="#9aa5ad" stroke-width="1.2" stroke-miterlimit="4" stroke-linecap="butt" stroke-linejoin="miter" d="M30.133 15.733c0 7.953-6.447 14.4-14.4 14.4s-14.4-6.447-14.4-14.4c0-7.953 6.447-14.4 14.4-14.4s14.4 6.447 14.4 14.4z"></path>
<path fill="#9aa5ad" d="M6.863 14.949h1.958c0.288 0 0.528-0.082 0.72-0.245s0.288-0.398 0.288-0.706c0-0.346-0.086-0.589-0.259-0.73s-0.422-0.211-0.749-0.211h-1.958v1.891zM5.663 12.079h3.331c0.614 0 1.107 0.141 1.478 0.422s0.557 0.707 0.557 1.277c0 0.346-0.085 0.642-0.254 0.888s-0.411 0.437-0.725 0.571v0.019c0.422 0.090 0.742 0.29 0.96 0.6s0.326 0.699 0.326 1.166c0 0.269-0.048 0.52-0.144 0.754s-0.246 0.435-0.451 0.605c-0.205 0.17-0.467 0.304-0.787 0.403s-0.701 0.149-1.142 0.149h-3.149v-6.854zM6.863 17.954h2.122c0.365 0 0.648-0.094 0.85-0.283s0.302-0.456 0.302-0.802c0-0.339-0.101-0.6-0.302-0.782s-0.485-0.274-0.85-0.274h-2.122v2.141zM12.402 12.079h1.69l1.891 5.366h0.019l1.843-5.366h1.67v6.854h-1.142v-5.29h-0.019l-1.901 5.29h-0.989l-1.901-5.29h-0.019v5.29h-1.142v-6.854zM21.743 16.649c0 0.262 0.045 0.486 0.134 0.672s0.214 0.338 0.374 0.456c0.16 0.118 0.344 0.205 0.552 0.259s0.434 0.082 0.677 0.082c0.262 0 0.486-0.030 0.672-0.091s0.336-0.139 0.451-0.235c0.115-0.096 0.198-0.206 0.25-0.331s0.077-0.251 0.077-0.379c0-0.262-0.059-0.456-0.178-0.581s-0.248-0.213-0.389-0.264c-0.243-0.090-0.526-0.174-0.85-0.254s-0.722-0.184-1.195-0.312c-0.294-0.077-0.539-0.178-0.734-0.302s-0.35-0.264-0.466-0.418c-0.115-0.154-0.197-0.317-0.245-0.49s-0.072-0.349-0.072-0.528c0-0.346 0.072-0.645 0.216-0.898s0.334-0.462 0.571-0.629c0.237-0.166 0.506-0.29 0.806-0.37s0.605-0.12 0.912-0.12c0.358 0 0.696 0.046 1.013 0.139s0.595 0.232 0.835 0.418c0.24 0.186 0.43 0.414 0.571 0.686s0.211 0.587 0.211 0.946h-1.2c-0.032-0.442-0.182-0.754-0.451-0.936s-0.611-0.274-1.027-0.274c-0.141 0-0.285 0.014-0.432 0.043s-0.282 0.077-0.403 0.144c-0.122 0.067-0.222 0.158-0.302 0.274s-0.12 0.259-0.12 0.432c0 0.243 0.075 0.434 0.226 0.571s0.347 0.242 0.59 0.312c0.026 0.006 0.126 0.034 0.302 0.082s0.373 0.101 0.59 0.158c0.218 0.058 0.43 0.114 0.638 0.168s0.357 0.094 0.446 0.12c0.224 0.070 0.419 0.166 0.586 0.288s0.306 0.261 0.418 0.418c0.112 0.157 0.195 0.325 0.25 0.504s0.082 0.358 0.082 0.538c0 0.384-0.078 0.712-0.235 0.984s-0.363 0.494-0.619 0.667c-0.256 0.173-0.547 0.299-0.874 0.379s-0.659 0.12-0.998 0.12c-0.39 0-0.758-0.048-1.104-0.144s-0.646-0.243-0.902-0.442c-0.256-0.198-0.461-0.453-0.614-0.763s-0.234-0.677-0.24-1.099h1.2z"></path>
</svg>
<svg id="ic-currency-chf" width="21" height="21" viewBox="0 0 32 32" x="0" y="68">
<path fill="#fff" stroke="#9aa5ad" stroke-width="1.2" stroke-miterlimit="4" stroke-linecap="butt" stroke-linejoin="miter" d="M30.133 15.733c0 7.953-6.447 14.4-14.4 14.4s-14.4-6.447-14.4-14.4c0-7.953 6.447-14.4 14.4-14.4s14.4 6.447 14.4 14.4z"></path>
<path fill="#9aa5ad" d="M11.49 14.258c-0.051-0.198-0.122-0.381-0.211-0.547s-0.205-0.31-0.346-0.432c-0.141-0.122-0.306-0.216-0.494-0.283s-0.408-0.101-0.658-0.101c-0.365 0-0.68 0.074-0.946 0.221s-0.482 0.344-0.648 0.59c-0.166 0.246-0.29 0.526-0.37 0.84s-0.12 0.634-0.12 0.96c0 0.326 0.040 0.646 0.12 0.96s0.203 0.594 0.37 0.84c0.166 0.246 0.382 0.443 0.648 0.59s0.581 0.221 0.946 0.221c0.269 0 0.506-0.046 0.71-0.139s0.381-0.221 0.528-0.384c0.147-0.163 0.262-0.354 0.346-0.571s0.138-0.451 0.163-0.701h1.171c-0.026 0.41-0.114 0.784-0.264 1.123s-0.354 0.632-0.61 0.878c-0.256 0.246-0.557 0.437-0.902 0.571s-0.726 0.202-1.142 0.202c-0.512 0-0.971-0.094-1.378-0.283s-0.75-0.446-1.032-0.773c-0.282-0.326-0.498-0.707-0.648-1.142s-0.226-0.899-0.226-1.392c0-0.486 0.075-0.947 0.226-1.382s0.366-0.816 0.648-1.142c0.282-0.326 0.626-0.586 1.032-0.778s0.866-0.288 1.378-0.288c0.384 0 0.746 0.053 1.085 0.158s0.638 0.259 0.898 0.461c0.259 0.202 0.469 0.446 0.629 0.734s0.259 0.618 0.298 0.989h-1.2zM13.765 12.079h1.2v2.726h3.12v-2.726h1.2v6.854h-1.2v-3.091h-3.12v3.091h-1.2v-6.854zM20.725 12.079h4.733v1.037h-3.533v1.795h3.101v0.979h-3.101v3.043h-1.2v-6.854z"></path>
</svg>
<svg id="ic-currency-euro" width="21" height="21" viewBox="0 0 32 32" x="0" y="102">
<path fill="#fff" stroke="#9aa5ad" stroke-width="1.2" stroke-miterlimit="4" stroke-linecap="butt" stroke-linejoin="miter" d="M30.133 15.733c0 7.953-6.447 14.4-14.4 14.4s-14.4-6.447-14.4-14.4c0-7.953 6.447-14.4 14.4-14.4s14.4 6.447 14.4 14.4z"></path>
<path fill="#9aa5ad" d="M16.799 21.569c-1.411 0-2.542-0.493-3.394-1.478-0.75-0.885-1.21-2.066-1.378-3.545h-1.109l0.319-0.756h0.739c-0.011-0.034-0.017-0.084-0.017-0.151v-0.185c0-0.090 0.003-0.188 0.008-0.294s0.014-0.227 0.025-0.361h-1.075l0.302-0.756h0.857c0.246-1.378 0.762-2.475 1.546-3.293 0.851-0.918 1.943-1.378 3.276-1.378 1.389 0 2.43 0.431 3.125 1.294l-0.454 0.991c-0.739-0.885-1.635-1.327-2.688-1.327-1.030 0-1.87 0.375-2.52 1.126-0.571 0.65-0.958 1.512-1.159 2.587h5.594l-0.302 0.756h-5.393c-0.034 0.28-0.050 0.521-0.050 0.722v0.134c0 0.056 0.006 0.101 0.017 0.134h5.107l-0.319 0.756h-4.738c0.146 1.165 0.498 2.111 1.058 2.839 0.672 0.84 1.557 1.26 2.654 1.26 0.582 0 1.12-0.129 1.613-0.386 0.392-0.224 0.829-0.577 1.31-1.058v1.294c-0.851 0.717-1.837 1.075-2.957 1.075z"></path>
</svg>
<svg id="ic-currency-loc" width="21" height="21" viewBox="0 0 32 32" x="0" y="136">
<path fill="#fff" stroke="#9aa5ad" stroke-width="1.2" stroke-miterlimit="4" stroke-linecap="butt" stroke-linejoin="miter" d="M30.133 15.733c0 7.953-6.447 14.4-14.4 14.4s-14.4-6.447-14.4-14.4c0-7.953 6.447-14.4 14.4-14.4s14.4 6.447 14.4 14.4z"></path>
<path fill="#9aa5ad" d="M6.863 12.079h1.2v5.818h3.485v1.037h-4.685v-6.854zM15.292 12.895c-0.365 0-0.68 0.074-0.946 0.221s-0.482 0.344-0.648 0.59c-0.166 0.246-0.29 0.526-0.37 0.84s-0.12 0.634-0.12 0.96c0 0.326 0.040 0.646 0.12 0.96s0.203 0.594 0.37 0.84c0.166 0.246 0.382 0.443 0.648 0.59s0.581 0.221 0.946 0.221c0.365 0 0.68-0.074 0.946-0.221s0.482-0.344 0.648-0.59c0.166-0.246 0.29-0.526 0.37-0.84s0.12-0.634 0.12-0.96c0-0.326-0.040-0.646-0.12-0.96s-0.203-0.594-0.37-0.84c-0.166-0.246-0.382-0.443-0.648-0.59s-0.581-0.221-0.946-0.221zM15.292 11.916c0.512 0 0.971 0.096 1.378 0.288s0.75 0.451 1.032 0.778c0.282 0.326 0.498 0.707 0.648 1.142s0.226 0.896 0.226 1.382c0 0.493-0.075 0.957-0.226 1.392s-0.366 0.816-0.648 1.142c-0.282 0.326-0.626 0.584-1.032 0.773s-0.866 0.283-1.378 0.283c-0.512 0-0.971-0.094-1.378-0.283s-0.75-0.446-1.032-0.773c-0.282-0.326-0.498-0.707-0.648-1.142s-0.226-0.899-0.226-1.392c0-0.486 0.075-0.947 0.226-1.382s0.366-0.816 0.648-1.142c0.282-0.326 0.626-0.586 1.032-0.778s0.866-0.288 1.378-0.288zM24.297 14.258c-0.051-0.198-0.122-0.381-0.211-0.547s-0.205-0.31-0.346-0.432c-0.141-0.122-0.306-0.216-0.494-0.283s-0.408-0.101-0.658-0.101c-0.365 0-0.68 0.074-0.946 0.221s-0.482 0.344-0.648 0.59c-0.166 0.246-0.29 0.526-0.37 0.84s-0.12 0.634-0.12 0.96c0 0.326 0.040 0.646 0.12 0.96s0.203 0.594 0.37 0.84c0.166 0.246 0.382 0.443 0.648 0.59s0.581 0.221 0.946 0.221c0.269 0 0.506-0.046 0.71-0.139s0.381-0.221 0.528-0.384c0.147-0.163 0.262-0.354 0.346-0.571s0.138-0.451 0.163-0.701h1.171c-0.026 0.41-0.114 0.784-0.264 1.123s-0.354 0.632-0.61 0.878c-0.256 0.246-0.557 0.437-0.902 0.571s-0.726 0.202-1.142 0.202c-0.512 0-0.971-0.094-1.378-0.283s-0.75-0.446-1.032-0.773c-0.282-0.326-0.498-0.707-0.648-1.142s-0.226-0.899-0.226-1.392c0-0.486 0.075-0.947 0.226-1.382s0.366-0.816 0.648-1.142c0.282-0.326 0.626-0.586 1.032-0.778s0.866-0.288 1.378-0.288c0.384 0 0.746 0.053 1.085 0.158s0.638 0.259 0.898 0.461c0.259 0.202 0.469 0.446 0.629 0.734s0.259 0.618 0.298 0.989h-1.2z"></path>
</svg>
<svg id="ic-big-books" width="32" height="32" viewBox="0 0 32 32" x="0" y="170">
<path fill="#556080" d="M21.425 28.203h-20.612v-28.202h20.612c0.898 0 1.625 0.728 1.625 1.625v24.951c0 0.897-0.728 1.625-1.625 1.625z"></path>
<path fill="#d75a4a" d="M17.085 0.002h2.712v28.202h-2.712z"></path>
<path fill="#424a60" d="M0.814 9.226h16.271v9.763h-16.271z"></path>
<path fill="#424a60" d="M19.797 9.226h3.254v9.763h-3.254z"></path>
<path fill="#ecba16" d="M6.237 30.915l-1.627-1.085-1.627 1.085v-2.712h3.254v2.712z"></path>
<path fill="#e0e2e3" d="M26.847 3.797h2.169v2.169h-2.169z"></path>
<path fill="#d75a4a" d="M29.017 0h-1.093c-0.149 0-0.29 0.030-0.419 0.085-0.064 0.027-0.125 0.061-0.183 0.099-0.286 0.194-0.475 0.521-0.475 0.893v2.72h2.169v-3.797z"></path>
<path fill="#d75a4a" d="M30.11 0v0c0.149 0 0.29 0.030 0.419 0.085-0.129-0.054-0.271-0.085-0.419-0.085z"></path>
<path fill="#db7b1b" d="M29.017 5.966h2.169v20.61h-2.169z"></path>
<path fill="#c4c4c4" d="M29.017 3.797h2.169v2.169h-2.169z"></path>
<path fill="#d75a4a" d="M31.186 1.077v0c0-0.372-0.188-0.699-0.475-0.893 0.286 0.194 0.475 0.521 0.475 0.893z"></path>
<path fill="#b74c44" d="M31.186 3.797v-2.72c0-0.372-0.188-0.699-0.475-0.893-0.058-0.039-0.119-0.072-0.183-0.099-0.129-0.054-0.271-0.085-0.419-0.085h-1.093v3.797h2.169z"></path>
<path fill="#ecd6bd" d="M31.186 26.576h-4.339l2.169 3.797 2.169-3.797z"></path>
<path fill="#4c4c4c" d="M28.475 31.458c0 0.3 0.242 0.542 0.542 0.542s0.542-0.242 0.542-0.542v-2.169h-1.085v2.169z"></path>
<path fill="#ed8a19" d="M26.847 5.966h2.169v20.61h-2.169z"></path>
</svg>
<svg id="ic-big-charts" width="32" height="32" viewBox="0 0 32 32" x="0" y="204">
<path fill="#556080" d="M0.271 0h31.458v3.254h-31.458z"></path>
<path fill="#ecf0f1" d="M1.356 3.254h29.288v22.78h-29.288z"></path>
<path fill="none" stroke="#8697cb" stroke-width="1.0847" stroke-miterlimit="4" stroke-linecap="round" stroke-linejoin="miter" d="M19.254 23.322v-1.627"></path>
<path fill="none" stroke="#f3d55b" stroke-width="1.0847" stroke-miterlimit="4" stroke-linecap="round" stroke-linejoin="miter" d="M21.424 23.322v-3.797"></path>
<path fill="none" stroke="#8697cb" stroke-width="1.0847" stroke-miterlimit="4" stroke-linecap="round" stroke-linejoin="miter" d="M23.593 23.322v-2.712"></path>
<path fill="none" stroke="#71c285" stroke-width="1.0847" stroke-miterlimit="4" stroke-linecap="round" stroke-linejoin="miter" d="M25.763 23.322v-6.508"></path>
<path fill="none" stroke="#8697cb" stroke-width="1.0847" stroke-miterlimit="4" stroke-linecap="round" stroke-linejoin="miter" d="M27.932 23.322v-4.339"></path>
<path fill="#26b99a" d="M16 11.661c0 3.145-2.55 5.695-5.695 5.695s-5.695-2.55-5.695-5.695c0-3.145 2.55-5.695 5.695-5.695s5.695 2.55 5.695 5.695z"></path>
<path fill="#f3d55b" d="M10.041 5.972c-0.003 0.003-0.005 0.005-0.008 0.008v5.932c0 0.011 0.009 0.020 0.020 0.020h5.932c0.003-0.003 0.005-0.005 0.008-0.008 0.151-3.354-2.599-6.104-5.953-5.953z"></path>
<path fill="#d1d4d1" d="M24.678 6.508c0 0.3-0.243 0.542-0.542 0.542s-0.542-0.243-0.542-0.542c0-0.3 0.243-0.542 0.542-0.542s0.542 0.243 0.542 0.542z"></path>
<path fill="#d1d4d1" d="M28.475 9.22c0 0.3-0.243 0.542-0.542 0.542s-0.542-0.243-0.542-0.542c0-0.3 0.243-0.542 0.542-0.542s0.542 0.243 0.542 0.542z"></path>
<path fill="none" stroke="#556080" stroke-width="1.0847" stroke-miterlimit="4" stroke-linecap="round" stroke-linejoin="miter" d="M16 26.034v0z"></path>
<path fill="none" stroke="#556080" stroke-width="1.0847" stroke-miterlimit="4" stroke-linecap="round" stroke-linejoin="miter" d="M17.627 29.831c0 0.899-0.728 1.627-1.627 1.627s-1.627-0.728-1.627-1.627c0-0.899 0.728-1.627 1.627-1.627s1.627 0.728 1.627 1.627v0z"></path>
</svg>
<svg id="ic-big-home" width="100" height="100" viewBox="0 0 55 55" x="0" y="238">
<path fill="#b12621" d="M28.689 14.948l-12.689-9.782-12.689 9.782c-0.655 0.505-1.586 0.427-2.149-0.179-0.637-0.686-0.551-1.771 0.187-2.348l13.563-10.611 1.089-1.011 1.089 1.011 13.563 10.611c0.738 0.577 0.823 1.661 0.187 2.348-0.563 0.606-1.494 0.684-2.149 0.179z"></path>
<path fill="#e0e2e3" d="M16 5.166l-12.267 9.456v16.044h24.533v-16.044l-12.267-9.456z"></path>
<path fill="#e0e2e3" d="M31.467 25.333c-0.295 0-0.533 0.239-0.533 0.533v0.533h-0.533v-0.533c0-0.294-0.238-0.533-0.533-0.533s-0.533 0.239-0.533 0.533v0.533h-1.067c-0.295 0-0.533 0.239-0.533 0.533s0.238 0.533 0.533 0.533h1.067v1.6h-1.067c-0.295 0-0.533 0.239-0.533 0.533s0.238 0.533 0.533 0.533h1.067v0.533c0 0.294 0.238 0.533 0.533 0.533s0.533-0.239 0.533-0.533v-0.533h0.533v0.533c0 0.294 0.238 0.533 0.533 0.533s0.533-0.239 0.533-0.533v-4.8c0-0.294-0.238-0.533-0.533-0.533v0zM30.4 27.467h0.533v1.6h-0.533v-1.6z"></path>
<path fill="#e0e2e3" d="M3.733 27.467c0.295 0 0.533-0.238 0.533-0.533s-0.238-0.533-0.533-0.533h-1.067v-0.533c0-0.294-0.238-0.533-0.533-0.533s-0.533 0.239-0.533 0.533v0.533h-0.533v-0.533c0-0.294-0.238-0.533-0.533-0.533s-0.533 0.239-0.533 0.533v4.8c0 0.294 0.238 0.533 0.533 0.533s0.533-0.239 0.533-0.533v-0.533h0.533v0.533c0 0.294 0.238 0.533 0.533 0.533s0.533-0.239 0.533-0.533v-0.533h1.067c0.295 0 0.533-0.239 0.533-0.533s-0.238-0.533-0.533-0.533h-1.067v-1.6h1.067zM1.067 27.467h0.533v1.6h-0.533v-1.6z"></path>
<path fill="#556080" d="M8 14.133h6.4v4.267h-6.4z"></path>
<path fill="#556080" d="M8 21.6h6.4v5.333h-6.4z"></path>
<path fill="#556080" d="M17.6 14.133h6.4v4.267h-6.4z"></path>
<path fill="#556080" d="M17.6 21.6h6.4v9.067h-6.4z"></path>
<path fill="#7383bf" d="M17.6 14.133h6.4v3.2h-6.4z"></path>
<path fill="#7383bf" d="M8 14.133h6.4v1.475h-6.4z"></path>
<path fill="#7383bf" d="M11.733 23.733v-2.133h-1.067v2.133h-2.667v1.067h2.667v2.133h1.067v-2.133h2.667v-1.067h-2.667z"></path>
</svg>
<svg id="ic-big-map" width="32" height="32" viewBox="0 0 32 32" x="0" y="272">
<path fill="#42b05c" d="M10.868 14.034l-9.506-9.506-1.362 0.303v25.962l1.267-0.281 9.601-9.601v-6.876z"></path>
<path fill="#48a0dc" d="M5.659 29.535l5.209-1.158v-4.051l-5.209 5.209z"></path>
<path fill="#42b05c" d="M10.868 2.415l-6.712 1.491 6.712 6.712v-8.203z"></path>
<path fill="#42b05c" d="M29.856 1.922l-8.724 2.908v5.816l8.724-8.724z"></path>
<path fill="#48a0dc" d="M21.132 14.061v16.127l10.868-4.226v-22.769l-10.868 10.868z"></path>
<path fill="#3d994f" d="M16.014 15.764l5.118-5.118v-5.816l-10.264-2.415v8.203l5.146 5.146z"></path>
<path fill="#3d994f" d="M10.868 14.034v6.876l3.438-3.438-3.438-3.438z"></path>
<path fill="#4393bf" d="M10.868 24.326v4.051l10.264 1.811v-16.127l-10.264 10.265z"></path>
<path fill="#f0ce49" d="M10.868 10.618l-6.712-6.712-2.794 0.621 9.506 9.506v-3.416z"></path>
<path fill="#f0ce49" d="M10.868 20.91l-9.601 9.601 4.391-0.976 5.209-5.209v-3.416z"></path>
<path fill="#f0ce49" d="M21.132 14.061l10.868-10.868v-1.986l-2.144 0.715-8.724 8.724v3.415z"></path>
<path fill="#d6b445" d="M16.014 15.764l-5.146-5.146v3.416l3.438 3.438-3.438 3.438v3.416l10.264-10.265v-3.415l-5.118 5.118z"></path>
<path fill="none" stroke="#556080" stroke-width="0.9057" stroke-miterlimit="4" stroke-linecap="round" stroke-linejoin="miter" d="M14.34 12.075v6.641"></path>
<path fill="#dd342e" d="M17.509 9.358c0 1.834-1.487 3.321-3.321 3.321s-3.321-1.487-3.321-3.321c0-1.834 1.487-3.321 3.321-3.321s3.321 1.487 3.321 3.321z"></path>
<path fill="#f86363" d="M13.714 7.87c0 0.404-0.319 0.731-0.712 0.731s-0.712-0.327-0.712-0.731c0-0.404 0.319-0.731 0.712-0.731s0.712 0.327 0.712 0.731z"></path>
</svg>
<svg id="ic-big-money" width="32" height="32" viewBox="0 0 32 32" x="0" y="306">
<path fill="#4fba6f" d="M0 9.143h32v18.286h-32z"></path>
<path fill="#71c285" d="M29.714 9.143h-28.571v-2.286l28.571 2.286z"></path>
<path fill="#ebebd6" d="M8.571 18.286l3.482-6.286h-5.782c0.009 0.094 0.014 0.189 0.014 0.286 0 1.735-1.407 3.143-3.143 3.143-0.097 0-0.191-0.006-0.286-0.014v5.743c0.094-0.009 0.189-0.014 0.286-0.014 1.735 0 3.143 1.407 3.143 3.143 0 0.097-0.006 0.191-0.014 0.286h5.782l-3.482-6.286z"></path>
<path fill="#ebebd6" d="M25.714 12.286c0-0.097 0.006-0.191 0.014-0.286h-5.782l-2.59 6.467 2.59 6.104h5.782c-0.009-0.094-0.014-0.189-0.014-0.286 0-1.736 1.407-3.143 3.143-3.143 0.097 0 0.191 0.006 0.286 0.014v-5.743c-0.094 0.009-0.189 0.014-0.286 0.014-1.735 0-3.143-1.407-3.143-3.143z"></path>
<path fill="#4b7f55" d="M16 25.714c-4.103 0-7.429-3.326-7.429-7.429s3.326-7.429 7.429-7.429c4.103 0 7.429 3.326 7.429 7.429s-3.326 7.429-7.429 7.429z"></path>
<path fill="#ebebd6" d="M3.143 13.714c-0.788 0-1.429-0.641-1.429-1.429s0.641-1.429 1.429-1.429c0.788 0 1.429 0.641 1.429 1.429s-0.641 1.429-1.429 1.429z"></path>
<path fill="#ebebd6" d="M28.857 13.714c-0.788 0-1.429-0.641-1.429-1.429s0.641-1.429 1.429-1.429c0.788 0 1.429 0.641 1.429 1.429s-0.641 1.429-1.429 1.429z"></path>
<path fill="#ebebd6" d="M3.143 25.714c-0.788 0-1.429-0.641-1.429-1.429s0.641-1.429 1.429-1.429c0.788 0 1.429 0.641 1.429 1.429s-0.641 1.429-1.429 1.429z"></path>
<path fill="#ebebd6" d="M28.857 25.714c-0.788 0-1.429-0.641-1.429-1.429s0.641-1.429 1.429-1.429c0.788 0 1.429 0.641 1.429 1.429s-0.641 1.429-1.429 1.429z"></path>
<path fill="#7fcc8f" d="M2.857 4.571v2.423l26.857 2.149h1.714l-28.571-4.571z"></path>
<path fill="#eaead6" d="M19.182 20.014c0.406-0.126 0.704-0.501 0.704-0.946v-0.497c0-0.381-0.219-0.71-0.536-0.877-0.219-1.871-1.456-2.628-3.444-2.628-0.094 0-0.186 0.003-0.277 0.011-0.675 0.054-1.359-0.073-1.921-0.452-0.234-0.158-0.43-0.325-0.569-0.501-0.063-0.080-0.189-0.029-0.178 0.073 0.020 0.174 0.050 0.377 0.094 0.599 0.164 0.826 0.066 0.705-0.253 1.485-0.177 0.431-0.291 0.909-0.343 1.415-0.315 0.167-0.533 0.495-0.533 0.875v0.497c0 0.446 0.298 0.821 0.704 0.946 0.269 1.007 0.821 1.812 1.783 2.226v0.57c0 0.146-0.083 0.279-0.214 0.343l-1.921 0.946c-0.166 0.090-0.303 0.214-0.426 0.351 1.185 0.798 2.611 1.264 4.146 1.264 1.478 0 2.853-0.437 4.010-1.182-0.142-0.173-0.321-0.317-0.529-0.421l-1.874-0.958c-0.128-0.065-0.209-0.197-0.209-0.34v-0.574c0.962-0.414 1.515-1.219 1.783-2.226z"></path>
</svg>
<svg id="ic-big-pills" width="32" height="32" viewBox="0 0 32 32" x="0" y="340">
<path fill="#f87400" d="M8.201 0h21.553v6.796h-21.553z"></path>
<path fill="#e7bb4e" d="M9.335 6.796v16.103c1.633 0.43 2.776 1.389 2.79 2.521 0.001 0.067 0.024 0.196 0.041 0.193 0.001 0.007 0.005 0.012 0.005 0.019 0 0 0.028 3.185 0 3.212-0.002 0.941-0.802 1.781-2.017 2.306h17.331c0.569 0 1.134-0.461 1.134-1.029v-23.325h-19.285z"></path>
<path fill="#f3edbf" d="M28.454 27.752h-8.909v-15.858h8.909c0.091 0 0.166 0.074 0.166 0.165v15.528c0 0.091-0.074 0.165-0.166 0.165z"></path>
<path fill="#c9be7d" d="M22.381 19.257h6.239v1.133h-6.239z"></path>
<path fill="#c9be7d" d="M22.381 21.522h6.239v1.133h-6.239z"></path>
<path fill="#c9be7d" d="M22.381 14.726h6.239v1.133h-6.239z"></path>
<path fill="#c9be7d" d="M22.381 16.991h6.239v1.133h-6.239z"></path>
<path fill="#c9be7d" d="M22.381 23.788h6.239v1.133h-6.239z"></path>
<path fill="#c15505" d="M10.47 0h1.134v6.796h-1.134z"></path>
<path fill="#c15505" d="M12.739 0h1.134v6.796h-1.134z"></path>
<path fill="#c15505" d="M15.007 0h1.134v6.796h-1.134z"></path>
<path fill="#c15505" d="M17.276 0h1.134v6.796h-1.134z"></path>
<path fill="#c15505" d="M19.545 0h1.134v6.796h-1.134z"></path>
<path fill="#c15505" d="M21.814 0h1.134v6.796h-1.134z"></path>
<path fill="#c15505" d="M24.082 0h1.134v6.796h-1.134z"></path>
<path fill="#c15505" d="M26.351 0h1.134v6.796h-1.134z"></path>
<path fill="#c8c9cb" d="M12.126 25.421c0.020 1.564-2.112 2.861-4.762 2.897s-4.814-1.202-4.835-2.766c-0.020-1.564 2.112-2.86 4.762-2.897s4.814 1.202 4.835 2.766z"></path>
<path fill="#e0e4e7" d="M12.167 25.614c-0.019 0.004-0.041 0.003-0.061 0.006-0.155 1.473-2.206 2.663-4.742 2.698-2.568 0.035-4.671-1.128-4.817-2.623-0.006 0.002-0.012 0.003-0.018 0.006v3.039c0 0.012-0.001 0.151 0 0.211 0.020 1.564 2.185 2.802 4.835 2.766 2.636-0.036 4.804-1.32 4.807-2.872 0.028-0.027 0-3.212 0-3.212 0-0.007-0.003-0.012-0.005-0.019z"></path>
<path fill="#f3edbf" d="M11.604 24.169v-12.322h-2.269v11.053c0.98 0.258 1.78 0.706 2.269 1.269z"></path>
<path fill="#ececec" d="M5.286 28.065l4.888-4.88c-0.372-0.159-0.784-0.286-1.227-0.376l-4.819 4.812c0.345 0.18 0.735 0.33 1.159 0.444z"></path>
<path fill="#f9d991" d="M13.873 6.796h2.269v24.354h-2.269z"></path>
</svg>
<svg id="ic-big-setting" width="32" height="32" viewBox="0 0 32 32" x="0" y="374">
<path fill="#c7cbc7" d="M3.556 0c-0.327 0-0.593 0.265-0.593 0.593v23.704c0 0.328 0.265 0.593 0.593 0.593s0.593-0.265 0.593-0.593v-23.704c0-0.327-0.265-0.593-0.593-0.593z"></path>
<path fill="#c7cbc7" d="M28.444 7.111c-0.327 0-0.593 0.265-0.593 0.593v23.704c0 0.328 0.265 0.593 0.593 0.593s0.593-0.265 0.593-0.593v-23.704c0-0.327-0.265-0.593-0.593-0.593z"></path>
<path fill="#c7cbc7" d="M16 0c-0.327 0-0.593 0.265-0.593 0.593v11.259c0 0.328 0.265 0.593 0.593 0.593s0.593-0.265 0.593-0.593v-11.259c0-0.327-0.265-0.593-0.593-0.593z"></path>
<path fill="#c7cbc7" d="M16 18.963c-0.327 0-0.593 0.265-0.593 0.593v11.852c0 0.328 0.265 0.593 0.593 0.593s0.593-0.265 0.593-0.593v-11.852c0-0.328-0.265-0.593-0.593-0.593z"></path>
<path fill="#7383bf" d="M3.556 24.296c1.964 0 3.556 1.592 3.556 3.556s-1.592 3.556-3.556 3.556c-1.964 0-3.556-1.592-3.556-3.556s1.592-3.556 3.556-3.556z"></path>
<path fill="#25b99a" d="M15.877 12.199c2.031 0 3.678 1.647 3.678 3.678s-1.647 3.678-3.678 3.678c-2.031 0-3.678-1.647-3.678-3.678s1.647-3.678 3.678-3.678z"></path>
<path fill="#7383bf" d="M28.444 7.704c1.964 0 3.556-1.592 3.556-3.556s-1.592-3.556-3.556-3.556-3.556 1.592-3.556 3.556c0 1.964 1.592 3.556 3.556 3.556z"></path>
</svg>
<svg id="ic-big-userconfig" width="32" height="32" viewBox="0 0 32 32" x="0" y="408">
<path fill="#edf0f1" d="M10.095 23.079l-4.289 2.34c-0.251 0.137-0.478 0.305-0.688 0.49 2.501 2.108 5.729 3.38 9.255 3.38 3.5 0 6.708-1.252 9.201-3.332-0.23-0.194-0.479-0.369-0.756-0.507l-4.592-2.296c-0.593-0.297-0.968-0.903-0.968-1.566v-1.802c0.129-0.146 0.277-0.336 0.434-0.558 0.626-0.884 1.099-1.857 1.428-2.877 0.589-0.182 1.023-0.726 1.023-1.372v-1.923c0-0.423-0.188-0.801-0.481-1.066v-2.78c0 0 0.571-4.327-5.288-4.327s-5.288 4.327-5.288 4.327v2.78c-0.292 0.265-0.481 0.643-0.481 1.066v1.923c0 0.507 0.266 0.952 0.664 1.21 0.481 2.092 1.739 3.597 1.739 3.597v1.757c0 0.641-0.35 1.231-0.913 1.538z"></path>
<path fill="#556080" d="M14.619 0.545c-7.937-0.136-14.481 6.188-14.616 14.125-0.077 4.5 1.929 8.545 5.122 11.234 0.209-0.182 0.433-0.349 0.682-0.485l4.289-2.34c0.562-0.306 0.913-0.897 0.913-1.538v-1.757c0 0-1.259-1.505-1.739-3.597-0.398-0.258-0.664-0.703-0.664-1.21v-1.923c0-0.423 0.188-0.801 0.481-1.066v-2.78c0 0-0.571-4.327 5.288-4.327s5.288 4.327 5.288 4.327v2.78c0.293 0.265 0.481 0.643 0.481 1.066v1.923c0 0.646-0.434 1.191-1.023 1.372-0.328 1.020-0.802 1.993-1.428 2.877-0.157 0.222-0.305 0.412-0.434 0.558v1.802c0 0.663 0.375 1.27 0.968 1.566l4.592 2.296c0.276 0.137 0.524 0.311 0.754 0.505 3.097-2.583 5.098-6.444 5.172-10.793 0.136-7.937-6.188-14.481-14.125-14.616z"></path>
<path fill="#bdc3c7" d="M32 24.323l-0.783-0.15c-1.162-0.223-1.695-1.582-0.995-2.536l0.491-0.67-1.062-1.062-0.66 0.447c-0.98 0.664-2.317 0.080-2.497-1.090l-0.127-0.822h-1.502l-0.194 1.012c-0.219 1.136-1.528 1.679-2.487 1.030l-0.853-0.578-1.062 1.062 0.491 0.67c0.7 0.955 0.167 2.313-0.995 2.536l-0.783 0.15v1.502l0.822 0.126c1.17 0.18 1.753 1.517 1.089 2.497l-0.447 0.661 1.062 1.062 0.67-0.492c0.955-0.7 2.312-0.167 2.536 0.995l0.15 0.783h1.502l0.089-0.578c0.184-1.196 1.571-1.77 2.546-1.055l0.471 0.346 1.062-1.062-0.447-0.661c-0.664-0.98-0.081-2.316 1.089-2.497l0.822-0.126v-1.502z"></path>
<path fill="#fff" d="M27.661 24.949c0 1.198-0.971 2.169-2.169 2.169s-2.169-0.971-2.169-2.169c0-1.198 0.971-2.169 2.169-2.169s2.169 0.971 2.169 2.169v0z"></path>
<path fill="none" stroke="#edf0f1" stroke-width="1.0847" stroke-miterlimit="4" stroke-linecap="butt" stroke-linejoin="miter" d="M27.661 24.949c0 1.198-0.971 2.169-2.169 2.169s-2.169-0.971-2.169-2.169c0-1.198 0.971-2.169 2.169-2.169s2.169 0.971 2.169 2.169v0z"></path>
</svg>
<svg id="ic-arrows" width="17" height="17" viewBox="0 0 32 32" x="0" y="442">
<path fill="#9aa5ad" d="M0 22c0-0.444 0.222-0.667 0.667-0.667h20.667v-5.333l10.667 8-10.667 8v-5.333h-20.667c-0.444 0-0.667-0.222-0.667-0.667v-4zM32 10c0 0.444-0.222 0.667-0.667 0.667h-20.667v5.333l-10.667-8 10.667-8v5.333h20.667c0.444 0 0.667 0.222 0.667 0.667v4z"></path>
</svg>
<svg id="ic-calendar" width="21" height="21" viewBox="0 0 32 32" x="0" y="476">
<path fill="#9aa5ad" d="M1.333 4v5.333h29.333v-5.333h-29.333zM24 2.667h8v29.333h-32v-29.333h8v-2.667h1.333v2.667h13.333v-2.667h1.333v2.667zM30.667 30.667v-20h-29.333v20h29.333zM1.333 9.333v-5.333h6.667v2.667h1.333v-2.667h13.333v2.667h1.333v-2.667h6.667v5.333h-29.333z"></path>
</svg>
<svg id="ic-export" width="32" height="32" viewBox="0 0 32 32" x="0" y="510">
<path fill="#fff" d="M9.794 0h10.867v10.82h6.976l-12.446 12.463-12.523-12.443h7.186z"></path>
<path fill="#fff" d="M2.674 26.78h24.889v3.556h-24.889v-3.556z"></path>
</svg>
<svg id="ic-power" width="17" height="17" viewBox="0 0 32 32" x="0" y="544">
<path fill="#9aa5ad" d="M31.059 17.231c0 2-0.399 3.91-1.196 5.731s-1.869 3.391-3.216 4.712c-1.346 1.321-2.948 2.372-4.804 3.154s-3.804 1.173-5.843 1.173c-2.039 0-3.987-0.391-5.843-1.173s-3.457-1.833-4.804-3.154c-1.346-1.321-2.418-2.891-3.216-4.712s-1.196-3.731-1.196-5.731c0-2.333 0.526-4.532 1.578-6.596s2.533-3.795 4.441-5.192c0.562-0.41 1.186-0.571 1.873-0.481s1.232 0.41 1.637 0.962c0.418 0.538 0.578 1.144 0.48 1.817s-0.422 1.215-0.971 1.625c-1.281 0.949-2.271 2.109-2.971 3.481s-1.049 2.833-1.049 4.385c0 1.333 0.265 2.606 0.794 3.817s1.245 2.26 2.147 3.144c0.902 0.885 1.971 1.587 3.206 2.106s2.533 0.779 3.892 0.779c1.36 0 2.657-0.26 3.892-0.779s2.304-1.221 3.206-2.106c0.902-0.885 1.618-1.933 2.147-3.144s0.794-2.484 0.794-3.817c0-1.551-0.35-3.013-1.049-4.385s-1.69-2.532-2.971-3.481c-0.549-0.41-0.873-0.952-0.971-1.625s0.062-1.279 0.48-1.817c0.405-0.551 0.954-0.872 1.647-0.962s1.314 0.071 1.863 0.481c1.909 1.397 3.389 3.128 4.441 5.192s1.578 4.263 1.578 6.596zM18.51 2.462v12.308c0 0.667-0.248 1.244-0.745 1.731s-1.085 0.731-1.765 0.731c-0.68 0-1.268-0.244-1.765-0.731s-0.745-1.064-0.745-1.731v-12.308c0-0.667 0.248-1.244 0.745-1.731s1.085-0.731 1.765-0.731c0.68 0 1.268 0.244 1.765 0.731s0.745 1.064 0.745 1.731z"></path>
</svg>
<svg id="ic-reporting" width="21" height="21" viewBox="0 0 32 32" x="0" y="578">
<path fill="#9aa5ad" d="M0 1.778h32v7.111h-32v-7.111z"></path>
<path fill="#9aa5ad" d="M17.778 12.444h14.222v3.556h-14.222v-3.556z"></path>
<path fill="#9aa5ad" d="M0 12.444h14.222v3.556h-14.222v-3.556z"></path>
<path fill="#9aa5ad" d="M0 19.556h8.889v3.556h-8.889v-3.556z"></path>
<path fill="#9aa5ad" d="M23.111 19.556h8.889v3.556h-8.889v-3.556z"></path>
<path fill="#9aa5ad" d="M12.444 19.556h7.111v3.556h-7.111v-3.556z"></path>
<path fill="#9aa5ad" d="M14.222 26.667h3.556v3.556h-3.556v-3.556z"></path>
<path fill="#9aa5ad" d="M7.111 26.667h3.556v3.556h-3.556v-3.556z"></path>
<path fill="#9aa5ad" d="M0 26.667h3.556v3.556h-3.556v-3.556z"></path>
<path fill="#9aa5ad" d="M21.333 26.667h3.556v3.556h-3.556v-3.556z"></path>
<path fill="#9aa5ad" d="M28.444 26.667h3.556v3.556h-3.556v-3.556z"></path>
</svg>
<svg id="ic-search-main" width="17" height="17" viewBox="0 0 32 32" x="0" y="612">
<path fill="#9aa5ad" d="M31.709 26.917c0.388 0.389 0.388 0.778 0 1.167l-3.579 3.667c-0.166 0.167-0.388 0.25-0.666 0.25-0.222 0-0.416-0.083-0.583-0.25l-6.991-7.167c-2.108 1.278-4.328 1.917-6.658 1.917-3.606 0-6.713-1.292-9.321-3.875s-3.912-5.708-3.912-9.375c0-3.667 1.304-6.792 3.912-9.375s5.715-3.875 9.321-3.875c3.606 0 6.7 1.292 9.28 3.875s3.87 5.708 3.87 9.375c0 2.333-0.583 4.5-1.748 6.5l7.074 7.167zM13.233 5.167c-2.219 0-4.12 0.792-5.701 2.375s-2.372 3.486-2.372 5.708c0 2.222 0.791 4.125 2.372 5.708s3.482 2.375 5.701 2.375c2.219 0 4.106-0.792 5.659-2.375s2.33-3.486 2.33-5.708c0-2.222-0.777-4.125-2.33-5.708s-3.44-2.375-5.659-2.375z"></path>
</svg>
<svg id="ic-search-secondary" width="32" height="32" viewBox="0 0 32 32" x="0" y="646">
<path fill="#9aa5ad" d="M11.925 20.161c2.288 0 4.232-0.801 5.834-2.402s2.402-3.546 2.402-5.834c0-2.288-0.801-4.232-2.402-5.834s-3.546-2.402-5.834-2.402c-2.288 0-4.232 0.801-5.834 2.402s-2.402 3.546-2.402 5.834c0 2.288 0.801 4.232 2.402 5.834s3.546 2.402 5.834 2.402zM22.906 20.161l9.094 9.094-2.745 2.745-9.094-9.094v-1.458l-0.515-0.515c-2.173 1.887-4.747 2.831-7.721 2.831-3.317 0-6.134-1.144-8.45-3.432s-3.475-5.090-3.475-8.408c0-3.317 1.158-6.134 3.475-8.45s5.133-3.475 8.45-3.475c3.317 0 6.12 1.158 8.407 3.475s3.432 5.133 3.432 8.45c0 2.974-0.944 5.548-2.831 7.721l0.515 0.515h1.458z"></path>
</svg>
<svg id="ic-usergroup-active" width="32" height="32" viewBox="0 0 32 32" x="0" y="680">
<path fill="#2962ff" d="M22.981 10.948c0 1.915-0.685 3.552-2.054 4.91s-3.012 2.038-4.927 2.038c-1.915 0-3.552-0.679-4.91-2.038s-2.038-2.995-2.038-4.91c0-1.915 0.679-3.552 2.038-4.91s2.995-2.038 4.91-2.038c1.915 0 3.557 0.679 4.927 2.038s2.054 2.995 2.054 4.91zM30.63 15.825c0 0.958-0.34 1.776-1.019 2.455s-1.509 1.019-2.489 1.019c-0.98 0-1.804-0.34-2.472-1.019s-1.002-1.498-1.002-2.455c0-0.958 0.334-1.776 1.002-2.455s1.492-1.019 2.472-1.019c0.98 0 1.809 0.34 2.489 1.019s1.019 1.498 1.019 2.455zM27.123 20.134c1.425 0 2.594 0.301 3.507 0.902s1.37 1.303 1.37 2.104c0 0.401-0.468 0.757-1.403 1.069s-2.093 0.468-3.474 0.468c-0.757 0-1.492-0.056-2.205-0.167l0.033 0.367c0 0.735-0.857 1.381-2.572 1.937s-3.841 0.835-6.38 0.835c-2.672 0-4.827-0.278-6.463-0.835s-2.455-1.203-2.455-1.937l0.033-0.401c-0.891 0.134-1.637 0.2-2.238 0.2-1.447 0-2.622-0.156-3.524-0.468s-1.353-0.668-1.353-1.069c0-0.802 0.445-1.503 1.336-2.104s2.071-0.902 3.541-0.902c1.759 0 3.106 0.445 4.042 1.336 1.759-1.447 4.12-2.171 7.081-2.171s5.322 0.724 7.081 2.171c0.935-0.891 2.283-1.336 4.042-1.336zM8.351 15.825c0 0.958-0.334 1.776-1.002 2.455s-1.492 1.019-2.472 1.019c-0.98 0-1.804-0.34-2.472-1.019s-1.002-1.498-1.002-2.455c0-0.958 0.334-1.776 1.002-2.455s1.492-1.019 2.472-1.019c0.958 0 1.776 0.34 2.455 1.019s1.019 1.498 1.019 2.455z"></path>
</svg>
<svg id="ic-usergroup-inactive" width="32" height="32" viewBox="0 0 32 32" x="0" y="714">
<path fill="#c4c4c4" d="M22.981 10.948c0 1.915-0.685 3.552-2.054 4.91s-3.012 2.038-4.927 2.038c-1.915 0-3.552-0.679-4.91-2.038s-2.038-2.995-2.038-4.91c0-1.915 0.679-3.552 2.038-4.91s2.995-2.038 4.91-2.038c1.915 0 3.557 0.679 4.927 2.038s2.054 2.995 2.054 4.91zM30.63 15.825c0 0.958-0.34 1.776-1.019 2.455s-1.509 1.019-2.489 1.019c-0.98 0-1.804-0.34-2.472-1.019s-1.002-1.498-1.002-2.455c0-0.958 0.334-1.776 1.002-2.455s1.492-1.019 2.472-1.019c0.98 0 1.809 0.34 2.489 1.019s1.019 1.498 1.019 2.455zM27.123 20.134c1.425 0 2.594 0.301 3.507 0.902s1.37 1.303 1.37 2.104c0 0.401-0.468 0.757-1.403 1.069s-2.093 0.468-3.474 0.468c-0.757 0-1.492-0.056-2.205-0.167l0.033 0.367c0 0.735-0.857 1.381-2.572 1.937s-3.841 0.835-6.38 0.835c-2.672 0-4.827-0.278-6.463-0.835s-2.455-1.203-2.455-1.937l0.033-0.401c-0.891 0.134-1.637 0.2-2.238 0.2-1.447 0-2.622-0.156-3.524-0.468s-1.353-0.668-1.353-1.069c0-0.802 0.445-1.503 1.336-2.104s2.071-0.902 3.541-0.902c1.759 0 3.106 0.445 4.042 1.336 1.759-1.447 4.12-2.171 7.081-2.171s5.322 0.724 7.081 2.171c0.935-0.891 2.283-1.336 4.042-1.336zM8.351 15.825c0 0.958-0.334 1.776-1.002 2.455s-1.492 1.019-2.472 1.019c-0.98 0-1.804-0.34-2.472-1.019s-1.002-1.498-1.002-2.455c0-0.958 0.334-1.776 1.002-2.455s1.492-1.019 2.472-1.019c0.958 0 1.776 0.34 2.455 1.019s1.019 1.498 1.019 2.455z"></path>
</svg>
<svg id="ic-currency-dollar" width="21" height="21" viewBox="0 0 32 32" x="0" y="748">
<path fill="#fff" stroke="#9aa5ad" stroke-width="1.2" stroke-miterlimit="4" stroke-linecap="butt" stroke-linejoin="miter" d="M30.667 16c0 8.1-6.567 14.667-14.667 14.667s-14.667-6.566-14.667-14.667c0-8.1 6.566-14.667 14.667-14.667s14.667 6.566 14.667 14.667z"></path>
<path fill="#9aa5ad" d="M13.012 17.373c0.011 0.95 0.244 1.675 0.699 2.177s1.106 0.801 1.952 0.898v-4.792c-0.45-0.097-0.881-0.213-1.293-0.348s-0.771-0.324-1.076-0.567c-0.305-0.243-0.549-0.55-0.731-0.923s-0.273-0.839-0.273-1.4c0-0.486 0.088-0.923 0.265-1.311s0.418-0.72 0.723-0.996c0.305-0.275 0.664-0.486 1.076-0.631s0.849-0.219 1.309-0.219v-1.263h0.627v1.263c0.471 0 0.913 0.084 1.325 0.251s0.776 0.405 1.092 0.712c0.316 0.308 0.562 0.677 0.739 1.109s0.26 0.912 0.249 1.441h-1.012c-0.011-0.809-0.236-1.454-0.675-1.934s-1.012-0.72-1.719-0.72v4.662c0.46 0.097 0.913 0.216 1.357 0.356s0.841 0.335 1.189 0.583c0.348 0.248 0.629 0.559 0.843 0.931s0.321 0.845 0.321 1.416c0 0.529-0.104 0.996-0.313 1.4s-0.487 0.742-0.835 1.012c-0.348 0.27-0.744 0.472-1.189 0.607s-0.902 0.202-1.373 0.202v1.376h-0.627v-1.392c-1.253-0.119-2.166-0.491-2.739-1.117s-0.881-1.554-0.924-2.784h1.012zM15.663 10.121c-0.321 0-0.624 0.046-0.908 0.138s-0.535 0.235-0.755 0.429c-0.22 0.194-0.391 0.445-0.514 0.753s-0.185 0.672-0.185 1.093c0 0.378 0.067 0.685 0.201 0.923s0.311 0.432 0.53 0.583c0.22 0.151 0.471 0.27 0.755 0.356s0.576 0.167 0.876 0.243v-4.517zM16.289 20.449c0.343 0 0.675-0.043 0.996-0.13s0.608-0.227 0.859-0.421c0.252-0.194 0.455-0.44 0.61-0.737s0.233-0.656 0.233-1.077c0-0.389-0.083-0.712-0.249-0.971s-0.378-0.472-0.635-0.639c-0.257-0.167-0.546-0.305-0.867-0.413s-0.637-0.2-0.948-0.275v4.662z"></path>
</svg>
<svg id="ic-eye" width="21" height="21" viewBox="0 0 32 32" x="0" y="782">
<path fill="#9aa5ad" d="M16 6.984c5.238 0 10.571 3.071 16 9.214-1.286 1.286-2.107 2.095-2.464 2.429s-1.226 1.071-2.607 2.214c-1.381 1.143-2.5 1.929-3.357 2.357s-1.988 0.881-3.393 1.357c-1.405 0.476-2.798 0.714-4.179 0.714-1.714 0-3.286-0.214-4.714-0.643s-2.857-1.167-4.286-2.214c-1.429-1.048-2.548-1.94-3.357-2.679s-2.024-1.94-3.643-3.607c3.095-3.095 5.845-5.393 8.25-6.893s4.988-2.25 7.75-2.25zM16 22.627c1.762 0 3.274-0.643 4.536-1.929s1.893-2.809 1.893-4.571c0-1.762-0.631-3.286-1.893-4.571s-2.774-1.929-4.536-1.929c-1.762 0-3.274 0.643-4.536 1.929s-1.893 2.809-1.893 4.571c0 1.762 0.631 3.286 1.893 4.571s2.774 1.929 4.536 1.929zM16 13.841c0 0.667 0.214 1.214 0.643 1.643s0.976 0.643 1.643 0.643c0.476 0 0.952-0.167 1.429-0.5v0.5c0 1.048-0.357 1.94-1.071 2.679s-1.595 1.107-2.643 1.107c-1.048 0-1.929-0.369-2.643-1.107s-1.071-1.631-1.071-2.679c0-1.048 0.357-1.94 1.071-2.679s1.595-1.107 2.643-1.107h0.571c-0.381 0.476-0.571 0.976-0.571 1.5z"></path>
</svg>
<svg id="ic-gearsetting" width="21" height="21" viewBox="0 0 32 32" x="0" y="816">
<path fill="#9aa5ad" d="M16 21.634c1.589 0 2.948-0.551 4.075-1.653s1.692-2.429 1.692-3.981c0-1.552-0.564-2.88-1.692-3.981s-2.486-1.653-4.075-1.653c-1.589 0-2.948 0.551-4.075 1.653s-1.692 2.429-1.692 3.981c0 1.552 0.564 2.88 1.692 3.981s2.486 1.653 4.075 1.653zM28.226 17.577l3.46 2.629c0.359 0.25 0.41 0.601 0.154 1.052l-3.306 5.559c-0.205 0.351-0.538 0.451-1 0.3l-4.075-1.577c-1.076 0.751-1.999 1.277-2.768 1.577l-0.615 4.207c-0.103 0.451-0.359 0.676-0.769 0.676h-6.613c-0.41 0-0.666-0.225-0.769-0.676l-0.615-4.207c-0.974-0.401-1.897-0.926-2.768-1.577l-4.075 1.577c-0.461 0.15-0.795 0.050-1-0.3l-3.306-5.559c-0.256-0.451-0.205-0.801 0.154-1.052l3.46-2.629c-0.051-0.351-0.077-0.876-0.077-1.577s0.026-1.227 0.077-1.577l-3.46-2.629c-0.359-0.25-0.41-0.601-0.154-1.052l3.306-5.559c0.205-0.351 0.538-0.451 1-0.3l4.075 1.577c1.076-0.751 1.999-1.277 2.768-1.577l0.615-4.207c0.103-0.451 0.359-0.676 0.769-0.676h6.613c0.41 0 0.666 0.225 0.769 0.676l0.615 4.207c0.974 0.401 1.897 0.926 2.768 1.577l4.075-1.577c0.461-0.15 0.795-0.050 1 0.3l3.306 5.559c0.256 0.451 0.205 0.801-0.154 1.052l-3.46 2.629c0.051 0.351 0.077 0.876 0.077 1.577s-0.026 1.227-0.077 1.577z"></path>
</svg>
<svg id="ic-knob" width="21" height="21" viewBox="0 0 32 32" x="0" y="850">
<path fill="#9aa5ad" d="M0 24.095h20.214c0.476-1.138 1.357-1.707 2.643-1.707s2.167 0.569 2.643 1.707h6.5v2.277h-6.5c-0.476 1.138-1.357 1.707-2.643 1.707s-2.167-0.569-2.643-1.707h-20.214v-2.277zM0 14.419h6.5c0.476-1.138 1.357-1.707 2.643-1.707s2.167 0.569 2.643 1.707h20.214v2.277h-20.214c-0.476 1.138-1.357 1.707-2.643 1.707s-2.167-0.569-2.643-1.707h-6.5v-2.277zM0 4.743h20.214c0.476-1.138 1.357-1.708 2.643-1.708s2.167 0.569 2.643 1.708h6.5v2.277h-6.5c-0.476 1.138-1.357 1.707-2.643 1.707s-2.167-0.569-2.643-1.707h-20.214v-2.277z"></path>
</svg>
<svg id="ic-paper" width="21" height="21" viewBox="0 0 32 32" x="0" y="884">
<path fill="#9aa5ad" d="M28.5 6.786c0.333 0.333 0.619 0.786 0.857 1.357s0.357 1.095 0.357 1.571v20.571c0 0.476-0.167 0.881-0.5 1.214s-0.738 0.5-1.214 0.5h-24c-0.476 0-0.881-0.167-1.214-0.5s-0.5-0.738-0.5-1.214v-28.571c0-0.476 0.167-0.881 0.5-1.214s0.738-0.5 1.214-0.5h16c0.476 0 1 0.119 1.571 0.357s1.024 0.524 1.357 0.857l5.571 5.571zM20.571 2.429v6.714h6.714c-0.119-0.345-0.25-0.589-0.393-0.732l-5.589-5.589c-0.143-0.143-0.387-0.274-0.732-0.393zM27.429 29.714v-18.286h-7.429c-0.476 0-0.881-0.167-1.214-0.5s-0.5-0.738-0.5-1.214v-7.429h-13.714v27.429h22.857zM9.143 14.286c0-0.167 0.054-0.304 0.161-0.411s0.244-0.161 0.411-0.161h12.571c0.167 0 0.304 0.054 0.411 0.161s0.161 0.244 0.161 0.411v1.143c0 0.167-0.054 0.304-0.161 0.411s-0.244 0.161-0.411 0.161h-12.571c-0.167 0-0.304-0.054-0.411-0.161s-0.161-0.244-0.161-0.411v-1.143zM22.286 18.286c0.167 0 0.304 0.054 0.411 0.161s0.161 0.244 0.161 0.411v1.143c0 0.167-0.054 0.304-0.161 0.411s-0.244 0.161-0.411 0.161h-12.571c-0.167 0-0.304-0.054-0.411-0.161s-0.161-0.244-0.161-0.411v-1.143c0-0.167 0.054-0.304 0.161-0.411s0.244-0.161 0.411-0.161h12.571zM22.286 22.857c0.167 0 0.304 0.054 0.411 0.161s0.161 0.244 0.161 0.411v1.143c0 0.167-0.054 0.304-0.161 0.411s-0.244 0.161-0.411 0.161h-12.571c-0.167 0-0.304-0.054-0.411-0.161s-0.161-0.244-0.161-0.411v-1.143c0-0.167 0.054-0.304 0.161-0.411s0.244-0.161 0.411-0.161h12.571z"></path>
</svg>
</svg>
