<svg xmlns="http://www.w3.org/2000/svg" xmlns:xlink="http://www.w3.org/1999/xlink" width="375" height="713" viewBox="0 0 375 713">
    <defs>
        <linearGradient id="a" x1="50%" x2="50%" y1="0%" y2="100%">
            <stop offset="0%" stop-color="#788997"/>
            <stop offset="100%" stop-color="#43515E"/>
        </linearGradient>
        <path id="b" d="M0 0h375v640.025c-67.297 23.166-129.797 34.748-187.5 34.748S67.297 663.191 0 640.025V0z"/>
        <linearGradient id="d" x1="50%" x2="50%" y1="-7.43%" y2="100%">
            <stop offset="0%" stop-color="#FFF"/>
            <stop offset="100%" stop-opacity="0"/>
        </linearGradient>
        <linearGradient id="e" x1="50%" x2="50%" y1="0%" y2="100%">
            <stop offset="0%" stop-color="#FFF"/>
            <stop offset="100%" stop-opacity="0"/>
        </linearGradient>
    </defs>
    <g fill="none" fill-rule="evenodd">
        <path fill="url(#a)" fill-opacity=".1" d="M0 26h375v678.025c-67.297 23.166-129.797 34.748-187.5 34.748S67.297 723.292 0 692.328V26z" transform="translate(0 -26)"/>
        <path fill="url(#a)" fill-opacity=".1" d="M0 .898h375v684.127c-67.297 23.166-129.797 34.748-187.5 34.748S67.297 705.358 0 676.527V.898z" transform="translate(0 -26)"/>
        <g>
            <mask id="c" fill="#fff">
                <use xlink:href="#b"/>
            </mask>
            <use fill="#333F51" xlink:href="#b"/>
            <g mask="url(#c)">
                <g transform="translate(-81 372)">
                    <path fill="url(#d)" fill-opacity=".4" d="M297.945 40.131c48.08 63.057 95.162 76.505 141.249 40.342 69.13-54.243 138.26 51.367 69.13 97.507-46.087 30.76-127.204 32.823-243.353 6.19V40.13" opacity=".12" transform="matrix(-1 0 0 1 801.93 0)"/>
                    <ellipse cx="421.866" cy="62.54" fill="url(#e)" fill-opacity=".4" opacity=".12" rx="47.201" ry="47.015" transform="matrix(-1 0 0 1 843.731 0)"/>
                    <ellipse cx="94.401" cy="94.03" fill="#FFF" opacity=".02" rx="94.401" ry="94.03" transform="matrix(-1 0 0 1 188.803 0)"/>
                </g>
            </g>
        </g>
    </g>
</svg>
