<svg id="Layer_1" data-name="Layer 1" xmlns="http://www.w3.org/2000/svg" xmlns:xlink="http://www.w3.org/1999/xlink" viewBox="0 0 100 100"><defs><style>.cls-1{fill:url(#linear-gradient);}.cls-2{fill:url(#linear-gradient-2);}.cls-3{fill:url(#linear-gradient-3);}.cls-4{fill:url(#linear-gradient-4);}.cls-5{fill:url(#linear-gradient-5);}.cls-6{fill:url(#linear-gradient-6);}.cls-7{fill:url(#linear-gradient-7);}.cls-8{fill:url(#linear-gradient-8);}</style><linearGradient id="linear-gradient" x1="2.5" y1="50" x2="99.5" y2="50" gradientUnits="userSpaceOnUse"><stop offset="0" stop-color="#1277bb"/><stop offset="1" stop-color="#2eb8a3"/></linearGradient><linearGradient id="linear-gradient-2" x1="47.64" y1="23.82" x2="62.75" y2="23.82" xlink:href="#linear-gradient"/><linearGradient id="linear-gradient-3" x1="15.34" y1="30.11" x2="62.2" y2="30.11" xlink:href="#linear-gradient"/><linearGradient id="linear-gradient-4" x1="18.1" y1="70.81" x2="81.21" y2="70.81" xlink:href="#linear-gradient"/><linearGradient id="linear-gradient-5" x1="20.63" y1="59.4" x2="39.74" y2="59.4" xlink:href="#linear-gradient"/><linearGradient id="linear-gradient-6" x1="42.11" y1="56.04" x2="57.2" y2="56.04" xlink:href="#linear-gradient"/><linearGradient id="linear-gradient-7" x1="60.58" y1="54.7" x2="79.69" y2="54.7" xlink:href="#linear-gradient"/><linearGradient id="linear-gradient-8" x1="63.94" y1="33.89" x2="76.34" y2="33.89" xlink:href="#linear-gradient"/></defs><title>Artboard 7 copy</title><path class="cls-1" d="M51,98.5A48.5,48.5,0,1,1,99.5,50,48.55,48.55,0,0,1,51,98.5Zm0-94A45.5,45.5,0,1,0,96.5,50,45.55,45.55,0,0,0,51,4.5Z"/><polygon class="cls-2" points="61.22 30.69 58.24 30.36 59.4 19.94 47.64 19.94 47.64 16.94 62.75 16.94 61.22 30.69"/><path class="cls-3" d="M15.49,42.77l-.15-3c.26,0,26.47-1.59,44.6-22.32l2.26,2C43.2,41.15,16.61,42.71,15.49,42.77Z"/><rect class="cls-4" x="18.1" y="69.31" width="63.11" height="3"/><path class="cls-5" d="M39.74,72.31H20.63V46.49H39.74Zm-16.11-3H36.74V49.49H23.63Z"/><path class="cls-6" d="M57.2,72.31H42.11V39.77H57.2Zm-12.09-3H54.2V42.77H45.11Z"/><path class="cls-7" d="M77,72.31H63.26V56.2H60.58V37.09H79.69V56.2H77Zm-10.74-3H74V53.2h2.69V40.09H63.58V53.2h2.69Z"/><path class="cls-8" d="M70.14,40.09a6.2,6.2,0,1,1,6.2-6.2A6.21,6.21,0,0,1,70.14,40.09Zm0-9.4a3.2,3.2,0,1,0,3.2,3.2A3.2,3.2,0,0,0,70.14,30.69Z"/></svg>