<svg xmlns="http://www.w3.org/2000/svg" width="300" height="300" viewBox="0 0 300 300">
    <g fill="none" fill-rule="nonzero">
        <path fill="#FFAF48" d="M58.083 201.429l-38.728 21.653c21.792 39.45 60.73 66.662 105.462 73.704l7.441-43.709c-31.284-5.255-58.526-24.223-74.175-51.648z"/>
        <path fill="#F8E71C" d="M149.807 255.113a106.14 106.14 0 0 1-17.623-1.488l-7.453 44.075c42.46 7.199 81.893-2.535 116.13-28.704l-27.06-35.425a105.07 105.07 0 0 1-63.994 21.542z"/>
        <path fill="#FF3259" d="M212.897 13.929l-18.273 40.136c33.537 15.43 56.542 47.365 60.606 84.133 4.064 36.767-11.408 72.977-40.762 95.393l26.935 35.338a138.926 138.926 0 0 0 45.025-56.588 150.01 150.01 0 0 0 4.226-114.473c-13.79-37.21-41.76-67.404-77.757-83.94z"/>
        <path fill="#000" d="M44.525 150.235C44.52 114.297 62.872 80.83 93.22 61.43c30.349-19.4 68.519-22.062 101.282-7.065l18.4-40.185c-45.209-20.67-92.901-18.708-136.307 5.65-34.748 19.493-60.302 51.95-71.041 90.226a149.421 149.421 0 0 0 13.78 113.872l38.88-21.808a104.704 104.704 0 0 1-13.69-51.886z"/>
    </g>
</svg>
