<svg xmlns="http://www.w3.org/2000/svg" width="300" height="299" viewBox="0 0 300 299">
    <g fill="none" fill-rule="nonzero">
        <path fill="#53B083" d="M149.352 254.634l.74 44.268c43.445-.713 80.741-17.45 109.852-49.39l-33.203-29.597c-19.78 21.708-47.825 34.29-77.39 34.72z"/>
        <path fill="#FFAF48" d="M226.722 219.988l33.204 29.597c17.415-18.667 29.51-41.56 35.055-66.347l-43.537-9.97c-4.081 17.398-12.59 33.479-24.722 46.72z"/>
        <path fill="#F8E71C" d="M295.63 118.537l-43.723 9.146a103.95 103.95 0 0 1-.463 45.585l43.537 9.97a139.652 139.652 0 0 0 .649-64.701z"/>
        <path fill="#FF3259" d="M251.852 127.665l43.722-9.147C281.796 53.927 230.037 7.811 163.574.841l-4.722 43.903c45.91 4.823 83.455 38.3 93 82.92z"/>
        <path fill="#000" d="M147.704 254.67c-38.516.71-74.417-19.18-93.885-52.016a104.095 104.095 0 0 1 0-106.332c19.468-32.836 55.37-52.727 93.885-52.017 3.71 0 7.42.189 11.11.567L163.538.97a141.077 141.077 0 0 0-18.518-.824C63.104 3.634-1.091 70.94.259 151.92 1.608 232.9 68.013 298.081 150 298.902l-.74-44.268-1.556.037z"/>
    </g>
</svg>
