<svg xmlns="http://www.w3.org/2000/svg" width="102" height="83" viewBox="0 0 102 83">
    <g fill="#949DA9" fill-rule="evenodd">
        <path d="M21.673 38.36c-.28-3.836 1.362-8.14 4.928-12.91 3.65-4.885 8.59-9.289 14.821-13.213L27.538 0C16.103 7.859 7.944 19.816 3.061 35.873c-4.111 13.516-4.081 24.664.09 33.444C6.53 77.357 14.46 83 23.704 83 36.018 83 46 72.986 46 60.634s-9.982-22.366-22.296-22.366c-.685 0-1.362.031-2.031.092zM77.673 38.36c-.28-3.836 1.362-8.14 4.928-12.91 3.65-4.885 8.59-9.289 14.821-13.213L83.538 0C72.103 7.859 63.944 19.816 59.061 35.873c-4.111 13.516-4.081 24.664.09 33.444C62.53 77.357 70.46 83 79.704 83 92.018 83 102 72.986 102 60.634s-9.982-22.366-22.296-22.366c-.685 0-1.362.031-2.031.092z"/>
    </g>
</svg>
