<svg id="Layer_1" data-name="Layer 1" xmlns="http://www.w3.org/2000/svg" xmlns:xlink="http://www.w3.org/1999/xlink" viewBox="0 0 100 100"><defs><style>.cls-1{fill:url(#linear-gradient);}.cls-2{fill:url(#linear-gradient-2);}.cls-3{fill:url(#linear-gradient-3);}.cls-4{fill:url(#linear-gradient-4);}</style><linearGradient id="linear-gradient" x1="48.88" y1="37.49" x2="97.53" y2="37.49" gradientUnits="userSpaceOnUse"><stop offset="0" stop-color="#1277bb"/><stop offset="1" stop-color="#2eb8a3"/></linearGradient><linearGradient id="linear-gradient-2" x1="1.47" y1="62.16" x2="50.12" y2="62.16" xlink:href="#linear-gradient"/><linearGradient id="linear-gradient-3" x1="69.57" y1="29.03" x2="80.36" y2="29.03" xlink:href="#linear-gradient"/><linearGradient id="linear-gradient-4" x1="17.18" y1="69.98" x2="30.4" y2="69.98" xlink:href="#linear-gradient"/></defs><title>Artboard 3 copy</title><path class="cls-1" d="M69.65,67.69,48.88,66.21l6.84-19.66,3.54,5.38,4.67-3.08A22.3,22.3,0,1,1,89.17,47l-.72.59L66.1,62.31ZM53,63.5l10.8.77-1.85-2.81L86.72,45.13l.54-.45A19.22,19.22,0,0,0,91.31,19h0a19.3,19.3,0,1,0-23.8,28.33l2.55,1.1L58.41,56.09l-1.85-2.81Z"/><path class="cls-2" d="M23.85,92.35a22.48,22.48,0,0,1-4.54-.46A22.3,22.3,0,0,1,9.83,52.66l.72-.59L32.9,37.34,29.35,32l20.76,1.48L43.28,53.1l-3.54-5.38-4.67,3.08A22.31,22.31,0,0,1,23.85,92.35ZM12.28,54.52l-.54.45A19.22,19.22,0,0,0,7.69,80.66h0a19.3,19.3,0,1,0,23.8-28.33l-2.55-1.1,11.65-7.67,1.85,2.81L46,36.15l-10.8-.77,1.85,2.81Z"/><path class="cls-3" d="M73.8,39.71V37.18A8.74,8.74,0,0,1,69.57,36l.71-2.46a8.23,8.23,0,0,0,4.08,1.15c1.65,0,2.77-.81,2.77-2.06S76.2,30.73,74.27,30c-2.74-1-4.52-2.25-4.52-4.68,0-2.25,1.57-4,4.21-4.44V18.35H76.1v2.43a8.35,8.35,0,0,1,3.61.86L79,24a7.77,7.77,0,0,0-3.55-.89c-1.83,0-2.48.94-2.48,1.83,0,1.07.94,1.67,3.16,2.56,2.93,1.1,4.23,2.51,4.23,4.83S78.81,36.55,75.94,37v2.69Z"/><path class="cls-4" d="M30.4,77.71a8,8,0,0,1-4,1,7.38,7.38,0,0,1-5.9-2.69,7.49,7.49,0,0,1-1.65-3.89H17.18V70.58h1.46v-.42c0-.31,0-.65.05-.94H17.18V67.6h1.75a7.93,7.93,0,0,1,2-3.94,7.34,7.34,0,0,1,5.64-2.46,8.71,8.71,0,0,1,3.74.81l-.65,2.43a6.43,6.43,0,0,0-2.93-.71,4.3,4.3,0,0,0-3.32,1.44,5,5,0,0,0-1.15,2.43h6.84v1.62H21.91a5.28,5.28,0,0,0-.05.92v.44h7.21v1.59H22.15a4.84,4.84,0,0,0,1.12,2.56,4.63,4.63,0,0,0,3.5,1.41,6.77,6.77,0,0,0,3.08-.78Z"/></svg>