<svg id="Layer_1" data-name="Layer 1" xmlns="http://www.w3.org/2000/svg" xmlns:xlink="http://www.w3.org/1999/xlink" viewBox="0 0 100 100"><defs><style>.cls-1{fill:url(#linear-gradient);}.cls-2{fill:url(#linear-gradient-2);}.cls-3{fill:url(#linear-gradient-3);}.cls-4{fill:url(#linear-gradient-4);}.cls-5{fill:url(#linear-gradient-5);}</style><linearGradient id="linear-gradient" x1="23.94" y1="51.37" x2="96.5" y2="51.37" gradientUnits="userSpaceOnUse"><stop offset="0" stop-color="#1277bb"/><stop offset="1" stop-color="#2eb8a3"/></linearGradient><linearGradient id="linear-gradient-2" x1="34.02" y1="55.03" x2="51.7" y2="55.03" xlink:href="#linear-gradient"/><linearGradient id="linear-gradient-3" x1="7.06" y1="31.6" x2="61.01" y2="31.6" xlink:href="#linear-gradient"/><linearGradient id="linear-gradient-4" x1="1.5" y1="47.67" x2="59.3" y2="47.67" xlink:href="#linear-gradient"/><linearGradient id="linear-gradient-5" x1="64.79" y1="55.95" x2="77.12" y2="55.95" xlink:href="#linear-gradient"/></defs><title>Artboard 2 copy</title><path class="cls-1" d="M59.44,16.13a37.17,37.17,0,0,0-8.55,1l1.23-3.69-2.85-.95-2.62,7.87L52,25.69l2.12-2.12-3.3-3.3A34,34,0,1,1,26.82,63l-2.87.86a37.06,37.06,0,1,0,35.5-47.72Z"/><path class="cls-2" d="M48.37,60.6a1.65,1.65,0,0,0,2.06-1.11l1.21-4a1.65,1.65,0,0,0-1.1-2.06l-13.16-4a1.66,1.66,0,0,0-2.07,1.1l-1.2,4a1.65,1.65,0,0,0,1.1,2.07l13.17,4Zm-11-6.47.42-1.4,10.6,3.21-.42,1.4Z"/><path class="cls-3" d="M60.7,40.53a7.19,7.19,0,0,0-4.8-9L17,19.77a7.2,7.2,0,0,0-9,4.8l-1,3.2,52.66,16Zm-2.87-.87-.1.33L10.8,25.77l.1-.33a4.19,4.19,0,0,1,5.23-2.8L55,34.43a4.19,4.19,0,0,1,2.8,5.23Z"/><path class="cls-4" d="M47.6,66.16a7.2,7.2,0,0,0,6.87-5.11L59.3,45.13l-52.67-16L1.81,45.09a7.19,7.19,0,0,0,4.8,9l38.9,11.79A7.22,7.22,0,0,0,47.6,66.16ZM5,49.15A4.16,4.16,0,0,1,4.68,46l4-13L55.56,47.13l-4,13A4.19,4.19,0,0,1,46.38,63L7.48,51.19A4.17,4.17,0,0,1,5,49.15Z"/><path class="cls-5" d="M70.25,62.46a9.41,9.41,0,0,1-4.66-1.31l-.81,2.81a10,10,0,0,0,4.83,1.31v2.89h2.45V65.08c3.28-.54,5-2.78,5-5.31s-1.49-4.27-4.83-5.52c-2.54-1-3.61-1.7-3.61-2.92,0-1,.75-2.09,2.83-2.09a8.88,8.88,0,0,1,4.06,1l.81-2.75a9.54,9.54,0,0,0-4.12-1V43.74H69.8v2.92c-3,.54-4.8,2.51-4.8,5.07,0,2.78,2,4.21,5.16,5.34,2.21.81,3.25,1.67,3.25,3S72.13,62.46,70.25,62.46Z"/></svg>