<svg xmlns="http://www.w3.org/2000/svg" width="53" height="40" viewBox="0 0 53 40">
    <defs>
        <linearGradient id="a" x1="100%" x2="0%" y1="50%" y2="50%">
            <stop offset="0%" stop-color="#BCCADA"/>
            <stop offset="100%" stop-color="#879AB4"/>
        </linearGradient>
        <linearGradient id="b" x1="100%" x2="0%" y1="50%" y2="50%">
            <stop offset="0%" stop-color="#93A4BC"/>
            <stop offset="100%" stop-color="#5E6F85"/>
        </linearGradient>
    </defs>
    <g fill="none" fill-rule="evenodd">
        <g transform="matrix(-1 0 0 1 53 0)">
            <path fill="url(#a)" d="M3.314 34.521V5.638a14.584 14.584 0 0 1 3.314-.379c8.105 0 14.676 6.635 14.676 14.82 0 8.186-6.57 14.821-14.676 14.821-1.14 0-2.25-.13-3.314-.379z"/>
            <ellipse cx="6.628" cy="20.08" fill="url(#b)" rx="3.314" ry="3.347"/>
            <g stroke-width=".864">
                <path stroke="#93A3BC" d="M6.235 23.158c7.415 6.243 14.82 9.4 22.216 9.472 7.395.072 14.54-2.944 21.431-9.049M6.235 16.842c7.415-6.243 14.82-9.4 22.216-9.472 7.395-.072 14.54 2.944 21.431 9.049"/>
                <path stroke="#92A3BC" d="M28.322 7.393l-.003 25.313"/>
            </g>
            <path fill="url(#a)" d="M0 0a3.314 3.314 0 0 1 3.314 3.314v33.372A3.314 3.314 0 0 1 0 40V0zM3.314 4.09h3.314v31.82H3.314z"/>
        </g>
        <path fill="#20B59F" d="M.186 40a3.451 3.451 0 0 0 3.451-3.451V3.45A3.451 3.451 0 0 0 .186 0v40z"/>
    </g>
</svg>
