<svg xmlns="http://www.w3.org/2000/svg" width="91" height="21" viewBox="0 0 91 21">
    <g fill="#FFF" fill-rule="evenodd">
        <path d="M6.281 0l1.637 3.032h7.548c2.674 4.792 4.011 7.225 4.011 7.3 0 .074-1.302 2.601-3.906 7.58H8.023L6.281 21H17.21l5.751-10.332L17.313 0H6.281z"/>
        <path d="M5.437.561l1.636 2.976-5.384 9.939L0 10.612zM7.706 4.66l1.69 2.976-3.748 6.907 1.583 3.032-1.583 3.032-3.325-6.064zM27.448 8.535h3.008v-1.18H26.34v6.177h1.109v-2.246h2.85v-1.01h-2.85zM30.034 13.532l2.534-6.064h1.214l2.586 6.064h-1.214l-.475-1.123h-3.008l-.476 1.123h-1.16zm3.167-4.773l-1.108 2.527h2.217L33.2 8.76zM36.896 13.532h3.96v-1.01h-2.957V7.355h-1.003zM52.626 7.356h.897l2.85 3.874V7.356h1.056v6.176h-.633l-3.114-4.211v4.211h-1.056zM65.347 13.532h4.328V12.41h-3.272v-1.404h3.114v-1.01h-3.114V8.479h3.272V7.356l-4.328.056zM75.693 7.356H76.8v5.165h2.903v1.011h-4.011zM85.3 7.412l1.319-.056 1.478 2.583 1.583-2.583 1.32.056-2.323 3.425-.052 2.695h-1.056l-.053-2.695zM59.593 7.356h2.956c1.478 0 2.164.617 2.164 3.088 0 2.47-.686 3.032-2.164 3.088-.985.038-1.97.038-2.956 0V7.356zm1.056 1.066v4.1c.563.037 1.161.037 1.795 0 .95-.057 1.267-.506 1.267-2.05 0-1.544-.37-2.05-1.267-2.05h-1.795zM71.311 11.706v1.826h-1.055V7.412h2.847c1.362 0 1.956.8 1.956 2.302 0 1.503-.998 1.992-1.956 1.992H71.31zm0-3.171v2.126h1.596c.537 0 1.096-.243 1.096-.987 0-.743-.332-1.14-1.096-1.14H71.31zM49.09 13.588c-1.677 0-2.851-1.333-2.851-3.116 0-1.783 1.253-3.116 2.93-3.116 1.676 0 2.876 1.333 2.876 3.116 0 1.783-1.28 3.116-2.956 3.116zm.026-1.067c1.103 0 1.944-.876 1.944-2.05 0-1.172-.79-2.049-1.891-2.049-1.103 0-1.927.877-1.927 2.05 0 1.173.772 2.05 1.874 2.05zM46.023 8.26c-.23.247-.461.507-.692.78a1.81 1.81 0 0 0-1.388-.618c-1.103 0-1.927.877-1.927 2.05 0 1.173.772 2.05 1.875 2.05a1.89 1.89 0 0 0 1.355-.554l.793.656c-.533.601-1.3.964-2.175.964-1.677 0-2.85-1.333-2.85-3.116 0-1.783 1.253-3.116 2.929-3.116.845 0 1.57.339 2.08.904zM82.766 13.588c-1.677 0-2.85-1.333-2.85-3.116 0-1.783 1.253-3.116 2.929-3.116s2.877 1.333 2.877 3.116c0 1.783-1.28 3.116-2.956 3.116zm.027-1.067c1.102 0 1.944-.876 1.944-2.05 0-1.172-.79-2.049-1.892-2.049-1.103 0-1.927.877-1.927 2.05 0 1.173.772 2.05 1.875 2.05z"/>
    </g>
</svg>
