<svg xmlns="http://www.w3.org/2000/svg" width="46" height="46" viewBox="0 0 46 46">
    <defs>
        <linearGradient id="a" x1="50%" x2="50%" y1="-143.263%" y2="106.267%">
            <stop offset="0%" stop-color="#FFF"/>
            <stop offset="100%" stop-color="#FFF"/>
        </linearGradient>
        <linearGradient id="b" x1="50%" x2="50%" y1="0%" y2="100%">
            <stop offset="0%" stop-color="#202020"/>
            <stop offset="100%" stop-color="#333"/>
        </linearGradient>
    </defs>
    <g fill="none" fill-rule="evenodd">
        <circle cx="23" cy="23" r="23" fill="url(#a)"/>
        <path fill="url(#b)" fill-rule="nonzero" d="M11 12.578c0-.747.262-1.364.785-1.85.523-.485 1.203-.728 2.04-.728.822 0 1.487.24 1.995.717.523.494.785 1.136.785 1.929 0 .717-.254 1.315-.762 1.793-.523.493-1.211.74-2.063.74h-.022c-.822 0-1.488-.247-1.996-.74S11 13.326 11 12.58zm.291 19.618V17.219h4.978v14.977H11.29zm7.735 0h4.978v-8.167c0-.511.06-.905.179-1.183.21-.496.527-.916.953-1.259.426-.343.96-.514 1.603-.514 1.674 0 2.51 1.102 2.51 3.306v7.817h4.978V23.81c0-2.16-.523-3.8-1.57-4.916-1.046-1.116-2.428-1.675-4.147-1.675-1.928 0-3.43.81-4.506 2.43v.044h-.023l.023-.043v-2.08h-4.978c.03.467.045 1.919.045 4.357 0 2.437-.015 5.86-.045 10.269z"/>
    </g>
</svg>
