<svg xmlns="http://www.w3.org/2000/svg" width="46" height="46" viewBox="0 0 46 46">
    <defs>
        <linearGradient id="a" x1="50%" x2="50%" y1="-143.263%" y2="106.267%">
            <stop offset="0%" stop-color="#FFF"/>
            <stop offset="100%" stop-color="#FFF"/>
        </linearGradient>
        <linearGradient id="b" x1="50%" x2="50%" y1="0%" y2="100%">
            <stop offset="0%" stop-color="#202020"/>
            <stop offset="100%" stop-color="#333"/>
        </linearGradient>
    </defs>
    <g fill="none" fill-rule="evenodd">
        <circle cx="23" cy="23" r="23" fill="url(#a)"/>
        <path fill="url(#b)" fill-rule="nonzero" d="M33.44 17.385h-.809c-.3 0-.724.433-.724.71V28.14c0 .278.424.656.724.656h.809v2.384h-7.324v-2.384h1.532v-10.56h-.075l-3.58 12.944h-2.771l-3.534-12.945h-.09v10.56h1.534v2.385H13v-2.384h.785c.324 0 .748-.378.748-.656V18.095c0-.277-.424-.71-.748-.71H13V15h7.668l2.517 9.368h.07L25.795 15h7.645v2.385"/>
    </g>
</svg>
