<svg xmlns="http://www.w3.org/2000/svg" width="46" height="46" viewBox="0 0 46 46">
    <defs>
        <linearGradient id="a" x1="50%" x2="50%" y1="-143.263%" y2="106.267%">
            <stop offset="0%" stop-color="#FFF"/>
            <stop offset="100%" stop-color="#FFF"/>
        </linearGradient>
        <linearGradient id="b" x1="50%" x2="50%" y1="0%" y2="100%">
            <stop offset="0%" stop-color="#202020"/>
            <stop offset="100%" stop-color="#333"/>
        </linearGradient>
    </defs>
    <g fill="none" fill-rule="evenodd">
        <circle cx="23" cy="23" r="23" fill="url(#a)"/>
        <path fill="url(#b)" fill-rule="nonzero" d="M26.711 13.005V13h1.173l.429.086c.285.055.545.128.778.218.233.09.458.196.676.316.218.12.416.243.593.368.176.123.334.254.474.392.138.14.354.176.647.108.293-.067.61-.161.948-.281.338-.12.672-.256 1.003-.406.33-.15.532-.246.605-.287l.112-.067.005-.007.022-.012.023-.01.022-.012.023-.011.005-.007.006-.005.007-.004.005-.007.022-.007.023-.004-.005.034-.007.033-.01.034-.012.034-.011.023-.012.022-.011.034a.784.784 0 0 0-.023.09c-.007.038-.078.188-.214.451-.135.263-.304.53-.507.801-.203.27-.385.475-.546.613a5.19 5.19 0 0 0-.323.294.968.968 0 0 1-.191.157l-.113.075-.023.011-.022.011-.005.007-.006.005-.007.004-.005.007-.022.011-.023.012-.004.006-.007.005-.007.004-.004.007-.005.007-.007.004-.006.005-.005.007h.113l.631-.136c.421-.09.824-.199 1.207-.327l.609-.203.068-.022.033-.011.023-.012.022-.011.023-.011.023-.012.045-.006.045-.005v.045l-.011.005-.012.007-.004.006-.007.005-.007.004-.004.007-.005.007-.007.004-.006.005-.005.007-.004.006-.007.005-.011.022-.012.023-.006.005-.287.383c-.188.252-.29.38-.304.383-.015.005-.036.027-.063.068-.026.042-.185.21-.479.503-.293.293-.58.554-.861.782-.283.23-.426.513-.429.848-.004.334-.021.712-.051 1.133-.03.42-.087.875-.17 1.364-.082.489-.21 1.041-.383 1.658a15.07 15.07 0 0 1-.631 1.804 14.057 14.057 0 0 1-.779 1.578c-.27.467-.518.861-.744 1.184-.225.324-.455.628-.688.914-.233.286-.527.607-.884.965-.358.356-.553.552-.586.586-.035.034-.182.157-.442.37-.259.215-.537.43-.835.645a9.652 9.652 0 0 1-.816.535c-.248.143-.547.306-.898.49-.348.184-.726.356-1.132.513-.406.158-.834.305-1.285.44-.451.136-.887.24-1.308.316-.421.075-.899.139-1.432.192l-.8.079v.01h-1.467v-.01l-.192-.012a10.28 10.28 0 0 1-.315-.022 37.65 37.65 0 0 1-.936-.124c-.541-.075-.966-.15-1.274-.226a16.906 16.906 0 0 1-1.376-.428c-.609-.21-1.13-.424-1.563-.639a62.446 62.446 0 0 1-.812-.406 5.764 5.764 0 0 1-.365-.207l-.203-.124-.005-.007-.007-.004-.006-.005-.005-.007-.022-.01-.023-.012-.004-.007-.007-.004-.007-.005-.004-.007-.005-.006-.007-.005H10v-.045l.023.004.022.007.102.011c.067.008.251.02.552.034a10.176 10.176 0 0 0 1.996-.101c.353-.053.77-.143 1.252-.27.48-.129.923-.28 1.326-.456.401-.178.687-.31.857-.397.168-.086.425-.245.771-.478l.519-.35.004-.007.007-.004.007-.005.004-.007.005-.006.007-.005.006-.004.005-.007.022-.007.023-.004.005-.023.006-.022.007-.005.005-.007-.18-.011a84.57 84.57 0 0 1-.35-.023 3.39 3.39 0 0 1-.53-.101c-.241-.06-.5-.15-.778-.27a5.998 5.998 0 0 1-.812-.43 3.996 3.996 0 0 1-.571-.412 9.895 9.895 0 0 1-.451-.46 4.563 4.563 0 0 1-.478-.616 5.532 5.532 0 0 1-.388-.728l-.187-.41-.011-.034-.012-.034-.007-.023-.004-.022.034.004.034.007.248.034c.165.022.424.03.778.022.353-.007.597-.022.733-.045.135-.022.218-.037.248-.045l.045-.011.056-.011.057-.012.004-.006.007-.005.007-.004.004-.007-.045-.012-.045-.01-.045-.012-.045-.011-.045-.012a4.144 4.144 0 0 1-.158-.045 8.65 8.65 0 0 1-.61-.248 4.656 4.656 0 0 1-.788-.417 5.45 5.45 0 0 1-.56-.444 6.382 6.382 0 0 1-.58-.627 4.511 4.511 0 0 1-.563-.891 5.418 5.418 0 0 1-.372-.97 5.235 5.235 0 0 1-.163-.936l-.04-.473.022.004.023.007.022.011.023.011.023.012.022.011.35.158c.233.105.522.195.868.27.346.076.552.117.62.125l.102.01h.203l-.005-.006-.007-.004-.006-.005-.005-.007-.004-.007-.007-.004-.007-.005-.005-.006-.022-.012-.023-.01-.004-.008-.007-.004-.007-.005-.004-.006-.023-.012-.022-.011-.005-.007-.194-.144a2.958 2.958 0 0 1-.388-.368c-.135-.15-.27-.308-.406-.473a3.657 3.657 0 0 1-.36-.53 6.425 6.425 0 0 1-.334-.717 5.09 5.09 0 0 1-.366-1.741c-.007-.286 0-.53.023-.733a4.79 4.79 0 0 1 .135-.688 5.36 5.36 0 0 1 .293-.812l.192-.429.011-.034.012-.033.007-.005.004-.007.005-.006.006-.005.007.005.005.006.004.007.007.005.007.004.004.007.005.007.006.004.012.023.01.022.008.005.004.007.305.338c.203.225.443.477.721.755.279.279.433.423.463.433a.33.33 0 0 1 .112.104c.046.056.196.189.451.4.256.21.59.454 1.004.732.414.278.872.553 1.376.823.503.271 1.045.515 1.624.733.578.218.984.361 1.217.429.233.068.632.154 1.196.26.564.105.988.172 1.274.202.286.03.481.048.586.052l.158.005-.004-.034-.007-.034-.045-.282a5.3 5.3 0 0 1-.045-.79c0-.338.026-.65.079-.935.052-.286.131-.575.236-.868.106-.294.209-.529.31-.706.102-.176.235-.377.4-.603.166-.225.38-.458.644-.699.263-.24.563-.454.902-.642.338-.188.65-.331.936-.429.285-.098.526-.162.721-.192.196-.03.293-.047.293-.051z"/>
    </g>
</svg>
