<svg xmlns="http://www.w3.org/2000/svg" width="46" height="46" viewBox="0 0 46 46">
    <defs>
        <linearGradient id="a" x1="50%" x2="50%" y1="-143.263%" y2="106.267%">
            <stop offset="0%" stop-color="#FFF"/>
            <stop offset="100%" stop-color="#FFF"/>
        </linearGradient>
        <linearGradient id="b" x1="50%" x2="50%" y1="0%" y2="100%">
            <stop offset="0%" stop-color="#202020"/>
            <stop offset="100%" stop-color="#333"/>
        </linearGradient>
    </defs>
    <g fill="none" fill-rule="evenodd">
        <circle cx="23" cy="23" r="23" fill="url(#a)"/>
        <g fill-rule="nonzero">
            <path fill="#FFF" d="M26.578 22.56c-1.986-1.061-3.888-2.037-5.832-3.056v6.095c2.046-1.112 4.202-2.13 5.84-3.039h-.008z"/>
            <path fill="#FFF" d="M26.578 22.56c-1.986-1.061-5.832-3.056-5.832-3.056l5.128 3.446.704-.39z"/>
            <path fill="url(#b)" d="M9.12 15.37c-4.126-.076-5.535-.144-6.401-.322-.586-.12-1.095-.382-1.469-.764-.288-.29-.518-.73-.696-1.342-.152-.51-.212-.933-.297-1.97-.13-2.337-.16-4.248 0-6.383.133-1.18.197-2.58 1.078-3.396a2.89 2.89 0 0 1 1.443-.73c.85-.161 4.466-.289 8.21-.289 3.735 0 7.36.128 8.21.289.678.127 1.315.51 1.689 1.002.803 1.264.818 2.836.9 4.066.033.586.033 3.914 0 4.5-.128 1.943-.23 2.631-.519 3.344-.178.45-.33.688-.594.951-.414.405-.94.675-1.511.773-3.57.268-6.602.326-10.043.271zm5.467-7.81C12.601 6.5 10.7 5.514 8.755 4.495v6.096c2.046-1.112 4.203-2.131 5.84-3.04l-.008.01z" transform="translate(12 15)"/>
        </g>
    </g>
</svg>
