<svg id="Layer_1" data-name="Layer 1" xmlns="http://www.w3.org/2000/svg" xmlns:xlink="http://www.w3.org/1999/xlink" viewBox="0 0 100 100"><defs><style>.cls-1{fill:url(#linear-gradient);}.cls-2{fill:url(#linear-gradient-2);}.cls-3{fill:url(#linear-gradient-3);}.cls-4{fill:url(#linear-gradient-4);}.cls-5{fill:url(#linear-gradient-5);}.cls-6{fill:url(#linear-gradient-6);}.cls-7{fill:url(#linear-gradient-7);}.cls-8{fill:url(#linear-gradient-8);}.cls-9{fill:url(#linear-gradient-9);}.cls-10{fill:url(#linear-gradient-10);}.cls-11{fill:url(#linear-gradient-11);}.cls-12{fill:url(#linear-gradient-12);}</style><linearGradient id="linear-gradient" x1="21.8" y1="73.87" x2="86.59" y2="73.87" gradientUnits="userSpaceOnUse"><stop offset="0" stop-color="#1277bb"/><stop offset="1" stop-color="#2eb8a3"/></linearGradient><linearGradient id="linear-gradient-2" x1="43.79" y1="73.87" x2="64.61" y2="73.87" xlink:href="#linear-gradient"/><linearGradient id="linear-gradient-3" x1="31.98" y1="26.26" x2="92.52" y2="26.26" xlink:href="#linear-gradient"/><linearGradient id="linear-gradient-4" x1="49.16" y1="26.26" x2="75.34" y2="26.26" xlink:href="#linear-gradient"/><linearGradient id="linear-gradient-5" x1="49.62" y1="14.71" x2="85.11" y2="14.71" xlink:href="#linear-gradient"/><linearGradient id="linear-gradient-6" x1="58.48" y1="16.05" x2="75.42" y2="16.05" xlink:href="#linear-gradient"/><linearGradient id="linear-gradient-7" x1="5.02" y1="17.23" x2="24.86" y2="17.23" xlink:href="#linear-gradient"/><linearGradient id="linear-gradient-8" x1="10.04" y1="17.8" x2="14.55" y2="17.8" xlink:href="#linear-gradient"/><linearGradient id="linear-gradient-9" x1="14.84" y1="17.73" x2="19.86" y2="17.73" xlink:href="#linear-gradient"/><linearGradient id="linear-gradient-10" x1="18.02" y1="37.23" x2="37.86" y2="37.23" xlink:href="#linear-gradient"/><linearGradient id="linear-gradient-11" x1="23.04" y1="37.8" x2="27.55" y2="37.8" xlink:href="#linear-gradient"/><linearGradient id="linear-gradient-12" x1="27.84" y1="37.73" x2="32.86" y2="37.73" xlink:href="#linear-gradient"/></defs><title>Artboard 5 copy</title><path class="cls-1" d="M81.32,98.41H27.07a5.28,5.28,0,0,1-5.27-5.27V54.6a5.28,5.28,0,0,1,5.27-5.27H81.32a5.28,5.28,0,0,1,5.27,5.27V93.13A5.28,5.28,0,0,1,81.32,98.41ZM27.07,52.33A2.27,2.27,0,0,0,24.8,54.6V93.13a2.27,2.27,0,0,0,2.27,2.27H81.32a2.27,2.27,0,0,0,2.27-2.27V54.6a2.27,2.27,0,0,0-2.27-2.27Z"/><path class="cls-2" d="M64.61,98.41H43.79V49.33H64.61Zm-17.83-3H61.61V52.33H46.79Z"/><path class="cls-3" d="M84.71,45.91a2.94,2.94,0,0,1-1.23-.27L33.71,22.85a3,3,0,0,1-1.46-3.93L37.09,8.34A3,3,0,0,1,41,6.88L90.79,29.67a3,3,0,0,1,1.46,3.93L87.41,44.18A3,3,0,0,1,84.71,45.91ZM39.77,9.61,35,20.17,84.7,42.9l4.83-10.55Z"/><path class="cls-4" d="M68,38.56,49.16,29.93l7.31-16,18.86,8.63ZM53.14,28.45l13.41,6.14,4.81-10.52L58,17.93Z"/><path class="cls-5" d="M79.74,27.91,49.62,14.12l5.17-11.3a2.23,2.23,0,0,1,1.56-1.24,2.82,2.82,0,0,1,2.42.6L69.31,10.9,82.8,13.18a2.83,2.83,0,0,1,2,1.43,2.23,2.23,0,0,1,.08,2ZM53.59,12.64,78.26,23.93l3.6-7.86L68,13.72,57.2,4.77Z"/><polygon class="cls-6" points="70.88 23.85 58.48 18.18 63.02 8.25 65.75 9.5 62.46 16.7 69.4 19.87 72.69 12.68 75.42 13.93 70.88 23.85"/><path class="cls-7" d="M14.94,27.15a9.92,9.92,0,1,1,9.92-9.92A9.93,9.93,0,0,1,14.94,27.15Zm0-16.84a6.92,6.92,0,1,0,6.92,6.92A6.93,6.93,0,0,0,14.94,10.3Z"/><path class="cls-8" d="M12.51,16.84a2.16,2.16,0,0,1,1.46.5,1.79,1.79,0,0,1,.58,1.43,1.91,1.91,0,0,1-.63,1.53,2.34,2.34,0,0,1-1.58.54,2.77,2.77,0,0,1-1.44-.36A2,2,0,0,1,10,19.43l1.5-.86a.77.77,0,0,0,.8.62.58.58,0,0,0,.37-.11.39.39,0,0,0,.14-.32q0-.42-.51-.42h-2l.25-3.59h3.58V16.4h-2l0,.43Z"/><path class="cls-9" d="M19.2,20a2.21,2.21,0,0,1-1.85.85A2.2,2.2,0,0,1,15.5,20a3.6,3.6,0,0,1-.65-2.26,3.6,3.6,0,0,1,.65-2.26,2.21,2.21,0,0,1,1.85-.85,2.21,2.21,0,0,1,1.85.85,3.61,3.61,0,0,1,.65,2.26A3.61,3.61,0,0,1,19.2,20Zm-2.66-2.26q0,1.46.81,1.46t.81-1.46q0-1.46-.81-1.46T16.54,17.73Z"/><path class="cls-10" d="M27.94,47.15a9.92,9.92,0,1,1,9.92-9.92A9.93,9.93,0,0,1,27.94,47.15Zm0-16.84a6.92,6.92,0,1,0,6.92,6.92A6.93,6.93,0,0,0,27.94,30.3Z"/><path class="cls-11" d="M25.51,36.84a2.16,2.16,0,0,1,1.46.5,1.79,1.79,0,0,1,.58,1.43,1.91,1.91,0,0,1-.63,1.53,2.34,2.34,0,0,1-1.58.54,2.77,2.77,0,0,1-1.44-.36A2,2,0,0,1,23,39.43l1.5-.86a.77.77,0,0,0,.8.62.58.58,0,0,0,.37-.11.39.39,0,0,0,.14-.32q0-.42-.51-.42h-2l.25-3.59h3.58V36.4h-2l0,.43Z"/><path class="cls-12" d="M32.2,40a2.45,2.45,0,0,1-3.71,0,4.25,4.25,0,0,1,0-4.53,2.45,2.45,0,0,1,3.71,0,4.25,4.25,0,0,1,0,4.53Zm-2.66-2.26q0,1.46.81,1.46t.81-1.46q0-1.46-.81-1.46T29.54,37.73Z"/></svg>