<svg xmlns="http://www.w3.org/2000/svg" width="1920" height="1683" viewBox="0 0 1920 1683">
    <defs>
        <linearGradient id="a" x1="109.054%" x2="-21.629%" y1="-8.736%" y2="125.401%">
            <stop offset="0%" stop-color="#299BEE"/>
            <stop offset="100%" stop-color="#1262D8"/>
        </linearGradient>
    </defs>
    <g fill="url(#a)" fill-rule="evenodd" opacity=".04" transform="translate(0 -3608)">
        <path d="M1939.705 3814.695C2045.73 3677.565 1866.199 3609 1401.112 3609s-940.36 68.565-1425.817 205.695v1252.203c-155.326 148.449 6.4 222.673 485.18 222.673 478.779 0 971.856-74.224 1479.23-222.673V3814.695z"/>
        <path stroke="#979797" stroke-width="1.364" d="M-24.705 3814.695C-130.73 3677.565 48.801 3609 513.888 3609s940.36 68.565 1425.817 205.695v1252.203c155.326 148.449-6.4 222.673-485.18 222.673-478.779 0-971.856-74.224-1479.23-222.673V3814.695z"/>
    </g>
</svg>
