<svg xmlns="http://www.w3.org/2000/svg" xmlns:xlink="http://www.w3.org/1999/xlink" width="320" height="547" viewBox="0 0 320 547">
    <defs>
        <path id="a" d="M418.805 698.396c-48.402 13.059-178.54-11.472-390.411-73.592 28.361-252.531 44.492-428.11 48.393-526.736 183.145-166.911 758.067 0 569.316 106.262-2.547 1.434-42.759-11.379-45.454-10.507-121.128 39.199-107.257 169.591-95.422 315.776 7.998 98.79-13.82 169.21-86.422 188.797z"/>
        <path id="b" d="M429.706 697.824c-48.402 13.059-178.539-11.472-390.41-73.592C67.655 371.7 83.787 196.122 87.687 97.496c183.146-166.911 758.067 0 569.316 106.262-2.547 1.434-42.758-11.379-45.453-10.507-121.128 39.199-107.257 169.591-95.422 315.776 7.998 98.79-13.82 169.21-86.423 188.797z"/>
        <path id="c" d="M434.897 697.552c-48.401 13.058-178.538-11.473-390.41-73.593C72.848 371.43 88.979 195.85 92.88 97.224c183.145-166.911 758.067 0 569.316 106.262-2.547 1.434-42.76-11.38-45.454-10.507-121.128 39.198-107.257 169.59-95.422 315.776 7.998 98.79-13.82 169.21-86.423 188.797z"/>
        <linearGradient id="d" x1="110.781%" x2="-23.357%" y1="123.674%" y2="-7.009%">
            <stop offset="0%" stop-color="#A6DAFF"/>
            <stop offset="100%" stop-color="#1262D8"/>
        </linearGradient>
    </defs>
    <g fill="none" fill-rule="evenodd" transform="rotate(3 3117.304 -5345.65)">
        <use fill="#F4FAFE" transform="scale(-1 1) rotate(-5 0 8518.82)" xlink:href="#a"/>
        <use fill="#DBEFFC" transform="scale(-1 1) rotate(-5 0 8767.938)" xlink:href="#b"/>
        <mask id="e" fill="#fff">
            <use xlink:href="#c"/>
        </mask>
        <use fill="#23335F" transform="scale(-1 1) rotate(-10 0 4617.015)" xlink:href="#c"/>
        <path fill="url(#d)" d="M340.435 911.868H52.414c-5.583-286.991-5.583-515.978 0-686.96 174.758-192.909 723.35 0 543.243 122.814C415.55 470.535 449.785 529.274 461.233 700.539c7.632 114.177-32.634 184.62-120.798 211.329z" mask="url(#e)" opacity=".053" transform="scale(1 -1) rotate(89 876.645 0)"/>
    </g>
</svg>
