<svg xmlns="http://www.w3.org/2000/svg" width="95" height="15" viewBox="0 0 95 15">
    <path fill="#FF3259" fill-rule="evenodd" d="M2.582 14H.548V1.436h5.418c1.128 0 2.016.339 2.664 1.017.648.678.972 1.599.972 2.763 0 .9-.207 1.647-.621 2.241-.414.594-1.023 1.011-1.827 1.251L9.872 14H7.604l-2.52-5.076H2.582V14zm3.24-6.786c.516 0 .918-.135 1.206-.405.288-.27.432-.657.432-1.161v-.864c0-.504-.144-.891-.432-1.161-.288-.27-.69-.405-1.206-.405h-3.24v3.996h3.24zm10.844 7.002c-.672 0-1.272-.114-1.8-.342a3.733 3.733 0 0 1-1.35-.981 4.396 4.396 0 0 1-.855-1.548c-.198-.606-.297-1.281-.297-2.025s.1-1.419.297-2.025a4.396 4.396 0 0 1 .855-1.548 3.733 3.733 0 0 1 1.35-.981c.528-.228 1.128-.342 1.8-.342.684 0 1.287.12 1.81.36a3.6 3.6 0 0 1 1.304.999c.348.426.61.921.783 1.485.174.564.261 1.17.261 1.818v.738h-6.426v.306c0 .72.213 1.311.64 1.773.425.462 1.034.693 1.826.693.576 0 1.062-.126 1.458-.378a3.295 3.295 0 0 0 1.008-1.026l1.152 1.134c-.348.576-.852 1.035-1.512 1.377-.66.342-1.428.513-2.304.513zm0-8.262c-.336 0-.645.06-.927.18-.282.12-.522.288-.72.504a2.266 2.266 0 0 0-.459.774c-.108.3-.162.63-.162.99v.126h4.356v-.18c0-.72-.186-1.299-.558-1.737-.372-.438-.882-.657-1.53-.657zM30.93 14c-.516 0-.912-.147-1.188-.441-.276-.294-.444-.669-.504-1.125h-.09c-.18.588-.51 1.032-.99 1.332-.48.3-1.062.45-1.746.45-.972 0-1.719-.252-2.24-.756-.523-.504-.784-1.182-.784-2.034 0-.936.34-1.638 1.017-2.106.678-.468 1.671-.702 2.98-.702h1.691v-.792c0-.576-.156-1.02-.468-1.332-.312-.312-.798-.468-1.458-.468-.552 0-1.002.12-1.35.36-.348.24-.642.546-.882.918l-1.17-1.062a3.75 3.75 0 0 1 1.314-1.305c.564-.342 1.302-.513 2.214-.513 1.212 0 2.142.282 2.79.846.648.564.972 1.374.972 2.43v4.698h.99V14H30.93zm-3.96-1.278c.612 0 1.116-.135 1.512-.405.396-.27.594-.633.594-1.089v-1.35H27.42c-1.356 0-2.034.42-2.034 1.26v.324c0 .42.141.735.423.945.282.21.67.315 1.161.315zm13.94-.27h-.09a2.61 2.61 0 0 1-.998 1.296c-.462.312-1.005.468-1.63.468-1.187 0-2.105-.429-2.753-1.287-.648-.858-.972-2.061-.972-3.609s.324-2.751.972-3.609c.648-.858 1.566-1.287 2.754-1.287.624 0 1.167.153 1.629.459.462.306.795.741.999 1.305h.09V.68h1.962V14H40.91v-1.548zm-2.123.072c.6 0 1.104-.147 1.512-.441.408-.294.612-.681.612-1.161V7.718c0-.48-.204-.867-.612-1.161-.408-.294-.912-.441-1.512-.441-.684 0-1.23.219-1.638.657-.408.438-.612 1.017-.612 1.737v1.62c0 .72.204 1.299.612 1.737.408.438.954.657 1.638.657zm23.038-8.136h-.09l-.99 2.034-2.754 5.022-2.754-5.022-.99-2.034h-.09V14h-1.944V1.436h2.412l3.366 6.39h.108l3.366-6.39h2.304V14h-1.944V4.388zm9.638 9.828a4.47 4.47 0 0 1-1.773-.342 3.715 3.715 0 0 1-1.359-.981 4.508 4.508 0 0 1-.864-1.548c-.204-.606-.306-1.281-.306-2.025s.102-1.419.306-2.025a4.508 4.508 0 0 1 .864-1.548 3.715 3.715 0 0 1 1.36-.981 4.47 4.47 0 0 1 1.772-.342 4.47 4.47 0 0 1 1.773.342c.534.228.987.555 1.36.981.371.426.66.942.863 1.548.204.606.306 1.281.306 2.025s-.102 1.419-.306 2.025a4.508 4.508 0 0 1-.864 1.548 3.715 3.715 0 0 1-1.359.981 4.47 4.47 0 0 1-1.773.342zm0-1.62c.672 0 1.212-.207 1.62-.621.408-.414.612-1.035.612-1.863V8.528c0-.828-.204-1.449-.612-1.863-.408-.414-.948-.621-1.62-.621-.672 0-1.212.207-1.62.621-.408.414-.612 1.035-.612 1.863v1.584c0 .828.204 1.449.612 1.863.408.414.948.621 1.62.621zM79.013 14V4.64h1.962v1.8h.09c.132-.48.408-.9.828-1.26s1.002-.54 1.746-.54h.522v1.89h-.774c-.78 0-1.377.126-1.79.378-.415.252-.622.624-.622 1.116V14h-1.962zm11.546.216c-.672 0-1.272-.114-1.8-.342a3.733 3.733 0 0 1-1.35-.981 4.396 4.396 0 0 1-.855-1.548c-.198-.606-.297-1.281-.297-2.025s.1-1.419.297-2.025a4.396 4.396 0 0 1 .855-1.548 3.733 3.733 0 0 1 1.35-.981c.528-.228 1.128-.342 1.8-.342.684 0 1.287.12 1.81.36a3.6 3.6 0 0 1 1.304.999c.348.426.61.921.783 1.485.174.564.261 1.17.261 1.818v.738h-6.426v.306c0 .72.213 1.311.64 1.773.425.462 1.034.693 1.826.693.576 0 1.062-.126 1.458-.378a3.295 3.295 0 0 0 1.008-1.026l1.152 1.134c-.348.576-.852 1.035-1.512 1.377-.66.342-1.428.513-2.304.513zm0-8.262c-.336 0-.645.06-.927.18-.282.12-.522.288-.72.504a2.266 2.266 0 0 0-.459.774c-.108.3-.162.63-.162.99v.126h4.356v-.18c0-.72-.186-1.299-.558-1.737-.372-.438-.882-.657-1.53-.657z"/>
</svg>
