<?xml version="1.0" encoding="UTF-8"?>
<svg width="17px" height="17px" viewBox="0 0 17 17" version="1.1" xmlns="http://www.w3.org/2000/svg" xmlns:xlink="http://www.w3.org/1999/xlink">
    <!-- Generator: Sketch 50.2 (55047) - http://www.bohemiancoding.com/sketch -->
    <title>Shape</title>
    <desc>Created with Sketch.</desc>
    <defs></defs>
    <g id="Page-1" stroke="none" stroke-width="1" fill="none" fill-rule="evenodd">
        <g id="LP_version1920" transform="translate(-530.000000, -8104.000000)" fill="#39CFBE" fill-rule="nonzero">
            <g id="Group-47" transform="translate(529.000000, 7828.000000)">
                <g id="Group-39" transform="translate(0.000000, 175.000000)">
                    <g id="Group-38">
                        <g id="Group-37" transform="translate(1.000000, 98.000000)">
                            <path d="M16.9999807,11.4816242 C17.0082351,15.3763314 14.3682315,18.7783248 10.5933315,19.7374379 C6.81843145,20.6965511 2.87462451,18.967349 1.02266733,15.5410832 C-0.82928986,12.1148175 -0.115485104,7.86826273 2.75489856,5.23572354 C5.62528223,2.60318435 9.91771929,2.25832228 13.1716035,4.39882684 C11.1736832,6.79048231 9.3535592,9.32520468 7.72582822,11.9826665 C6.70285905,11.12406 5.57089944,10.1803561 5.02008076,9.74214726 C4.25518681,9.13585806 3.14360676,9.2644118 2.53729721,10.0292801 C1.93098766,10.7941484 2.05954568,11.9056911 2.8244396,12.5119804 C3.82457874,13.3061985 6.99152112,15.9838664 7.02452924,16.012138 C7.34354438,16.2812814 7.7474401,16.4289852 8.16482923,16.4291431 L8.34499564,16.4239836 L8.46303326,16.4036281 C8.97814028,16.3161529 9.42790507,16.0046961 9.69097795,15.5532909 C11.4691101,12.5362532 13.4642331,9.65247139 15.6605717,6.92474728 C16.5355491,8.28349715 17.0005605,9.86553791 16.9999807,11.4816242 Z M4.1441285,10.8514517 C4.04524181,10.7727944 3.91190219,10.7528658 3.7943374,10.7991727 C3.67677261,10.8454796 3.59284352,10.9509869 3.57416542,11.0759511 C3.55548732,11.2009152 3.60489786,11.3263511 3.70378455,11.4050084 C4.73226686,12.2219144 7.90465169,14.9050953 7.93638755,14.9318826 C8.01614144,14.9993399 8.12165308,15.0280603 8.22459584,15.0103333 C8.3275386,14.9926063 8.41736522,14.9302482 8.46996002,14.8400001 C8.51342897,14.7661407 12.8116241,7.4284047 16.1793011,4.31959585 C16.2775856,4.2354414 16.322021,4.1043051 16.2951384,3.97774078 C16.2682558,3.85117646 16.1743537,3.74942142 16.050348,3.71247878 C15.9263422,3.67553614 15.792061,3.70931294 15.7002946,3.80053044 C12.6507537,6.61489123 8.99660573,12.577429 8.07379183,14.1221151 C7.2357247,13.4156094 4.98488151,11.5199322 4.1441285,10.8514517 Z" id="Shape"></path>
                        </g>
                    </g>
                </g>
            </g>
        </g>
    </g>
</svg>