<svg xmlns="http://www.w3.org/2000/svg" width="351" height="91" viewBox="0 0 351 91">
    <defs>
        <linearGradient id="a" x1="100%" x2="0%" y1="50%" y2="50%">
            <stop offset="0%" stop-color="#BCCADA"/>
            <stop offset="100%" stop-color="#879AB4"/>
        </linearGradient>
        <linearGradient id="b" x1="100%" x2="0%" y1="50%" y2="50%">
            <stop offset="0%" stop-color="#93A4BC"/>
            <stop offset="100%" stop-color="#5E6F85"/>
        </linearGradient>
    </defs>
    <g fill="none" fill-rule="evenodd">
        <g transform="matrix(-1 0 0 1 122 0)">
            <path fill="url(#a)" d="M7.628 78.535V12.827a33.95 33.95 0 0 1 7.629-.863c18.657 0 33.782 15.096 33.782 33.717 0 18.622-15.125 33.717-33.782 33.717a33.95 33.95 0 0 1-7.629-.863z"/>
            <ellipse cx="15.257" cy="45.681" fill="url(#b)" rx="7.628" ry="7.614"/>
            <g stroke-width="2">
                <path stroke="#93A3BC" d="M14.353 52.684C31.42 66.888 48.467 74.071 65.49 74.234c17.023.163 33.467-6.7 49.333-20.587M14.353 38.316C31.42 24.112 48.467 16.929 65.49 16.766c17.023-.163 33.467 6.7 49.333 20.587"/>
                <path stroke="#92A3BC" d="M65.194 16.82l-.008 57.587"/>
            </g>
            <path fill="url(#a)" d="M0 0a7.628 7.628 0 0 1 7.628 7.628v75.744A7.628 7.628 0 0 1 0 91V0zM7.628 9.305h7.628v72.391H7.628z"/>
        </g>
        <path fill="#20B59F" d="M.744 91a7.628 7.628 0 0 0 7.629-7.628V7.628A7.628 7.628 0 0 0 .744 0v91z"/>
        <g transform="translate(122)">
            <path fill="url(#a)" d="M7.628 78.535V12.827a33.95 33.95 0 0 1 7.629-.863c18.657 0 33.782 15.096 33.782 33.717 0 18.622-15.125 33.717-33.782 33.717a33.95 33.95 0 0 1-7.629-.863z"/>
            <ellipse cx="15.257" cy="45.681" fill="url(#b)" rx="7.628" ry="7.614"/>
            <g stroke-width="2">
                <path stroke="#93A3BC" d="M14.353 52.684C31.42 66.888 48.467 74.071 65.49 74.234c17.023.163 33.467-6.7 49.333-20.587M14.353 38.316C31.42 24.112 48.467 16.929 65.49 16.766c17.023-.163 33.467 6.7 49.333 20.587"/>
                <path stroke="#92A3BC" d="M65.194 16.82l-.008 57.587"/>
            </g>
            <path fill="url(#a)" d="M0 0a7.628 7.628 0 0 1 7.628 7.628v75.744A7.628 7.628 0 0 1 0 91V0zM7.628 9.305h7.628v72.391H7.628z"/>
        </g>
        <path fill="#20B59F" d="M243.256 91a7.628 7.628 0 0 1-7.629-7.628V7.628A7.628 7.628 0 0 1 243.256 0v91z"/>
        <g>
            <g transform="matrix(-1 0 0 1 364 0)">
                <path fill="url(#a)" d="M7.628 78.535V12.827a33.95 33.95 0 0 1 7.629-.863c18.657 0 33.782 15.096 33.782 33.717 0 18.622-15.125 33.717-33.782 33.717a33.95 33.95 0 0 1-7.629-.863z"/>
                <ellipse cx="15.257" cy="45.681" fill="url(#b)" rx="7.628" ry="7.614"/>
                <g stroke-width="2">
                    <path stroke="#93A3BC" d="M14.353 52.684C31.42 66.888 48.467 74.071 65.49 74.234c17.023.163 33.467-6.7 49.333-20.587M14.353 38.316C31.42 24.112 48.467 16.929 65.49 16.766c17.023-.163 33.467 6.7 49.333 20.587"/>
                    <path stroke="#92A3BC" d="M65.194 16.82l-.008 57.587"/>
                </g>
                <path fill="url(#a)" d="M7.628 9.305h7.628v72.391H7.628z"/>
            </g>
            <path fill="#20B59F" d="M242.744 91a7.628 7.628 0 0 0 7.629-7.628V7.628A7.628 7.628 0 0 0 242.744 0v91z"/>
        </g>
    </g>
</svg>
