<svg xmlns="http://www.w3.org/2000/svg" width="60" height="60" viewBox="0 0 60 60">
    <g fill="none" fill-rule="evenodd">
        <circle cx="30" cy="30" r="30" fill="#21B8A2"/>
        <path fill="#FFF" fill-rule="nonzero" d="M43.999 29.97a14 14 0 1 1-6.305-11.666 105.155 105.155 0 0 0-8.97 12.491c-1.684-1.414-3.549-2.969-4.456-3.69a2.91 2.91 0 0 0-3.616 4.562c1.647 1.308 6.863 5.718 6.917 5.765.526.443 1.191.686 1.879.687l.296-.009.195-.033a2.903 2.903 0 0 0 2.022-1.401 119.011 119.011 0 0 1 9.832-14.212 13.854 13.854 0 0 1 2.206 7.506zm-21.174-1.038a.583.583 0 0 0-.725.912c1.694 1.345 6.919 5.764 6.971 5.809a.582.582 0 0 0 .88-.152c.07-.121 7.15-12.207 12.696-17.328a.582.582 0 1 0-.789-.854c-5.022 4.635-11.04 14.456-12.56 17-1.38-1.164-5.088-4.286-6.473-5.387z"/>
    </g>
</svg>
