<?xml version="1.0" encoding="UTF-8"?>
<svg width="213px" height="36px" viewBox="0 0 213 36" version="1.1" xmlns="http://www.w3.org/2000/svg" xmlns:xlink="http://www.w3.org/1999/xlink">
    <!-- Generator: Sketch 50.2 (55047) - http://www.bohemiancoding.com/sketch -->
    <title>Page 1</title>
    <desc>Created with Sketch.</desc>
    <defs></defs>
    <g id="Page-1" stroke="none" stroke-width="1" fill="none" fill-rule="evenodd">
        <g id="LP_version2" transform="translate(-823.000000, -2045.000000)">
            <g id="Group-9-Copy" transform="translate(702.000000, 2041.000000)">
                <g id="Group-8">
                    <g id="Page-1" transform="translate(121.000000, 4.000000)">
                        <path d="M161.870259,9.32450308 C164.626316,9.19493537 167.20639,9.74551401 169.426957,11.4788608 C170.639729,12.4255465 171.537074,13.6360791 172.017087,15.1170212 C172.42587,16.3778665 171.932616,17.3896726 170.708111,17.9023905 C170.296312,18.074867 169.891551,18.2658532 169.474053,18.4230172 C168.402737,18.8261915 167.429804,18.5414791 166.891297,17.5503702 C166.254072,16.37753 165.517794,15.3472143 164.138425,15.0448335 C162.396531,14.6630294 160.640056,14.5913465 158.941068,15.2233677 C157.892881,15.613417 157.631421,16.1402696 157.659411,17.3173166 C157.682037,18.2692186 158.066015,18.8073453 159.072301,19.1580195 C160.698884,19.7245838 162.421671,19.6973241 164.104569,19.8989112 C165.867581,20.1099215 167.596737,20.4496581 169.152256,21.3125455 C171.714397,22.7335836 172.988177,25.675612 172.514197,28.692184 C171.923062,32.4536862 169.682048,34.4221058 166.037865,35.2722046 C162.723691,36.0454042 159.369293,35.9789376 156.192385,34.517683 C153.77874,33.4074392 152.208639,31.4994284 151.396605,28.9775695 C151.108496,28.0832157 151.492306,27.099679 152.329984,26.6657113 C153.065256,26.2850851 153.840586,25.9677283 154.702901,25.9027762 C155.70969,25.8270548 156.431722,26.2627052 156.772626,27.1375397 C157.616169,29.3014888 159.29119,30.0903374 161.43952,30.1665636 C162.753692,30.2133426 164.06602,30.1902896 165.319352,29.7034852 C166.287425,29.3272341 166.785037,28.6274001 166.766601,27.6781904 C166.747327,26.6798459 166.354969,26.1863107 165.260356,25.8391702 C163.381866,25.243327 161.406335,25.2653704 159.483933,24.9458261 C158.353286,24.758037 157.238561,24.5345748 156.172943,24.0916888 C153.896565,23.1455079 152.330151,21.5289404 151.948017,19.0642932 C151.484931,16.0785146 151.902429,13.2795155 154.498091,11.2634755 C156.047744,10.0598419 157.873272,9.56008074 159.778075,9.33745985 C160.466587,9.25702691 161.172361,9.32450308 161.870259,9.32450308" id="Fill-3" fill="#23BCA5"></path>
                        <path d="M186.05609,9.20732548 C188.518157,9.08192754 190.856161,9.51203232 192.979202,10.8386817 C194.560372,11.8266552 195.651519,13.2357765 196.321492,14.9528156 C196.792493,16.159813 196.326374,17.1749955 195.157793,17.7465532 C194.755304,17.9434381 194.34625,18.13238 193.926254,18.287015 C192.619638,18.7684957 191.664169,18.4986029 191.045538,17.2383705 C190.176761,15.4684344 188.746756,14.7964907 186.906855,14.7233137 C185.727668,14.6763318 184.550502,14.6494608 183.410874,15.0435686 C182.409954,15.3896804 181.831387,16.0918751 181.815732,16.9887576 C181.796879,18.0622451 182.26687,18.7303018 183.386971,19.1088616 C184.998778,19.6537173 186.701318,19.6271843 188.36514,19.8345472 C190.470842,20.0970041 192.532946,20.4907739 194.275717,21.7924112 C196.455319,23.4202184 197.048699,25.7441363 196.839627,28.312428 C196.501106,32.4711779 193.519725,34.6478969 189.91399,35.3529645 C187.14892,35.8935952 184.39193,35.8738222 181.684094,35.0073597 C178.802705,34.0852961 176.813827,32.2048341 175.749445,29.3492425 C175.244945,27.9957222 175.734968,26.8291157 177.08148,26.364366 C177.709874,26.1475391 178.325475,25.8894762 179.021708,25.8534792 C179.930212,25.8063282 180.663143,26.1826911 180.943925,26.9421767 C182.051401,29.9375312 184.473236,30.24359 187.122828,30.1447251 C187.991437,30.1122771 188.8555,29.9997232 189.670578,29.6549633 C190.593727,29.2645735 191.090483,28.5170869 191.060183,27.5527734 C191.031734,26.6513278 190.588509,26.1262451 189.530355,25.7955122 C187.669075,25.2138145 185.717905,25.1931965 183.80966,24.9057277 C181.845696,24.6099778 179.970276,24.1416791 178.394156,22.8336197 C176.974587,21.6556903 176.220615,20.1346911 176.071975,18.316928 C175.901452,16.229779 176.056825,14.204484 177.430606,12.4708829 C179.142573,10.3107259 181.516769,9.51068033 184.122258,9.21797247 C184.759237,9.14648551 185.41103,9.20732548 186.05609,9.20732548" id="Fill-5" fill="#24BCA5"></path>
                        <g id="Group-41" transform="translate(202.000000, 3.000000)" fill="#24BCA5" font-family="Panton-BlackCaps, Panton" font-size="7" font-weight="700" letter-spacing="0.194444448">
                            <text id="TM">
                                <tspan x="0.557555552" y="7.5">TM</tspan>
                            </text>
                        </g>
                        <path d="M137.371706,19.7403262 C138.882652,19.7403262 140.393597,19.7401568 141.904543,19.7403262 C142.277784,19.7404957 142.670015,19.7747299 142.622289,19.1988495 C142.53423,18.1386059 142.292405,17.1378484 141.539537,16.3360561 C140.120179,14.8248361 138.280525,14.671799 136.410454,14.8658494 C133.867172,15.129724 132.447478,16.490449 132.195905,18.7002503 C132.090201,19.6296582 132.177588,19.7367672 133.090776,19.7398178 C134.517697,19.7443937 135.944785,19.7410041 137.371706,19.7403262 M139.47167,24.9424007 C137.344481,24.9427397 135.217125,24.9635853 133.09044,24.9305374 C132.424959,24.9201994 132.157926,25.0830661 132.158934,25.81961 C132.162967,28.7124007 133.590728,30.2587023 136.468768,30.4441093 C138.00509,30.542914 139.485954,30.3976728 140.837252,29.5984227 C141.59701,29.1489716 142.173257,28.5022501 142.63254,27.7384205 C143.430782,26.4109127 144.533532,26.0822982 145.920624,26.7324092 C146.199589,26.8632449 146.472503,27.0078082 146.743233,27.1554221 C148.151164,27.9234886 148.498189,29.1742235 147.717929,30.5627427 C145.739801,34.0822567 142.577419,35.6087296 138.74048,35.9249723 C136.469104,36.1122436 134.217726,35.9905596 132.062137,35.0792857 C129.045119,33.8036377 127.094383,31.6189189 126.637957,28.3295537 C126.098178,24.440073 125.979366,20.5048337 126.754416,16.6429777 C127.40679,13.3922531 129.500873,11.1839771 132.607294,10.109328 C135.770012,9.01518914 139.005497,9.03179781 142.162501,10.1344105 C145.951209,11.4578508 148.337196,14.9438085 148.441052,19.0875036 C148.46794,20.1594411 148.466092,21.2332428 148.439371,22.3051803 C148.399039,23.9153745 147.368551,24.9291816 145.76921,24.9388417 C143.670086,24.951383 141.570794,24.9418923 139.47167,24.9424007" id="Fill-1" fill="#23BCA5"></path>
                        <path d="M116.259222,17.5213296 C116.259222,12.582748 116.258207,7.64416653 116.25973,2.70558501 C116.260406,0.635164773 116.861281,0.107998616 118.901582,0.0124718625 C121.588432,-0.113380844 122.185923,0.694131905 122.177803,3.30721823 C122.147861,12.9596323 122.165624,22.6123832 122.166131,32.2649658 C122.1663,32.7703983 122.162071,33.2694287 121.990876,33.7600353 C121.707355,34.5717599 121.136761,34.9889103 120.294149,35.0317036 C119.760095,35.0589969 119.223672,35.039959 118.688434,35.0391166 C116.92032,35.036084 116.262944,34.3807064 116.261083,32.5896219 C116.256346,28.100033 116.259391,23.6102756 116.259222,19.1206867 C116.259222,18.5876238 116.259222,18.0543924 116.259222,17.5213296" id="Fill-13" fill="#26BCA6"></path>
                        <path d="M101.815455,24.4516947 C101.815289,21.481891 101.814124,18.5119173 101.815788,15.5421136 C101.816619,14.1209898 102.274209,13.4860956 103.550671,12.9937043 C106.424956,11.8854418 109.413846,11.638312 112.450142,11.6880777 C113.080721,11.6984384 113.33954,12.0011087 113.388609,12.6105257 C113.511697,14.1406923 113.279326,14.4435324 111.816235,14.4085436 C110.285612,14.3720262 108.775781,14.5119815 107.27593,14.806499 C107.221538,14.8171995 107.167147,14.8277301 107.112921,14.8394497 C104.865557,15.330652 104.710199,15.5271669 104.710365,17.8698894 C104.710698,23.1307817 104.711363,28.3916741 104.710032,33.6525664 C104.709866,34.7545445 104.660464,34.8017624 103.593752,34.8068579 C101.815455,34.8155201 101.815455,34.8155201 101.815621,33.0219183 C101.815621,30.1650639 101.815621,27.3083793 101.815455,24.4516947" id="Fill-21" fill="#303F4D"></path>
                        <path d="M88.7876874,21.7834242 C90.7475316,21.7834242 92.7075441,21.7857824 94.6673883,21.7814029 C95.0547466,21.7803922 95.4882109,21.8393479 95.5233794,21.2469271 C95.7278278,17.8045867 94.4969305,14.7410789 90.4081304,14.1277709 C88.3407615,13.8176638 86.2956042,13.9163725 84.5116024,15.1418094 C82.4974069,16.5252475 82.0731975,18.6264295 82.1154333,20.9142484 C82.1275488,21.5753947 82.3385597,21.8029638 82.9921216,21.7935309 C84.9236964,21.7654006 86.855776,21.7834242 88.7876874,21.7834242 M89.9946903,24.034859 C87.6686899,24.0345222 85.3423529,24.0508613 83.0166891,24.0240786 C82.3690167,24.0164985 82.0875004,24.2211591 82.1373085,24.8934228 C82.2177417,25.978545 82.0885101,27.0619827 82.3294731,28.1558641 C82.7883463,30.2398647 84.0434744,31.5481764 86.0307467,32.0914112 C88.8689619,32.8669317 91.581984,32.6312772 93.9614944,30.6864121 C94.5076998,30.2400331 94.9041446,29.6624355 95.2854452,29.0732151 C95.8471314,28.2052184 96.2972545,28.1984806 97.5607962,29.0135856 C98.2222668,29.4404251 98.2621468,29.822795 97.7679369,30.6380685 C96.1747537,33.2658092 93.7225506,34.5109541 90.7867386,34.8887761 C88.6335518,35.165868 86.4674082,35.1217354 84.3907844,34.39658 C81.4049961,33.3540744 79.6630619,31.1649642 79.3541176,28.0724838 C79.0342358,24.8689983 78.9344515,21.6143055 79.4143584,18.4217689 C80.0134007,14.4353514 82.686711,12.0211987 86.6972654,11.5823997 C88.8226876,11.3499457 90.9570281,11.3437132 93.0082431,12.0868922 C96.0086709,13.1738673 97.7630571,15.3131178 98.2761133,18.4694388 C98.4977252,19.8321582 98.5302014,21.2054897 98.4787107,22.5794949 C98.4376527,23.6732078 98.0516407,24.0306479 96.9726915,24.033343 C94.6466911,24.0392386 92.3206907,24.0351959 89.9946903,24.034859" id="Fill-15" fill="#303F4D"></path>
                        <path d="M72.499017,23.3831974 C72.499017,21.046 72.4821478,18.7086336 72.5111628,16.3717742 C72.5182479,15.8052218 72.3450011,15.4845924 71.8033307,15.3072913 C69.5934641,14.5843962 67.3431113,14.1674259 65.0100994,14.3753195 C62.0863278,14.6359471 60.2065916,16.4334662 60.0954235,19.2875243 C59.9891474,22.014311 59.9979194,24.7509007 60.0930618,27.4785325 C60.1731905,29.7805739 61.3606143,31.4577514 63.5905553,32.1285885 C66.3776864,32.9670928 69.1484543,32.5781796 71.8561314,31.6260945 C72.4457103,31.4187079 72.505596,30.9359891 72.5030656,30.3947896 C72.4917633,28.0575922 72.4981736,25.7203948 72.499017,23.3831974 M75.5315951,17.5097804 C75.5314264,22.0732987 75.5327759,26.6366479 75.5307516,31.2001661 C75.5300769,32.8814 75.2534218,33.3533016 73.7107324,33.9431786 C69.9630685,35.3762924 66.1114902,35.725317 62.2243179,34.6780741 C59.5967696,33.9703907 58.0356928,32.1346732 57.3541767,29.4868185 C56.951846,27.923391 57.1075488,26.3523576 57.0798833,24.7825073 C57.0496874,23.0647652 57.0704365,21.3460091 57.073473,19.6275909 C57.082245,14.7982055 60.1193778,11.7159715 64.9274403,11.6194615 C67.2208096,11.5734883 69.4736927,11.782058 71.6557252,12.5254044 C72.2596429,12.7311007 72.5168984,12.6247877 72.5088012,11.9108506 C72.4780992,9.23510773 72.4953058,6.55885782 72.4966553,3.8826079 C72.4973301,2.42735264 72.529719,2.39574605 73.9352616,2.39490095 C74.1321253,2.39473193 74.3301699,2.40994366 74.5253467,2.39185861 C75.2672546,2.32357485 75.5346316,2.71029077 75.5324386,3.39667772 C75.526703,5.19943644 75.5314264,7.00236418 75.5314264,8.80529192 C75.5315951,11.7066754 75.5315951,14.6082279 75.5315951,17.5097804" id="Fill-8" fill="#303F4D"></path>
                        <path d="M44.2792682,24.436829 C44.2792682,21.4095284 44.2762501,18.3822278 44.2807773,15.3549271 C44.2826216,14.1053251 44.7658525,13.4451195 45.9093759,13.0087182 C48.8340796,11.8924138 51.8756506,11.6310825 54.9665173,11.6898353 C55.5917664,11.7017217 55.8592033,11.9577891 55.8717787,12.6135797 C55.9059838,14.403844 55.9095049,14.4428993 54.1620268,14.4147115 C52.1925508,14.3829578 50.2668373,14.6071017 48.3778439,15.1937813 C47.4960566,15.4675085 47.1385798,15.9937372 47.1427716,16.9341226 C47.16809,22.4793059 47.1561853,28.0246591 47.1551793,33.5698425 C47.1550116,34.7751252 47.1226509,34.8084072 45.9303349,34.8055205 C44.1426155,34.8011055 44.2807773,34.9732888 44.2797712,33.094216 C44.2780945,30.2085336 44.2792682,27.3226813 44.2792682,24.436829" id="Fill-19" fill="#303F4D"></path>
                        <path d="M37.5843499,23.3819887 C37.5821574,23.3819887 37.5799649,23.3819887 37.5777724,23.3819887 C37.5777724,22.0843462 37.6143702,20.7853486 37.5683278,19.4892306 C37.5140214,17.96597 37.0303229,16.5997274 35.748893,15.6699846 C33.1659635,13.7961014 30.3374744,13.8216782 27.4963362,14.8494938 C25.7249677,15.4902693 24.5470911,16.8302576 24.4072773,18.8011972 C24.1959544,21.7835222 24.2453699,24.7758407 24.3792808,27.7593514 C24.4652941,29.6769354 25.5708183,30.9705127 27.2856879,31.7657655 C29.1206388,32.6167452 31.050879,32.7154955 32.9693134,32.2922076 C36.2521553,31.5680956 37.5814828,29.803295 37.5841813,26.4288486 C37.5850245,25.4132286 37.5843499,24.3976087 37.5843499,23.3819887 M40.473217,23.3423531 C40.4735543,24.6962308 40.4774334,26.0502778 40.4727111,27.4043248 C40.4615799,30.5245275 39.0828369,32.8797969 36.2690207,34.1423771 C33.0135007,35.6031354 29.5857854,35.6298979 26.2488057,34.4120347 C22.8779267,33.1818066 21.3618997,30.5399413 21.3457089,27.0145747 C21.3335659,24.3650872 21.2424929,21.7137364 21.4097973,19.0650958 C21.6320827,15.547182 23.4130645,13.1194167 26.777872,12.1197187 C30.1298618,11.1237472 33.4953439,11.1323857 36.6815473,12.794879 C39.1646339,14.0904889 40.366628,16.2513068 40.4641097,19.0268152 C40.5147058,20.4636905 40.4730484,21.903784 40.473217,23.3423531" id="Fill-17" fill="#303F4D"></path>
                        <path d="M15.5031557,23.2049168 C15.4301201,21.5166839 15.5783738,19.8915167 15.2405636,18.2653351 C14.8763934,16.5118385 13.6037287,15.0001219 11.889325,14.5442906 C9.02935509,13.7837827 6.3021923,14.3816386 3.59433776,15.3078419 C3.08023491,15.4836819 2.90494969,15.7555575 2.90662866,16.2889951 C2.92207526,20.9375955 2.91938889,25.5861959 2.91216929,30.2347962 C2.9111619,30.8717089 3.14470764,31.2758027 3.76038861,31.5240076 C5.97428804,32.4163955 8.27918804,32.6372099 10.6023889,32.3132586 C13.3223321,31.9336809 14.6994292,30.449862 15.2746468,27.7703313 C15.6057412,26.2276736 15.4067824,24.6836633 15.5031557,23.2049168 M0.00821019886,17.4353365 C0.00821019886,12.7612056 0.00703491477,8.0872437 0.0090496875,3.41311273 C0.00938548295,2.33812179 0.0778877557,2.27235087 1.16519344,2.26863118 C3.09786418,2.26203718 2.91535935,2.13911827 2.91653463,4.05374511 C2.91838151,6.64417233 2.93819344,9.23476863 2.90360651,11.8248577 C2.89336474,12.5946648 3.09786418,12.7373657 3.81663435,12.4842576 C6.19305878,11.647496 8.64957043,11.3282788 11.1608167,11.5446973 C16.1404954,11.9736454 18.1334414,14.9404378 18.3559059,19.3472582 C18.482165,21.846722 18.473938,24.3625863 18.3545628,26.8627265 C18.1985858,30.1301376 17.1010383,32.9315728 13.8325733,34.3022792 C12.2133676,34.9812921 10.4821741,35.1605136 8.73855622,35.1243311 C6.23889486,35.0725936 3.78977071,34.7565889 1.45935026,33.7466925 C0.421406506,33.2967789 -0.00471792614,32.5711008 -1.67897727e-05,31.4573913 C0.0199630398,26.7834294 0.00837809659,22.1094675 0.00821019886,17.4353365" id="Fill-10" fill="#303F4D"></path>
                    </g>
                </g>
            </g>
        </g>
    </g>
</svg>