<svg xmlns="http://www.w3.org/2000/svg" width="152" height="151" viewBox="0 0 152 151">
    <defs>
        <linearGradient id="a" x1="127.491%" x2="-61.419%" y1="-44.896%" y2="174.462%">
            <stop offset="0%" stop-color="#0062FF"/>
            <stop offset="42.456%" stop-color="#05A4E9"/>
            <stop offset="100%" stop-color="#09D9D7"/>
        </linearGradient>
        <linearGradient id="b" x1="90.581%" x2="-15.619%" y1="38.349%" y2="64.388%">
            <stop offset="0%" stop-color="#FF5439"/>
            <stop offset="100%" stop-color="#FF3259"/>
        </linearGradient>
        <linearGradient id="c" x1="50%" x2="50%" y1="82.363%" y2="13.322%">
            <stop offset="0%" stop-color="#FF5439"/>
            <stop offset="100%" stop-color="#FF3259"/>
        </linearGradient>
        <linearGradient id="d" x1="36.527%" x2="71.51%" y1="-64.944%" y2="129.497%">
            <stop offset="0%" stop-color="#FF5439"/>
            <stop offset="100%" stop-color="#FF3259"/>
        </linearGradient>
    </defs>
    <g fill="none" fill-rule="evenodd" transform="translate(0 1)">
        <g fill="url(#a)" opacity=".39" transform="translate(22.337 15.93)">
            <path d="M55.703 51.877l50.296-24.84v57.15L55.703 112.02z"/>
            <path d="M0 23.742l55.372 28.073.574 60.892L0 83.077z"/>
            <path d="M54.96 1.11l51.44 25.22L56.03 51.547.273 24.388z"/>
        </g>
        <path fill="url(#b)" d="M55.703 50.877l50.296-24.84v57.15L55.703 111.02z" transform="translate(22.337 16.93)"/>
        <path fill="url(#c)" d="M0 22.742l55.372 28.073.574 60.892L0 82.077z" transform="translate(22.337 16.93)"/>
        <path fill="url(#d)" d="M54.96.11l51.44 25.22L56.03 50.547.273 23.388z" transform="translate(22.337 16.93)"/>
        <g stroke="#FF3259">
            <path d="M8 104.755l69.399 37.942 66.812-37.942V32.9L77.399 0 8 31.188z"/>
            <path d="M77.666 142.956V67.71L18.57 37.386 8.052 31.988M77.957 67.717l66.268-33.745"/>
        </g>
        <circle cx="6" cy="70" r="6" fill="#FF3259"/>
        <circle cx="146" cy="69" r="6" fill="#FF3259"/>
        <circle cx="78" cy="144" r="6" fill="#FF3259"/>
    </g>
</svg>
