<svg id="Layer_1" data-name="Layer 1" xmlns="http://www.w3.org/2000/svg" xmlns:xlink="http://www.w3.org/1999/xlink" viewBox="0 0 100 100"><defs><style>.cls-1{fill:url(#linear-gradient);}.cls-2{fill:url(#linear-gradient-2);}.cls-3{fill:url(#linear-gradient-3);}.cls-4{fill:url(#linear-gradient-4);}.cls-5{fill:url(#linear-gradient-5);}.cls-6{fill:url(#linear-gradient-6);}.cls-7{fill:url(#linear-gradient-7);}.cls-8{fill:url(#linear-gradient-8);}.cls-9{fill:url(#linear-gradient-9);}.cls-10{fill:url(#linear-gradient-10);}</style><linearGradient id="linear-gradient" x1="84.81" y1="59.89" x2="97.67" y2="59.89" gradientUnits="userSpaceOnUse"><stop offset="0" stop-color="#1277bb"/><stop offset="1" stop-color="#2eb8a3"/></linearGradient><linearGradient id="linear-gradient-2" x1="2.11" y1="60.5" x2="11.66" y2="60.5" xlink:href="#linear-gradient"/><linearGradient id="linear-gradient-3" x1="9.09" y1="60.86" x2="87.23" y2="60.86" xlink:href="#linear-gradient"/><linearGradient id="linear-gradient-4" x1="22.51" y1="49.23" x2="35.17" y2="49.23" xlink:href="#linear-gradient"/><linearGradient id="linear-gradient-5" x1="25.73" y1="92.11" x2="39.46" y2="92.11" xlink:href="#linear-gradient"/><linearGradient id="linear-gradient-6" x1="55.78" y1="92.11" x2="69.52" y2="92.11" xlink:href="#linear-gradient"/><linearGradient id="linear-gradient-7" x1="24.65" y1="29.73" x2="36.52" y2="29.73" xlink:href="#linear-gradient"/><linearGradient id="linear-gradient-8" x1="37.49" y1="30.45" x2="62.05" y2="30.45" xlink:href="#linear-gradient"/><linearGradient id="linear-gradient-9" x1="38.07" y1="11.66" x2="60.39" y2="11.66" xlink:href="#linear-gradient"/><linearGradient id="linear-gradient-10" x1="45.83" y1="12.39" x2="52.55" y2="12.39" xlink:href="#linear-gradient"/></defs><title>Artboard 6 copy</title><path class="cls-1" d="M94.1,65a3.65,3.65,0,0,1-2-.53c-2-1.24-2-4.11-2-5.05,0-.55-.08-1.26-.47-1.5-.69-.43-2.48,0-3.51.56L84.81,55.8c.4-.2,4-1.93,6.43-.43.86.53,1.89,1.67,1.89,4.05,0,2,.48,2.44.58,2.5.28.17,1.14.12,2.62-.62L97.67,64A8.22,8.22,0,0,1,94.1,65Z"/><path class="cls-2" d="M11.66,70.48H5.77c-2.09,0-3.66-2.26-3.66-5.25V55.78c0-3,1.58-5.25,3.66-5.25h5.89v3H5.77a3.34,3.34,0,0,0-.66,2.25v9.44a3,3,0,0,0,.73,2.26h5.82Z"/><path class="cls-3" d="M48.16,91.52c-21.54,0-39.07-13.92-39.07-31C9.09,46,22,33.29,39.75,30.2l.51,3C23.94,36,12.09,47.49,12.09,60.5c0,15.45,16.18,28,36.07,28S84.23,76,84.23,60.5c0-12.12-10-22.82-24.78-26.62L60.2,31c16.17,4.15,27,16,27,29.52C87.23,77.61,69.7,91.52,48.16,91.52Z"/><path class="cls-4" d="M28.84,55.56a6.33,6.33,0,1,1,6.33-6.33A6.34,6.34,0,0,1,28.84,55.56Zm0-9.66a3.33,3.33,0,1,0,3.33,3.33A3.33,3.33,0,0,0,28.84,45.9Z"/><path class="cls-5" d="M36.33,98.5H28.85a3.13,3.13,0,0,1-3.13-3.12V85.73h3v9.65a.13.13,0,0,0,.13.13h7.48a.13.13,0,0,0,.13-.12V88.95h3v6.43A3.13,3.13,0,0,1,36.33,98.5Z"/><path class="cls-6" d="M66.39,98.5H58.91a3.13,3.13,0,0,1-3.12-3.12V88.95h3v6.43a.12.12,0,0,0,.13.13h7.48a.12.12,0,0,0,.13-.12V85.73h3v9.65A3.13,3.13,0,0,1,66.39,98.5Z"/><path class="cls-7" d="M27.65,37.42h-3V24.51A2.47,2.47,0,0,1,29,22.91l7.51,8.86-2.29,1.94-6.58-7.76Z"/><path class="cls-8" d="M62,37.31H37.49l.07-1.57a12.21,12.21,0,0,1,24.41,0Zm-21.3-3h18a9.13,9.13,0,0,0-18,0Z"/><path class="cls-9" d="M49.23,22.82A11.16,11.16,0,1,1,60.39,11.66,11.17,11.17,0,0,1,49.23,22.82Zm0-19.32a8.16,8.16,0,1,0,8.16,8.16A8.17,8.17,0,0,0,49.23,3.5Z"/><path class="cls-10" d="M48.39,18.54V17.11a6.08,6.08,0,0,1-2.56-.65l.45-1.76a5.33,5.33,0,0,0,2.5.66c.86,0,1.45-.33,1.45-.93s-.48-.94-1.6-1.31c-1.61-.54-2.71-1.3-2.71-2.76a2.79,2.79,0,0,1,2.55-2.68V6.24h1.48V7.57a5.42,5.42,0,0,1,2.19.5l-.44,1.7a5,5,0,0,0-2.17-.51c-1,0-1.3.42-1.3.84s.53.81,1.81,1.3c1.79.63,2.52,1.46,2.52,2.82A2.89,2.89,0,0,1,49.87,17v1.54Z"/></svg>