<svg xmlns="http://www.w3.org/2000/svg" width="20" height="20" viewBox="0 0 20 20">
    <g fill="none" fill-rule="nonzero">
        <path fill="#FFF" d="M18.889 19.992c.609 0 1.103-.494 1.103-1.103V1.103c0-.61-.494-1.103-1.103-1.103H1.103C.493 0 0 .494 0 1.103V18.89c0 .61.494 1.103 1.103 1.103H18.89z"/>
        <path fill="#FF3259" d="M13.794 19.992V12.25h2.599l.389-3.017h-2.988V7.307c0-.874.243-1.47 1.495-1.47h1.598V3.138a21.38 21.38 0 0 0-2.328-.119c-2.304 0-3.88 1.407-3.88 3.989v2.225H8.072v3.017h2.605v7.742h3.116z"/>
    </g>
</svg>
