<svg xmlns="http://www.w3.org/2000/svg" width="20" height="20" viewBox="0 0 20 20">
    <g fill="none" fill-rule="nonzero">
        <path fill="#FFF" d="M18.889 19.992c.609 0 1.103-.494 1.103-1.103V1.103c0-.61-.494-1.103-1.103-1.103H1.103C.493 0 0 .494 0 1.103V18.89c0 .61.494 1.103 1.103 1.103H18.89z"/>
        <path fill="#FF3259" d="M6.148 16.084V7.256H3.175v8.828h2.973zM4.662 6.05c1.036 0 1.682-.678 1.682-1.526C6.324 3.66 5.698 3 4.682 3 3.664 3 3 3.659 3 4.525c0 .848.645 1.526 1.643 1.526h.019zm3.131 10.033h2.972v-4.93c0-.263.02-.527.098-.716.215-.527.704-1.073 1.525-1.073 1.076 0 1.506.81 1.506 1.997v4.722h2.972v-5.062c0-2.711-1.466-3.973-3.422-3.973-1.603 0-2.307.884-2.698 1.487h.02v-1.28H7.792c.039.828 0 8.828 0 8.828z"/>
    </g>
</svg>
