<svg xmlns="http://www.w3.org/2000/svg" width="20" height="20" viewBox="0 0 20 20">
    <g fill="none" fill-rule="nonzero">
        <path fill="#FFF" d="M19.992 18.889V1.103c0-.61-.494-1.103-1.103-1.103H1.103C.493 0 0 .494 0 1.103V18.89c0 .61.494 1.103 1.103 1.103H18.89c.609 0 1.103-.494 1.103-1.103z"/>
        <path fill="#FF3259" d="M11.686 4.002V4h.61l.222.046c.149.03.284.07.405.119.121.049.238.106.352.17.113.066.216.132.308.2.091.066.173.137.246.212.072.076.184.095.336.059.153-.037.317-.088.493-.153s.35-.138.521-.22c.172-.081.277-.133.315-.155a4.47 4.47 0 0 0 .058-.036l.003-.004.011-.006.012-.006.012-.006.011-.006.003-.004.003-.002.004-.003.002-.004.012-.003.012-.003-.003.019-.003.018-.006.018-.006.019-.006.012-.006.012-.006.018a.44.44 0 0 0-.011.05c-.004.02-.041.1-.112.243-.07.143-.158.287-.263.434-.106.146-.2.257-.284.332-.084.076-.14.128-.168.159a.508.508 0 0 1-.1.085l-.058.04-.012.006-.011.006-.003.004-.003.003-.004.002-.002.004-.012.006-.012.006-.002.004-.003.002-.004.002-.002.004-.003.004-.003.002-.004.003-.002.003h.059l.328-.073a5.69 5.69 0 0 0 .627-.177l.316-.11.036-.012.017-.006.012-.006.012-.006.011-.006.012-.007.024-.003.023-.003v.025l-.006.002-.006.004-.002.004-.004.002-.003.002-.002.004-.003.004-.003.002-.004.003-.002.003-.002.004-.004.002-.006.013-.006.012-.003.002a53.59 53.59 0 0 1-.15.208c-.097.137-.15.206-.157.207a3.446 3.446 0 0 1-.281.309c-.153.159-.302.3-.449.424a.587.587 0 0 0-.222.459c-.003.18-.012.385-.027.613a8.067 8.067 0 0 1-.088.738 9.117 9.117 0 0 1-.528 1.874 7.743 7.743 0 0 1-.404.855 8.224 8.224 0 0 1-.744 1.135 7.187 7.187 0 0 1-.46.523 47.59 47.59 0 0 0-.305.317 7.82 7.82 0 0 1-.23.2 8.112 8.112 0 0 1-.433.35 5.001 5.001 0 0 1-.425.29c-.128.076-.284.165-.466.264-.181.1-.378.193-.589.278a8.66 8.66 0 0 1-.668.238c-.234.074-.46.13-.68.171-.218.041-.467.076-.744.104l-.416.043V15h-.762v-.006l-.1-.006a5.134 5.134 0 0 1-.164-.012 18.83 18.83 0 0 1-.486-.068 6.768 6.768 0 0 1-.663-.122 8.531 8.531 0 0 1-.715-.232 6.803 6.803 0 0 1-.812-.345 31.962 31.962 0 0 1-.422-.22 2.966 2.966 0 0 1-.19-.112l-.105-.067-.003-.004-.003-.002-.004-.003-.002-.004-.012-.006-.012-.006-.002-.003-.003-.003-.004-.002-.002-.004-.003-.004-.003-.002H3v-.024l.012.002.011.004.053.006c.035.004.131.01.287.018a5.079 5.079 0 0 0 1.688-.201c.25-.07.48-.152.69-.247.208-.096.357-.168.445-.215a4.31 4.31 0 0 0 .401-.259l.27-.189.002-.004.003-.002.004-.003.002-.003.003-.004.003-.002.004-.003.002-.003.012-.004.012-.002.002-.013.003-.012.004-.002.002-.004-.094-.006a1.7 1.7 0 0 1-.457-.067 2.574 2.574 0 0 1-.404-.147 3.077 3.077 0 0 1-.719-.455 5.26 5.26 0 0 1-.234-.25 2.46 2.46 0 0 1-.249-.332 3.038 3.038 0 0 1-.201-.395l-.098-.222-.005-.018-.006-.019-.004-.012-.002-.012.017.002.018.004.129.018c.086.013.22.017.404.013.184-.005.311-.013.381-.025.07-.012.114-.02.13-.024l.023-.006.029-.006.03-.007.002-.003.003-.003.004-.002.002-.004-.023-.006-.024-.006-.023-.006-.024-.006-.023-.006a2.088 2.088 0 0 1-.082-.025 4.393 4.393 0 0 1-.317-.134 2.39 2.39 0 0 1-.41-.226 2.855 2.855 0 0 1-.29-.24 3.405 3.405 0 0 1-.302-.34c-.11-.138-.207-.299-.293-.482a3.009 3.009 0 0 1-.193-.525 2.941 2.941 0 0 1-.085-.507l-.02-.256.01.002.013.004.011.006.012.006.012.006.011.006.182.086c.121.057.272.106.451.146.18.041.288.064.323.068l.053.006h.105l-.002-.004-.004-.002-.003-.003-.003-.004-.002-.003-.004-.003-.003-.002-.002-.004-.012-.006-.012-.006-.002-.004-.004-.002-.003-.002-.003-.004-.011-.006-.012-.006-.002-.004a1.565 1.565 0 0 1-.302-.277 7.112 7.112 0 0 1-.212-.257 1.986 1.986 0 0 1-.187-.286 3.546 3.546 0 0 1-.174-.389 2.842 2.842 0 0 1-.19-.942c-.004-.155 0-.287.012-.397a2.981 2.981 0 0 1 .223-.812l.1-.232.005-.018.006-.018.004-.003.002-.004.002-.003.004-.003.003.003.003.003.002.004.003.003.004.002.002.004.003.003.003.003.006.012.006.012.003.003.003.003.158.183c.106.123.23.259.375.41.145.15.225.228.24.234a.174.174 0 0 1 .06.056c.023.03.1.102.234.216.132.114.306.246.521.397.215.15.453.299.715.445.262.147.543.28.844.397.301.118.512.196.633.232.121.037.328.084.621.14.294.058.514.094.663.11.148.017.25.026.305.029l.082.002-.003-.018-.003-.019-.024-.152a2.986 2.986 0 0 1-.023-.428A2.915 2.915 0 0 1 9.66 5.42c.053-.096.122-.204.208-.326a2.596 2.596 0 0 1 .803-.727c.176-.101.338-.179.487-.232.148-.053.273-.087.375-.103.101-.017.152-.026.152-.029z"/>
    </g>
</svg>
